<svg xmlns="http://www.w3.org/2000/svg" viewBox="0 0 500 500">
    <path fill="#4285f4"
          d="M44.271 27.275l206.5 1v170l-58.5-36.5c-7.005-.916-12.505 1.584-16.5 7.5v147c4.625 4.412 10.125 6.245 16.5 5.5l57.5-35.5c.833 54.003 1.356 108.003.189 162-1.272.546-45.599-.242-48.689 1.121-3.674 7.844-4.79 11.207-13 23.879-4.372 5.527-2.19 4.097-10.689 12.258-5.166 2.748-4.191 3.45-14.311 6.242-17.67 1.983-35.336 1.983-53 0-9.535-3.774-10.879-4.163-18.526-11.22-5.562-4.39-11.131-11.803-11.974-15.28-4.068-7.881-3.42-9.116-5.5-13.5-3.672-1.503-35.798.203-40.746-1.335-5.823-2.314-2.946-.422-7.954-3.689-2.888-2.668-2.255-3.221-2.421-9.904L20.771 50.275c.36-2.108-.41-5.806 2.522-11.615 4.343-5.852 5.374-7 10.061-9.146 6.083-2.73 8.677-1.475 10.917-2.239z"/>
    <path d="M258.271 30.275l154.63.407c5.654.559 10.783 3.17 14.37 7.093 4.907 4.408 6.204 8.723 7.5 13.5v373c-.208 5.716-.297 7.982-4.848 15.404-7.078 6.393-9.879 6.39-15.652 6.692-24.804 1.296-50.079 1.189-74.96 1.041-24.516-.014-68.46.89-81.5.391l-2.512-172.528c-20.083 12.625-42.777 25.125-63.028 37.5-4.127 1.292-7.294.125-9.5-3.5l1-137c1.864-2.707 4.364-3.541 7.5-2.5 20.366 13.427 64.35 38.947 65.581 38.339l1.419-177.839z"
          fill="#DDD"/>
</svg>