<?xml version="1.0" encoding="utf-8"?>
<svg viewBox="0 0 1536 512" width="96px" height="32px" xmlns="http://www.w3.org/2000/svg">
  <defs>
    <path id="path-2" d="M 82.97724,29.300104 C 82.790583,28.201973 82.006921,27.299698 80.945743,26.961124 79.884564,26.62255 78.723152,26.904241 77.935,27.691354 L 62.465677,43.197917 50.303229,20.042344 C 49.78815,19.063276 48.772957,18.45025 47.666667,18.45025 c -1.106291,0 -2.121484,0.613026 -2.636563,1.592094 L 38.379115,32.703802 21.695781,1.5864062 C 21.090714,0.45617231 19.83044,-0.16023716 18.566804,0.05600004 17.303168,0.27223724 16.319565,1.2726256 16.12474,2.5397396 L 0,105.76042 43.123438,129.93635 c 2.707936,1.51195 6.006125,1.51195 8.714062,0 l 43.495833,-24.17593 z"/>
    <path id="path-4" d="m 106.68711,35.274174 c -0.186,-1.097652 -0.96693,-1.999535 -2.02439,-2.337961 -1.05747,-0.338426 -2.21482,-0.05686 -3.00022,0.729912 L 86.247266,49.165925 74.127344,26.020451 C 73.614066,25.04181 72.602423,24.429052 71.5,24.429052 c -1.102423,0 -2.114066,0.612758 -2.627344,1.591399 L 62.244922,38.676387 45.619922,7.5725628 C 45.01697,6.4428218 43.761103,5.8266812 42.501885,6.0428241 41.242667,6.258967 40.262504,7.2589191 40.068359,8.5254804 L 24,111.70114 66.972656,135.86653 c 2.698469,1.51129 5.985125,1.51129 8.683594,0 L 119,111.70114 Z"/>
    <path id="path-1" d="M 82.97724,29.300104 C 82.790583,28.201973 82.006921,27.299698 80.945743,26.961124 79.884564,26.62255 78.723152,26.904241 77.935,27.691354 L 62.465677,43.197917 50.303229,20.042344 C 49.78815,19.063276 48.772957,18.45025 47.666667,18.45025 c -1.106291,0 -2.121484,0.613026 -2.636563,1.592094 L 38.379115,32.703802 21.695781,1.5864062 C 21.090714,0.45617231 19.83044,-0.16023716 18.566804,0.05600004 17.303168,0.27223724 16.319565,1.2726256 16.12474,2.5397396 L 0,105.76042 43.123438,129.93635 c 2.707936,1.51195 6.006125,1.51195 8.714062,0 l 43.495833,-24.17593 z"/>
    <path id="path-3" d="m 106.68711,35.274174 c -0.186,-1.097652 -0.96693,-1.999535 -2.02439,-2.337961 -1.05747,-0.338426 -2.21482,-0.05686 -3.00022,0.729912 L 86.247266,49.165925 74.127344,26.020451 C 73.614066,25.04181 72.602423,24.429052 71.5,24.429052 c -1.102423,0 -2.114066,0.612758 -2.627344,1.591399 L 62.244922,38.676387 45.619922,7.5725628 C 45.01697,6.4428218 43.761103,5.8266812 42.501885,6.0428241 41.242667,6.258967 40.262504,7.2589191 40.068359,8.5254804 L 24,111.70114 66.972656,135.86653 c 2.698469,1.51129 5.985125,1.51129 8.683594,0 L 119,111.70114 Z"/>
  </defs>
  <path class="blocklyPath" fill="#5b80a5" d="M 125.927 91.541 L 1148.095 91.541 L 1148.095 420.459 L 125.927 420.459 L 125.927 344.559 C 125.927 218.048 24.719 445.762 24.719 249.678 C 24.719 53.584 125.927 281.303 125.927 154.797 L 125.927 91.541 Z" style="stroke-width: 5px;">
    <title>Brick</title>
  </path>
  <path d="M 1494.567 91.523 C 1495.672 91.523 1496.567 92.418 1496.567 93.523 L 1496.567 418.433 C 1496.567 419.538 1495.672 420.433 1494.567 420.433 L 1089.542 420.433 C 1088.437 420.433 1087.542 419.538 1087.542 418.433 L 1087.542 392.145 L 1168.093 91.523 Z" fill="#f7df1e" style="stroke-width: 5px;">
    <title>JS-Rect</title>
  </path>
  <path d="M 1355.681 296.404 C 1364.385 310.617 1375.71 321.064 1395.739 321.064 C 1412.565 321.064 1423.314 312.654 1423.314 301.034 C 1423.314 287.11 1412.27 282.178 1393.75 274.077 L 1383.598 269.721 C 1354.295 257.237 1334.828 241.598 1334.828 208.536 C 1334.828 178.08 1358.033 154.896 1394.299 154.896 C 1420.117 154.896 1438.679 163.881 1452.054 187.409 L 1420.433 207.713 C 1413.471 195.229 1405.96 190.311 1394.299 190.311 C 1382.405 190.311 1374.866 197.856 1374.866 207.713 C 1374.866 219.895 1382.411 224.827 1399.834 232.372 L 1409.986 236.721 C 1444.489 251.517 1463.969 266.6 1463.969 300.513 C 1463.969 337.073 1435.249 357.103 1396.679 357.103 C 1358.966 357.103 1334.602 339.131 1322.68 315.576 L 1355.681 296.404 Z M 1212.231 299.923 C 1218.61 311.241 1224.413 320.81 1238.365 320.81 C 1251.706 320.81 1260.123 315.59 1260.123 295.293 L 1260.123 157.214 L 1300.73 157.214 L 1300.73 295.842 C 1300.73 337.89 1276.078 357.027 1240.094 357.027 C 1207.58 357.027 1188.751 340.201 1179.176 319.935 L 1212.231 299.923 Z" style="">
    <title>JS</title>
  </path>
  <path class="blocklyPath" d="M 1168.088 91.541 L 1168.093 91.523 L 1184.595 91.523 L 1096.457 420.459 L 1051.626 420.459 L 1139.759 91.541 Z" style="stroke-width: 5px;">
    <title>Slash</title>
  </path>
  <path d="M 301.727 331.831 L 229.969 331.831 L 229.969 173.491 L 306.883 173.491 C 326.29 173.778 340.04 179.399 348.133 190.356 C 353.003 197.088 355.438 205.145 355.438 214.526 C 355.438 224.194 353.003 231.964 348.133 237.837 C 345.411 241.131 341.401 244.139 336.102 246.86 C 344.194 249.797 350.299 254.452 354.417 260.825 C 358.535 267.199 360.594 274.933 360.594 284.028 C 360.594 293.41 358.23 301.825 353.504 309.272 C 350.496 314.214 346.736 318.368 342.225 321.733 C 337.14 325.6 331.142 328.25 324.232 329.683 C 317.32 331.115 309.819 331.831 301.727 331.831 Z M 300.975 262.114 L 261.551 262.114 L 261.551 304.331 L 300.438 304.331 C 307.384 304.331 312.791 303.4 316.658 301.538 C 323.676 298.101 327.186 291.512 327.186 281.772 C 327.186 273.537 323.784 267.879 316.981 264.8 C 313.185 263.081 307.849 262.186 300.975 262.114 Z M 317.41 231.929 C 321.707 229.35 323.856 224.731 323.856 218.071 C 323.856 210.695 320.991 205.825 315.262 203.462 C 310.32 201.815 304.018 200.991 296.356 200.991 L 261.551 200.991 L 261.551 235.903 L 300.438 235.903 C 307.384 235.903 313.042 234.578 317.41 231.929 Z M 386.477 173.491 L 417.092 173.491 L 417.092 331.831 L 386.477 331.831 L 386.477 173.491 Z M 544.605 229.565 C 554.487 241.954 559.429 256.6 559.429 273.501 C 559.429 290.688 554.487 305.387 544.605 317.598 C 534.722 329.808 519.719 335.913 499.595 335.913 C 479.471 335.913 464.468 329.808 454.585 317.598 C 444.702 305.387 439.761 290.688 439.761 273.501 C 439.761 256.6 444.702 241.954 454.585 229.565 C 464.468 217.176 479.471 210.981 499.595 210.981 C 519.719 210.981 534.722 217.176 544.605 229.565 Z M 499.488 236.87 C 490.536 236.87 483.643 240.039 478.809 246.377 C 473.975 252.715 471.558 261.756 471.558 273.501 C 471.558 285.246 473.975 294.305 478.809 300.679 C 483.643 307.052 490.536 310.239 499.488 310.239 C 508.439 310.239 515.314 307.052 520.113 300.679 C 524.911 294.305 527.31 285.246 527.31 273.501 C 527.31 261.756 524.911 252.715 520.113 246.377 C 515.314 240.039 508.439 236.87 499.488 236.87 Z M 682.638 256.743 L 651.271 256.743 C 650.697 252.374 649.229 248.436 646.867 244.927 C 643.429 240.2 638.093 237.837 630.861 237.837 C 620.548 237.837 613.494 242.957 609.699 253.198 C 607.693 258.641 606.691 265.874 606.691 274.897 C 606.691 283.491 607.693 290.402 609.699 295.63 C 613.351 305.369 620.226 310.239 630.324 310.239 C 637.485 310.239 642.569 308.305 645.577 304.438 C 648.585 300.571 650.411 295.558 651.056 289.399 L 682.316 289.399 C 681.6 298.709 678.234 307.518 672.218 315.825 C 662.622 329.217 648.406 335.913 629.572 335.913 C 610.737 335.913 596.879 330.327 587.999 319.155 C 579.119 307.983 574.679 293.481 574.679 275.649 C 574.679 255.526 579.584 239.878 589.396 228.706 C 599.207 217.534 612.742 211.948 630.001 211.948 C 644.682 211.948 656.695 215.242 666.041 221.831 C 675.387 228.42 680.919 240.057 682.638 256.743 Z M 811.113 331.831 L 774.16 331.831 L 746.123 281.772 L 733.447 294.985 L 733.447 331.831 L 703.369 331.831 L 703.369 174.028 L 733.447 174.028 L 733.447 259.321 L 771.582 215.278 L 809.502 215.278 L 768.574 260.073 L 811.113 331.831 Z M 826.688 173.491 L 857.303 173.491 L 857.303 331.831 L 826.688 331.831 L 826.688 173.491 Z M 934.748 301.108 L 958.918 214.741 L 991.467 214.741 L 951.291 329.897 C 943.557 352.098 937.434 365.866 932.922 371.201 C 928.41 376.536 919.387 379.204 905.852 379.204 C 903.13 379.204 900.946 379.186 899.299 379.15 C 897.651 379.115 895.181 378.989 891.887 378.774 L 891.887 354.282 L 895.754 354.497 C 898.762 354.64 901.626 354.533 904.348 354.175 C 907.069 353.817 909.361 352.993 911.223 351.704 C 913.013 350.487 914.678 347.944 916.218 344.077 C 917.758 340.21 918.384 337.846 918.098 336.987 L 875.129 214.741 L 909.182 214.741 L 934.748 301.108 Z" style="fill: rgb(255, 255, 255);">
    <title>Blockly</title>
  </path>
</svg>