<svg xmlns="http://www.w3.org/2000/svg" width="512" height="512" shape-rendering="geometricPrecision" image-rendering="optimizeQuality" fill-rule="evenodd" xmlns:v="https://vecta.io/nano"><path fill="#efda4e" d="M-.5-.5h512v512H-.5V-.5z"/><path fill="#020100" d="M308.5 287.5c1.777-3.005 2.777-6.338 3-10 9.147-21.963 25.48-35.463 49-40.5 21.999-4.173 43.666-2.84 65 4 14.575 5.411 25.575 14.911 33 28.5l-1 2c-12.413 5.624-24.58 11.624-36.5 18-5.321-8.25-12.821-13.417-22.5-15.5-13.957-3.122-27.29-1.455-40 5-8.125 5.36-10.958 12.86-8.5 22.5 3.223 6.223 8.057 10.723 14.5 13.5l64 20c38.459 16.085 52.626 44.585 42.5 85.5-7.572 26.208-24.738 42.041-51.5 47.5-25.102 5.733-49.768 4.4-74-4-19.291-8.625-32.291-22.958-39-43 11.266-8.887 23.433-16.387 36.5-22.5 3.117 6.896 6.784 13.563 11 20 12.705 12.307 27.872 16.807 45.5 13.5 22.189-3.504 32.355-16.338 30.5-38.5-2.833-6.833-7.667-11.667-14.5-14.5l-57-17c-36.004-11.84-52.67-36.673-50-74.5z"/><path fill="#020200" d="M222.5 238.5h43l-.5 159c-2.688 52.355-30.188 76.855-82.5 73.5-24.871-3.543-41.204-17.21-49-41l.5-2.5a12.14 12.14 0 0 0 4.5-3.5c10.653-5.825 21.32-11.325 32-16.5 4.763 21.72 17.763 28.887 39 21.5 4.616-2.618 7.783-6.451 9.5-11.5 1.163-5.968 2.163-11.968 3-18l.5-161z"/><path fill="#615820" d="M311.5 277.5c-.223 3.662-1.223 6.995-3 10 .223-3.662 1.223-6.995 3-10z"/></svg>