<svg xmlns="http://www.w3.org/2000/svg" viewBox="0 0 512 512" width="32" height="32">
    <path fill="#007acc" d="M-.5-.5h503l-1 179h10v333h-421v-7h-91V-.5z"/>
    <path fill="#0f81cf" d="M502.5-.5h9v179h-10l1-179z"/>
    <path fill="#fdfefe"
          d="M470.5 227.5c.33 17.508-.003 34.841-1 52-23.486-15.709-48.82-19.875-76-12.5-15.89 8.078-19.39 19.911-10.5 35.5 4.673 5.577 10.173 10.077 16.5 13.5l38 19c17.945 9.278 31.112 23.112 39.5 41.5 1.352 3.22 2.186 6.553 2.5 10a305.16 305.16 0 0 1 1 26c-3.553 33.726-21.886 54.559-55 62.5-34.769 7.363-68.435 4.196-101-9.5-.167-19.003 0-38.003.5-57 22.903 21.314 49.736 29.147 80.5 23.5 19.435-5.701 25.268-17.868 17.5-36.5-4.718-6.44-10.552-11.606-17.5-15.5a1552.42 1552.42 0 0 1-47-24c-27.679-19.331-38.846-45.831-33.5-79.5 6.43-26.433 22.597-43.933 48.5-52.5 26.131-6.625 52.464-7.292 79-2a565.56 565.56 0 0 1 18 5.5z"/>
    <path fill="#fefefe" d="M122.5 222.5h182v46h-65v206h-52v-206h-65v-46z"/>
    <path fill="#70b3e1"
          d="M470.5 227.5c1.327 17.505 1.327 35.171 0 53-.607-.124-.94-.457-1-1 .997-17.159 1.33-34.492 1-52z"/>
    <path fill="#6cafe0"
          d="M479.5 386.5c1.465 5.09 2.132 10.423 2 16-.002 3.518-.335 6.851-1 10a305.16 305.16 0 0 0-1-26z"/>
    <path fill="#1283cf" d="M-.5 504.5h91v7h-91v-7z"/>
</svg>