<svg viewBox="0 0 1536 512" width="96px" height="32px" xmlns="http://www.w3.org/2000/svg">
  <defs>
    <path id="path-2" d="M 82.97724,29.300104 C 82.790583,28.201973 82.006921,27.299698 80.945743,26.961124 79.884564,26.62255 78.723152,26.904241 77.935,27.691354 L 62.465677,43.197917 50.303229,20.042344 C 49.78815,19.063276 48.772957,18.45025 47.666667,18.45025 c -1.106291,0 -2.121484,0.613026 -2.636563,1.592094 L 38.379115,32.703802 21.695781,1.5864062 C 21.090714,0.45617231 19.83044,-0.16023716 18.566804,0.05600004 17.303168,0.27223724 16.319565,1.2726256 16.12474,2.5397396 L 0,105.76042 43.123438,129.93635 c 2.707936,1.51195 6.006125,1.51195 8.714062,0 l 43.495833,-24.17593 z"/>
    <path id="path-4" d="m 106.68711,35.274174 c -0.186,-1.097652 -0.96693,-1.999535 -2.02439,-2.337961 -1.05747,-0.338426 -2.21482,-0.05686 -3.00022,0.729912 L 86.247266,49.165925 74.127344,26.020451 C 73.614066,25.04181 72.602423,24.429052 71.5,24.429052 c -1.102423,0 -2.114066,0.612758 -2.627344,1.591399 L 62.244922,38.676387 45.619922,7.5725628 C 45.01697,6.4428218 43.761103,5.8266812 42.501885,6.0428241 41.242667,6.258967 40.262504,7.2589191 40.068359,8.5254804 L 24,111.70114 66.972656,135.86653 c 2.698469,1.51129 5.985125,1.51129 8.683594,0 L 119,111.70114 Z"/>
    <path id="path-1" d="M 82.97724,29.300104 C 82.790583,28.201973 82.006921,27.299698 80.945743,26.961124 79.884564,26.62255 78.723152,26.904241 77.935,27.691354 L 62.465677,43.197917 50.303229,20.042344 C 49.78815,19.063276 48.772957,18.45025 47.666667,18.45025 c -1.106291,0 -2.121484,0.613026 -2.636563,1.592094 L 38.379115,32.703802 21.695781,1.5864062 C 21.090714,0.45617231 19.83044,-0.16023716 18.566804,0.05600004 17.303168,0.27223724 16.319565,1.2726256 16.12474,2.5397396 L 0,105.76042 43.123438,129.93635 c 2.707936,1.51195 6.006125,1.51195 8.714062,0 l 43.495833,-24.17593 z"/>
    <path id="path-3" d="m 106.68711,35.274174 c -0.186,-1.097652 -0.96693,-1.999535 -2.02439,-2.337961 -1.05747,-0.338426 -2.21482,-0.05686 -3.00022,0.729912 L 86.247266,49.165925 74.127344,26.020451 C 73.614066,25.04181 72.602423,24.429052 71.5,24.429052 c -1.102423,0 -2.114066,0.612758 -2.627344,1.591399 L 62.244922,38.676387 45.619922,7.5725628 C 45.01697,6.4428218 43.761103,5.8266812 42.501885,6.0428241 41.242667,6.258967 40.262504,7.2589191 40.068359,8.5254804 L 24,111.70114 66.972656,135.86653 c 2.698469,1.51129 5.985125,1.51129 8.683594,0 L 119,111.70114 Z"/>
  </defs>
  <path class="blocklyPath" d="M 125.927 91.541 L 1148.095 91.541 L 1148.095 420.459 L 125.927 420.459 L 125.927 344.559 C 125.927 218.048 24.719 445.762 24.719 249.678 C 24.719 53.584 125.927 281.303 125.927 154.797 L 125.927 91.541 Z" style="stroke-width: 5px; fill: rgb(1, 35, 92);">
    <title>Brick</title>
  </path>
  <path d="M 1494.567 91.523 C 1495.672 91.523 1496.567 92.418 1496.567 93.523 L 1496.567 418.433 C 1496.567 419.538 1495.672 420.433 1494.567 420.433 L 1089.542 420.433 C 1088.437 420.433 1087.542 419.538 1087.542 418.433 L 1087.542 392.145 L 1168.093 91.523 Z" fill="#f7df1e" style="stroke-width: 5px;">
    <title>JS-Rect</title>
  </path>
  <path d="M 1355.681 296.404 C 1364.385 310.617 1375.71 321.064 1395.739 321.064 C 1412.565 321.064 1423.314 312.654 1423.314 301.034 C 1423.314 287.11 1412.27 282.178 1393.75 274.077 L 1383.598 269.721 C 1354.295 257.237 1334.828 241.598 1334.828 208.536 C 1334.828 178.08 1358.033 154.896 1394.299 154.896 C 1420.117 154.896 1438.679 163.881 1452.054 187.409 L 1420.433 207.713 C 1413.471 195.229 1405.96 190.311 1394.299 190.311 C 1382.405 190.311 1374.866 197.856 1374.866 207.713 C 1374.866 219.895 1382.411 224.827 1399.834 232.372 L 1409.986 236.721 C 1444.489 251.517 1463.969 266.6 1463.969 300.513 C 1463.969 337.073 1435.249 357.103 1396.679 357.103 C 1358.966 357.103 1334.602 339.131 1322.68 315.576 L 1355.681 296.404 Z M 1212.231 299.923 C 1218.61 311.241 1224.413 320.81 1238.365 320.81 C 1251.706 320.81 1260.123 315.59 1260.123 295.293 L 1260.123 157.214 L 1300.73 157.214 L 1300.73 295.842 C 1300.73 337.89 1276.078 357.027 1240.094 357.027 C 1207.58 357.027 1188.751 340.201 1179.176 319.935 L 1212.231 299.923 Z" style="">
    <title>JS</title>
  </path>
  <path class="blocklyPath" d="M 1168.088 91.541 L 1168.093 91.523 L 1184.595 91.523 L 1096.457 420.459 L 1051.626 420.459 L 1139.759 91.541 Z" style="stroke-width: 5px;">
    <title>Slash</title>
  </path>
  <path d="M 296.678 269.741 L 262.518 269.741 L 262.518 331.831 L 230.184 331.831 L 230.184 173.491 L 307.85 173.491 Q 324.5 173.813 333.47 177.573 Q 342.44 181.333 348.67 188.638 Q 353.826 194.653 356.834 201.958 Q 359.842 209.263 359.842 218.608 Q 359.842 229.888 354.149 240.791 Q 348.455 251.694 335.35 256.206 Q 346.307 260.61 350.872 268.721 Q 355.438 276.831 355.438 293.481 L 355.438 304.116 Q 355.438 314.966 356.297 318.833 Q 357.586 324.956 362.313 327.856 L 362.313 331.831 L 325.897 331.831 Q 324.393 326.567 323.748 323.345 Q 322.459 316.685 322.352 309.702 L 322.137 294.985 Q 321.922 279.839 316.605 274.79 Q 311.287 269.741 296.678 269.741 Z M 316.766 240.952 Q 326.649 236.44 326.649 223.12 Q 326.649 208.726 317.088 203.784 Q 311.717 200.991 300.975 200.991 L 262.518 200.991 L 262.518 243.53 L 300.008 243.53 Q 311.18 243.53 316.766 240.952 Z M 481.977 270.815 L 481.977 173.491 L 515.6 173.491 L 515.6 270.815 Q 515.6 296.06 507.758 310.132 Q 493.148 335.913 452.006 335.913 Q 410.863 335.913 396.147 310.132 Q 388.305 296.06 388.305 270.815 L 388.305 173.491 L 421.928 173.491 L 421.928 270.815 Q 421.928 287.143 425.795 294.663 Q 431.811 307.983 452.006 307.983 Q 472.094 307.983 478.109 294.663 Q 481.977 287.143 481.977 270.815 Z M 547.184 173.491 L 580.27 173.491 L 580.27 303.364 L 658.688 303.364 L 658.688 331.831 L 547.184 331.831 Z M 791.781 262.651 L 714.867 262.651 L 714.867 303.364 L 802.524 303.364 L 802.524 331.831 L 682.533 331.831 L 682.533 173.491 L 798.656 173.491 L 798.656 201.528 L 714.867 201.528 L 714.867 235.151 L 791.781 235.151 Z M 885.775 308.95 Q 897.484 308.95 904.789 306.372 Q 918.647 301.431 918.647 288.003 Q 918.647 280.161 911.772 275.864 Q 904.897 271.675 890.18 268.452 L 873.422 264.692 Q 848.715 259.106 839.262 252.554 Q 823.256 241.597 823.256 218.286 Q 823.256 197.017 838.725 182.944 Q 854.193 168.872 884.164 168.872 Q 909.193 168.872 926.864 182.139 Q 944.535 195.405 945.395 220.649 L 913.598 220.649 Q 912.738 206.362 901.137 200.347 Q 893.402 196.372 881.908 196.372 Q 869.125 196.372 861.498 201.528 Q 853.871 206.685 853.871 215.923 Q 853.871 224.409 861.391 228.599 Q 866.225 231.392 882.016 235.151 L 909.301 241.704 Q 927.24 246.001 936.371 253.198 Q 950.551 264.37 950.551 285.532 Q 950.551 307.231 933.954 321.572 Q 917.357 335.913 887.065 335.913 Q 856.127 335.913 838.402 321.787 Q 820.678 307.661 820.678 282.954 L 852.26 282.954 Q 853.764 293.804 858.168 299.175 Q 866.225 308.95 885.775 308.95 Z" style="fill: rgb(255, 255, 255);">
    <title>RULES</title>
  </path>
</svg>