<svg height="511pt" viewBox="-31 0 511 511.99998" width="511pt" xmlns="http://www.w3.org/2000/svg">
    <g fill="currentColor">
        <path d="m235.328125 119.167969c20.839844 8.058593 35.644531 21.148437 44.632813 41.503906"/>
        <path d="m231.6875 128.585938c18.980469 7.339843 31.382812 18.832031 39.035156 36.164062 1.667969 3.773438 5.363282 6.023438 9.242188 6.023438 1.363281 0 2.746094-.277344 4.070312-.863282 5.105469-2.253906 7.414063-8.214844 5.160156-13.316406-9.820312-22.25-26.25-37.574219-50.226562-46.84375-5.199219-2.011719-11.046875.574219-13.058594 5.777344-2.011718 5.203125.578125 11.046875 5.777344 13.058594zm0 0"/>
        <path d="m207.105469 237.8125c20.089843 0 36.4375-16.34375 36.4375-36.433594 0-20.09375-16.347657-36.4375-36.4375-36.4375-20.089844 0-36.4375 16.34375-36.4375 36.4375 0 20.089844 16.347656 36.433594 36.4375 36.433594zm0-52.675781c8.953125 0 16.242187 7.285156 16.242187 16.242187 0 8.953125-7.289062 16.238282-16.242187 16.238282-8.957031 0-16.242188-7.285157-16.242188-16.238282 0-8.957031 7.285157-16.242187 16.242188-16.242187zm0 0"/>
        <path d="m390.179688 147.015625c3.765624 0 7.398437-.574219 10.820312-1.636719l7.339844 9.871094c13.941406 18.75 21.621094 41.945312 21.621094 65.3125v59.152344c0 5.578125 4.523437 10.097656 10.097656 10.097656 5.574218 0 10.097656-4.519531 10.097656-10.097656v-59.152344c0-27.675781-9.09375-55.152344-25.609375-77.359375l-6.675781-8.980469c5.449218-6.367187 8.746094-14.625 8.746094-23.640625 0-20.09375-16.34375-36.4375-36.4375-36.4375-20.089844 0-36.433594 16.34375-36.433594 36.4375 0 20.089844 16.34375 36.433594 36.433594 36.433594zm0-52.675781c8.957031 0 16.242187 7.285156 16.242187 16.242187 0 8.953125-7.285156 16.242188-16.242187 16.242188-8.953126 0-16.242188-7.289063-16.242188-16.242188 0-8.957031 7.289062-16.242187 16.242188-16.242187zm0 0"/>
        <path d="m440.058594 349.050781c-5.578125 0-10.097656 4.519531-10.097656 10.097657v63.320312c0 14.230469-11.578126 25.808594-25.808594 25.808594h-44.597656v-33.429688c0-5.578125-4.519532-10.097656-10.09375-10.097656h-42.265626v-112.453125c21.855469-24.035156 35.191407-55.949219 35.191407-90.917969 0-74.597656-60.6875-135.285156-135.28125-135.285156s-135.28125 60.6875-135.28125 135.285156c0 33.105469 11.957031 63.464844 31.777343 87.003906v213.519532c0 5.578125 4.523438 10.097656 10.097657 10.097656h235.761719c5.574218 0 10.09375-4.519531 10.09375-10.097656v-33.429688h44.597656c25.367187 0 46.003906-20.636718 46.003906-46.003906v-63.320312c0-5.578126-4.523438-10.097657-10.097656-10.097657zm-232.953125-262.761719c63.457031 0 115.085937 51.628907 115.085937 115.089844 0 63.457032-51.628906 115.085938-115.085937 115.085938-63.460938 0-115.085938-51.628906-115.085938-115.085938 0-63.460937 51.625-115.089844 115.085938-115.089844zm-83.308594 221.601563c22.980469 18.015625 51.910156 28.769531 83.308594 28.769531 29.863281 0 57.492187-9.734375 79.894531-26.1875v181.332032h-163.203125zm215.566406 183.914063h-32.167969v-66.859376h32.167969zm0 0"/>
        <path d="m148.160156 377.789062h17.925782c5.574218 0 10.097656-4.523437 10.097656-10.097656 0-5.578125-4.523438-10.097656-10.097656-10.097656h-17.925782c-5.574218 0-10.097656 4.519531-10.097656 10.097656 0 5.574219 4.523438 10.097656 10.097656 10.097656zm0 0"/>
        <path d="m198.144531 377.789062h17.921875c5.574219 0 10.097656-4.523437 10.097656-10.097656 0-5.578125-4.523437-10.097656-10.097656-10.097656h-17.921875c-5.578125 0-10.097656 4.519531-10.097656 10.097656 0 5.574219 4.519531 10.097656 10.097656 10.097656zm0 0"/>
        <path d="m266.046875 357.59375h-17.921875c-5.574219 0-10.097656 4.519531-10.097656 10.097656 0 5.574219 4.523437 10.097656 10.097656 10.097656h17.921875c5.578125 0 10.097656-4.523437 10.097656-10.097656 0-5.578125-4.519531-10.097656-10.097656-10.097656zm0 0"/>
        <path d="m148.160156 420.675781h67.90625c5.574219 0 10.097656-4.519531 10.097656-10.097656s-4.523437-10.097656-10.097656-10.097656h-67.90625c-5.574218 0-10.097656 4.519531-10.097656 10.097656s4.523438 10.097656 10.097656 10.097656zm0 0"/>
        <path d="m248.125 443.15625h-99.964844c-5.574218 0-10.097656 4.519531-10.097656 10.097656 0 5.574219 4.523438 10.097656 10.097656 10.097656h99.964844c5.574219 0 10.097656-4.523437 10.097656-10.097656 0-5.578125-4.519531-10.097656-10.097656-10.097656zm0 0"/>
        <path d="m106.355469 40.136719c1.84375 3.320312 5.285156 5.191406 8.832031 5.191406 1.660156 0 3.34375-.414063 4.898438-1.277344 4.875-2.710937 6.625-8.859375 3.914062-13.734375l-13.984375-25.128906c-2.710937-4.871094-8.859375-6.625-13.734375-3.910156-4.871094 2.710937-6.625 8.859375-3.914062 13.734375zm0 0"/>
        <path d="m63.144531 83.015625-26.054687-15.039063c-4.832032-2.789062-11.003906-1.132812-13.792969 3.695313s-1.132813 11.003906 3.695313 13.792969l26.054687 15.042968c1.589844.917969 3.328125 1.351563 5.039063 1.351563 3.488281 0 6.882812-1.808594 8.753906-5.046875 2.789062-4.832031 1.132812-11.007812-3.695313-13.796875zm0 0"/>
        <path d="m41.113281 146.210938-30.085937-1.28125c-5.582032-.25-10.28125 4.089843-10.519532 9.660156-.234374 5.570312 4.089844 10.28125 9.660157 10.515625l30.085937 1.28125c.144532.007812.292969.007812.4375.007812 5.378906 0 9.851563-4.242187 10.078125-9.667969.238281-5.570312-4.085937-10.277343-9.65625-10.515624zm0 0"/>
        <path d="m283.640625 198.625.121094.296875c1.589843 3.925781 5.367187 6.304687 9.359375 6.304687 1.261718 0 2.546875-.238281 3.789062-.742187 5.167969-2.09375 7.660156-7.980469 5.566406-13.148437l-.121093-.296876c-2.09375-5.167968-7.980469-7.65625-13.148438-5.5625s-7.660156 7.980469-5.566406 13.148438zm0 0"/>
        <path d="m449.367188 315.667969c-2.078126-5.171875-7.964844-7.679688-13.136719-5.601563-5.171875 2.082032-7.679688 7.960938-5.601563 13.136719l.117188.292969c1.585937 3.941406 5.371094 6.335937 9.375 6.335937 1.253906 0 2.527344-.234375 3.761718-.734375 5.175782-2.078125 7.683594-7.960937 5.601563-13.132812zm0 0"/>
    </g>
</svg>