<svg height="480pt" viewBox="0 -120 480 480" width="480pt" xmlns="http://www.w3.org/2000/svg">
    <g fill="currentColor">
        <path d="m472 0h-464c-4.417969 0-8 3.582031-8 8v192c0 4.417969 3.582031 8 8 8h32v24c0 4.417969 3.582031 8 8 8h40c4.417969 0 8-3.582031 8-8v-24h288v24c0 4.417969 3.582031 8 8 8h40c4.417969 0 8-3.582031 8-8v-24h32c4.417969 0 8-3.582031 8-8v-192c0-4.417969-3.582031-8-8-8zm-392 224h-24v-16h24zm344 0h-24v-16h24zm40-32h-448v-176h448zm0 0"/>
        <path d="m256 176c35.347656 0 64-28.652344 64-64s-28.652344-64-64-64-64 28.652344-64 64c.039062 35.328125 28.671875 63.960938 64 64zm-8-111.28125v15.28125h16v-15.28125c24.605469 4.160156 41.917969 26.476562 39.832031 51.34375-2.085937 24.867188-22.878906 43.984375-47.832031 43.984375s-45.746094-19.117187-47.832031-43.984375c-2.085938-24.867188 15.226562-47.183594 39.832031-51.34375zm0 0"/>
        <path d="m160 32h16v16h-16zm0 0"/>
        <path d="m160 64h16v16h-16zm0 0"/>
        <path d="m128 32h16v16h-16zm0 0"/>
        <path d="m128 64h16v16h-16zm0 0"/>
        <path d="m96 32h16v16h-16zm0 0"/>
        <path d="m96 64h16v16h-16zm0 0"/>
        <path d="m64 32h16v16h-16zm0 0"/>
        <path d="m64 64h16v16h-16zm0 0"/>
        <path d="m32 32h16v16h-16zm0 0"/>
        <path d="m32 64h16v16h-16zm0 0"/>
        <path d="m368 176c16.09375.019531 29.6875-11.9375 31.71875-27.90625 2.035156-15.964844-8.132812-30.945312-23.71875-34.957031v-17.136719h-16v17.136719c-15.585938 4.011719-25.753906 18.992187-23.71875 34.957031 2.03125 15.96875 15.625 27.925781 31.71875 27.90625zm0-48c8.835938 0 16 7.164062 16 16s-7.164062 16-16 16-16-7.164062-16-16 7.164062-16 16-16zm0 0"/>
        <path d="m144 176c16.09375.019531 29.6875-11.9375 31.71875-27.90625 2.035156-15.964844-8.132812-30.945312-23.71875-34.957031v-17.136719h-16v17.136719c-15.585938 4.011719-25.753906 18.992187-23.71875 34.957031 2.03125 15.96875 15.625 27.925781 31.71875 27.90625zm0-48c8.835938 0 16 7.164062 16 16s-7.164062 16-16 16-16-7.164062-16-16 7.164062-16 16-16zm0 0"/>
        <path d="m64 176c16.09375.019531 29.6875-11.9375 31.71875-27.90625 2.035156-15.964844-8.132812-30.945312-23.71875-34.957031v-17.136719h-16v17.136719c-15.585938 4.011719-25.753906 18.992187-23.71875 34.957031 2.03125 15.96875 15.625 27.925781 31.71875 27.90625zm0-48c8.835938 0 16 7.164062 16 16s-7.164062 16-16 16-16-7.164062-16-16 7.164062-16 16-16zm0 0"/>
        <path d="m408 112h32c4.417969 0 8-3.582031 8-8v-64c0-4.417969-3.582031-8-8-8h-32c-4.417969 0-8 3.582031-8 8v64c0 4.417969 3.582031 8 8 8zm8-64h16v16h-16zm0 32h16v16h-16zm0 0"/>
        <path d="m432 136c0 4.417969-3.582031 8-8 8s-8-3.582031-8-8 3.582031-8 8-8 8 3.582031 8 8zm0 0"/>
        <path d="m432 168c0 4.417969-3.582031 8-8 8s-8-3.582031-8-8 3.582031-8 8-8 8 3.582031 8 8zm0 0"/>
    </g>
</svg>