<svg height="512pt" viewBox="0 -108 512 512" width="512pt" xmlns="http://www.w3.org/2000/svg">
    <g fill="currentColor">
        <path d="m504 48.015625h-496c-4.425781 0-8-3.574219-8-8v-32.015625c0-4.425781 3.574219-8 8-8h496c4.425781 0 8 3.574219 8 8v32.015625c0 4.425781-3.574219 8-8 8zm-488-16h480v-16.015625h-480zm0 0"/>
        <path d="m16 296.160156c-4.425781 0-8-3.574218-8-8v-246.71875c0-4.425781 3.574219-8 8-8s8 3.574219 8 8v246.71875c0 4.425782-3.574219 8-8 8zm0 0"/>
        <path d="m40 296.160156c-4.425781 0-8-3.574218-8-8v-246.71875c0-4.425781 3.574219-8 8-8s8 3.574219 8 8v246.71875c0 4.425782-3.574219 8-8 8zm0 0"/>
        <path d="m472 296.160156c-4.425781 0-8-3.574218-8-8v-246.71875c0-4.425781 3.574219-8 8-8s8 3.574219 8 8v246.71875c0 4.425782-3.574219 8-8 8zm0 0"/>
        <path d="m496 296.160156c-4.425781 0-8-3.574218-8-8v-246.71875c0-4.425781 3.574219-8 8-8s8 3.574219 8 8v246.71875c0 4.425782-3.574219 8-8 8zm0 0"/>
        <path d="m40 296.160156h-24c-4.425781 0-8-3.574218-8-8 0-4.425781 3.574219-8 8-8h24c4.425781 0 8 3.574219 8 8 0 4.425782-3.574219 8-8 8zm0 0"/>
        <path d="m496 296.160156h-24c-4.425781 0-8-3.574218-8-8 0-4.425781 3.574219-8 8-8h24c4.425781 0 8 3.574219 8 8 0 4.425782-3.574219 8-8 8zm0 0"/>
        <path d="m472 160.113281h-432c-4.425781 0-8-3.578125-8-8 0-4.425781 3.574219-8 8-8h432c4.425781 0 8 3.574219 8 8 0 4.421875-3.574219 8-8 8zm0 0"/>
        <path d="m472 184.128906h-432c-4.425781 0-8-3.578125-8-8 0-4.425781 3.574219-8 8-8h432c4.425781 0 8 3.574219 8 8 0 4.421875-3.574219 8-8 8zm0 0"/>
        <path d="m71.984375 160.128906c-4.425781 0-8-3.578125-8-8 0-22.058594 17.9375-40 39.992187-40 4.421876 0 8 3.574219 8 8 0 4.421875-3.578124 8-8 8-13.222656 0-23.992187 10.765625-23.992187 24 0 4.421875-3.578125 8-8 8zm0 0"/>
        <path d="m152 160.128906c-4.425781 0-8-3.578125-8-8 0-13.234375-10.769531-24-23.992188-24-4.421874 0-8-3.578125-8-8 0-4.425781 3.578126-8 8-8 22.054688 0 39.992188 17.941406 39.992188 40 0 4.421875-3.574219 8-8 8zm0 0"/>
        <path d="m79.984375 138.96875c-4.425781 0-8-3.578125-8-8v-42.839844c0-4.425781 3.574219-8 8-8 4.421875 0 8 3.574219 8 8v42.839844c0 4.421875-3.578125 8-8 8zm0 0"/>
        <path d="m143.96875 138.96875c-4.425781 0-8-3.578125-8-8v-42.839844c0-4.425781 3.574219-8 8-8 4.421875 0 8 3.574219 8 8v42.839844c0 4.421875-3.578125 8-8 8zm0 0"/>
        <path d="m96 104.144531c-4.425781 0-8-3.578125-8-8v-24.015625c0-4.425781 3.574219-8 8-8s8 3.574219 8 8v24.015625c0 4.421875-3.574219 8-8 8zm0 0"/>
        <path d="m128 80.128906h-32c-4.425781 0-8-3.578125-8-8 0-4.425781 3.574219-8 8-8h32c4.425781 0 8 3.574219 8 8 0 4.421875-3.574219 8-8 8zm0 0"/>
        <path d="m128 104.144531c-4.425781 0-8-3.578125-8-8v-24.015625c0-4.425781 3.574219-8 8-8s8 3.574219 8 8v24.015625c0 4.421875-3.574219 8-8 8zm0 0"/>
        <path d="m96 96.128906h-16.015625c-4.425781 0-8-3.578125-8-8 0-4.425781 3.574219-8 8-8h16.015625c4.425781 0 8 3.574219 8 8 0 4.421875-3.574219 8-8 8zm0 0"/>
        <path d="m143.96875 96.128906h-15.96875c-4.425781 0-8-3.578125-8-8 0-4.425781 3.574219-8 8-8h15.96875c4.421875 0 8 3.574219 8 8 0 4.421875-3.578125 8-8 8zm0 0"/>
        <path d="m120.007812 128.128906h-16.03125c-4.425781 0-8-3.578125-8-8 0-4.425781 3.574219-8 8-8h16.03125c4.425782 0 8 3.574219 8 8 0 4.421875-3.574218 8-8 8zm0 0"/>
        <path d="m175.984375 160.128906c-4.425781 0-8-3.578125-8-8 0-22.058594 17.9375-40 39.992187-40 4.421876 0 8 3.574219 8 8 0 4.421875-3.578124 8-8 8-13.222656 0-23.992187 10.765625-23.992187 24 0 4.421875-3.578125 8-8 8zm0 0"/>
        <path d="m256 160.128906c-4.425781 0-8-3.578125-8-8 0-13.234375-10.769531-24-23.992188-24-4.421874 0-8-3.578125-8-8 0-4.425781 3.578126-8 8-8 22.054688 0 39.992188 17.941406 39.992188 40 0 4.421875-3.574219 8-8 8zm0 0"/>
        <path d="m183.984375 138.96875c-4.425781 0-8-3.578125-8-8v-42.839844c0-4.425781 3.574219-8 8-8 4.421875 0 8 3.574219 8 8v42.839844c0 4.421875-3.578125 8-8 8zm0 0"/>
        <path d="m247.96875 138.96875c-4.425781 0-8-3.578125-8-8v-42.839844c0-4.425781 3.574219-8 8-8 4.421875 0 8 3.574219 8 8v42.839844c0 4.421875-3.578125 8-8 8zm0 0"/>
        <path d="m200 104.144531c-4.425781 0-8-3.578125-8-8v-24.015625c0-4.425781 3.574219-8 8-8s8 3.574219 8 8v24.015625c0 4.421875-3.574219 8-8 8zm0 0"/>
        <path d="m232 80.128906h-32c-4.425781 0-8-3.578125-8-8 0-4.425781 3.574219-8 8-8h32c4.425781 0 8 3.574219 8 8 0 4.421875-3.574219 8-8 8zm0 0"/>
        <path d="m232 104.144531c-4.425781 0-8-3.578125-8-8v-24.015625c0-4.425781 3.574219-8 8-8s8 3.574219 8 8v24.015625c0 4.421875-3.574219 8-8 8zm0 0"/>
        <path d="m200 96.128906h-16.015625c-4.425781 0-8-3.578125-8-8 0-4.425781 3.574219-8 8-8h16.015625c4.425781 0 8 3.574219 8 8 0 4.421875-3.574219 8-8 8zm0 0"/>
        <path d="m247.96875 96.128906h-15.96875c-4.425781 0-8-3.578125-8-8 0-4.425781 3.574219-8 8-8h15.96875c4.421875 0 8 3.574219 8 8 0 4.421875-3.578125 8-8 8zm0 0"/>
        <path d="m224.007812 128.128906h-16.03125c-4.425781 0-8-3.578125-8-8 0-4.425781 3.574219-8 8-8h16.03125c4.425782 0 8 3.574219 8 8 0 4.421875-3.574218 8-8 8zm0 0"/>
        <path d="m256.167969 280.144531c-4.425781 0-8-3.578125-8-8 0-13.242187 10.777343-24.015625 24.015625-24.015625 4.425781 0 8 3.574219 8 8 0 4.421875-3.574219 8-8 8-4.421875 0-8.015625 3.589844-8.015625 8.015625 0 4.421875-3.582031 8-8 8zm0 0"/>
        <path d="m336.191406 280.144531c-4.421875 0-8-3.578125-8-8 0-4.417969-3.582031-8-8-8-4.421875 0-8-3.578125-8-8 0-4.425781 3.578125-8 8-8 13.234375 0 24 10.765625 24 24 0 4.421875-3.574218 8-8 8zm0 0"/>
        <path d="m336.191406 296.160156h-80.023437c-4.425781 0-8-3.574218-8-8 0-4.425781 3.574219-8 8-8h80.03125c4.425781 0 8 3.574219 8 8 0 4.425782-3.582031 8-8.007813 8zm0 0"/>
        <path d="m320.832031 264.128906h-49.296875c-4.421875 0-8-3.578125-8-8 0-4.425781 3.578125-8 8-8h49.296875c4.425781 0 8 3.574219 8 8 0 4.421875-3.574219 8-8 8zm0 0"/>
        <path d="m272.167969 264.128906c-4.425781 0-8-3.578125-8-8v-47.984375c0-4.425781 3.574219-8 8-8s8 3.574219 8 8v47.984375c0 4.421875-3.574219 8-8 8zm0 0"/>
        <path d="m320.199219 264.144531c-4.421875 0-8-3.578125-8-8v-48c0-4.425781 3.578125-8 8-8 4.425781 0 8 3.574219 8 8v48c0 4.421875-3.574219 8-8 8zm0 0"/>
        <path d="m256.167969 296.160156c-4.425781 0-8-3.574218-8-8v-16.015625c0-4.425781 3.574219-8 8-8s8 3.574219 8 8v16.015625c0 4.425782-3.582031 8-8 8zm0 0"/>
        <path d="m336.191406 296.160156c-4.421875 0-8-3.574218-8-8v-16.015625c0-4.425781 3.578125-8 8-8 4.425782 0 8 3.574219 8 8v16.015625c0 4.425782-3.574218 8-8 8zm0 0"/>
        <path d="m320.199219 216.144531h-48.03125c-4.425781 0-8-3.578125-8-8 0-4.425781 3.574219-8 8-8h48.03125c4.425781 0 8 3.574219 8 8 0 4.421875-3.574219 8-8 8zm0 0"/>
        <path d="m328.191406 240.144531h-64.023437c-4.425781 0-8-3.578125-8-8 0-4.425781 3.574219-8 8-8h64.023437c4.425782 0 8 3.574219 8 8 0 4.421875-3.574218 8-8 8zm0 0"/>
        <path d="m360.167969 280.144531c-4.425781 0-8-3.578125-8-8 0-13.242187 10.777343-24.015625 24.015625-24.015625 4.425781 0 8 3.574219 8 8 0 4.421875-3.574219 8-8 8-4.421875 0-8.015625 3.589844-8.015625 8.015625 0 4.421875-3.582031 8-8 8zm0 0"/>
        <path d="m440.191406 280.144531c-4.421875 0-8-3.578125-8-8 0-4.417969-3.582031-8-8-8-4.421875 0-8-3.578125-8-8 0-4.425781 3.578125-8 8-8 13.234375 0 24 10.765625 24 24 0 4.421875-3.574218 8-8 8zm0 0"/>
        <path d="m440.191406 296.160156h-80.023437c-4.425781 0-8-3.574218-8-8 0-4.425781 3.574219-8 8-8h80.03125c4.425781 0 8 3.574219 8 8 0 4.425782-3.582031 8-8.007813 8zm0 0"/>
        <path d="m424.832031 264.128906h-49.296875c-4.421875 0-8-3.578125-8-8 0-4.425781 3.578125-8 8-8h49.296875c4.425781 0 8 3.574219 8 8 0 4.421875-3.574219 8-8 8zm0 0"/>
        <path d="m376.167969 264.128906c-4.425781 0-8-3.578125-8-8v-47.984375c0-4.425781 3.574219-8 8-8s8 3.574219 8 8v47.984375c0 4.421875-3.574219 8-8 8zm0 0"/>
        <path d="m424.199219 264.144531c-4.421875 0-8-3.578125-8-8v-48c0-4.425781 3.578125-8 8-8 4.425781 0 8 3.574219 8 8v48c0 4.421875-3.574219 8-8 8zm0 0"/>
        <path d="m360.167969 296.160156c-4.425781 0-8-3.574218-8-8v-16.015625c0-4.425781 3.574219-8 8-8s8 3.574219 8 8v16.015625c0 4.425782-3.582031 8-8 8zm0 0"/>
        <path d="m440.191406 296.160156c-4.421875 0-8-3.574218-8-8v-16.015625c0-4.425781 3.578125-8 8-8 4.425782 0 8 3.574219 8 8v16.015625c0 4.425782-3.574218 8-8 8zm0 0"/>
        <path d="m424.199219 216.144531h-48.03125c-4.425781 0-8-3.578125-8-8 0-4.425781 3.574219-8 8-8h48.03125c4.425781 0 8 3.574219 8 8 0 4.421875-3.574219 8-8 8zm0 0"/>
        <path d="m432.191406 240.144531h-64.023437c-4.425781 0-8-3.578125-8-8 0-4.425781 3.574219-8 8-8h64.023437c4.425782 0 8 3.574219 8 8 0 4.421875-3.574218 8-8 8zm0 0"/>
    </g>
</svg>