<svg version="1.1" xmlns="http://www.w3.org/2000/svg" viewBox="0 0 362.787 362.787">
    <g fill="currentColor">
        <path d="M260.945,144.979c-2.667,0-5.133,1.416-6.477,3.719l-47.484,81.333c-1.354,2.319-1.365,5.186-0.027,7.516
		c1.337,2.329,3.818,3.766,6.504,3.766h94.968c2.686,0,5.167-1.437,6.504-3.766c1.338-2.33,1.327-5.196-0.027-7.516l-47.483-81.333
		C266.078,146.395,263.612,144.979,260.945,144.979z M226.524,226.312l34.421-58.958l34.42,58.958H226.524z"/>
        <path d="M355.287,254.69h-175.62l81.278-139.218l62.926,107.783c2.088,3.578,6.683,4.784,10.258,2.696
		c3.577-2.088,4.784-6.681,2.695-10.258L267.422,96.815c-0.021-0.036-0.048-0.067-0.069-0.103c-0.126-0.208-0.262-0.408-0.407-0.603
		c-0.044-0.059-0.086-0.118-0.131-0.176c-0.183-0.23-0.376-0.451-0.584-0.658c-0.024-0.024-0.051-0.045-0.076-0.069
		c-0.186-0.18-0.383-0.349-0.587-0.509c-0.065-0.051-0.132-0.1-0.199-0.148c-0.187-0.137-0.379-0.264-0.578-0.384
		c-0.055-0.033-0.108-0.068-0.164-0.1c-0.261-0.147-0.53-0.282-0.809-0.397c-0.011-0.004-0.022-0.008-0.033-0.012
		c-0.26-0.106-0.528-0.196-0.802-0.273c-0.073-0.021-0.146-0.038-0.22-0.056c-0.222-0.055-0.447-0.1-0.677-0.135
		c-0.079-0.012-0.157-0.026-0.236-0.036c-0.297-0.036-0.598-0.06-0.906-0.06H101.842c-2.667,0-5.133,1.416-6.477,3.719
		L1.023,258.408c-1.354,2.319-1.365,5.186-0.027,7.516c1.337,2.329,3.818,3.766,6.504,3.766h86.538c0.008,0,0.015,0.001,0.023,0.001
		s0.015-0.001,0.023-0.001h35.889c0.008,0,0.015,0.001,0.023,0.001s0.015-0.001,0.023-0.001h36.586h188.684
		c4.143,0,7.5-3.358,7.5-7.5S359.43,254.69,355.287,254.69z M162.298,254.69h-19.263l69.43-119.47
		c2.081-3.582,0.865-8.172-2.716-10.253c-3.58-2.083-8.173-0.866-10.253,2.716l-73.81,127.007H107.1l85.192-146.594h55.59
		L162.298,254.69z M106.147,108.096h34.091L74.789,220.717c-2.081,3.582-0.865,8.172,2.716,10.253
		c1.186,0.689,2.482,1.017,3.762,1.017c2.584,0,5.1-1.337,6.491-3.733l69.83-120.158h17.356L89.751,254.69H20.563L106.147,108.096z"
        />
    </g>
</svg>
