<svg viewBox="0 0 512 512" xmlns="http://www.w3.org/2000/svg">
    <g fill="currentColor">
        <path d="m507.546 105.125c0-1.044-.205-2.091-.647-3.072l-43.93-97.63c-1.21-2.692-3.888-4.423-6.839-4.423h-182.63c-4.143 0-7.5 3.357-7.5 7.5s3.357 7.5 7.5 7.5h23.812v82.63h-82.625v-82.63h23.813c4.143 0 7.5-3.357 7.5-7.5s-3.357-7.5-7.5-7.5h-182.63c-2.951 0-5.629 1.731-6.84 4.423l-43.93 97.63c-.441.981-.646 2.028-.647 3.072h-.015v12.203c0 29.514 22.827 53.78 51.751 56.112l31.865 58.419h-4.007c-4.143 0-7.5 3.357-7.5 7.5s3.357 7.5 7.5 7.5h16.633c.005 0 .01.001.015.001s.011-.001.016-.001h16.618c4.143 0 7.5-3.357 7.5-7.5s-3.357-7.5-7.5-7.5h-12.189l-32.456-59.503c15.75-3.413 29.057-13.433 36.879-27.003 9.733 16.887 27.961 28.288 48.812 28.288s39.079-11.401 48.812-28.288c9.733 16.887 27.961 28.288 48.812 28.288s39.079-11.401 48.812-28.288c9.733 16.887 27.961 28.288 48.812 28.288s39.079-11.401 48.812-28.288c7.822 13.571 21.129 23.591 36.879 27.003l-32.456 59.503h-12.188c-4.143 0-7.5 3.357-7.5 7.5s3.357 7.5 7.5 7.5h16.618c.005 0 .011.001.016.001s.01-.001.015-.001h16.633c4.143 0 7.5-3.357 7.5-7.5s-3.357-7.5-7.5-7.5h-4.007l31.865-58.419c28.924-2.332 51.751-26.598 51.751-56.112v-12.203zm-19.085-7.495h-78.523v-82.63h41.343zm-93.523-82.63v82.63h-82.625v-82.63zm-195.25 82.63h-82.625v-82.63h82.625zm-138.968-82.63h41.343v82.63h-78.524zm.034 143.641c-.011 0-.021-.001-.032-.001-22.767-.015-41.285-18.542-41.285-41.312v-4.698h82.625v4.698c0 22.778-18.531 41.31-41.308 41.313zm97.621 0c-22.779 0-41.312-18.533-41.312-41.312v-4.698h82.625v4.698c0 22.778-18.534 41.312-41.313 41.312zm97.625 0c-22.779 0-41.312-18.533-41.312-41.312v-4.698h82.625v4.698c-.001 22.778-18.534 41.312-41.313 41.312zm97.625 0c-22.779 0-41.312-18.533-41.312-41.312v-4.698h82.625v4.698c0 22.778-18.534 41.312-41.313 41.312zm97.648-.001c-.005 0-.009 0-.014 0-.003 0-.006 0-.009 0-22.779 0-41.312-18.533-41.312-41.312v-4.698h82.625v4.698c-.001 22.772-18.521 41.3-41.29 41.312z"/>
    </g>
</svg>