<svg height="512" viewBox="0 0 512 512" width="512" xmlns="http://www.w3.org/2000/svg">
    <g fill="currentColor">
        <path d="m496.704 272.086h-81.704v-88.073c0-4.142-3.357-7.5-7.5-7.5s-7.5 3.358-7.5 7.5v88.073h-15v-193.71c0-8.249-6.711-14.959-14.959-14.959h-91.582c-8.248 0-14.959 6.71-14.959 14.959v193.71h-15v-193.71c0-8.249-6.711-14.959-14.959-14.959h-91.582c-8.248 0-14.959 6.71-14.959 14.959v193.71h-15v-223.669h288v100.596c0 4.142 3.357 7.5 7.5 7.5s7.5-3.358 7.5-7.5v-100.596h3.204c8.435 0 15.296-6.883 15.296-15.344v-17.73c0-8.46-6.861-15.343-15.296-15.343h-324.408c-8.435 0-15.296 6.883-15.296 15.344v17.73c0 8.46 6.861 15.344 15.296 15.344h3.204v223.669h-81.704c-8.435-.001-15.296 6.861-15.296 15.295v17.622c0 8.435 6.861 15.296 15.296 15.296h.5v143.486h-.5c-8.435 0-15.296 6.862-15.296 15.296v17.622c0 8.434 6.861 15.296 15.296 15.296h223.204c4.143 0 7.5-3.358 7.5-7.5s-3.357-7.5-7.5-7.5h-223.204c-.163 0-.296-.133-.296-.296v-17.622c0-.163.133-.296.296-.296h481.408c.163 0 .296.133.296.296v17.622c0 .163-.133.296-.296.296h-223.204c-4.143 0-7.5 3.358-7.5 7.5s3.357 7.5 7.5 7.5h223.204c8.435 0 15.296-6.862 15.296-15.296v-17.622c0-8.434-6.861-15.296-15.296-15.296h-.5v-143.486h.5c8.435 0 15.296-6.862 15.296-15.296v-17.622c0-8.434-6.861-15.296-15.296-15.296zm-403.204-239.012v-17.73c0-.212.153-.344.296-.344h324.408c.143 0 .296.131.296.344v17.73c0 .212-.153.344-.296.344-15.367 0-309.051 0-324.408 0-.143-.001-.296-.132-.296-.344zm184.959 45.343 91.541-.041v193.71h-91.502zm-136.5 0 91.541-.041v193.71h-91.502zm339.245 384.817h-450.408v-142.934h450.408zm15.796-158.23c0 .164-.133.296-.296.296-2.824 0-471.153 0-481.408 0-.163 0-.296-.133-.296-.296v-17.622c0-.163.133-.296.296-.296h481.408c.163 0 .296.133.296.296z"/>
        <path d="m67.655 442.704h18.99c8.768 0 15.9-7.133 15.9-15.901v-69.52c0-8.768-7.133-15.901-15.9-15.901h-18.99c-8.768 0-15.9 7.133-15.9 15.901v69.52c0 8.768 7.133 15.901 15.9 15.901zm-.9-85.421c0-.497.404-.901.9-.901h18.99c.496 0 .9.404.9.901v69.52c0 .497-.404.901-.9.901h-18.99c-.496 0-.9-.404-.9-.901z"/>
        <path d="m139.406 442.704h18.989c8.768 0 15.901-7.133 15.901-15.901v-69.52c0-8.768-7.134-15.901-15.901-15.901h-18.989c-8.768 0-15.901 7.133-15.901 15.901v69.52c0 8.768 7.134 15.901 15.901 15.901zm-.901-85.421c0-.497.404-.901.901-.901h18.989c.497 0 .901.404.901.901v69.52c0 .497-.404.901-.901.901h-18.989c-.497 0-.901-.404-.901-.901z"/>
        <path d="m210.796 442.704h18.99c8.768 0 15.901-7.133 15.901-15.901v-69.52c0-8.768-7.134-15.901-15.901-15.901h-18.99c-8.768 0-15.9 7.133-15.9 15.901v69.52c0 8.768 7.132 15.901 15.9 15.901zm-.9-85.421c0-.497.404-.901.9-.901h18.99c.497 0 .901.404.901.901v69.52c0 .497-.404.901-.901.901h-18.99c-.496 0-.9-.404-.9-.901z"/>
        <path d="m282.547 442.704h18.989c8.768 0 15.901-7.133 15.901-15.901v-69.52c0-8.768-7.134-15.901-15.901-15.901h-18.989c-8.768 0-15.901 7.133-15.901 15.901v69.52c0 8.768 7.133 15.901 15.901 15.901zm-.901-85.421c0-.497.404-.901.901-.901h18.989c.497 0 .901.404.901.901v69.52c0 .497-.404.901-.901.901h-18.989c-.497 0-.901-.404-.901-.901z"/>
        <path d="m354.131 442.704h18.989c8.768 0 15.901-7.133 15.901-15.901v-69.52c0-8.768-7.134-15.901-15.901-15.901h-18.989c-8.768 0-15.901 7.133-15.901 15.901v69.52c-.001 8.768 7.133 15.901 15.901 15.901zm-.902-85.421c0-.497.404-.901.901-.901h18.989c.497 0 .901.404.901.901v69.52c0 .497-.404.901-.901.901h-18.989c-.497 0-.901-.404-.901-.901z"/>
        <path d="m425.521 442.704h18.989c8.768 0 15.901-7.133 15.901-15.901v-69.52c0-8.768-7.134-15.901-15.901-15.901h-18.989c-8.768 0-15.901 7.133-15.901 15.901v69.52c0 8.768 7.134 15.901 15.901 15.901zm-.901-85.421c0-.497.404-.901.901-.901h18.989c.497 0 .901.404.901.901v69.52c0 .497-.404.901-.901.901h-18.989c-.497 0-.901-.404-.901-.901z"/>
        <path d="m316.411 107.268c-2.93-2.929-7.678-2.929-10.607 0s-2.929 7.678 0 10.606l23.512 23.512c2.93 2.929 7.678 2.929 10.607 0s2.929-7.678 0-10.606z"/>
        <path d="m342.604 92.832c-2.93-2.929-7.678-2.929-10.607 0s-2.929 7.678 0 10.606l11.756 11.756c2.93 2.929 7.678 2.929 10.607 0s2.929-7.678 0-10.606z"/>
    </g>
</svg>