<svg height="512" viewBox="0 0 512 512" width="512" xmlns="http://www.w3.org/2000/svg">
    <g fill="currentColor">
        <path d="m413.907 0c-54.104 0-98.122 44.005-98.122 98.096v43.582s-69.831-36.912-71.065-37.593c-9.544-5.266-12.185-5.267-21.731 0-1.234.681-136.141 71.958-136.141 71.958-11.437 6.017-13.045 7.745-17.878 15.783-.788 1.311-65.698 104.23-65.698 104.23-3.175 5.023-4.077 10.962-2.539 16.722 1.617 6.056 5.84 11.269 11.577 14.295 3.646 1.93 7.582 2.85 11.465 2.85 6.202 0 12.255-2.358 16.745-6.688v65.044c0 4.142 3.358 7.5 7.5 7.5s7.5-3.358 7.5-7.5v-87.541s49.134-77.855 49.652-78.682c2.334-3.729 3.328-5.283 4.496-6.318 1.333-1.181 3.665-2.464 8.665-5.107l113.002-59.649c.801-.425 1.49-.803 2.093-1.133.141-.077.285-.156.428-.234.143.078.287.157.428.234.603.331 1.292.708 2.109 1.142 0 0 118.193 62.413 119.642 63.31.869.538 1.509.995 2.009 1.438 1.167 1.035 2.162 2.589 4.496 6.318.518.827 49.651 78.681 49.651 78.681v160.716h-84.921v-104.34h12.625c7.652 0 13.878-6.226 13.878-13.878v-21.43c0-7.652-6.226-13.878-13.878-13.878h-85.122c-4.142 0-7.5 3.358-7.5 7.5s3.358 7.5 7.5 7.5h84v19.186h-209.81v-19.186h91.2c4.142 0 7.5-3.358 7.5-7.5s-3.358-7.5-7.5-7.5h-92.322c-7.652 0-13.878 6.226-13.878 13.878v21.43c0 7.652 6.226 13.878 13.878 13.878h12.625v104.339h-84.947v-38.563c0-4.142-3.358-7.5-7.5-7.5s-7.5 3.358-7.5 7.5v76.536c0 6.934 5.641 12.574 12.574 12.574h445.907c7.167 0 12.999-5.832 12.999-12.999v-400.905c.001-54.091-44.004-98.096-98.092-98.096zm-273.44 497h-84.948v-20.546h84.947v20.546zm159.783-139.886-66.382 59.845-66.382-59.845zm-144.783 9.359 67.201 60.584-67.201 60.584zm12.02 130.527 66.382-59.845 66.381 59.845zm144.783-9.359-67.201-60.584 67.201-60.584zm99.919 9.359h-84.919v-20.546h84.919zm53.445-198.823c-.347-.72-.733-1.427-1.166-2.117l-51.945-82.266h84.477v84.383zm-134.848-200.081c0-45.819 37.288-83.096 83.122-83.096 45.816 0 83.092 37.276 83.092 83.096v1.287h-166.214zm0 16.287h166.214v84.412h-93.949s-3.523-5.656-4.312-6.966c-4.831-8.036-6.44-9.766-17.868-15.778l-50.086-26.45v-35.218zm95.246 180.177s-50.275-79.656-50.78-80.463c-4.799-7.665-6.514-9.825-13.281-13.692-.521-.297-119.929-63.408-120.482-63.711-5.101-2.795-7.847-3.32-12.067-1.572-.037.015-.076.034-.113.05-.616.259-117.985 62.197-117.985 62.197-11.727 6.2-12.961 7.295-18.868 16.729-.505.807-50.78 80.463-50.78 80.463-.01.016-.016.033-.026.049l-10.294 16.31c-2.375 3.767-7.885 5.096-12.039 2.894-2.06-1.086-3.552-2.873-4.093-4.901-.316-1.184-.446-2.984.729-4.843 0 0 65.037-103.124 65.872-104.512 3.448-5.734 3.448-5.734 12.017-10.243 0 0 139.193-73.639 140.012-74.013.82.374 140.012 74.013 140.012 74.013.003.002.007.004.011.006 8.559 4.502 8.559 4.502 12.007 10.238.834 1.388 1.816 3.02 3.058 4.987l62.833 99.509c1.168 1.86 1.034 3.669.716 4.859-.544 2.032-2.032 3.82-4.072 4.899-4.226 2.231-9.645.924-12.069-2.896l-10.292-16.307c-.01-.017-.016-.035-.026-.05zm70.968 202.44h-69.811v-84.411h69.811zm-69.811-99.411v-74.389c7.313 7.042 18.763 8.874 28.238 3.875 5.6-2.965 9.746-8.016 11.438-13.897h30.135v84.412h-69.811z"/>
        <path d="m285.262 237.873c0-28.347-23.062-51.409-51.408-51.409-28.331 0-51.379 23.062-51.379 51.409s23.049 51.409 51.379 51.409c28.347-.001 51.408-23.063 51.408-51.409zm-87.787 0c0-20.076 16.32-36.409 36.379-36.409 20.075 0 36.408 16.333 36.408 36.409s-16.333 36.409-36.408 36.409c-20.059-.001-36.379-16.334-36.379-36.409z"/>
    </g>
</svg>