<svg version="1.1" xmlns="http://www.w3.org/2000/svg" viewBox="0 0 512 512">
    <g fill="currentColor">
        <path d="M485.4,272.067h-8.533v-179.2c0-42.667-34.133-76.8-76.8-76.8c-37.77,0-64.935,28.006-67.974,69.041
				c-19.829,3.748-34.426,20.826-34.426,41.892c0,5.12,3.413,8.533,8.533,8.533h68.267c5.12,0,8.533-3.413,8.533-8.533
				c0-20.833-14.274-37.769-33.767-41.767c2.55-27.116,18.836-52.1,50.834-52.1c33.28,0,59.733,26.453,59.733,59.733v179.2H202.975
				c-3.86-19.681-20.878-34.133-41.841-34.133c-8.533-10.24-20.48-17.067-34.133-17.067c-16.213,0-30.72,9.387-37.547,23.04
				c-6.827-3.413-14.507-5.973-22.187-5.973c-20.963,0-37.981,14.452-41.841,34.133H24.6c-14.507,0-25.6,11.093-25.6,25.6
				c0,14.507,11.093,25.6,25.6,25.6h10.255l23.025,91.307c6.827,26.453,30.72,45.227,58.027,45.227h6.827l-11.093,22.187
				c-2.56,4.267-0.853,9.387,3.413,11.093c0.853,0.853,2.56,0.853,3.413,0.853c3.413,0,5.973-1.707,7.68-4.267L141.08,459.8h236.8
				l14.507,29.013c1.707,3.413,4.267,5.12,7.68,5.12c1.707,0,2.56,0,3.413-1.707c3.413-1.707,5.12-6.827,3.413-11.093
				l-10.689-21.379c26.419-0.938,49.266-19.39,55.916-44.328l23.24-92.16h10.04c14.507,0,25.6-11.093,25.6-25.6
				C511,283.16,499.907,272.067,485.4,272.067z M365.08,118.467h-48.64c3.413-10.24,13.653-17.067,24.747-17.067
				S361.667,108.227,365.08,118.467z M67.267,255c7.68,0,14.507,3.413,20.48,9.387c1.707,2.56,5.12,3.413,8.533,2.56
				s5.12-3.413,5.973-6.827c2.56-12.8,12.8-22.187,25.6-22.187c9.387,0,17.92,4.267,22.187,12.8c1.707,3.413,5.973,5.12,9.387,4.267
				c0.853,0,1.707,0,2.56,0c11.093,0,20.48,6.827,23.893,17.067H43.373C46.787,261.827,56.173,255,67.267,255z M436.76,410.307
				c-5.12,18.773-22.187,32.427-41.813,32.427H116.76c-19.627,0-36.693-13.653-41.813-32.427l-22.187-87.04h404.48L436.76,410.307z
				 M485.4,306.2h-17.067H41.667H24.6c-5.12,0-8.533-3.413-8.533-8.533s3.413-8.533,8.533-8.533h8.533h162.133H485.4
				c5.12,0,8.533,3.413,8.533,8.533S490.52,306.2,485.4,306.2z"/>
        <path d="M306.2,173.933c5.12,0,8.533-3.413,8.533-8.533v-4.267c0-5.12-3.413-8.533-8.533-8.533s-8.533,3.413-8.533,8.533v4.267
				C297.667,170.52,301.08,173.933,306.2,173.933z"/>
        <path d="M306.2,213.187c5.12,0,8.533-4.267,8.533-8.533v-9.387c0-5.12-3.413-8.533-8.533-8.533s-8.533,3.413-8.533,8.533v9.387
				C297.667,209.773,301.08,213.187,306.2,213.187z"/>
        <path d="M306.2,246.467c5.12,0,8.533-3.413,8.533-8.533v-4.267c0-5.12-3.413-8.533-8.533-8.533s-8.533,3.413-8.533,8.533v4.267
				C297.667,243.053,301.08,246.467,306.2,246.467z"/>
        <path d="M340.333,173.933c5.12,0,8.533-3.413,8.533-8.533v-4.267c0-5.12-3.413-8.533-8.533-8.533
				c-5.12,0-8.533,3.413-8.533,8.533v4.267C331.8,170.52,335.213,173.933,340.333,173.933z"/>
        <path d="M331.8,204.653c0,5.12,3.413,8.533,8.533,8.533c5.12,0,8.533-4.267,8.533-8.533v-9.387c0-5.12-3.413-8.533-8.533-8.533
				c-5.12,0-8.533,3.413-8.533,8.533V204.653z"/>
        <path d="M331.8,237.933c0,5.12,3.413,8.533,8.533,8.533c5.12,0,8.533-3.413,8.533-8.533v-4.267c0-5.12-3.413-8.533-8.533-8.533
				c-5.12,0-8.533,3.413-8.533,8.533V237.933z"/>
        <path d="M374.467,173.933c5.12,0,8.533-3.413,8.533-8.533v-4.267c0-5.12-3.413-8.533-8.533-8.533s-8.533,3.413-8.533,8.533v4.267
				C365.933,170.52,369.347,173.933,374.467,173.933z"/>
        <path d="M365.933,204.653c0,5.12,3.413,8.533,8.533,8.533S383,208.92,383,204.653v-9.387c0-5.12-3.413-8.533-8.533-8.533
				s-8.533,3.413-8.533,8.533V204.653z"/>
        <path d="M365.933,237.933c0,5.12,3.413,8.533,8.533,8.533s8.533-3.413,8.533-8.533v-4.267c0-5.12-3.413-8.533-8.533-8.533
				s-8.533,3.413-8.533,8.533V237.933z"/>
    </g>
</svg>
