<svg height="512" viewBox="0 0 512 512" width="512" xmlns="http://www.w3.org/2000/svg">
    <g fill="currentColor">
        <path d="m394.063 391.996c-9.198-5.29-18.373-10.623-27.558-15.937 5.002-11.769 10.194-23.902 14.903-36.053 1.809-4.667 1.189-9.911-1.655-14.028-5.776-8.361-16.863-8.855-24.344-1.74-19.661 18.7-39.085 37-58.652 55.537-3.775 3.577-5.639 8.434-5.11 13.327.523 4.846 3.339 9.144 7.725 11.792 9.345 5.641 18.761 10.955 28.098 16.291-4.644 10.951-10.372 24.246-14.92 36.002-2.887 7.462.421 15.744 7.693 19.264 5.714 2.766 12.28 2.211 18.299-3.483 19.344-18.3 39.343-37.214 58.67-55.547 3.818-3.622 5.674-8.512 5.09-13.416-.591-4.962-3.594-9.338-8.239-12.009zm-7.174 14.54c-15.634 14.832-58.949 56.973-60.109 56.412-.118-.057-.306-.178-.24-.349 5.179-13.526 11.635-28.272 16.918-40.732 1.493-3.522.907-8.28-3.768-10.97-10.84-6.237-21.791-12.354-32.564-18.845-.802-.483-.767-.71-.051-1.388 20.874-19.779 57.959-55.311 59.803-56.459.396.084.544.299.545.384-5.307 13.684-11.213 27.305-16.9 40.739-1.794 4.237-.293 8.649 3.739 10.98 4.399 2.54 8.796 5.087 13.191 7.634 6.374 3.693 12.748 7.387 19.134 11.059 1.106.635 1.136.744.302 1.535zm-81.784-208.4h-201.46c-10.273 0-18.631 8.33-18.631 18.569v44.276c0 10.239 8.357 18.569 18.631 18.569h201.461c10.273 0 18.631-8.33 18.631-18.569v-44.276c-.001-10.239-8.358-18.569-18.632-18.569zm3.631 62.845c0 1.968-1.629 3.569-3.631 3.569h-201.46c-2.002 0-3.631-1.601-3.631-3.569v-44.276c0-1.968 1.629-3.569 3.631-3.569h201.461c2.002 0 3.631 1.601 3.631 3.569v44.276zm15-143.898c0-10.239-8.357-18.569-18.631-18.569h-201.46c-10.273 0-18.631 8.33-18.631 18.569v44.276c0 10.239 8.357 18.569 18.631 18.569h201.461c10.273 0 18.631-8.33 18.631-18.569v-44.276zm-15 44.277c0 1.968-1.629 3.569-3.631 3.569h-201.46c-2.002 0-3.631-1.601-3.631-3.569v-44.276c0-1.968 1.629-3.569 3.631-3.569h201.461c2.002 0 3.631 1.601 3.631 3.569v44.276zm38.247 123.857c-18.653 0-36.266 4.529-51.803 12.542h-191.535c-10.272 0-18.63 8.331-18.63 18.57v44.27c0 10.239 8.357 18.57 18.63 18.57h131.621c-1.096 6.318-1.673 12.812-1.673 19.438 0 24.243 7.651 46.729 20.66 65.182h-150.608c-2.002 0-3.63-1.602-3.63-3.57v-44.27c0-1.969 1.628-3.57 3.63-3.57h107.641c4.143 0 7.5-3.358 7.5-7.5s-3.357-7.5-7.5-7.5h-107.641c-10.272 0-18.63 8.331-18.63 18.57v44.27c0 10.239 8.357 18.57 18.63 18.57h163.237c7.07 7.063 15.065 13.199 23.785 18.21h-198.242c-14.227 0-25.8-11.574-25.8-25.8v-365.089c0-14.226 11.573-25.8 25.8-25.8h223.9c14.227 0 25.8 11.574 25.8 25.8v156.64c0 4.142 3.357 7.5 7.5 7.5s7.5-3.358 7.5-7.5v-156.64c0-22.497-18.303-40.8-40.8-40.8h-40.067v-35.611c0-16.376-13.323-29.699-29.699-29.699h-84.367c-16.376 0-29.699 13.323-29.699 29.699v35.611h-40.068c-22.497 0-40.8 18.303-40.8 40.8v365.09c0 22.497 18.303 40.8 40.8 40.8h223.9c3.892 0 7.731-.553 11.442-1.636 6.248 1.071 12.667 1.636 19.216 1.636 62.524 0 113.392-50.867 113.392-113.392 0-62.524-50.867-113.391-113.392-113.391zm-199.491-255.518c0-8.105 6.594-14.699 14.699-14.699h84.367c8.105 0 14.699 6.594 14.699 14.699v35.611h-113.765zm-43.847 334.471c-2.002 0-3.63-1.602-3.63-3.57v-44.27c0-1.969 1.628-3.57 3.63-3.57h169.341c-15.666 13.521-27.6 31.25-34.041 51.41zm243.338 132.83c-54.253 0-98.392-44.138-98.392-98.392 0-54.253 44.139-98.391 98.392-98.391s98.392 44.138 98.392 98.391c0 54.254-44.139 98.392-98.392 98.392z"/>
    </g>
</svg>