<svg height="480pt" viewBox="-3 0 480 480" width="480pt" xmlns="http://www.w3.org/2000/svg">
    <g fill="currentColor">
        <path d="m234.96875 64c-13.253906 0-24 10.746094-24 24s10.746094 24 24 24 24-10.746094 24-24-10.746094-24-24-24zm0 32c-4.417969 0-8-3.582031-8-8s3.582031-8 8-8 8 3.582031 8 8-3.582031 8-8 8zm0 0"/>
        <path d="m306.96875 160h-144c-4.417969 0-8 3.582031-8 8v64c0 4.417969 3.582031 8 8 8h144c4.417969 0 8-3.582031 8-8v-64c0-4.417969-3.582031-8-8-8zm-8 64h-128v-48h128zm0 0"/>
        <path d="m186.96875 192h16v16h-16zm0 0"/>
        <path d="m218.96875 192h32v16h-32zm0 0"/>
        <path d="m266.96875 192h16v16h-16zm0 0"/>
        <path d="m138.96875 72v32h16v-24h16v-16h-24c-4.417969 0-8 3.582031-8 8zm0 0"/>
        <path d="m466.96875 0h-32c-4.417969 0-8 3.582031-8 8v192c0 4.417969-3.582031 8-8 8h-56v-56h24c4.417969 0 8-3.582031 8-8v-48c0-4.417969-3.582031-8-8-8h-24v-16c-.027344-22.082031-17.921875-39.972656-40-40h-16v-16h-16v16h-17.761719l-6.480469-25.9375c-.886718-3.5625-4.085937-6.0625-7.757812-6.0625h-48c-3.671875 0-6.871094 2.5-7.761719 6.0625l-6.480469 25.9375h-17.757812v-16h-16v16h-16c-22.082031.027344-39.972656 17.917969-40 40v56h-24c-4.417969 0-8 3.582031-8 8v64c0 4.417969 3.582031 8 8 8h24v224h-24c-4.417969 0-8 3.582031-8 8v32c0 4.417969 3.582031 8 8 8h96c4.417969 0 8-3.582031 8-8v-32c0-4.417969-3.582031-8-8-8h-24v-41.710938c12.371094 6.375 26.082031 9.703126 40 9.710938h8v24c0 4.417969 3.582031 8 8 8h48c4.417969 0 8-3.582031 8-8v-24h8c13.914062-.007812 27.628906-3.335938 40-9.710938v41.710938h-24c-4.417969 0-8 3.582031-8 8v32c0 4.417969 3.582031 8 8 8h96c4.417969 0 8-3.582031 8-8v-32c0-4.417969-3.582031-8-8-8h-24v-176h56c30.910156-.039062 55.960938-25.089844 56-56v-192c0-4.417969-3.582031-8-8-8zm-88 104v32h-16v-32zm-161.753906-88h35.503906l4 16h-43.503906zm-94.246094 56c0-13.253906 10.746094-24 24-24h176c13.253906 0 24 10.746094 24 24v56h-224zm-32 120v-48h16v48zm80 272h-80v-16h80zm-32-32h-16v-69.558594c4.535156 6.484375 9.914062 12.332032 16 17.390625zm112-16h-32v-16h32zm128 48h-80v-16h80zm-32-32h-16v-52.167969c6.082031-5.058593 11.464844-10.90625 16-17.390625zm0-120c-.042969 39.746094-32.253906 71.957031-72 72h-80c-39.746094-.042969-71.957031-32.253906-72-72v-168h224zm112-112c-.027344 22.082031-17.921875 39.972656-40 40h-56v-16h56c13.253906 0 24-10.746094 24-24v-184h16zm0 0"/>
        <path d="m56.625 53.65625 10.34375-10.34375 18.34375 18.34375 11.3125-11.3125-24-24c-3.125-3.121094-8.1875-3.121094-11.3125 0l-10.9375 10.9375-34.398438-27.527344-10.007812 12.492188 40 32c3.183594 2.550781 7.773438 2.292968 10.65625-.589844zm0 0"/>
        <path d="m0 87.433594 40 16c2.972656 1.183594 6.363281.484375 8.625-1.777344l11.917969-11.921875 26.847656 13.464844 7.152344-14.320313-32-16c-3.078125-1.535156-6.796875-.929687-9.230469 1.503906l-12.273438 12.226563-35.101562-14.042969zm0 0"/>
    </g>
</svg>