<svg xmlns="http://www.w3.org/2000/svg" viewBox="0 0 45.393 45.393">
    <g fill="currentColor">
        <path d="M43.518,12.709L25.178,0.728c-1.511-0.978-3.458-0.968-4.96,0.021L1.859,12.719c-1.14,0.751-1.455,2.284-0.705,3.424
			c0.751,1.14,2.283,1.456,3.424,0.704L22.715,5.021L40.83,16.857c0.416,0.269,0.881,0.396,1.341,0.396
			c0.812,0,1.604-0.397,2.077-1.127C44.99,14.98,44.662,13.452,43.518,12.709z"/>
        <path d="M38.879,27.616c-0.151-0.865-0.903-1.505-1.78-1.505h-1.008l-0.383-3.987c-0.409-4.264-3.948-7.49-8.232-7.49H17.92
			c-4.285,0-7.823,3.227-8.233,7.49l-0.382,3.987H8.296c-0.878,0-1.629,0.64-1.782,1.505l-1.5,8.504
			c-0.186,1.054,0.112,2.139,0.8,2.957c0.662,0.788,1.637,1.258,2.657,1.293v1.412c0,1.999,1.602,3.61,3.603,3.61h1.138
			c1.999,0,3.625-1.611,3.625-3.61v-1.389h11.732v1.386c0,2,1.613,3.613,3.612,3.613h1.139c1.999,0,3.614-1.613,3.614-3.613V40.37
			c1.02-0.035,1.989-0.501,2.649-1.288c0.688-0.82,0.982-1.899,0.798-2.955L38.879,27.616z M11.642,37.113
			c-1.687,0-3.055-1.367-3.055-3.056c0-1.689,1.368-3.057,3.055-3.057c1.688,0,3.057,1.367,3.057,3.057
			C14.699,35.746,13.33,37.113,11.642,37.113z M12.404,26.111l0.353-3.678c0.257-2.674,2.476-4.688,5.163-4.688h0.551v1.156
			c0,1.003,0.797,1.802,1.799,1.802h4.856c1.002,0,1.813-0.799,1.813-1.802v-1.155h0.537c2.687,0,4.906,2.014,5.162,4.688
			l0.354,3.678L12.404,26.111L12.404,26.111z M33.75,37.113c-1.687,0-3.055-1.367-3.055-3.056c0-1.689,1.368-3.057,3.055-3.057
			c1.688,0,3.057,1.367,3.057,3.057C36.807,35.746,35.438,37.113,33.75,37.113z"/>
    </g>
</svg>
