<svg height="512" viewBox="0 0 74 74" width="512" xmlns="http://www.w3.org/2000/svg">
    <g fill="currentColor">
        <path d="m46.44 4h-2.97a1 1 0 0 1 0-2h2.97a1 1 0 0 1 0 2z"/>
        <path d="m68.64 10.38h-63.28a1 1 0 0 1 -1-1v-6.38a1 1 0 0 1 1-1h21.2a1 1 0 0 1 0 2h-20.2v4.38h61.28v-4.38h-14.2a1 1 0 0 1 0-2h15.2a1 1 0 0 1 1 1v6.38a1 1 0 0 1 -1 1z"/>
        <path d="m36.47 4h-2.91a1 1 0 0 1 0-2h2.91a1 1 0 0 1 0 2z"/>
        <path d="m37 51.207a1 1 0 0 1 -1-1v-40.828a1 1 0 1 1 2 0v40.828a1 1 0 0 1 -1 1z"/>
        <path d="m46.771 67.07h-19.542a1 1 0 0 1 -.977-1.215l3.49-15.855a1 1 0 0 1 .977-.785h12.562a1 1 0 0 1 .977.785l3.49 15.86a1 1 0 0 1 -.977 1.215zm-18.3-2h17.056l-3.049-13.86h-10.956z"/>
        <path d="m37 72a5.936 5.936 0 0 1 -5.93-5.93 1 1 0 0 1 2 0 3.93 3.93 0 0 0 7.86 0 1 1 0 0 1 2 0 5.936 5.936 0 0 1 -5.93 5.93z"/>
        <path d="m60.416 35.114a1 1 0 0 1 -1-1v-24.735a1 1 0 0 1 2 0v24.735a1 1 0 0 1 -1 1z"/>
        <path d="m69.6 50.026h-18.37a1 1 0 0 1 -.976-1.215l3.28-14.911a1 1 0 0 1 .977-.785h11.809a1 1 0 0 1 .977.785l3.28 14.909a1 1 0 0 1 -.976 1.215zm-17.126-2h15.882l-2.839-12.909h-10.2z"/>
        <path d="m60.416 54.66a5.641 5.641 0 0 1 -5.634-5.634 1 1 0 1 1 2 0 3.634 3.634 0 1 0 7.268 0 1 1 0 1 1 2 0 5.641 5.641 0 0 1 -5.634 5.634z"/>
        <path d="m13.584 35.114a1 1 0 0 1 -1-1v-24.735a1 1 0 0 1 2 0v24.735a1 1 0 0 1 -1 1z"/>
        <path d="m22.77 50.026h-18.37a1 1 0 0 1 -.976-1.215l3.276-14.911a1 1 0 0 1 .977-.785h11.812a1 1 0 0 1 .977.785l3.28 14.909a1 1 0 0 1 -.976 1.215zm-17.126-2h15.881l-2.839-12.909h-10.203z"/>
        <path d="m13.584 54.66a5.641 5.641 0 0 1 -5.634-5.634 1 1 0 0 1 2 0 3.634 3.634 0 0 0 7.268 0 1 1 0 0 1 2 0 5.641 5.641 0 0 1 -5.634 5.634z"/>
    </g>
</svg>