<svg version="1.1" xmlns="http://www.w3.org/2000/svg" viewBox="0 0 512 512">
    <g fill="currentColor">
        <path d="M494.594,394.237h-19.461c12.954-19.543,20.512-42.958,20.512-68.109c0-68.157-55.449-123.606-123.606-123.606
			c-7.171,0-14.2,0.622-21.04,1.799c17.853-21.435,28.608-48.979,28.608-78.99C379.606,57.174,324.157,1.724,256,1.724
			c-68.157,0-123.606,55.449-123.606,123.606c0,30.012,10.755,57.555,28.608,78.99c-6.84-1.178-13.869-1.799-21.04-1.799
			c-68.157,0-123.606,55.449-123.606,123.606c0,25.151,7.558,48.567,20.512,68.109H17.406L0,510.276h93.294l15.135-20.181h63.064
			l15.135,20.181h138.742l15.135-20.181h63.064l15.135,20.181H512L494.594,394.237z M469.519,373.67l-13.142-7.588
			c4.736-9.958,7.76-20.881,8.688-32.387h15.175C479.254,347.948,475.503,361.45,469.519,373.67z M409.877,394.533v-136.81
			c24.045,13.354,40.361,39.005,40.361,68.405S433.922,381.178,409.877,394.533z M419.581,423.608
			c-12.22,5.984-25.722,9.734-39.975,10.722v-15.175c11.506-0.927,22.429-3.951,32.387-8.688L419.581,423.608z M448.787,379.176
			l13.148,7.591c-7.794,11.517-17.74,21.463-29.256,29.256l-7.591-13.148C434.336,396.464,442.375,388.425,448.787,379.176z
			 M480.241,318.56h-15.175c-0.927-11.506-3.951-22.429-8.688-32.387l13.142-7.588C475.503,290.805,479.254,304.307,480.241,318.56z
			 M432.678,236.231c11.516,7.794,21.463,17.74,29.256,29.256l-13.148,7.591c-6.412-9.249-14.45-17.287-23.699-23.699
			L432.678,236.231z M411.994,241.789c-9.958-4.736-20.881-7.76-32.387-8.688v-15.176c14.252,0.987,27.754,4.738,39.974,10.722
			L411.994,241.789z M394.742,251.3v149.655c-7.189,2.186-14.81,3.372-22.703,3.372c-7.894,0-15.514-1.187-22.703-3.372V251.3
			c7.189-2.186,14.81-3.372,22.703-3.372C379.932,247.928,387.552,249.114,394.742,251.3z M177.8,394.533v-136.81
			c24.045,13.354,40.361,39.005,40.361,68.405S201.845,381.178,177.8,394.533z M187.504,423.608
			c-12.22,5.984-25.722,9.734-39.975,10.722v-15.175c11.506-0.927,22.429-3.951,32.387-8.688L187.504,423.608z M282.142,265.488
			c7.794-11.517,17.74-21.463,29.256-29.256l7.591,13.148c-9.249,6.412-17.287,14.45-23.699,23.699L282.142,265.488z M287.7,286.173
			c-4.736,9.958-7.76,20.881-8.688,32.387h-15.175c0.987-14.253,4.737-27.754,10.722-39.975L287.7,286.173z M316.64,215.227
			l-7.591-13.148c9.249-6.412,17.287-14.45,23.699-23.699l13.148,7.591C338.103,197.487,328.157,207.433,316.64,215.227z
			 M293.839,193.736V56.925C317.884,70.28,334.2,95.93,334.2,125.331S317.884,180.381,293.839,193.736z M295.955,209.669
			l7.587,13.142c-12.22,5.984-25.722,9.734-39.975,10.722v-15.175C275.074,217.43,285.996,214.407,295.955,209.669z M277.04,247.138
			c-8.951,10.747-16.119,23.028-21.04,36.389c-4.921-13.361-12.089-25.641-21.04-36.389c6.84,1.178,13.869,1.799,21.04,1.799
			C263.171,248.937,270.2,248.315,277.04,247.138z M248.164,318.56h-15.175c-0.927-11.506-3.951-22.429-8.688-32.387l13.142-7.588
			C243.426,290.805,247.177,304.307,248.164,318.56z M248.431,233.533c-14.252-0.987-27.754-4.738-39.974-10.722l7.587-13.142
			c9.958,4.736,20.881,7.76,32.387,8.688V233.533z M218.161,193.736c-24.045-13.354-40.361-39.005-40.361-68.405
			c0-29.4,16.316-55.051,40.361-68.405V193.736z M179.251,178.379c6.412,9.249,14.45,17.287,23.699,23.699l-7.591,13.148
			c-11.516-7.794-21.463-17.74-29.256-29.256L179.251,178.379z M200.601,236.231c11.516,7.794,21.463,17.74,29.256,29.256
			l-13.148,7.591c-6.412-9.249-14.45-17.287-23.699-23.699L200.601,236.231z M216.71,379.176l13.148,7.591
			c-7.794,11.517-17.74,21.463-29.256,29.256l-7.591-13.148C202.259,396.464,210.298,388.425,216.71,379.176z M224.3,366.082
			c4.736-9.958,7.76-20.881,8.688-32.387h15.175c-0.987,14.253-4.737,27.754-10.722,39.975L224.3,366.082z M256,368.729
			c3.332,9.045,7.697,17.593,12.944,25.508h-25.888C248.303,386.321,252.668,377.774,256,368.729z M263.836,333.695h15.175
			c0.927,11.506,3.951,22.429,8.688,32.387l-13.142,7.588C268.574,361.45,264.823,347.948,263.836,333.695z M295.29,379.176
			c6.412,9.249,14.45,17.287,23.699,23.699l-7.591,13.148c-11.516-7.794-21.463-17.74-29.256-29.256L295.29,379.176z
			 M293.839,326.128c0-29.4,16.316-55.051,40.361-68.405v136.81C310.155,381.178,293.839,355.528,293.839,326.128z M332.084,410.466
			c9.958,4.736,20.881,7.76,32.387,8.688v15.175c-14.253-0.987-27.754-4.738-39.975-10.722L332.084,410.466z M364.471,217.925V233.1
			c-11.506,0.927-22.429,3.951-32.387,8.688l-7.587-13.142C336.716,222.663,350.218,218.912,364.471,217.925z M353.48,172.873
			l-13.142-7.588c4.736-9.958,7.76-20.881,8.688-32.387h15.175C363.216,147.151,359.465,160.653,353.48,172.873z M364.202,117.763
			h-15.175c-0.927-11.506-3.951-22.429-8.688-32.387l13.142-7.588C359.465,90.008,363.216,103.51,364.202,117.763z M316.64,35.434
			c11.516,7.794,21.463,17.74,29.256,29.256l-13.148,7.591c-6.412-9.249-14.45-17.287-23.699-23.699L316.64,35.434z M295.956,40.992
			c-9.958-4.736-20.881-7.76-32.387-8.688V17.128c14.252,0.987,27.754,4.738,39.974,10.722L295.956,40.992z M278.703,50.503v149.655
			c-7.189,2.186-14.81,3.372-22.703,3.372c-7.894,0-15.514-1.187-22.703-3.372V50.503c7.189-2.186,14.81-3.372,22.703-3.372
			C263.894,47.131,271.514,48.317,278.703,50.503z M248.432,17.128v15.175c-11.506,0.927-22.429,3.951-32.387,8.688l-7.587-13.142
			C220.678,21.866,234.18,18.115,248.432,17.128z M195.36,35.434l7.591,13.148c-9.249,6.412-17.287,14.45-23.699,23.699
			l-13.148-7.591C173.897,53.174,183.843,43.228,195.36,35.434z M158.52,77.788l13.142,7.588c-4.736,9.958-7.76,20.881-8.688,32.387
			h-15.175C148.785,103.51,152.535,90.008,158.52,77.788z M158.52,172.873c-5.984-12.22-9.735-25.722-10.722-39.975h15.175
			c0.927,11.506,3.951,22.429,8.688,32.387L158.52,172.873z M187.504,228.647l-7.587,13.142c-9.958-4.736-20.881-7.76-32.387-8.688
			v-15.176C161.782,218.912,175.284,222.664,187.504,228.647z M162.665,251.3v149.655c-7.189,2.186-14.81,3.372-22.703,3.372
			c-7.894,0-15.514-1.187-22.703-3.372V251.3c7.189-2.186,14.81-3.372,22.703-3.372C147.855,247.928,155.475,249.114,162.665,251.3z
			 M61.762,326.128c0-29.4,16.316-55.051,40.361-68.405v136.81C78.078,381.178,61.762,355.528,61.762,326.128z M86.913,402.876
			l-7.591,13.148c-11.516-7.794-21.463-17.74-29.256-29.256l13.148-7.591C69.625,388.425,77.664,396.464,86.913,402.876z
			 M100.007,410.466c9.958,4.736,20.881,7.76,32.387,8.688v15.175c-14.253-0.987-27.754-4.738-39.975-10.722L100.007,410.466z
			 M132.394,217.925V233.1c-11.506,0.927-22.429,3.951-32.387,8.688l-7.587-13.142C104.639,222.663,118.141,218.912,132.394,217.925
			z M79.322,236.231l7.591,13.148c-9.249,6.412-17.287,14.45-23.699,23.699l-13.148-7.591
			C57.859,253.971,67.805,244.025,79.322,236.231z M42.481,278.585l13.142,7.588c-4.736,9.958-7.76,20.881-8.688,32.387H31.759
			C32.746,304.307,36.497,290.805,42.481,278.585z M31.759,333.695h15.175c0.927,11.506,3.951,22.429,8.688,32.387L42.48,373.67
			C36.497,361.45,32.746,347.948,31.759,333.695z M426.274,495.14l-15.135-20.181h-78.2l-15.135,20.181H194.197l-15.135-20.181
			h-78.2L85.726,495.14H17.575l12.865-85.768h18.23c22.62,24.786,55.171,40.361,91.291,40.361s68.671-15.575,91.291-40.361h49.494
			c22.62,24.786,55.171,40.361,91.291,40.361s68.671-15.575,91.291-40.361h18.23l12.865,85.768H426.274z"/>
        <rect x="305.948" y="116.755" width="15.135" height="15.135"/>
        <rect x="190.919" y="116.755" width="15.135" height="15.135"/>
        <rect x="248.433" y="111.205" width="15.135" height="15.135"/>
        <rect x="248.433" y="65.799" width="15.135" height="30.271"/>
        <rect x="248.433" y="171.747" width="15.135" height="15.135"/>
        <rect x="421.986" y="317.552" width="15.135" height="15.135"/>
        <rect x="306.957" y="317.552" width="15.135" height="15.135"/>
        <rect x="364.472" y="312.002" width="15.135" height="15.135"/>
        <rect x="364.472" y="266.596" width="15.135" height="30.271"/>
        <rect x="364.472" y="372.544" width="15.135" height="15.135"/>
        <rect x="189.91" y="317.552" width="15.135" height="15.135"/>
        <rect x="74.88" y="317.552" width="15.135" height="15.135"/>
        <rect x="132.395" y="312.002" width="15.135" height="15.135"/>
        <rect x="132.395" y="266.596" width="15.135" height="30.271"/>
        <rect x="132.395" y="372.544" width="15.135" height="15.135"/>
        <rect x="461.387" y="470.881" transform="matrix(0.9889 -0.1483 0.1483 0.9889 -65.772 74.8411)"
              width="15.135" height="15.135"/>
        <rect x="456.21" y="431.935" transform="matrix(0.9889 -0.1483 0.1483 0.9889 -60.7199 73.6903)"
              width="15.135" height="24.145"/>
        <rect x="248.433" y="464.87" width="45.406" height="15.135"/>
        <rect x="218.162" y="464.87" width="15.135" height="15.135"/>
        <rect x="263.569" y="424.509" width="15.135" height="15.135"/>
        <rect x="233.298" y="424.509" width="15.135" height="15.135"/>
        <rect x="36.127" y="436.461" transform="matrix(0.1483 -0.9889 0.9889 0.1483 -398.0675 425.8427)"
              width="24.145" height="15.135"/>
        <rect x="35.468" y="470.86" transform="matrix(0.1483 -0.9889 0.9889 0.1483 -436.4838 450.0325)"
              width="15.135" height="15.135"/>
    </g>
</svg>
