<svg xmlns="http://www.w3.org/2000/svg" viewBox="0 0 64 64">
    <g fill="currentColor">
        <path d="M61,21H3a1,1,0,0,0,0,2H61a1,1,0,0,0,0-2Z"/>
        <path d="M61,2H49a1,1,0,0,0-1,1V17H46v-.764a10.533,10.533,0,0,0-1.1-4.683A8.522,8.522,0,0,1,44,7.764V3a1,1,0,0,0-1-1H39a1,1,0,0,0-1,1V7.764a8.522,8.522,0,0,1-.9,3.789c-.039.08-.067.165-.1.246-.038-.081-.066-.166-.1-.246A8.522,8.522,0,0,1,36,7.764V3a1,1,0,0,0-1-1H31a1,1,0,0,0-1,1V7.764a8.522,8.522,0,0,1-.895,3.789A10.533,10.533,0,0,0,28,16.236V17H18V10.414a2.394,2.394,0,0,1,.707-1.706A4.385,4.385,0,0,0,20,5.586V4h2V5.586a4.385,4.385,0,0,0,1.293,3.122A2.394,2.394,0,0,1,24,10.414V14a1,1,0,0,0,2,0V10.414a4.385,4.385,0,0,0-1.293-3.122A2.394,2.394,0,0,1,24,5.586V3a1,1,0,0,0-1-1H19a1,1,0,0,0-1,1V5.586a2.394,2.394,0,0,1-.707,1.706A4.515,4.515,0,0,0,17,7.649a4.515,4.515,0,0,0-.293-.357A2.394,2.394,0,0,1,16,5.586V3a1,1,0,0,0-1-1H11a1,1,0,0,0-1,1V5.586a2.394,2.394,0,0,1-.707,1.706A4.385,4.385,0,0,0,8,10.414V17H3a1,1,0,0,0,0,2H61a1,1,0,0,0,0-2H50V14H60a1,1,0,0,0,2,0V3A1,1,0,0,0,61,2ZM42,4V7H40V4ZM10.707,8.708A4.385,4.385,0,0,0,12,5.586V4h2V5.586a4.385,4.385,0,0,0,1.293,3.122A2.394,2.394,0,0,1,16,10.414V12H10V10.414A2.394,2.394,0,0,1,10.707,8.708ZM10,14h6v3H10Zm20,2.236a8.522,8.522,0,0,1,.895-3.789A10.533,10.533,0,0,0,32,7.764V4h2V7.764a10.533,10.533,0,0,0,1.1,4.683,8.522,8.522,0,0,1,.9,3.789V17H30ZM38,17v-.764a8.522,8.522,0,0,1,.9-3.789A10.541,10.541,0,0,0,39.924,9h2.152a10.541,10.541,0,0,0,1.029,3.447,8.522,8.522,0,0,1,.9,3.789V17ZM60,4V6H50V4ZM50,12V8H60v4Z"/>
        <path d="M61,44H3a1,1,0,0,0,0,2H60V60H46V49a1,1,0,0,0-2,0V60H42V53a1,1,0,0,0-1-1H26a1,1,0,0,0-1,1v7H22V49a1,1,0,0,0-1-1H5a1,1,0,0,0-1,1V60H3a1,1,0,0,0,0,2H61a1,1,0,0,0,1-1V45A1,1,0,0,0,61,44ZM40,56H37V54h3Zm-5,0H32V54h3Zm-5-2v2H27V54ZM20,52.382a3.947,3.947,0,0,0-6,0V50h6ZM19,55a2,2,0,1,1-2-2A2,2,0,0,1,19,55ZM6,54h6v2H6Zm6-4v2H6V50ZM6,58h6v2H6Zm8,2V57.618a3.947,3.947,0,0,0,6,0V60Zm13-2h3v2H27Zm5,0h3v2H32Zm5,2V58h3v2Z"/>
        <path d="M57,56a1,1,0,0,0,1-1V51a1,1,0,0,0-1-1H49a1,1,0,0,0-1,1v4a1,1,0,0,0,1,1Zm-7-4h6v2H50Z"/>
        <path d="M60,29.184V26a1,1,0,0,0-1-1H55a1,1,0,0,0-1,1v3.184A3,3,0,0,0,52,32v7a2.966,2.966,0,0,0,.184,1H49V34a1,1,0,0,0,0-2H41a1,1,0,0,0,0,2v6H38V31a1,1,0,0,0-1-1H25a1,1,0,0,0-1,1v9H22V39a1,1,0,0,0-2,0v1H14V33.414a2.394,2.394,0,0,1,.707-1.706A4.385,4.385,0,0,0,16,28.586V27h2v1.586a4.385,4.385,0,0,0,1.293,3.122A2.394,2.394,0,0,1,20,33.414V35a1,1,0,0,0,2,0V33.414a4.385,4.385,0,0,0-1.293-3.122A2.394,2.394,0,0,1,20,28.586V26a1,1,0,0,0-1-1H15a1,1,0,0,0-1,1v2.586a2.394,2.394,0,0,1-.707,1.706,4.515,4.515,0,0,0-.293.357,4.515,4.515,0,0,0-.293-.357A2.394,2.394,0,0,1,12,28.586V26a1,1,0,0,0-1-1H7a1,1,0,0,0-1,1v2.586a2.394,2.394,0,0,1-.707,1.706A4.385,4.385,0,0,0,4,33.414V40H3a1,1,0,0,0,0,2H61a1,1,0,0,0,.7-1.713A2.964,2.964,0,0,0,62,39V32A3,3,0,0,0,60,29.184ZM6.707,31.708A4.385,4.385,0,0,0,8,28.586V27h2v1.586a4.385,4.385,0,0,0,1.293,3.122A2.394,2.394,0,0,1,12,33.414V35H6V33.414A2.394,2.394,0,0,1,6.707,31.708ZM6,37h6v3H6ZM56,27h2v2H56Zm-1,4h4a1,1,0,0,1,1,1v3H54V32A1,1,0,0,1,55,31ZM36,36H32V32h4Zm-6-4v2H26V32Zm-4,4h4v4H26Zm6,4V38h4v2Zm11,0V34h4v6Zm12,0a1,1,0,0,1-1-1V37h6v2a1,1,0,0,1-1,1Z"/>
    </g>
</svg>
