<svg height="512" viewBox="0 0 508.536 508.536" width="512" xmlns="http://www.w3.org/2000/svg">
    <g fill="currentColor">
        <path d="m498.536 344.321h-17.298c.434-17.672-10.267-34.212-29.547-34.212s-29.982 16.54-29.547 34.212h-17.298c-5.523 0-10 4.477-10 10v25.697c0 24.601 15.712 45.596 37.625 53.494l-11.601 11.601c-11.086 11.086-25.826 17.191-41.503 17.191-32.364 0-58.693-26.33-58.693-58.693v-66.64c36.088 1.266 57.846-22.39 81.149-45.694 28.517-3.024 50.809-27.216 50.809-56.522v-25.698c0-5.523-4.477-10-10-10h-17.298c.434-17.671-10.267-34.212-29.547-34.212s-29.982 16.54-29.547 34.212h-17.3c-5.523 0-10 4.477-10 10v25.698c0 24.601 15.711 45.596 37.625 53.494l-11.601 11.601c-11.086 11.086-25.826 17.191-41.503 17.191-32.364 0-58.693-26.33-58.693-58.694 0-25.895 0-51.791 0-77.686h22.716c12.285 0 18.726 15.53 10.033 24.221-9.122 9.121 5.02 23.264 14.142 14.143 6.458-6.457 10.014-15.042 10.014-24.175 0-18.852-15.337-34.188-34.189-34.188h-22.716v-18.824c26.257-5.043 46.161-28.175 46.161-55.881v-20.851c0-5.523-4.477-10-10-10h-36.914v-24.236h36.914c12.84 0 12.859-20 0-20h-93.828c-12.84 0-12.859 20 0 20h36.914v24.235h-36.914c-5.523 0-10 4.477-10 10v20.851c0 28.233 20.669 51.719 47.667 56.151v18.555h-22.716c-18.852 0-34.189 15.337-34.189 34.188 0 9.132 3.556 17.717 10.014 24.175 9.121 9.121 23.263-5.021 14.143-14.143-8.685-8.684-2.264-24.221 10.033-24.221h22.716v77.686c0 32.364-26.33 58.694-58.694 58.694-15.677 0-30.417-6.105-41.502-17.191l-11.218-11.218c22.5-7.575 38.756-28.856 38.756-53.877v-25.698c0-5.523-4.477-10-10-10h-17.298c.434-17.671-10.267-34.212-29.547-34.212s-29.982 16.54-29.547 34.212h-17.3c-5.523 0-10 4.477-10 10v25.698c0 28.707 21.394 52.498 49.073 56.3l22.937 22.937c15.164 15.163 36.01 23.486 57.433 23.003v66.614c0 32.364-26.33 58.693-58.693 58.693-15.677 0-30.417-6.105-41.502-17.191l-11.602-11.602c21.914-7.898 37.625-28.892 37.625-53.494v-25.697c0-5.523-4.477-10-10-10h-17.297c.434-17.672-10.267-34.212-29.547-34.212s-29.982 16.54-29.547 34.212h-17.299c-5.523 0-10 4.477-10 10v25.697c0 29.305 22.292 53.497 50.808 56.521l22.717 22.716c14.863 14.863 34.625 23.048 55.645 23.048 43.392 0 78.693-35.302 78.693-78.693v-69.657c14.426-4.164 27.161-12.342 36.905-23.257v20.522c0 12.84 20 12.859 20 0v-20.522c9.52 10.663 21.889 18.723 35.905 22.972v69.946c0 43.392 35.302 78.693 78.693 78.693 21.02 0 40.781-8.186 55.645-23.048l22.716-22.716c28.516-3.025 50.808-27.216 50.808-56.521v-25.697c.001-5.524-4.476-10.001-9.999-10.001zm-112.298-149.927c0-12.313 19.095-12.313 19.095 0v4.664h-19.095zm46.393 24.664v15.698c0 20.316-16.529 36.845-36.845 36.845s-36.845-16.529-36.845-36.845v-15.698zm-326.914-24.664c0-12.313 19.095-12.313 19.095 0v4.664h-19.095zm46.393 24.664v15.698c0 20.316-16.529 36.845-36.845 36.845s-36.845-16.529-36.845-36.845v-15.698zm-104.812 120.599c0-12.313 19.095-12.313 19.095 0v4.665h-19.095zm46.392 24.664v15.697c0 20.316-16.529 36.845-36.845 36.845s-36.845-16.528-36.845-36.845v-15.697zm123.411-278.364v-10.851h73.828v10.851c0 47.596-73.828 47.596-73.828 0zm225.042 253.7c0-12.313 19.095-12.313 19.095 0v4.665h-19.095zm46.393 24.664v15.697c0 20.316-16.529 36.845-36.845 36.845s-36.845-16.529-36.845-36.845v-15.697z"/>
        <path d="m281.206 441.847-16.438-9.49v-21.645c0-12.84-20-12.859-20 0v21.619l-16.483 9.516c-3.094 1.786-5 5.087-5 8.66v24.78c0 3.573 1.906 6.874 5 8.66l21.46 12.39c3.067 1.771 6.933 1.771 10 0l21.46-12.39c3.094-1.786 5-5.087 5-8.66v-24.78c.001-3.573-1.905-6.874-4.999-8.66zm-15 27.667-11.46 6.617-11.46-6.617v-13.233l11.46-6.617 11.46 6.617z"/>
        <path d="m245.535 374.183c1.635 3.924 5.716 6.466 9.968 6.138 4.169-.322 7.778-3.272 8.897-7.303 2.364-8.513-7.191-15.759-14.773-11.235-4.214 2.514-5.945 7.88-4.092 12.4z"/>
    </g>
</svg>