<svg height="512" viewBox="0 0 64 64" width="512" xmlns="http://www.w3.org/2000/svg">
    <g fill="currentColor">
        <path d="m9 17c4.411 0 8-3.589 8-8 0-1.256-.299-2.441-.818-3.501 1.103-1.548 2.898-2.499 4.818-2.499 2.84 0 5.278 2.064 5.799 4.831-.19.105-.375.218-.554.342-1.224-.747-2.636-1.173-4.074-1.173h-.171v2h.171c.896 0 1.78.221 2.58.615-.083.109-.171.211-.248.326l-.336.504 1.664 1.109.336-.504c.857-1.283 2.29-2.05 3.833-2.05 1.103 0 2 .897 2 2s-.897 2-2 2h-7c-1.103 0-2-.897-2-2h-2c0 2.206 1.794 4 4 4h25c2.206 0 4-1.794 4-4s-1.794-4-4-4c-.473 0-.935.06-1.387.157-1.159-3.623-4.542-6.157-8.43-6.157-3.549 0-6.746 2.107-8.144 5.369l-.277.646c-.356.013-.706.055-1.05.123-.82-3.542-4.023-6.138-7.712-6.138-2.312 0-4.488 1.034-5.978 2.751-1.467-1.682-3.62-2.751-6.022-2.751-4.411 0-8 3.589-8 8s3.589 8 8 8zm29.183-14c3.047 0 5.676 2.017 6.541 4.877-.163.093-.325.188-.479.295-1.225-.746-2.636-1.172-4.074-1.172h-.171v2h.171c.895 0 1.78.221 2.58.615-.083.109-.171.211-.248.326l-.336.504 1.664 1.109.336-.504c.857-1.283 2.29-2.05 3.833-2.05 1.103 0 2 .897 2 2s-.897 2-2 2h-14.556c.344-.591.556-1.268.556-2 0-1.571-.918-2.919-2.238-3.573l.116-.27c1.082-2.525 3.557-4.157 6.305-4.157zm-29.183 0c3.309 0 6 2.691 6 6s-2.691 6-6 6-6-2.691-6-6 2.691-6 6-6z"/>
        <path d="m57 37v-4.5l4-3v-2.5h-2v1.5l-2 1.5v-5h-2v7l-2-1.5v-1.5h-2v2.5l4 3v2.5h-10v-6.5l4-3v-2.5h-2v1.5l-2 1.5v-4.586l1.707-1.707-1.414-1.414-2.293 2.293v7.414l-2-1.5v-1.5h-2v2.5l4 3v4.5h-14v-1.279l.496-.165c3.292-1.098 5.504-4.166 5.504-7.636 0-2.149-.837-4.171-2.357-5.691l-4.643-4.643-3.825 3.825c-.39-.802-.896-1.546-1.532-2.183l-4.643-4.642-4.643 4.643c-1.52 1.52-2.357 3.542-2.357 5.691 0 3.47 2.212 6.538 5.503 7.635l.497.165v4.28h-16.281l.49 1.959c3.539 14.155 16.201 24.041 30.791 24.041s27.252-9.886 30.791-24.041l.49-1.959zm-27.364 6.258 1.145 1.717c.143.214.219.464.219.722 0 .719-.584 1.303-1.303 1.303h-15.394c-.719 0-1.303-.584-1.303-1.303 0-.258.076-.508.219-.723l1.146-1.718c.415-.624.635-1.351.635-2.101 0-.77-.246-1.525-.681-2.155h15.362c-.435.631-.681 1.385-.681 2.155 0 .75.22 1.477.636 2.103zm-1.636-22.844 3.229 3.229c1.142 1.142 1.771 2.662 1.771 4.277 0 2.557-1.604 4.817-4 5.681v-1.186l2.707-2.707-1.414-1.414-1.293 1.292v-2.172l1.707-1.707-1.414-1.414-2.293 2.293v7.014c-2.396-.863-4-3.122-4-5.68 0-1.615.629-3.135 1.771-4.277zm-15 4.506c0-1.615.629-3.135 1.771-4.277l3.229-3.229 3.229 3.229c.666.666 1.153 1.481 1.449 2.371-1.084 1.4-1.678 3.106-1.678 4.906 0 .464.046.918.122 1.364-.609.581-1.329 1.034-2.122 1.319v-6.3l1.832-2.748-1.664-1.109-1.323 1.985-1.138-1.138-1.414 1.414 1.707 1.707v2.172l-1.293-1.293-1.414 1.414 2.707 2.707v1.186c-2.396-.863-4-3.122-4-5.68zm6 7.801.496-.165c.825-.275 1.589-.696 2.281-1.216.916 1.948 2.586 3.502 4.726 4.215l.497.165v1.28h-8zm-7.414 6.279.89.89c.333.333.524.795.524 1.265 0 .354-.104.698-.3.993l-1.145 1.717c-.363.544-.555 1.178-.555 1.832 0 1.822 1.481 3.303 3.303 3.303h15.395c1.821 0 3.302-1.481 3.302-3.303 0-.654-.192-1.288-.555-1.832l-1.145-1.716c-.196-.295-.3-.639-.3-.994 0-.471.191-.933.524-1.266l.89-.89h6.836c-.16.385-.25.806-.25 1.247 0 1.492 1.011 2.788 2.459 3.149l4.22 1.055c.778.196 1.321.891 1.321 1.693 0 .717-.43 1.353-1.096 1.618l-6.275 2.511c-1.597.639-2.629 2.163-2.629 3.882 0 1.496.807 2.888 2.107 3.63l2.715 1.551c-3.004 1.049-6.215 1.621-9.537 1.653l-5.086-3.391c-.124-.082-.199-.221-.199-.371 0-.219.157-.404.374-.44l3.435-.572c1.269-.213 2.191-1.302 2.191-2.59 0-1.447-1.177-2.624-2.624-2.624h-20.605c-2.989-3.367-5.256-7.43-6.486-12zm14.503 20.262 2.23 1.487c-6.329-.784-12.105-3.548-16.607-7.749h18.664c.344 0 .624.28.624.624 0 .307-.219.565-.521.616l-3.434.572c-1.185.198-2.045 1.212-2.045 2.414 0 .819.407 1.581 1.089 2.036zm18.103-.875-4.093-2.339c-.678-.388-1.099-1.113-1.099-1.894 0-.897.539-1.692 1.372-2.025l6.275-2.511c1.429-.571 2.353-1.935 2.353-3.475 0-1.721-1.166-3.214-2.835-3.632l-4.22-1.055c-.557-.14-.945-.637-.945-1.21 0-.687.559-1.246 1.246-1.246h18.468c-2.376 8.828-8.565 15.814-16.522 19.387z"/>
        <path d="m37 17h2v2h-2z"/>
        <path d="m39 21h2v2h-2z"/>
        <path d="m43 17h2v2h-2z"/>
        <path d="m47 19h2v2h-2z"/>
        <path d="m51 23h2v2h-2z"/>
        <path d="m51 17h2v2h-2z"/>
    </g>
</svg>