<svg height="512" viewBox="0 0 512 512" width="512" xmlns="http://www.w3.org/2000/svg">
    <g fill="currentColor">
        <path d="m466 111.996h-49.719l-109.215-46.361 4.889-54.746c.25-2.796-.687-5.568-2.582-7.639-1.894-2.07-4.572-3.25-7.378-3.25h-60c-2.807 0-5.484 1.18-7.379 3.25-1.895 2.071-2.831 4.843-2.582 7.639l4.898 54.854-104.795 46.253h-26.137c-38.598 0-70 31.402-70 70v69.997c0 16.542 13.458 30 30 30s30-13.458 30-30v-69.997c0-5.42 4.58-10 10-10h26.915l21.483 121.738c1.927 10.923 9.904 18.263 19.848 18.263v40.003c-9.652 0-17.217 6.802-19.744 17.751l-30.001 130c-.685 2.969.021 6.089 1.918 8.474s4.778 3.774 7.826 3.774h280c3.047 0 5.929-1.39 7.826-3.774 1.897-2.385 2.604-5.505 1.918-8.474l-30.001-130c-2.525-10.949-10.091-17.751-19.743-17.751v-40.002c9.944 0 17.92-7.339 19.847-18.262l14.381-81.492 64.056-55.236c2.203-1.899 3.47-4.665 3.47-7.573v-27.438c.001-5.524-4.477-10.001-9.999-10.001zm-174.938-91.996-3.75 41.996h-30.634l-3.751-41.996zm-41.423 61.996h44.785l70.672 30h-183.428zm-143.639 70.001c-16.542 0-30 13.458-30 30v69.997c0 5.514-4.486 10-10 10s-10-4.486-10-10v-69.997c0-27.57 22.43-50 50-50h19.856l3.53 20zm68.094 138.263-27.929-158.264h62.762l2.528 35.817c.372 5.27 4.762 9.296 9.965 9.296.236 0 .475-.008.714-.025 5.509-.389 9.66-5.17 9.271-10.679l-2.429-34.409h90.539l-11.295 160.002h-67.949l-2.529-35.817c-.389-5.509-5.166-9.661-10.679-9.271-5.509.389-9.66 5.17-9.271 10.679l2.429 34.409h-45.518c-.199-.321-.463-.914-.609-1.738zm-.103 83.988c.259-1.125.61-1.857.853-2.249h45.36l-11.077 120h-62.31zm134.212-2.248 11.077 120h-90.069l11.077-120zm66.297 2.248 27.175 117.752h-62.31l-11.077-120h45.36c.243.391.593 1.123.852 2.248zm-20.255-22.248h-159.998v-40.002h159.998zm20.151-61.74c-.146.824-.409 1.417-.608 1.737h-45.518l11.295-160.001h62.762l-12.937 73.309c0 .001 0 .002-.001.003zm81.604-145.407-42.029 36.242 8.665-49.099h33.364z"/>
        <path d="m224.599 221.997c5.523 0 10-4.477 10-10s-4.477-10-10-10h-.007c-5.523 0-9.996 4.477-9.996 10s4.48 10 10.003 10z"/>
    </g>
</svg>