<svg version="1.1" xmlns="http://www.w3.org/2000/svg" viewBox="0 0 475 475" >
<g fill="currentColor">
	<path d="M438.413,343.188C428.059,335.085,415.174,325,390.835,325c-24.339,0-37.224,10.085-47.577,18.188
		C334.496,350.045,328.165,355,314.17,355c-13.994,0-20.325-4.955-29.087-11.813C274.729,335.085,261.844,325,237.506,325
		c-24.339,0-37.224,10.085-47.578,18.188C181.166,350.045,174.834,355,160.84,355c-13.996,0-20.327-4.955-29.09-11.813
		C121.395,335.084,108.509,325,84.17,325c-24.339,0-37.225,10.084-47.579,18.188C27.828,350.045,21.496,355,7.5,355v30
		c24.339,0,37.225-10.084,47.579-18.188C63.842,359.955,70.174,355,84.17,355c13.996,0,20.327,4.955,29.091,11.813
		C123.615,374.916,136.5,385,160.84,385c24.338,0,37.224-10.084,47.578-18.188C217.18,359.955,223.511,355,237.506,355
		c13.994,0,20.325,4.955,29.087,11.813C276.947,374.915,289.833,385,314.17,385c24.338,0,37.224-10.085,47.577-18.188
		C370.51,359.955,376.841,355,390.835,355c13.995,0,20.325,4.955,29.088,11.813C430.277,374.915,443.162,385,467.5,385v-30
		C453.506,355,447.175,350.045,438.413,343.188z"/>
	<path d="M390.835,415c-24.338,0-37.224,10.085-47.577,18.188C334.496,440.045,328.165,445,314.17,445
		c-13.994,0-20.325-4.955-29.087-11.813C274.729,425.085,261.844,415,237.506,415c-24.339,0-37.224,10.085-47.578,18.188
		C181.166,440.045,174.834,445,160.84,445c-13.996,0-20.327-4.955-29.09-11.813C121.395,425.084,108.509,415,84.17,415
		c-24.339,0-37.225,10.084-47.579,18.188C27.828,440.045,21.496,445,7.5,445v30c24.339,0,37.225-10.084,47.579-18.188
		C63.842,449.955,70.174,445,84.17,445c13.996,0,20.327,4.955,29.091,11.813C123.615,464.916,136.5,475,160.84,475
		c24.338,0,37.224-10.084,47.578-18.188C217.18,449.955,223.511,445,237.506,445c13.994,0,20.325,4.955,29.087,11.813
		C276.947,464.915,289.833,475,314.17,475c24.338,0,37.224-10.085,47.577-18.188C370.51,449.955,376.841,445,390.835,445
		c13.995,0,20.325,4.955,29.088,11.813C430.277,464.915,443.162,475,467.5,475v-30c-13.994,0-20.325-4.955-29.087-11.813
		C428.059,425.085,415.174,415,390.835,415z"/>
	<polygon points="184.378,258.323 222.5,236.313 222.5,280.333 252.5,280.333 252.5,236.313 290.622,258.323 305.622,232.343
		267.5,210.333 305.622,188.323 290.622,162.343 252.5,184.353 252.5,140.333 222.5,140.333 222.5,184.353 184.378,162.343
		169.378,188.323 207.5,210.333 169.378,232.343 			"/>
	<polygon points="24.095,117.99 62.216,95.98 62.216,140 92.216,140 92.216,95.98 130.338,117.99 145.338,92.01 107.216,70
		145.338,47.99 130.338,22.01 92.216,44.02 92.216,0 62.216,0 62.216,44.02 24.095,22.01 9.095,47.99 47.217,70 9.095,92.01
		"/>
	<polygon points="344.662,117.99 382.784,95.98 382.784,140 412.784,140 412.784,95.98 450.905,117.99 465.905,92.01 427.783,70
		465.905,47.99 450.905,22.01 412.784,44.02 412.784,0 382.784,0 382.784,44.02 344.662,22.01 329.662,47.99 367.784,70
		329.662,92.01 			"/>
</g>
</svg>
