<svg height="512" viewBox="0 0 512.001 512.001" width="512" xmlns="http://www.w3.org/2000/svg">
    <g fill="currentColor">
        <path d="m164.399 205.872c4.099.664 8.206-1.273 10.284-4.91l60-105c1.769-3.095 1.756-6.897-.033-9.98s-5.085-4.981-8.649-4.981h-36.682l-13.486-72.821c-.772-4.169-4.089-7.398-8.277-8.058-4.185-.66-8.337 1.394-10.353 5.123l-60 111c-1.675 3.099-1.597 6.851.208 9.876 1.804 3.025 5.066 4.879 8.589 4.879h36.802l13.393 66.961c.817 4.09 4.088 7.242 8.204 7.911zm-13.399-94.871h-28.228l38.554-71.323 9.841 53.144c.878 4.74 5.013 8.179 9.833 8.179h27.769l-38.2 66.85-9.763-48.811c-.935-4.674-5.039-8.039-9.806-8.039z"/>
        <path d="m10 459.001c-5.522 0-10 4.477-10 10s4.478 10 10 10h23v23c0 5.522 4.478 10 10 10s10-4.478 10-10v-23h43v23c0 5.522 4.478 10 10 10s10-4.478 10-10v-23h40v23c0 5.522 4.478 10 10 10s10-4.478 10-10v-23h40v23c0 5.522 4.478 10 10 10s10-4.478 10-10v-23h40v23c0 5.522 4.478 10 10 10s10-4.478 10-10v-23h40v23c0 5.522 4.478 10 10 10s10-4.478 10-10v-23h40v23c0 5.522 4.478 10 10 10s10-4.478 10-10v-23h40v23c0 5.522 4.478 10 10 10s10-4.478 10-10v-23h26c5.522 0 10-4.477 10-10s-4.478-10-10-10h-56v-68c0-5.523-4.478-10-10-10s-10 4.477-10 10v68h-40v-223h40v65c0 5.523 4.478 10 10 10s10-4.477 10-10v-75c0-5.523-4.478-10-10-10h-60c-5.522 0-10 4.477-10 10v233h-40v-173c0-5.523-4.478-10-10-10h-60c-5.522 0-10 4.477-10 10v173h-40v-113c0-5.523-4.478-10-10-10h-60c-5.522 0-10 4.477-10 10v113h-73v-449c0-5.523-4.478-10-10-10s-10 4.477-10 10v26h-23c-5.522 0-10 4.477-10 10s4.478 10 10 10h23v40h-23c-5.522 0-10 4.477-10 10s4.478 10 10 10h23v40h-23c-5.522 0-10 4.477-10 10s4.478 10 10 10h23v40h-23c-5.522 0-10 4.477-10 10s4.478 10 10 10h23v40h-23c-5.522 0-10 4.477-10 10s4.478 10 10 10h23v40h-23c-5.522 0-10 4.477-10 10s4.478 10 10 10h23v40h-23c-5.522 0-10 4.477-10 10s4.478 10 10 10h23v43zm256-163h40v163h-40zm-120 60h40v103h-40z"/>
        <path d="m436 146.001c5.522 0 10-4.477 10-10v-60c0-5.523-4.478-10-10-10h-60c-5.522 0-10 4.477-10 10s4.478 10 10 10h35.857l-100 100h-55.857c-2.652 0-5.195 1.054-7.071 2.929l-90 90c-3.905 3.905-3.905 10.237 0 14.143 3.907 3.905 10.236 3.904 14.143 0l87.071-87.071h55.857c2.652 0 5.195-1.054 7.071-2.929l102.929-102.93v35.857c0 5.524 4.478 10.001 10 10.001z"/>
        <circle cx="436" cy="346.001" r="10"/>
    </g>
</svg>