<svg xmlns="http://www.w3.org/2000/svg" viewBox="0 0 512 512">
    <g fill="currentColor">
        <rect x="216" y="88.489" width="80" height="15"/>
        <rect x="216" y="62.489" width="80" height="15"/>
        <path d="M30,52.494v9.285c-2.347-0.832-4.872-1.285-7.5-1.285c-12.406,0-22.5,10.093-22.5,22.5c0,12.407,10.094,22.5,22.5,22.5
			c2.628,0,5.153-0.453,7.5-1.285v355.298h7.5c8.699,0,13.354-2.819,17.095-5.085c2.899-1.755,4.814-2.915,9.325-2.915
			c4.511,0,6.426,1.16,9.325,2.915c3.74,2.266,8.396,5.085,17.095,5.085c8.698,0,13.354-2.819,17.094-5.085
			c2.897-1.755,4.813-2.915,9.322-2.915c4.509,0,6.424,1.16,9.321,2.915c3.74,2.266,8.395,5.085,17.093,5.085
			s13.354-2.819,17.094-5.085c2.897-1.755,4.813-2.915,9.321-2.915c4.51,0,6.425,1.16,9.322,2.915
			c3.74,2.266,8.396,5.085,17.093,5.085l7.5-0.013v-407H30z M22.5,90.494c-4.136,0-7.5-3.364-7.5-7.5c0-4.136,3.364-7.5,7.5-7.5
			s7.5,3.364,7.5,7.5C30,87.13,26.636,90.494,22.5,90.494z M188.5,442.664c-0.585-0.325-1.179-0.685-1.821-1.074
			c-3.339-2.022-7.407-4.486-14.429-4.991V226.555h-15v212.431c-1.824,0.827-3.355,1.755-4.758,2.604
			c-2.897,1.755-4.813,2.915-9.322,2.915c-1.648,0-2.95-0.155-4.079-0.438h3.159V141.994h-15v296.238
			c-2.734-1.005-6.097-1.726-10.494-1.726c-1.638,0-3.133,0.1-4.506,0.278v-216.79h-15v222.988c-1.849,0.951-3.738,1.525-6.91,1.525
			c-3.843,0-5.802-0.842-8.09-2.176V141.994h-15v294.661c-1.041-0.096-2.148-0.148-3.33-0.148c-8.699,0-13.354,2.819-17.095,5.085
			c-0.644,0.39-1.239,0.75-1.825,1.075V67.494h22.25v41h15v-41h45v41h15v-41h46.25V442.664z"/>
        <rect x="157.25" y="136.989" width="15" height="66"/>
        <rect x="157.25" y="111.989" width="15" height="15"/>
        <rect x="157.25" y="86.994" width="15" height="15"/>
        <rect x="97.25" y="130.989" width="15" height="66"/>
        <rect x="97.25" y="80.994" width="15" height="15"/>
        <rect x="97.25" y="105.989" width="15" height="15"/>
        <rect x="435.75" y="113.989" width="15" height="15"/>
        <rect x="435.75" y="138.989" width="15" height="66"/>
        <rect x="435.75" y="88.994" width="15" height="15"/>
        <rect x="375.75" y="155.989" width="15" height="15"/>
        <rect x="375.75" y="80.994" width="15" height="15"/>
        <rect x="375.75" y="105.989" width="15" height="15"/>
        <rect x="375.75" y="130.989" width="15" height="15"/>
        <path d="M489.5,60.494c-2.628,0-5.153,0.453-7.5,1.285v-9.285H308.5v407.013h7.5c8.699,0,13.354-2.819,17.095-5.085
			c2.899-1.755,4.814-2.915,9.325-2.915c4.511,0,6.426,1.16,9.325,2.915c3.74,2.266,8.396,5.085,17.095,5.085
			c8.698,0,13.354-2.819,17.094-5.085c2.897-1.755,4.813-2.915,9.322-2.915c4.509,0,6.424,1.16,9.321,2.915
			c3.74,2.266,8.395,5.085,17.093,5.085s13.354-2.819,17.094-5.085c2.897-1.755,4.813-2.915,9.321-2.915
			c4.51,0,6.425,1.16,9.322,2.915c3.74,2.266,8.396,5.085,17.093,5.085l7.5-0.013V104.208c2.347,0.832,4.872,1.285,7.5,1.285
			c12.406,0,22.5-10.093,22.5-22.5C512,70.585,501.906,60.494,489.5,60.494z M467,442.664c-0.585-0.325-1.179-0.685-1.821-1.074
			c-3.339-2.022-7.407-4.486-14.429-4.991V226.555h-15v212.431c-1.824,0.827-3.355,1.755-4.758,2.604
			c-2.897,1.755-4.813,2.915-9.322,2.915c-1.648,0-2.95-0.155-4.079-0.438h3.159V141.994h-15v296.238
			c-2.734-1.005-6.097-1.726-10.494-1.726c-1.638,0-3.133,0.1-4.506,0.278v-250.79h-15v256.988c-1.849,0.951-3.738,1.525-6.91,1.525
			c-3.843,0-5.802-0.842-8.09-2.176V141.994h-15v294.661c-1.041-0.096-2.148-0.148-3.33-0.148c-8.699,0-13.354,2.819-17.095,5.085
			c-0.644,0.39-1.239,0.75-1.825,1.075V67.494h22.25v41h15v-41h45v41h15v-41H467V442.664z M489.5,90.494c-4.136,0-7.5-3.364-7.5-7.5
			c0-4.136,3.364-7.5,7.5-7.5s7.5,3.364,7.5,7.5C497,87.13,493.636,90.494,489.5,90.494z"/>
    </g>
</svg>
