<svg height="512" viewBox="0 0 64 64" width="512" xmlns="http://www.w3.org/2000/svg">
    <g fill="currentColor">
        <path d="m42 12c2.206 0 4-1.794 4-4s-1.794-4-4-4-4 1.794-4 4 1.794 4 4 4zm2-4c0 1.103-.897 2-2 2s-2-.897-2-2c0-.178.031-.347.075-.511l1.218 1.218 1.414-1.414-1.218-1.218c.164-.044.333-.075.511-.075 1.103 0 2 .897 2 2z"/>
        <path d="m22 4c-2.206 0-4 1.794-4 4s1.794 4 4 4 4-1.794 4-4-1.794-4-4-4zm0 6c-1.103 0-2-.897-2-2s.897-2 2-2c.178 0 .347.031.511.075l-1.218 1.218 1.414 1.414 1.218-1.218c.044.164.075.333.075.511 0 1.103-.897 2-2 2z"/>
        <path d="m51 12h2c1.654 0 3-1.346 3-3s-1.346-3-3-3h-2c-1.654 0-3 1.346-3 3s1.346 3 3 3zm0-4h2c.551 0 1 .449 1 1s-.449 1-1 1h-2c-.551 0-1-.449-1-1s.449-1 1-1z"/>
        <path d="m13 6h-2c-1.654 0-3 1.346-3 3s1.346 3 3 3h2c1.654 0 3-1.346 3-3s-1.346-3-3-3zm0 4h-2c-.551 0-1-.449-1-1s.449-1 1-1h2c.551 0 1 .449 1 1s-.449 1-1 1z"/>
        <path d="m62.997 58c0-.163-.037-.326-.117-.474l-2.88-5.349v-38.177-10c0-1.654-1.346-3-3-3h-50c-1.654 0-3 1.346-3 3v10 38.177l-2.88 5.349c-.08.148-.117.311-.117.474h-.003v2c0 1.654 1.346 3 3 3h56c1.654 0 3-1.346 3-3v-2zm-6.997-13.251v-29.749h2v33.463zm-41.931-2.749c.189 1.502.792 2.875 1.695 4h-2.764v-4zm36.931 0v4h-2.765c.904-1.125 1.507-2.498 1.695-4zm-5.69 4h-.31v-2.382c.402-.46.7-1.009.858-1.618h2.052c-.282 1.666-1.246 3.101-2.6 4zm-8.31-1.69v-2.31h1.142c.447 1.721 2 3 3.858 3 .347 0 .678-.058 1-.142v1.142h-4.31c-.67-.445-1.245-1.02-1.69-1.69zm3.278-4.31c.347-.595.985-1 1.722-1s1.375.405 1.722 1zm2.722 2v.722c-.295.172-.634.278-1 .278-.737 0-1.375-.405-1.722-1zm2.858-2c-.447-1.721-2-3-3.858-3s-3.411 1.279-3.858 3h-2.052c.478-2.833 2.942-5 5.91-5s5.431 2.167 5.91 5zm-11.725-7.084c.513-2.792 2.959-4.916 5.897-4.916 1.61 0 3.065.631 4.143 1.66-.973-.423-2.046-.66-3.173-.66-2.918 0-5.469 1.576-6.867 3.916zm.867 4.084c0-3.309 2.691-6 6-6 2.335 0 4.357 1.343 5.348 3.294-1.253-.815-2.745-1.294-4.348-1.294-3.004 0-5.624 1.667-6.992 4.122-.001-.041-.008-.081-.008-.122zm-.931 5c.129 1.027.449 1.996.931 2.864v1.136h-6v-1.136c.482-.869.802-1.837.931-2.864zm-13.069 4v-1.142c.322.084.653.142 1 .142 1.858 0 3.411-1.279 3.858-3h1.142v2.31c-.445.67-1.02 1.245-1.69 1.69zm0-4h2.722c-.347.595-.985 1-1.722 1-.366 0-.705-.106-1-.278zm-.722-2c.347-.595.985-1 1.722-1s1.375.405 1.722 1zm8.714-2.878c-1.368-2.455-3.988-4.122-6.992-4.122-1.603 0-3.095.479-4.348 1.294.991-1.951 3.013-3.294 5.348-3.294 3.309 0 6 2.691 6 6 0 .041-.007.081-.008.122zm-5.992-8.122c-1.106 0-2.16.226-3.119.634 1.076-1.015 2.522-1.634 4.119-1.634 2.961 0 5.422 2.158 5.907 4.983-1.388-2.378-3.961-3.983-6.907-3.983zm-1 6c2.967 0 5.431 2.167 5.91 5h-2.052c-.447-1.721-2-3-3.858-3s-3.411 1.279-3.858 3h-2.052c.479-2.833 2.943-5 5.91-5zm-3.858 7c.158.609.456 1.157.858 1.618v2.382h-.31c-1.354-.899-2.319-2.334-2.6-4zm-5.142 6h5.136c.278.154.567.29.864.411v3.589h-6zm8 .931c.328.041.661.069 1 .069 1.401 0 2.718-.364 3.864-1h1.136v4h-6zm8-.931h6v4h-6zm8 0h1.136c1.147.636 2.463 1 3.864 1 .339 0 .672-.028 1-.069v3.069h-6zm8 .411c.297-.121.586-.257.864-.411h5.136v4h-6zm7.968-7.572.019-.003-2.774-16.643c-.212-1.271-1.301-2.193-2.589-2.193-1.447 0-2.624 1.177-2.624 2.624v1.376h2v-1.376c0-.344.28-.624.624-.624.307 0 .565.219.616.521l2.58 15.479h-.889c-.129-1.03-.451-2-.934-2.87 0-.044.003-.086.003-.13 0-1.42-.376-2.751-1.027-3.908-.457-4.054-3.841-7.092-7.943-7.092-4.411 0-8 3.589-8 8 0 1.373.364 2.713 1.031 3.904.082.721.261 1.425.532 2.096h-3.187c.263-.65.442-1.33.527-2.028.692-1.208 1.067-2.574 1.067-3.972 0-4.411-3.589-8-8-8-4.08 0-7.448 3.006-7.934 7.027-.674 1.172-1.066 2.526-1.066 3.973 0 .044.003.086.004.13-.484.87-.805 1.84-.935 2.87h-.889l2.58-15.479c.051-.302.309-.521.616-.521.344 0 .624.28.624.624v1.376h2v-1.376c0-1.447-1.177-2.624-2.624-2.624-1.288 0-2.377.922-2.588 2.192l-2.774 16.644.019.003c-.01.054-.033.104-.033.161v3h-1v-23h44v23h-1v-3c0-.057-.023-.107-.032-.161zm1.032-25.839v4h-44v-4zm-20-2h-4v-4c0-1.103.897-2 2-2s2 .897 2 2zm-28-9c0-.551.449-1 1-1h50c.551 0 1 .449 1 1v9h-22v-4c0-2.206-1.794-4-4-4s-4 1.794-4 4v4h-22zm0 11h2v29.749l-2 3.714zm3.597 31h1.403v7c0 .553.448 1 1 1h40c.552 0 1-.447 1-1v-7h1.403l5.923 11h-56.652zm50.403 15h-56c-.551 0-1-.448-1-1v-1h58v1c0 .552-.449 1-1 1z"/>
        <path d="m12 16h4v2h-4z"/>
        <path d="m48 16h4v2h-4z"/>
        <path d="m31 9h2v2h-2z"/>
    </g>
</svg>