<svg xmlns="http://www.w3.org/2000/svg" viewBox="0 0 512 512">
    <g fill="currentColor">
        <path d="M401.067,0H110.933c-4.71,0-8.533,3.814-8.533,8.533v494.933c0,4.719,3.823,8.533,8.533,8.533h290.133
			c4.71,0,8.533-3.814,8.533-8.533V8.533C409.6,3.814,405.777,0,401.067,0z M392.533,494.933H119.467V17.067h273.067V494.933z"/>
        <path d="M366.933,34.133H145.067c-4.71,0-8.533,3.814-8.533,8.533v460.8c0,4.719,3.823,8.533,8.533,8.533h221.867
			c4.71,0,8.533-3.814,8.533-8.533v-460.8C375.467,37.948,371.644,34.133,366.933,34.133z M358.4,494.933H153.6V51.2h204.8V494.933z
			"/>
        <path d="M256,68.267c-47.053,0-85.333,38.281-85.333,85.333v8.533c0,4.719,3.823,8.533,8.533,8.533h153.6
			c4.71,0,8.533-3.814,8.533-8.533V153.6C341.333,106.547,303.053,68.267,256,68.267z M187.733,153.6
			c0-37.641,30.626-68.267,68.267-68.267c37.641,0,68.267,30.626,68.267,68.267H187.733z"/>
        <path d="M238.933,187.733H179.2c-4.71,0-8.533,3.814-8.533,8.533v119.467c0,4.719,3.823,8.533,8.533,8.533h59.733
			c4.71,0,8.533-3.814,8.533-8.533V196.267C247.467,191.548,243.644,187.733,238.933,187.733z M230.4,307.2h-42.667V204.8H230.4
			V307.2z"/>
        <path d="M332.8,187.733h-59.733c-4.71,0-8.533,3.814-8.533,8.533v119.467c0,4.719,3.823,8.533,8.533,8.533H332.8
			c4.71,0,8.533-3.814,8.533-8.533V196.267C341.333,191.548,337.51,187.733,332.8,187.733z M324.267,307.2H281.6V204.8h42.667V307.2
			z"/>
        <path d="M238.933,341.333H179.2c-4.71,0-8.533,3.814-8.533,8.533v119.467c0,4.719,3.823,8.533,8.533,8.533h59.733
			c4.71,0,8.533-3.814,8.533-8.533V349.867C247.467,345.148,243.644,341.333,238.933,341.333z M230.4,460.8h-42.667V358.4H230.4
			V460.8z"/>
        <path d="M332.8,341.333h-59.733c-4.71,0-8.533,3.814-8.533,8.533v119.467c0,4.719,3.823,8.533,8.533,8.533H332.8
			c4.71,0,8.533-3.814,8.533-8.533V349.867C341.333,345.148,337.51,341.333,332.8,341.333z M324.267,460.8H281.6V358.4h42.667V460.8
			z"/>
        <path d="M256,68.267c-4.71,0-8.533,3.814-8.533,8.533v85.333c0,4.719,3.823,8.533,8.533,8.533s8.533-3.814,8.533-8.533V76.8
			C264.533,72.081,260.71,68.267,256,68.267z"/>
        <path d="M320.435,97.698c-3.328-3.336-8.73-3.336-12.066,0L249.967,156.1c-3.337,3.337-3.337,8.73,0,12.066
			c1.664,1.664,3.849,2.5,6.033,2.5c2.185,0,4.369-0.836,6.033-2.5l58.402-58.402C323.772,106.428,323.772,101.035,320.435,97.698z"
        />
        <path d="M262.033,156.1L203.631,97.69c-3.328-3.337-8.73-3.337-12.066,0c-3.337,3.336-3.337,8.73,0,12.066l58.402,58.411
			c1.664,1.664,3.849,2.5,6.033,2.5c2.185,0,4.369-0.836,6.033-2.5C265.37,164.83,265.37,159.437,262.033,156.1z"/>
        <path d="M59.733,494.933h-51.2c-4.71,0-8.533,3.814-8.533,8.533C0,508.186,3.823,512,8.533,512h51.2
			c4.71,0,8.533-3.814,8.533-8.533C68.267,498.748,64.444,494.933,59.733,494.933z"/>
        <path d="M503.467,494.933h-102.4c-4.71,0-8.533,3.814-8.533,8.533c0,4.719,3.823,8.533,8.533,8.533h102.4
			c4.71,0,8.533-3.814,8.533-8.533C512,498.748,508.177,494.933,503.467,494.933z"/>
    </g>
</svg>
