<svg height="512" viewBox="0 0 512 512" width="512" xmlns="http://www.w3.org/2000/svg">
    <g fill="currentColor">
        <path d="m497.004 276.169c0-4.139 3.374-7.512 7.512-7.512s7.483 3.373 7.483 7.512v137.34 39.997c0 4.139-3.345 7.483-7.483 7.483h-497.004c-4.139 0-7.512-3.345-7.512-7.483 0-124.754 0-249.536 0-374.291 0-7.767 3.175-14.825 8.277-19.928 5.103-5.103 12.161-8.277 19.928-8.277h124.244c7.909 0 15.364 3.316 20.722 9.099 5.357-5.783 12.812-9.099 20.722-9.099h124.243c7.881 0 15.364 3.316 20.693 9.099 5.358-5.783 12.813-9.099 20.722-9.099h124.244c7.767 0 14.826 3.175 19.928 8.277 5.102 5.103 8.277 12.161 8.277 19.928v25.625 137.34c0 4.139-3.345 7.512-7.483 7.512-4.139 0-7.512-3.373-7.512-7.512v-129.855h-67.835v12.926l46.83 23.839c4.195 2.126 7.115 5.755 8.447 9.894 1.36 4.139 1.134 8.787-.992 12.954-1.446 2.835-3.657 5.159-6.293 6.775-2.664 1.644-5.726 2.523-8.872 2.523h-3.345v95.613c0 4.139-3.345 7.484-7.484 7.484h-71.15c-4.139 0-7.483-3.345-7.483-7.484v-34.554c0-4.167 3.345-7.512 7.483-7.512 4.139 0 7.512 3.345 7.512 7.512v27.043h56.127v-88.102h-56.127v27.071c0 4.139-3.373 7.512-7.512 7.512s-7.483-3.373-7.483-7.512v-27.071h-3.345c-4.706 0-8.957-1.899-12.019-4.989-3.09-3.061-4.989-7.313-4.989-12.019 0-3.345.992-6.52 2.693-9.156 1.729-2.664 4.139-4.819 6.974-6.18l46.035-23.443v-13.124h-67.834v293.701h150.663v-129.857zm-73.843-137.199c-.822-.51-1.672-.51-2.495 0l-45.723 23.301c-.907.34-1.474.936-1.474 1.956 0 1.105.907 2.013 2.013 2.013h92.807c.793 0 1.446-.397 1.786-1.105.51-.992.142-2.183-.878-2.693l-15.336-7.823c-9.043-4.593-18.057-9.158-30.7-15.649zm-165.8-.085c-.709-.425-1.474-.425-2.24 0l-45.865 23.386c-.879.34-1.446.936-1.446 1.956 0 1.105.907 2.013 2.013 2.013h92.807c.794 0 1.446-.397 1.786-1.105.51-.992.142-2.183-.879-2.693-15.392-7.824-30.812-15.648-46.176-23.557zm-211.666-26.56c-4.139 0-7.512-3.345-7.512-7.484s3.373-7.512 7.512-7.512h89.292c4.138 0 7.512 3.374 7.512 7.512 0 4.139-3.373 7.484-7.512 7.484zm0 101.934c-4.139 0-7.512-3.373-7.512-7.512s3.373-7.483 7.512-7.483h89.292c4.138 0 7.512 3.345 7.512 7.483 0 4.139-3.373 7.512-7.512 7.512zm0-33.988c-4.139 0-7.512-3.345-7.512-7.483s3.373-7.512 7.512-7.512h89.292c4.138 0 7.512 3.373 7.512 7.512s-3.373 7.483-7.512 7.483zm0-33.959c-4.139 0-7.512-3.373-7.512-7.512s3.373-7.483 7.512-7.483h89.292c4.138 0 7.512 3.345 7.512 7.483 0 4.139-3.373 7.512-7.512 7.512zm202.822-20.863v-13.124h-67.834v129.857c0 4.139-3.373 7.512-7.512 7.512s-7.512-3.373-7.512-7.512v-162.967c0-3.628-1.474-6.917-3.883-9.326-2.381-2.381-5.698-3.884-9.326-3.884h-124.244c-3.628 0-6.917 1.502-9.327 3.884-2.381 2.409-3.883 5.697-3.883 9.326v192.361h15.308c6.094 0 11.594 2.466 15.59 6.464 3.997 3.997 6.492 9.525 6.492 15.59v23.301c0 6.067-2.495 11.594-6.492 15.591s-9.496 6.463-15.59 6.463h-15.308v107.009h150.663v-169.825c0-4.139 3.374-7.512 7.512-7.512s7.512 3.373 7.512 7.512v129.856h150.663v-293.7h-67.834v12.926l46.63 23.726c4.167 2.126 7.2 5.528 8.646 10.007 2.466 7.568-.539 15.59-7.285 19.729-2.664 1.644-5.754 2.523-8.872 2.523h-92.807c-4.706 0-8.958-1.899-12.047-4.989-3.061-3.061-4.96-7.313-4.96-12.019 0-3.345.992-6.52 2.693-9.156 1.701-2.664 4.11-4.819 6.973-6.18zm-233.521 172.32h6.094c4.139 0 7.512 3.373 7.512 7.512s-3.373 7.512-7.512 7.512h-6.094v11.198h15.308c1.956 0 3.713-.794 4.989-2.069 1.276-1.305 2.098-3.061 2.098-4.99v-23.302c0-1.928-.822-3.685-2.098-4.989-1.275-1.276-3.033-2.069-4.989-2.069h-15.308zm331.345-218.554v18.113h150.663v-18.113c0-3.628-1.474-6.917-3.883-9.326-2.409-2.381-5.698-3.884-9.327-3.884h-124.243c-3.628 0-6.917 1.502-9.326 3.884-2.41 2.41-3.884 5.698-3.884 9.326zm-165.658 18.114h150.663v-18.114c0-3.628-1.502-6.917-3.883-9.326-2.41-2.381-5.698-3.884-9.327-3.884h-124.243c-3.629 0-6.945 1.502-9.327 3.884-2.41 2.409-3.883 5.697-3.883 9.326zm316.321 323.692h-316.321v24.973h316.322v-24.973z"/>
    </g>
</svg>