<svg viewBox="0 0 512 512" xmlns="http://www.w3.org/2000/svg">
    <g fill="currentColor">
        <path d="m256 160a96 96 0 1 0 96 96 96.108 96.108 0 0 0 -96-96zm0 176a80 80 0 1 1 80-80 80.091 80.091 0 0 1 -80 80z"/>
        <path d="m256 128a128 128 0 1 0 128 128 128.145 128.145 0 0 0 -128-128zm0 240a112 112 0 1 1 112-112 112.127 112.127 0 0 1 -112 112z"/>
        <path d="m432 488v-464a8 8 0 0 0 -8-8h-336a8 8 0 0 0 -8 8v464a8 8 0 0 0 8 8h336a8 8 0 0 0 8-8zm-336-376h320v304h-320zm96-80h144v40a8 8 0 0 0 8 8h72v16h-224zm224 32h-64v-32h64zm-240-32v64h-80v-64zm-80 448v-48h320v48z"/>
        <path d="m248 40a24 24 0 1 0 24 24 24.027 24.027 0 0 0 -24-24zm0 32a8 8 0 1 1 8-8 8.009 8.009 0 0 1 -8 8z"/>
        <path d="m112 56h48v16h-48z"/>
        <path d="m288 40h32v16h-32z"/>
        <path d="m288 72h32v16h-32z"/>
        <path d="m272 200a8 8 0 0 0 -16 0c0 6.373-2.417 9.191-6.074 13.458-4.426 5.159-9.926 11.58-9.926 23.872s5.5 18.714 9.926 23.873c3.657 4.268 6.074 7.087 6.074 13.462s-2.417 9.193-6.074 13.461c-4.426 5.159-9.926 11.581-9.926 23.874a8 8 0 0 0 16 0c0-6.375 2.417-9.194 6.074-13.462 4.423-5.159 9.926-11.58 9.926-23.873s-5.5-18.715-9.926-23.874c-3.657-4.268-6.074-7.091-6.074-13.461s2.417-9.191 6.074-13.458c4.426-5.159 9.926-11.58 9.926-23.872z"/>
        <path d="m296 237.33c0-6.373 2.417-9.192 6.075-13.46.812-.947 1.623-1.9 2.407-2.878a8 8 0 0 0 -12.5-9.984c-.668.836-1.361 1.641-2.053 2.449-4.429 5.159-9.929 11.581-9.929 23.873s5.5 18.714 9.926 23.873c3.657 4.268 6.074 7.087 6.074 13.462s-2.417 9.194-6.075 13.462c-.813.949-1.625 1.9-2.409 2.881a8 8 0 0 0 12.5 9.984c.668-.837 1.362-1.644 2.054-2.452 4.43-5.16 9.93-11.582 9.93-23.875s-5.5-18.715-9.926-23.874c-3.657-4.268-6.074-7.091-6.074-13.461z"/>
        <path d="m216 237.33c0-6.373 2.417-9.192 6.075-13.46.812-.947 1.623-1.9 2.407-2.878a8 8 0 0 0 -12.5-9.984c-.668.836-1.361 1.641-2.053 2.449-4.429 5.159-9.929 11.581-9.929 23.873s5.5 18.714 9.926 23.873c3.657 4.268 6.074 7.087 6.074 13.462s-2.417 9.194-6.075 13.462c-.813.949-1.625 1.9-2.409 2.881a8 8 0 0 0 12.5 9.984c.668-.837 1.362-1.644 2.054-2.452 4.43-5.16 9.93-11.582 9.93-23.875s-5.5-18.715-9.926-23.874c-3.657-4.268-6.074-7.091-6.074-13.461z"/>
    </g>
</svg>