<svg version="1.1" xmlns="http://www.w3.org/2000/svg" viewBox="0 0 512 512">
    <g fill="currentColor">
        <rect x="188.632" y="256" width="35.93" height="17.965"/>
        <path d="M441.917,471.579l16.039-88.219c0.482-2.623-0.228-5.316-1.939-7.36c-1.702-2.044-4.228-3.228-6.895-3.228h-89.825
			c-2.667,0-5.193,1.184-6.895,3.228c-1.711,2.044-2.421,4.737-1.939,7.36l16.039,88.219H260.491V31.439
			c0-4.965-4.018-8.982-8.982-8.982H53.895c-4.965,0-8.982,4.018-8.982,8.982v440.14H0v17.965h53.895h197.614h125.754h53.895H512
			v-17.965H441.917z M242.526,471.579H62.877V40.421h179.649V471.579z M423.658,471.579h-38.895l-14.702-80.842h68.298
			L423.658,471.579z"/>
        <path d="M458.105,76.351c-27.456,0-44.489,12.496-53.895,25.195c-9.408-12.699-26.439-25.195-53.895-25.195
			c-4.965,0-8.982,4.018-8.982,8.982c0,4.965,4.018,8.982,8.982,8.982c33.754,0,43.272,23.307,44.912,28.246v232.246
			c0,4.965,4.018,8.982,8.982,8.982s8.982-4.018,8.982-8.982V122.572c1.544-4.68,10.987-28.257,44.912-28.257
			c4.965,0,8.982-4.018,8.982-8.982C467.088,80.368,463.07,76.351,458.105,76.351z"/>
        <path d="M365.833,119.263c-15.553-15.553-36.842-22.377-55.667-17.798c-3.254,0.798-5.798,3.342-6.596,6.596
			c-4.579,18.772,2.237,40.097,17.798,55.667c12.36,12.36,28.36,19.202,43.816,19.202c4.009,0,7.982-0.465,11.851-1.404
			c3.255-0.798,5.798-3.342,6.596-6.596C388.211,156.158,381.395,134.833,365.833,119.263z M367.009,164.903
			c-11.158,0.439-23.596-4.535-32.939-13.877c-9.342-9.351-14.439-21.737-13.877-32.939c11.123-0.579,23.588,4.535,32.939,13.877
			C362.474,141.316,367.57,153.702,367.009,164.903z"/>
        <path d="M365.833,200.105c-15.553-15.553-36.842-22.369-55.667-17.798c-3.254,0.798-5.798,3.342-6.596,6.596
			c-4.579,18.772,2.237,40.097,17.798,55.667c12.36,12.36,28.36,19.202,43.816,19.202c4.009,0,7.982-0.465,11.851-1.404
			c3.255-0.798,5.798-3.342,6.596-6.596C388.211,237,381.395,215.676,365.833,200.105z M367.009,245.746
			c-11.158,0.491-23.596-4.544-32.939-13.877c-9.342-9.351-14.439-21.737-13.877-32.939c11.123-0.535,23.588,4.535,32.939,13.877
			C362.474,222.158,367.57,234.544,367.009,245.746z"/>
        <path d="M365.833,280.947c-15.553-15.561-36.842-22.369-55.667-17.798c-3.254,0.798-5.798,3.342-6.596,6.596
			c-4.579,18.772,2.237,40.097,17.798,55.667c12.36,12.36,28.36,19.202,43.816,19.202c4.009,0,7.982-0.465,11.851-1.404
			c3.255-0.798,5.798-3.342,6.596-6.596C388.211,317.842,381.395,296.518,365.833,280.947z M367.009,326.588
			c-11.158,0.447-23.596-4.535-32.939-13.877c-9.342-9.351-14.439-21.737-13.877-32.939c11.123-0.57,23.588,4.535,32.939,13.877
			C362.474,303,367.57,315.386,367.009,326.588z"/>
        <path d="M509.386,108.061c-0.798-3.254-3.342-5.798-6.596-6.596c-18.789-4.57-40.105,2.237-55.667,17.798
			c-15.561,15.57-22.377,36.895-17.798,55.667c0.798,3.255,3.342,5.798,6.596,6.596c3.868,0.939,7.833,1.404,11.842,1.404
			c15.465,0,31.465-6.842,43.825-19.202C507.149,148.158,513.965,126.833,509.386,108.061z M478.886,151.026
			c-9.351,9.342-21.877,14.325-32.939,13.877c-0.561-11.202,4.535-23.588,13.877-32.939c9.351-9.342,21.798-14.447,32.939-13.877
			C493.325,129.289,488.228,141.675,478.886,151.026z"/>
        <path d="M509.386,188.903c-0.798-3.254-3.342-5.798-6.596-6.596c-18.789-4.579-40.105,2.237-55.667,17.798
			c-15.561,15.57-22.377,36.895-17.798,55.667c0.798,3.255,3.342,5.798,6.596,6.596c3.869,0.939,7.833,1.404,11.842,1.404
			c15.465,0,31.465-6.842,43.825-19.202C507.149,229,513.965,207.676,509.386,188.903z M478.886,231.868
			c-9.351,9.333-21.877,14.368-32.939,13.877c-0.561-11.202,4.535-23.588,13.877-32.939c9.351-9.342,21.798-14.403,32.939-13.877
			C493.325,210.132,488.228,222.517,478.886,231.868z"/>
        <path d="M509.386,269.746c-0.798-3.254-3.342-5.798-6.596-6.596c-18.789-4.579-40.105,2.237-55.667,17.798
			c-15.561,15.57-22.377,36.895-17.798,55.667c0.798,3.255,3.342,5.798,6.596,6.596c3.869,0.939,7.833,1.404,11.842,1.404
			c15.465,0,31.465-6.842,43.825-19.202C507.149,309.842,513.965,288.518,509.386,269.746z M478.886,312.71
			c-9.351,9.342-21.877,14.333-32.939,13.877c-0.561-11.202,4.535-23.588,13.877-32.939c9.351-9.342,21.798-14.447,32.939-13.877
			C493.325,290.974,488.228,303.36,478.886,312.71z"/>
    </g>
</svg>
