<svg height="512pt" viewBox="0 -4 512 512" width="512pt" xmlns="http://www.w3.org/2000/svg">
    <g fill="currentColor">
        <path d="m303.09375 174.25c3.394531 2.378906 8.070312 1.550781 10.445312-1.839844l15.953126-22.789062c2.378906-3.394532 1.554687-8.070313-1.839844-10.445313-3.394532-2.375-8.070313-1.550781-10.445313 1.84375l-15.957031 22.785157c-2.375 3.394531-1.550781 8.070312 1.84375 10.445312zm0 0"/>
        <path d="m341.671875 155.984375-5.417969 27.285156c-.917968 4.640625 2.632813 8.960938 7.367188 8.960938 3.507812 0 6.640625-2.472657 7.347656-6.039063l5.414062-27.289062c.808594-4.0625-1.832031-8.011719-5.894531-8.816406-4.066406-.804688-8.011719 1.832031-8.816406 5.898437zm0 0"/>
        <path d="m309.589844 121.449219c-2.144532-3.542969-6.757813-4.671875-10.300782-2.527344l-23.789062 14.421875c-3.542969 2.148438-4.671875 6.761719-2.527344 10.304688 2.152344 3.542968 6.765625 4.667968 10.304688 2.523437l23.789062-14.417969c3.542969-2.148437 4.671875-6.761718 2.523438-10.304687zm0 0"/>
        <path d="m83.652344 152.179688c2.757812 1.359374 6.113281 1.40625 8.96875 0 7-3.453126 29.835937-16.507813 29.835937-39.464844 0-18.203125-21.214843-27.066406-34.3125-16.074219-5.0625-4.261719-11.941406-5.890625-18.753906-4.089844-9.316406 2.457031-15.570313 10.5625-15.570313 20.164063 0 23.015625 22.84375 36.03125 29.832032 39.464844zm-3.777344-42.367188c1.398438 2.46875 4.46875 4.625 8.023438 4.710938 3.582031.113281 6.972656-2.046876 8.460937-4.652344 3.054687-5.355469 11.097656-3.144532 11.097656 2.847656 0 12.691406-13.394531 21.566406-19.324219 24.875-5.929687-3.292969-19.3125-12.144531-19.3125-24.875 0-6.042969 8.085938-8.132812 11.054688-2.90625zm0 0"/>
        <path d="m141.140625 103.617188h29.636719c4.144531 0 7.5-3.355469 7.5-7.5 0-4.140626-3.355469-7.5-7.5-7.5h-29.636719c-4.144531 0-7.5 3.359374-7.5 7.5 0 4.144531 3.355469 7.5 7.5 7.5zm0 0"/>
        <path d="m141.140625 130.027344h29.636719c4.144531 0 7.5-3.355469 7.5-7.5 0-4.144532-3.355469-7.5-7.5-7.5h-29.636719c-4.144531 0-7.5 3.355468-7.5 7.5 0 4.140625 3.355469 7.5 7.5 7.5zm0 0"/>
        <path d="m141.140625 156.4375h29.636719c4.144531 0 7.5-3.355469 7.5-7.5s-3.355469-7.5-7.5-7.5h-29.636719c-4.144531 0-7.5 3.355469-7.5 7.5s3.355469 7.5 7.5 7.5zm0 0"/>
        <path d="m495.769531 15.007812c4.144531 0 7.5-3.355468 7.5-7.5 0-4.144531-3.355469-7.4999995-7.5-7.4999995h-73.710937c-.117188 0-.230469.0117187-.347656.015625-2.496094-.1289065-5 .9843745-6.539063 3.1835935l-25.890625 36.972657-32.839844-22.996094c-17.371094-12.164063-38.902344-16.289063-59.59375-11.539063l-2.597656-1.820312c-9.589844-6.710938-22.816406-4.347657-29.5 5.199219l-5.96875 8.523437c-6.695312 9.5625-4.363281 22.800781 5.203125 29.496094l2.046875 1.433593c-6.859375 30.617188 26.863281 54.082032 53.179688 37.238282l4.191406 2.933594c-6.851563 30.570312 26.804687 54.117187 53.175781 37.238281l4.195313 2.933593c-6.859376 30.617188 26.863281 54.078126 53.175781 37.234376l2.054687 1.441406c9.566406 6.695312 22.800782 4.363281 29.496094-5.203125l5.96875-8.523438c6.695312-9.5625 4.363281-22.800781-5.199219-29.496093l-3.273437-2.292969c-2.613282-21.066407-13.855469-39.886719-31.226563-52.054688l-30.199219-21.140625 23.652344-33.777344zm-215.457031 43.472657 24.621094 17.242187c-11.796875 2.792969-23.222656-5.234375-24.621094-17.242187zm57.367188 40.167969 24.625 17.242187c-11.769532 2.796875-23.222657-5.207031-24.625-17.242187zm57.371093 40.171874c14.917969 10.445313 9.777344 6.84375 24.625 17.242188-11.773437 2.796875-23.222656-5.214844-24.625-17.242188zm64.128907 6.34375-5.96875 8.523438c-1.953126 2.789062-5.8125 3.472656-8.605469 1.519531-2.410157-1.6875-169.859375-118.941406-172.019531-120.449219-2.769532-1.941406-3.457032-5.832031-1.515626-8.605468l5.96875-8.523438c1.949219-2.78125 5.84375-3.449218 8.605469-1.515625l172.019531 120.445313c2.773438 1.941406 3.457032 5.835937 1.515626 8.605468zm-14.902344-36.289062c-7.894532-5.53125-125.046875-87.558594-128.710938-90.125 11.472656.351562 22.671875 4 32.273438 10.722656l75.324218 52.742188c9.597657 6.722656 16.859376 16 21.113282 26.660156zm0 0"/>
        <path d="m490.820312 310.515625h-217.320312c-4.144531 0-7.5 3.359375-7.5 7.5 0 4.144531 3.355469 7.503906 7.5 7.503906h217.320312c3.40625 0 6.179688 2.769531 6.179688 6.175781v13.679688c0 3.40625-2.773438 6.179688-6.179688 6.179688-3.445312 0-463.609374 0-469.640624 0-3.40625 0-6.179688-2.769532-6.179688-6.179688v-13.679688c0-3.40625 2.773438-6.175781 6.179688-6.175781h217.320312c4.144531 0 7.5-3.359375 7.5-7.503906 0-4.140625-3.355469-7.5-7.5-7.5h-85.355469c.597657-1.953125.925781-4.027344.925781-6.175781v-13.679688c0-11.679687-9.5-21.179687-21.179687-21.179687h-111.710937c-11.679688 0-21.179688 9.5-21.179688 21.179687v13.679688c0 5.214844 1.902344 9.984375 5.039062 13.679687-3.136718 3.691407-5.039062 8.464844-5.039062 13.675781v13.679688c0 11.328125 8.945312 20.578125 20.136719 21.128906v6.609375c0 11.679688 9.503906 21.179688 21.179687 21.179688h20.714844v95.140625c0 7.878906 6.410156 14.289062 14.292969 14.289062h14.152343c7.878907 0 14.292969-6.410156 14.292969-14.289062v-95.140625h302.460938v95.140625c0 7.878906 6.410156 14.289062 14.292969 14.289062h14.152343c7.882813 0 14.292969-6.410156 14.292969-14.289062v-95.140625h20.710938c11.679687 0 21.179687-9.5 21.179687-21.179688v-6.609375c11.195313-.550781 20.140625-9.800781 20.140625-21.128906v-13.679688c0-11.675781-9.5-21.179687-21.179688-21.179687zm-475.820312-19.855469c0-3.40625 2.773438-6.179687 6.179688-6.179687h111.710937c3.40625 0 6.179687 2.773437 6.179687 6.179687v13.679688c0 3.40625-2.773437 6.179687-6.179687 6.179687h-111.710937c-3.40625 0-6.179688-2.773437-6.179688-6.179687zm74.765625 198.0625h-12.734375v-94.429687h12.734375zm345.203125 0h-12.738281v-94.429687h12.738281zm41.890625-115.609375c0 3.40625-2.769531 6.179688-6.179687 6.179688-13.714844 0-415.035157 0-429.363282 0-3.40625 0-6.179687-2.773438-6.179687-6.179688v-6.558593h441.722656zm0 0"/>
        <path d="m228.960938 112.527344c4.144531 0 7.5-3.359375 7.5-7.5v-41.136719c0-16.316406-13.273438-29.59375-29.589844-29.59375h-177.28125c-16.316406 0-29.589844 13.273437-29.589844 29.59375v117.277344c0 16.316406 13.273438 29.589843 29.589844 29.589843h177.28125c16.316406 0 29.59375-13.273437 29.59375-29.589843v-41.140625c0-4.140625-3.359375-7.5-7.503906-7.5-4.140626 0-7.5 3.359375-7.5 7.5v41.140625c0 8.042969-6.546876 14.589843-14.589844 14.589843h-177.28125c-8.042969 0-14.589844-6.546874-14.589844-14.589843v-117.277344c0-8.046875 6.546875-14.59375 14.589844-14.59375h177.28125c8.042968 0 14.589844 6.546875 14.589844 14.59375v41.136719c0 4.140625 3.359374 7.5 7.5 7.5zm0 0"/>
        <path d="m34.773438 61.570312c-4.144532 0-7.5 3.359376-7.5 7.5v106.914063c0 4.144531 3.355468 7.5 7.5 7.5h166.914062c4.144531 0 7.5-3.355469 7.5-7.5v-106.914063c0-4.140624-3.355469-7.5-7.5-7.5zm159.414062 106.914063h-151.914062v-91.914063h151.914062zm0 0"/>
    </g>
</svg>