<svg version="1.1" xmlns="http://www.w3.org/2000/svg" viewBox="0 0 476.065 476.065">
<g fill="currentColor">
	<path d="M432.558,172.02C419.303,64.587,321.466-11.76,214.033,1.495S30.253,112.587,43.508,220.02
		c11.008,89.222,81.303,159.517,170.525,170.525v37.52h-56c-13.255,0-24,10.745-24,24v24h208v-24c0-13.255-10.745-24-24-24h-56
		v-37.52C369.466,377.29,445.813,279.453,432.558,172.02z M318.033,444.065c4.418,0,8,3.582,8,8v8h-176v-8c0-4.418,3.582-8,8-8
		H318.033z M230.033,428.065v-32h16v32H230.033z M238.033,376.065c-99.411,0-180-80.589-180-180
		c0.115-99.364,80.636-179.885,180-180c99.411,0,180,80.589,180,180S337.444,376.065,238.033,376.065z"/>
	<path d="M406.033,212.065v-16c0-4.418-3.582-8-8-8h-93.536c39.8-27.832,49.502-82.658,21.67-122.458
		c-16.467-23.548-43.4-37.565-72.134-37.542h-16c-4.418,0-8,3.582-8,8v93.536c-27.832-39.8-82.658-49.502-122.458-21.67
		c-23.548,16.467-37.565,43.4-37.542,72.134v16c0,4.418,3.582,8,8,8h93.536c-23.465,16.478-37.463,43.328-37.536,72
		c0.057,48.577,39.423,87.943,88,88h16c4.418,0,8-3.582,8-8v-93.536c27.832,39.8,82.658,49.502,122.458,21.67
		C392.038,267.733,406.056,240.8,406.033,212.065z M246.033,44.065h8c39.764,0.055,71.955,32.336,71.9,72.1
		c-0.043,31.17-20.138,58.772-49.788,68.388c-4.202-14.052-15.758-24.677-30.112-27.688V44.065z M86.033,188.065v-8
		c0.073-39.764,32.368-71.94,72.133-71.867c31.148,0.057,58.727,20.138,68.347,49.763c-14.047,4.203-24.668,15.755-27.68,30.104
		H86.033z M230.033,348.065h-8c-39.764-0.055-71.955-32.336-71.9-72.1c0.043-31.17,20.138-58.772,49.788-68.388
		c4.202,14.052,15.758,24.677,30.112,27.688V348.065z M238.033,220.065c-13.255,0-24-10.745-24-24s10.745-24,24-24
		s24,10.745,24,24S251.287,220.065,238.033,220.065z M317.9,283.932c-31.148-0.057-58.727-20.138-68.347-49.763
		c14.047-4.203,24.668-15.755,27.68-30.104h112.8v8C389.959,251.83,357.664,284.006,317.9,283.932z"/>
</g>
</svg>
