<svg height="512" viewBox="0 0 512 512" width="512" xmlns="http://www.w3.org/2000/svg">
    <g fill="currentColor">
        <path d="m377.018 104.4-54.861-93.416c-3.98-6.775-11.334-10.984-19.191-10.984h-91.655c-7.697 0-14.973 4.079-18.987 10.644l-57.135 93.414c-9.055 14.803 1.626 33.87 18.987 33.87h28.182c2.222 33.452 26.808 60.884 58.916 67.41-.274 1.826-.184-13.51-.184 217.195h-37.484c-11.898 0-21.579 9.68-21.579 21.579v46.31c0 11.898 9.68 21.579 21.579 21.579h104.79c11.899 0 21.579-9.68 21.579-21.579v-46.31c0-11.898-9.68-21.579-21.579-21.579h-37.484c0-230.766.09-215.37-.184-217.195 22.025-4.476 40.505-18.795 50.666-38.141v37.631c0 8.235 6.676 14.911 14.911 14.911s14.911-6.676 14.911-14.911v-66.9h6.61c17.166 0 27.893-18.708 19.192-33.528zm-76.866 377.778h-88.302v-29.822h88.302zm-84.599-452.356h83.083l45.974 78.284c-7.061 0-169.903 0-176.938 0zm40.447 147.172c-22.595 0-41.267-17.117-43.729-39.066h87.458c-2.462 21.949-21.134 39.066-43.729 39.066z"/>
    </g>
</svg>