<svg version="1.1" xmlns="http://www.w3.org/2000/svg" viewBox="0 0 512 512">
    <g fill="currentColor">
        <path d="M126.49,36.947c-31.579,0-57.27,25.691-57.27,57.27c0,31.579,25.691,57.27,57.27,57.27c31.578,0,57.27-25.691,57.27-57.27
			C183.761,62.638,158.07,36.947,126.49,36.947z M126.49,131.487c-20.551,0-37.27-16.719-37.27-37.27
			c0-20.551,16.719-37.27,37.27-37.27c20.55,0,37.27,16.719,37.27,37.27C163.761,114.768,147.042,131.487,126.49,131.487z"/>
        <path d="M126.49,0c-5.523,0-10,4.477-10,10v12.338c0,5.523,4.477,10,10,10s10-4.477,10-10V10C136.49,4.477,132.014,0,126.49,0z"/>
        <path d="M126.49,156.097c-5.523,0-10,4.477-10,10v12.338c0,5.523,4.477,10,10,10s10-4.477,10-10v-12.338
			C136.49,160.574,132.014,156.097,126.49,156.097z"/>
        <path d="M210.708,84.217H198.37c-5.523,0-10,4.477-10,10s4.477,10,10,10h12.338c5.523,0,10-4.477,10-10
			S216.23,84.217,210.708,84.217z"/>
        <path d="M54.61,84.217H42.272c-5.523,0-10,4.477-10,10s4.477,10,10,10h12.339c5.523,0,10-4.477,9.999-10
			C64.61,88.694,60.134,84.217,54.61,84.217z"/>
        <path d="M200.977,19.729c-3.905-3.905-10.237-3.905-14.142,0l-9.877,9.877c-3.905,3.906-3.905,10.238,0,14.143
			c1.952,1.953,4.512,2.929,7.071,2.929c2.559,0,5.119-0.976,7.071-2.929l9.877-9.877C204.883,29.966,204.883,23.634,200.977,19.729
			z"/>
        <path d="M76.023,144.685c-3.906-3.905-10.238-3.905-14.143,0l-9.877,9.877c-3.905,3.906-3.905,10.238,0,14.143
			c1.952,1.953,4.512,2.929,7.071,2.929s5.119-0.976,7.072-2.929l9.877-9.877C79.928,154.922,79.928,148.59,76.023,144.685z"/>
        <path d="M76.021,29.606l-9.877-9.877c-3.905-3.905-10.237-3.905-14.142,0c-3.905,3.906-3.905,10.238,0,14.143l9.877,9.877
			c1.952,1.953,4.512,2.929,7.071,2.929s5.119-0.976,7.071-2.929C79.927,39.843,79.927,33.511,76.021,29.606z"/>
        <path d="M459.54,468.389c-0.129-0.64-0.32-1.27-0.57-1.87c-0.25-0.6-0.56-1.18-0.92-1.72c-0.36-0.55-0.78-1.06-1.24-1.53
			c-0.46-0.46-0.97-0.87-1.52-1.24c-0.54-0.36-1.12-0.67-1.73-0.92c-0.599-0.25-1.229-0.44-1.87-0.57c-1.29-0.26-2.62-0.26-3.909,0
			c-0.631,0.13-1.261,0.32-1.87,0.57c-0.601,0.25-1.181,0.56-1.721,0.92c-0.55,0.37-1.06,0.78-1.52,1.24
			c-0.46,0.47-0.88,0.98-1.25,1.53c-0.36,0.54-0.67,1.12-0.92,1.72c-0.25,0.6-0.44,1.23-0.57,1.87
			c-0.13,0.651-0.19,1.301-0.19,1.961c0,0.65,0.06,1.31,0.19,1.95c0.13,0.64,0.32,1.27,0.57,1.87c0.25,0.6,0.56,1.18,0.92,1.73
			c0.37,0.54,0.79,1.06,1.25,1.52c0.46,0.46,0.97,0.88,1.52,1.24c0.54,0.36,1.12,0.67,1.721,0.92c0.609,0.25,1.239,0.44,1.87,0.57
			c0.65,0.13,1.31,0.2,1.96,0.2c0.65,0,1.31-0.07,1.949-0.2c0.641-0.13,1.27-0.32,1.87-0.57c0.61-0.25,1.19-0.56,1.73-0.92
			c0.55-0.36,1.06-0.78,1.52-1.24c0.46-0.46,0.88-0.98,1.24-1.52c0.361-0.55,0.67-1.13,0.92-1.73c0.25-0.6,0.44-1.23,0.57-1.87
			s0.2-1.3,0.2-1.95C459.74,469.689,459.67,469.039,459.54,468.389z"/>
        <path d="M409.739,460.346H62.138c-5.523,0-10,4.477-10,10s4.477,10,10,10h347.6c5.523,0,10-4.477,10.001-10
			C419.739,464.823,415.261,460.346,409.739,460.346z"/>
        <path d="M501.563,427.931h-6.809c-3.806-21.312-22.476-37.54-44.864-37.54c-3.3,0-6.591,0.362-9.803,1.067V293.29
			c36.482-4.902,64.704-36.236,64.704-74.037c0-19.709-7.781-38.531-21.524-52.464c0.186-1.814,0.278-3.641,0.278-5.468
			c0-29.477-23.981-53.458-53.458-53.458c-29.477,0-53.458,23.982-53.458,53.458c0,1.827,0.093,3.653,0.277,5.467
			c-13.741,13.934-21.523,32.756-21.523,52.465c0,37.802,28.223,69.136,64.704,74.037v89.62c-4.685-1.632-9.716-2.52-14.951-2.52
			c-25.129,0-45.573,20.444-45.573,45.574v1.968h-8.506v-35.13h0.001c5.522,0,10-4.477,10-10v-43c0-5.523-4.478-10-10-10h-0.001
			v-47.329c0-2.844-1.211-5.553-3.33-7.45L316.27,246.86c-3.797-3.399-9.543-3.399-13.34,0l-24.787,22.191l-24.788-22.191
			c-3.797-3.398-9.543-3.398-13.34,0l-24.788,22.191l-24.788-22.191c-3.797-3.399-9.543-3.399-13.34,0.001l-24.787,22.191
			l-24.788-22.191c-3.797-3.398-9.543-3.398-13.34,0L89.398,269.05L64.61,246.859c-3.796-3.399-9.543-3.399-13.34-0.001
			l-31.458,28.163c-2.119,1.897-3.33,4.606-3.33,7.451v47.329h-0.001c-5.523,0-10,4.477-10,10v43c0,5.523,4.477,10,10,10h0.001
			v35.13h-6.044c-5.523,0-10,4.477-10,10V502c0,5.523,4.477,10,10,10h491.123c5.522,0,10-4.477,10-10v-64.069
			C511.563,432.408,507.085,427.931,501.563,427.931z M449.89,410.391c11.296,0,20.905,7.362,24.281,17.54h-23.462v-1.968
			c0-5.441-0.959-10.662-2.716-15.504C448.62,410.414,449.253,410.391,449.89,410.391z M420.087,185.574v33.118l-10.407-10.407
			c-3.906-3.904-10.236-3.904-14.143,0c-3.905,3.905-3.905,10.237,0,14.143l23.257,23.257c0.407,0.406,0.839,0.77,1.293,1.091
			v26.265c-25.405-4.712-44.704-27.039-44.704-53.789c0-15.816,6.845-30.854,18.778-41.256c2.74-2.388,3.969-6.075,3.209-9.629
			c-0.492-2.299-0.741-4.67-0.741-7.047c0-18.449,15.009-33.458,33.458-33.458c18.449,0,33.458,15.009,33.458,33.458
			c0,2.378-0.249,4.748-0.741,7.045c-0.762,3.555,0.467,7.243,3.208,9.632c11.935,10.403,18.779,25.44,18.779,41.256
			c0,26.75-19.299,49.076-44.704,53.788v-26.265c0.453-0.322,0.887-0.685,1.293-1.091l23.257-23.257
			c3.905-3.905,3.905-10.237,0-14.143c-3.906-3.904-10.236-3.904-14.143,0l-10.407,10.407v-33.118c0-5.523-4.478-10-10-10
			C424.564,175.574,420.087,180.051,420.087,185.574z M379.563,425.963c0-14.102,11.472-25.574,25.573-25.574
			c14.102,0,25.573,11.472,25.573,25.574v1.968h-51.146V425.963z M288.143,286.941l21.457-19.21l21.457,19.21V329.8h-42.914V286.941
			z M225.227,286.941l21.458-19.21l21.457,19.21V329.8h-42.915V286.941z M162.313,286.941l21.457-19.21l21.458,19.21V329.8h-42.915
			V286.941z M99.398,286.941l21.457-19.21l21.458,19.21V329.8H99.398V286.941z M36.483,286.941l21.457-19.21l21.457,19.21V329.8
			H36.483V286.941z M26.482,349.801h314.575v23H26.482V349.801z M331.057,392.801v35.13h-42.914v-35.13H331.057z M268.143,392.801
			v35.13h-42.915v-35.13H268.143z M205.227,392.801v35.13h-42.915v-35.13H205.227z M142.313,392.801v35.13H99.398v-35.13H142.313z
			 M79.398,392.801v35.13H36.483v-35.13H79.398z M20.438,492v-44.069h471.123V492H20.438z"/>
        <path d="M278.487,127.843c-0.556,0-1.112,0.011-1.668,0.033c-7.543-14.42-22.519-23.923-38.894-23.923
			c-20.587,0-38.047,14.683-42.773,34.346c-19.783,1.93-35.309,19.001-35.309,39.707c0,21.994,17.517,39.887,39.048,39.887h79.596
			c24.285,0,44.041-20.198,44.041-45.025C322.527,148.041,302.771,127.843,278.487,127.843z M278.487,197.893h-79.596
			c-10.503,0-19.048-8.921-19.048-19.887c0-10.967,8.545-19.888,19.048-19.888c1.056,0,2.148,0.099,3.244,0.296
			c2.893,0.516,5.87-0.267,8.135-2.141c2.265-1.875,3.59-4.652,3.623-7.592c0.153-13.635,10.933-24.728,24.032-24.728
			c10.638,0,19.877,7.108,22.988,17.689c1.511,5.135,6.794,8.173,11.994,6.886c1.838-0.454,3.715-0.684,5.58-0.684
			c13.256,0,24.041,11.226,24.041,25.025C302.527,186.667,291.743,197.893,278.487,197.893z"/>
    </g>
</svg>
