<svg height="512" viewBox="0 0 512 512" width="512" xmlns="http://www.w3.org/2000/svg">
    <g fill="currentColor">
        <path d="m139.933 230.566h232.135c22.405 0 40.634-18.228 40.634-40.633v-149.3c-.001-22.405-18.229-40.633-40.635-40.633h-232.134c-22.405 0-40.634 18.228-40.634 40.633v149.299c0 22.406 18.228 40.634 40.634 40.634zm-25.634-189.933c0-14.134 11.499-25.633 25.634-25.633h232.135c14.135 0 25.634 11.499 25.634 25.633v149.299c0 14.134-11.499 25.633-25.634 25.633h-232.135c-14.135 0-25.634-11.499-25.634-25.633z"/>
        <path d="m139.933 50.204c4.143 0 7.5-3.358 7.5-7.5v-4.142c0-4.142-3.357-7.5-7.5-7.5s-7.5 3.358-7.5 7.5v4.142c0 4.142 3.357 7.5 7.5 7.5z"/>
        <path d="m145.11 164.813c10.423 2.081 18.85 10.18 20.97 20.157 1.536 7.222 8.022 12.463 15.422 12.463h148.947c7.48 0 13.98-5.31 15.455-12.624 2.115-10.482 10.576-18.936 21.052-21.038 7.308-1.466 12.611-7.965 12.611-15.454v-66.067c0-7.484-5.311-13.985-12.627-15.457-10.472-2.107-18.925-10.563-21.036-21.041-1.475-7.312-7.967-12.618-15.439-12.618h-148.971c-7.395 0-13.878 5.242-15.414 12.465-2.118 9.969-10.54 18.067-20.955 20.153-7.355 1.472-12.692 7.979-12.692 15.47v68.125c0 7.494 5.331 13.999 12.677 15.466zm2.323-83.592c0-.374.262-.687.638-.762 16.203-3.244 29.337-16 32.682-31.741.073-.344.378-.585.742-.585h148.972c.357 0 .666.245.733.583 3.29 16.325 16.464 29.499 32.782 32.782.34.068.586.385.586.752v66.067c0 .361-.241.683-.561.747-16.326 3.274-29.51 16.447-32.806 32.778-.069.342-.386.591-.752.591h-148.947c-.362 0-.678-.246-.75-.582-3.347-15.752-16.49-28.511-32.705-31.748-.357-.071-.614-.389-.614-.757z"/>
        <path d="m372.067 50.204c4.143 0 7.5-3.358 7.5-7.5v-4.142c0-4.142-3.357-7.5-7.5-7.5s-7.5 3.358-7.5 7.5v4.142c0 4.142 3.358 7.5 7.5 7.5z"/>
        <path d="m139.933 199.503c4.143 0 7.5-3.358 7.5-7.5v-4.142c0-4.142-3.357-7.5-7.5-7.5s-7.5 3.358-7.5 7.5v4.142c0 4.143 3.357 7.5 7.5 7.5z"/>
        <path d="m372.067 180.362c-4.143 0-7.5 3.358-7.5 7.5v4.142c0 4.142 3.357 7.5 7.5 7.5s7.5-3.358 7.5-7.5v-4.142c0-4.142-3.357-7.5-7.5-7.5z"/>
        <path d="m189.733 164.1h49.7c4.143 0 7.5-3.358 7.5-7.5v-25.633h17.35c2.6 0 5.014-1.346 6.38-3.557s1.491-4.972.328-7.297l-24.85-49.7c-1.271-2.541-3.867-4.146-6.708-4.146s-5.438 1.605-6.708 4.146l-14.493 28.987h-28.498c-4.143 0-7.5 3.358-7.5 7.5v49.7c-.001 4.142 3.357 7.5 7.499 7.5zm49.701-73.563 12.715 25.43h-25.43zm-42.201 23.863h13.498l-2.856 5.713c-1.163 2.325-1.038 5.086.328 7.297s3.78 3.557 6.38 3.557h17.351v18.133h-34.7v-34.7z"/>
        <path d="m313.983 147.533c17.838 0 32.35-14.512 32.35-32.35 0-17.837-14.512-32.35-32.35-32.35s-32.351 14.512-32.351 32.35c.001 17.838 14.514 32.35 32.351 32.35zm0-49.699c9.566 0 17.35 7.783 17.35 17.35s-7.783 17.35-17.35 17.35-17.351-7.783-17.351-17.35c.001-9.567 7.784-17.35 17.351-17.35z"/>
        <path d="m230.867 248.5c-8.547 0-15.5 6.953-15.5 15.5v17.133c0 8.547 6.953 15.5 15.5 15.5h50.266c8.547 0 15.5-6.953 15.5-15.5v-17.133c0-8.547-6.953-15.5-15.5-15.5zm50.766 15.5v17.133c0 .276-.225.5-.5.5h-50.266c-.275 0-.5-.224-.5-.5v-17.133c0-.276.225-.5.5-.5h50.266c.275 0 .5.224.5.5z"/>
        <path d="m496.5 463.867h-17.672c.013-.261.04-.519.04-.783v-8.284c0-10.652-6.959-19.704-16.567-22.864v-136.505c9.608-3.16 16.567-12.212 16.567-22.864v-8.284c0-8.703-7.081-15.783-15.784-15.783h-2.562c1.143-2.8 1.779-5.86 1.779-9.067 0-13.27-10.796-24.066-24.066-24.066s-24.066 10.796-24.066 24.066c0 3.207.635 6.266 1.779 9.067h-2.563c-8.703 0-15.783 7.081-15.783 15.783v8.284c0 10.518 6.786 19.476 16.207 22.741-18.616 18.438-40.037 33.351-63.734 44.337-3.758 1.742-5.393 6.201-3.65 9.958 1.27 2.737 3.978 4.348 6.81 4.348 1.056 0 2.129-.224 3.149-.698 21.058-9.762 40.427-22.432 57.786-37.754v23.712c-45.41 35.495-100.014 54.247-158.167 54.247-58.148 0-112.756-18.753-158.167-54.249v-23.69c43.764 38.69 99.28 59.805 158.167 59.805 23.592 0 46.913-3.441 69.314-10.228 3.964-1.201 6.204-5.388 5.003-9.353-1.201-3.964-5.389-6.207-9.353-5.003-20.989 6.359-42.847 9.583-64.964 9.583-59.572 0-115.462-23.07-157.802-65.018 9.419-3.267 16.202-12.224 16.202-22.74v-8.284c0-8.703-7.08-15.783-15.783-15.783h-2.563c1.143-2.8 1.779-5.86 1.779-9.067 0-13.27-10.796-24.066-24.066-24.066s-24.07 10.798-24.07 24.068c0 3.207.636 6.266 1.779 9.067h-2.562c-8.703 0-15.784 7.081-15.784 15.783v8.284c0 10.652 6.959 19.704 16.567 22.864v136.506c-9.608 3.16-16.567 12.212-16.567 22.864v8.284c0 .264.027.522.04.783h-17.673c-8.547 0-15.5 6.953-15.5 15.5v17.132c0 8.547 6.953 15.5 15.5 15.5h59.833c4.143 0 7.5-3.358 7.5-7.5s-3.357-7.5-7.5-7.5h-59.833c-.275 0-.5-.224-.5-.5v-17.133c0-.276.225-.5.5-.5h481c.275 0 .5.224.5.5v17.133c0 .276-.225.5-.5.5h-391.167c-4.143 0-7.5 3.358-7.5 7.5s3.357 7.5 7.5 7.5h391.167c8.547 0 15.5-6.953 15.5-15.5v-17.133c0-8.547-6.953-15.5-15.5-15.5zm-67.333-164.577c.161-.878.158-1.778.005-2.656h18.128v18.133h-18.133zm0 43.904c.012-.239.012-.479 0-.719v-12.709h18.133v100.967h-18.133zm0-103.761c0-4.999 4.067-9.066 9.066-9.066s9.066 4.067 9.066 9.066-4.067 9.067-9.066 9.067-9.066-4.067-9.066-9.067zm-16.567 24.85c0-.432.352-.783.783-.783h49.7c.433 0 .784.352.784.783v8.284c0 4.999-4.067 9.066-9.067 9.066h-33.133c-5 0-9.067-4.067-9.067-9.066zm-156.6 144.176c57.648 0 112.007-17.422 158.167-50.514v73.991c-9.608 3.16-16.567 12.212-16.567 22.864v8.284c0 .264.027.522.04.783h-283.279c.013-.261.04-.519.04-.783v-8.284c0-10.652-6.959-19.704-16.567-22.864v-73.992c46.161 33.092 100.523 50.515 158.166 50.515zm-173.167-110.789c-.012.247-.012.495 0 .742v16.355h-18.133v-18.133h18.133zm-18.133 32.097h18.133v100.967h-18.133zm0-90.334c0-4.999 4.067-9.066 9.066-9.066s9.066 4.067 9.066 9.066-4.067 9.067-9.066 9.067-9.066-4.067-9.066-9.067zm-16.567 24.85c0-.432.352-.783.784-.783h49.7c.432 0 .783.352.783.783v8.284c0 4.999-4.067 9.066-9.067 9.066h-33.133c-5 0-9.067-4.067-9.067-9.066zm.784 199.584c-.433 0-.784-.352-.784-.783v-8.284c0-4.999 4.067-9.066 9.067-9.066h33.133c5 0 9.067 4.067 9.067 9.066v8.284c0 .432-.352.783-.783.783zm364.466 0c-.432 0-.783-.352-.783-.783v-8.284c0-4.999 4.067-9.066 9.067-9.066h33.133c5 0 9.067 4.067 9.067 9.066v8.284c0 .432-.352.783-.784.783z"/>
    </g>
</svg>