<svg version="1.1" xmlns="http://www.w3.org/2000/svg" viewBox="0 0 480 480">
    <g fill="currentColor">
        <path d="M472,64c4.418,0,8-3.582,8-8V8c0-4.418-3.582-8-8-8H8C3.582,0,0,3.582,0,8v48c0,4.418,3.582,8,8,8h16v400H8
		c-4.418,0-8,3.582-8,8s3.582,8,8,8h464c4.418,0,8-3.582,8-8s-3.582-8-8-8h-16V64H472z M408,464H72v-48h336V464z M408,400H72v-48
		h336V400z M408,336H72v-48h336V336z M408,272H72v-48h336V272z M408,208H72v-48h336V208z M408,144H72V96h336V144z M440,464h-16V88
		c0-4.418-3.582-8-8-8H64c-4.418,0-8,3.582-8,8v376H40V64h400V464z M16,48V16h448v32H16z"/>
        <path d="M216,456h48c4.418,0,8-3.582,8-8s-3.582-8-8-8h-48c-4.418,0-8,3.582-8,8S211.582,456,216,456z"/>
    </g>
</svg>
