<svg version="1.1" xmlns="http://www.w3.org/2000/svg" viewBox="0 0 480 480">
    <g fill="currentColor">
        <path d="M474.608,80.439l-232-80c-1.69-0.583-3.526-0.583-5.216,0l-232,80C2.166,81.551,0.001,84.587,0,87.999v384
			c0,4.418,3.582,8,8,8h40c4.418,0,8-3.582,8-8v-248h368v248c0,4.418,3.582,8,8,8h40c4.418,0,8-3.582,8-8v-384
			C479.999,84.587,477.834,81.551,474.608,80.439z M40,215.999v248H16v-304h24V215.999z M424,207.999H56v-16h368V207.999z
			 M424,175.999H56v-16h368V175.999z M464,463.999h-24v-304h24V463.999z M464,143.999H16V93.703l224-77.24l224,77.24V143.999z"/>
        <path d="M395.576,344.799l-29.6-14.8l-26.4-52.8c-4.061-8.125-12.381-13.242-21.464-13.2H161.888
			c-9.098-0.03-17.421,5.114-21.464,13.264l-26.4,52.8l-29.6,14.8c-2.705,1.352-4.416,4.112-4.424,7.136v112c0,8.837,7.163,16,16,16
			h32c8.837,0,16-7.163,16-16v-24h192v24c0,8.837,7.163,16,16,16h32c8.837,0,16-7.163,16-16v-112
			C400.017,348.952,398.301,346.16,395.576,344.799z M154.736,284.423c1.345-2.718,4.119-4.434,7.152-4.424h156.224
			c3.033-0.01,5.807,1.706,7.152,4.424l21.792,43.576H132.944L154.736,284.423z M128,463.999H96v-24h32V463.999z M384,463.999h-32
			v-24h32V463.999z M384,423.999H136H96v-67.056l25.888-12.944h236.224L384,356.943V423.999z"/>
        <path d="M152,359.999h-24c-8.837,0-16,7.163-16,16v16c0,8.837,7.163,16,16,16h24c8.837,0,16-7.163,16-16v-16
			C168,367.162,160.837,359.999,152,359.999z M152,391.999h-24v-16h24V391.999z"/>
        <path d="M352,359.999h-24c-8.837,0-16,7.163-16,16v16c0,8.837,7.163,16,16,16h24c8.837,0,16-7.163,16-16v-16
			C368,367.162,360.837,359.999,352,359.999z M352,391.999h-24v-16h24V391.999z"/>
        <path d="M280,359.999h-80c-8.837,0-16,7.163-16,16v16c0,8.837,7.163,16,16,16h80c8.837,0,16-7.163,16-16v-16
			C296,367.162,288.837,359.999,280,359.999z M280,391.999h-80v-16h80V391.999z"/>
    </g>
</svg>
