<svg version="1.1" xmlns="http://www.w3.org/2000/svg" viewBox="0 0 511.999 511.999">
    <g fill="currentColor">
        <path d="M501.999,126.001h-0.027c6.292-8.362,10.027-18.752,10.027-30c0-27.57-22.43-50.001-50-50.001
		s-50.001,22.43-50.001,50.001c0,11.248,3.736,21.638,10.027,30h-0.027c-5.522,0-10,4.477-10,10v35.545
		c-11.328-7.233-23.128-13.658-35.334-19.241v-16.304c0-5.523-4.477-10-10-10s-10,4.477-10,10v8.037
		c-3.369-1.247-6.764-2.438-10.186-3.562c-8.291-2.723-16.683-5.052-25.146-7.011v-20.833c0-5.523-4.478-10-10-10
		c-5.523,0-10,4.477-10,10v16.932c-11.68-1.849-23.474-2.974-35.332-3.381V96.001c0-5.523-4.478-10-10-10c-5.523,0-10,4.477-10,10
		v30.183c-11.859,0.407-23.653,1.532-35.333,3.381v-16.932c0-5.523-4.478-10-10-10c-5.523,0-10,4.477-10,10v20.833
		c-8.462,1.959-16.852,4.287-25.142,7.009c-3.424,1.124-6.819,2.316-10.191,3.563v-8.037c0-5.523-4.477-10-10-10
		c-5.523,0-10,4.477-10,10v16.304c-12.205,5.583-24.004,12.007-35.334,19.24v-35.544c0-5.523-4.477-10-10-10h-0.027
		c6.293-8.362,10.027-18.752,10.027-30c0-27.57-22.43-50-50-50s-50,22.43-50,50c0,11.248,3.734,21.638,10.027,30H10
		c-5.523,0-10,4.477-10,10v319.999c0,5.523,4.477,10,10,10h40h40h31.033c5.522,0,10-4.477,10-10c0-5.522-4.478-10-10-10H100
		v-20.001h311.998v20.001h-21.033c-5.523,0-10,4.478-10,10c0,5.523,4.477,10,10,10h31.033h40.001h40c5.522,0,10-4.477,10-10
		V136.001C511.999,130.477,507.521,126.001,501.999,126.001z M80,445.999H50H20V146.001h20v41.898c0,5.523,4.477,10,10,10
		s10-4.477,10-10v-41.898h20V445.999z M50,126.001c-16.543,0-30-13.458-30-30s13.457-30,30-30c16.543,0,30,13.458,30,30
		S66.543,126.001,50,126.001z M135.334,405.998H100V195.629c11.318-8.02,23.126-15.095,35.334-21.218V405.998z M190.667,406
		h-35.333V165.384c11.5-4.63,23.298-8.449,35.333-11.437V406z M246,406h-35.333V149.787c11.614-1.958,23.409-3.168,35.333-3.599
		V406z M301.332,405.998H266v-259.81c11.924,0.431,23.717,1.641,35.332,3.599V405.998z M356.664,405.999h-35.332V153.948
		c12.035,2.988,23.832,6.807,35.332,11.438V405.999z M411.998,405.998h-35.334V174.412c12.209,6.123,24.017,13.2,35.334,21.22
		V405.998z M491.999,445.999h-30h-30.001V146.001h20.001v41.898c0,5.523,4.478,10,10,10c5.522,0,10-4.477,10-10v-41.898h20
		V445.999z M461.999,126.001c-16.542,0-30.001-13.458-30.001-30c0-16.543,13.459-30.001,30.001-30.001
		c16.542,0,30,13.458,30,30.001C491.999,112.542,478.541,126.001,461.999,126.001z"/>
        <path d="M150,445.999h-0.236c-5.523,0-10,4.478-10,10c0,5.523,4.477,10,10,10H150c5.523,0,10-4.477,10-10
		C160,450.477,155.523,445.999,150,445.999z"/>
        <path d="M362.234,445.999h-0.237c-5.522,0-10,4.478-10,10c0,5.523,4.478,10,10,10h0.237c5.523,0,10-4.477,10-10
		C372.234,450.477,367.758,445.999,362.234,445.999z"/>
        <path d="M50,206.631c-5.523,0-10,4.477-10,10v0.235c0,5.523,4.477,10,10,10s10-4.477,10-10v-0.235
		C60,211.108,55.523,206.631,50,206.631z"/>
        <path d="M461.999,206.631c-5.522,0-10,4.477-10,10v0.235c0,5.523,4.478,10,10,10c5.522,0,10-4.477,10-10v-0.235
		C471.999,211.108,467.521,206.631,461.999,206.631z"/>
    </g>
</svg>
