<svg height="512" viewBox="0 0 64 64" width="512" xmlns="http://www.w3.org/2000/svg">
    <g fill="currentColor">
        <path d="m63.618 62-2.718-5.447a1 1 0 0 0 -.9-.553h-1v-30h3v-2h-3v-19a5.006 5.006 0 0 0 -5-5h-14a5.006 5.006 0 0 0 -5 5v1a3 3 0 0 0 -3 3v1h-5a3 3 0 0 0 -3 3v2a1 1 0 0 0 1 1h15v-2h-14v-1a1 1 0 0 1 1-1h18a1 1 0 0 1 1 1v1h-4v2h5a1 1 0 0 0 1-1v-2a3 3 0 0 0 -3-3h-5v-1a3 3 0 0 0 -3-3v-1a3 3 0 0 1 3-3h14a3 3 0 0 1 3 3v19h-5v2h5v14h-3v-2h-2v6h2v-2h3v14h-1a1 1 0 0 0 -.9.553l-2.718 5.447h-52.382v2h64v-2zm-25.618-53v1h-4v-1a1 1 0 0 1 1-1h2a1 1 0 0 1 1 1zm18.618 49h2.764l2 4h-6.764z"/>
        <path d="m29 18h2v4h-2z"/>
        <path d="m29 24h2v2h-2z"/>
        <path d="m29 34h2v2h-2z"/>
        <path d="m37 34h2v2h-2z"/>
        <path d="m29 28h2v4h-2z"/>
        <path d="m33 22h2v4h-2z"/>
        <path d="m33 28h2v2h-2z"/>
        <path d="m33 32h2v6h-2z"/>
        <path d="m41 22h2v4h-2z"/>
        <path d="m41 28h2v2h-2z"/>
        <path d="m41 32h2v6h-2z"/>
        <path d="m37 18h2v4h-2z"/>
        <path d="m37 24h2v2h-2z"/>
        <path d="m37 28h2v4h-2z"/>
        <path d="m45 34h2v2h-2z"/>
        <path d="m45 18h2v4h-2z"/>
        <path d="m45 24h2v2h-2z"/>
        <path d="m45 28h2v4h-2z"/>
        <path d="m41 18h2v2h-2z"/>
        <path d="m33 18h2v2h-2z"/>
        <path d="m25 22h2v4h-2z"/>
        <path d="m25 28h2v2h-2z"/>
        <path d="m25 32h2v6h-2z"/>
        <path d="m25 18h2v2h-2z"/>
        <path d="m2 37.987v19.013a1 1 0 0 0 1 1h12a1 1 0 0 0 1-1v-19.1l2-.013v2.113h2v-6h-2v1.882l-18.006.118.012 2zm2 12.013h10v1h-10zm0 6v-3h10v3zm10-8h-10v-10.026l10-.066z"/>
        <path d="m10 29c4.486 0 8-5.271 8-12s-3.514-12-8-12-8 5.271-8 12 3.514 12 8 12zm0-22c3.252 0 6 4.579 6 10s-2.748 10-6 10-6-4.579-6-10 2.748-10 6-10z"/>
        <path d="m5.095 13.5h7.81v2h-7.81z" transform="matrix(.768 -.64 .64 .768 -7.197 9.122)"/>
        <path d="m7.095 18.5h7.81v2h-7.81z" transform="matrix(.768 -.64 .64 .768 -9.934 11.562)"/>
    </g>
</svg>