<svg xmlns="http://www.w3.org/2000/svg" viewBox="0 0 512 512" width="512" height="512">
    <g fill="currentColor">
        <path d="M456,328a40.037,40.037,0,0,0-8,.80493V144a7.97522,7.97522,0,0,0-2.34381-5.65747,14.64535,14.64535,0,0,1,0-20.68506A7.97522,7.97522,0,0,0,448,112V88h40a7.99946,7.99946,0,0,0,6.9458-11.96875l-32-56A7.99863,7.99863,0,0,0,456,16H384a7.99863,7.99863,0,0,0-6.9458,4.03125l-32,56A7.99946,7.99946,0,0,0,352,88h40v24a7.97522,7.97522,0,0,0,2.34381,5.65747,14.64535,14.64535,0,0,1,0,20.68506A7.97522,7.97522,0,0,0,392,144V320H312V288h24a8.00008,8.00008,0,0,0,8-8V248a8.00008,8.00008,0,0,0-8-8H312V216h48a8.00008,8.00008,0,0,0,8-8V112a8.00008,8.00008,0,0,0-8-8H208a8.00008,8.00008,0,0,0-8,8v96a8.00008,8.00008,0,0,0,8,8h48v24H205.41608l-13.60553-34.01465-4.97412-39.793A56.53148,56.53148,0,0,0,184,154.26V80A64,64,0,0,0,56,80v52.82861A56.04193,56.04193,0,0,0,33.59424,161.919l-17.1836,51.55078a7.998,7.998,0,0,0-.17187,4.4707l5.59137,22.36548A7.99745,7.99745,0,0,0,16,248V488a8.00008,8.00008,0,0,0,8,8H488a8.00008,8.00008,0,0,0,8-8V368A40.04552,40.04552,0,0,0,456,328Zm24,40v56H432V368a24,24,0,0,1,48,0ZM264,424V400a8.00917,8.00917,0,0,1,8-8H408a8.00917,8.00917,0,0,1,8,8v24ZM96,424V400a8.00917,8.00917,0,0,1,8-8H240a8.00917,8.00917,0,0,1,8,8v24Zm320-80v33.37622A23.88212,23.88212,0,0,0,408,376H272a23.90111,23.90111,0,0,0-16,6.13086A23.90111,23.90111,0,0,0,240,376H104a23.88212,23.88212,0,0,0-8,1.37622V344a8.00917,8.00917,0,0,1,8-8H408A8.00917,8.00917,0,0,1,416,344Zm10.45172-208H413.54828a30.84351,30.84351,0,0,0,0-16h12.90344A30.84351,30.84351,0,0,0,426.45172,136ZM388.64258,32h62.71484l22.85694,40H365.78564ZM432,88v16H408V88Zm-24,64h24V336.022c-.36633.27564-.72418.562-1.08069.84961A24.04369,24.04369,0,0,0,408,320ZM296,320H104a24.04369,24.04369,0,0,0-22.91931,16.87158A39.9,39.9,0,0,0,32,336.022V288H296Zm32-48H32V256H328ZM72,240H64V225.541l7.31689-18.292L72,209.29785Zm88-.00024.00024.00024H160ZM216,200V120H352v80H312V168a8.00008,8.00008,0,0,0-8-8H264a8.00008,8.00008,0,0,0-8,8v32Zm56-24h24v64H272ZM120,32a48.054,48.054,0,0,1,48,48v50.85352a56.72562,56.72562,0,0,0-7.91992-5.73536l-11.44165-6.865A31.79405,31.79405,0,0,0,152,104V80a8.00008,8.00008,0,0,0-8-8h-6.11133a20.83053,20.83053,0,0,1-18.7334-11.57812,8.00064,8.00064,0,0,0-12.812-2.07911l-16,16A8.00076,8.00076,0,0,0,88,80v24a31.80188,31.80188,0,0,0,2.75751,12.97119L72,125.01V80A48.054,48.054,0,0,1,120,32Zm16,72a16,16,0,0,1-32,0V83.31348l6.94678-6.94629A36.69816,36.69816,0,0,0,136,87.95312Zm-34.77191,25.89209a31.91613,31.91613,0,0,0,36.70447.59717l1.23718.74243L120,155.19336l-19.86627-24.83228ZM48.773,166.97949A40.03538,40.03538,0,0,1,70.96387,142.8623l13.91162-5.96191,28.87744,36.09668a7.99943,7.99943,0,0,0,12.49414,0L152.99,139.56836a39.72779,39.72779,0,0,1,17.96948,28.6084l5.10254,40.81543a7.98281,7.98281,0,0,0,.51026,1.97851L188.18359,240H180l-20-26.667V201.80664a50.82338,50.82338,0,0,0,1.93262-37.30762l-2.34326-7.02929-15.17872,5.06054,2.34327,7.0293a34.95513,34.95513,0,0,1-1.90918,26.86231A7.99934,7.99934,0,0,0,144,200v40H88V208a8.00643,8.00643,0,0,0-.41064-2.53027l-8-24a8.00009,8.00009,0,0,0-15.01709-.44043l-16,40A7.99723,7.99723,0,0,0,48,224v16H38.24609l-5.91992-23.68066ZM32,368a24,24,0,0,1,48,0v56H32ZM480,480H32V440H480Z"/>
    </g>
</svg>
