<svg height="512" viewBox="0 0 512 512" width="512" xmlns="http://www.w3.org/2000/svg">
    <g fill="currentColor">
        <path d="m26.622 151.741h10.8v35.681c0 11.125 9.051 20.175 20.175 20.175h14.814c4.799 0 9.208-1.691 12.675-4.5 3.467 2.809 7.875 4.5 12.675 4.5h14.814c11.124 0 20.175-9.05 20.175-20.175v-39.94h20.139v185.115h-23.457c-10.938 0-19.837 8.898-19.837 19.836v37.324c0 9.968 7.398 18.219 16.988 19.608v87.576c0 8.304 6.755 15.059 15.059 15.059h30.335c8.304 0 15.059-6.755 15.059-15.059v-53.844h51.464c4.143 0 7.5-3.358 7.5-7.5s-3.357-7.5-7.5-7.5c-9.765 0-85.785 0-96.917 0v-18.503h228.834v18.503c-11.137 0-87.217 0-96.917 0-4.143 0-7.5 3.358-7.5 7.5s3.357 7.5 7.5 7.5h51.465v53.844c0 8.304 6.755 15.059 15.059 15.059h30.334c8.304 0 15.06-6.755 15.06-15.059 0-10.154 0-77.036 0-87.576 9.59-1.389 16.988-9.64 16.988-19.608v-37.324c0-10.938-8.898-19.836-19.837-19.836h-23.457v-75.058c0-4.142-3.357-7.5-7.5-7.5s-7.5 3.358-7.5 7.5v75.058h-25.164c0-21.713 0-162.912 0-185.115h25.164v75.058c0 4.142 3.357 7.5 7.5 7.5s7.5-3.358 7.5-7.5v-75.058h20.139v39.94c0 11.125 9.051 20.175 20.175 20.175h14.814c4.799 0 9.208-1.691 12.675-4.5 3.467 2.809 7.875 4.5 12.674 4.5h14.815c11.124 0 20.175-9.05 20.175-20.175v-35.681h10.8c11.124 0 20.175-9.05 20.175-20.175v-14.814c0-11.125-9.051-20.175-20.175-20.175h-10.8v-35.681c0-11.124-9.051-20.174-20.175-20.174h-14.815c-4.799 0-9.207 1.691-12.674 4.5-3.467-2.809-7.875-4.5-12.675-4.5h-14.814c-11.124 0-20.175 9.05-20.175 20.174v39.941h-20.139v-80.663c-.001-11.124-9.051-20.174-20.175-20.174h-14.814c-11.124 0-20.175 9.05-20.175 20.174v50.534h-95.896v-50.534c0-11.124-9.05-20.174-20.174-20.174h-14.815c-11.124 0-20.174 9.05-20.174 20.174v80.663h-20.139v-39.941c0-11.124-9.051-20.174-20.175-20.174h-14.814c-4.799 0-9.208 1.691-12.675 4.5-3.467-2.809-7.875-4.5-12.675-4.5h-14.814c-11.124 0-20.175 9.05-20.175 20.174v35.681h-10.8c-11.124 0-20.175 9.05-20.175 20.175v14.814c0 11.125 9.051 20.175 20.175 20.175zm141.267-4.26h25.163v185.115h-25.163zm40.163 68.712h95.896v76.901h-95.896zm95.895-15h-95.896v-23.583h95.896zm-131.919 241.904-.051 53.903-30.393-.039c0-.001-.001-.008-.001-.02v-53.844zm198.329 53.903-30.393-.059v-53.844h30.445zm12.211-149.403c2.667 0 4.837 2.169 4.837 4.836v37.324c0 2.667-2.17 4.836-4.837 4.836-13.202 0-241.256 0-253.137 0-2.667 0-4.837-2.169-4.837-4.836v-37.324c0-2.667 2.17-4.836 4.837-4.836zm-174.516-15v-24.503h95.896v24.503zm95.895-169.987h-95.896v-15.128h95.896zm-115.977-30.129v-16.645h136.06v16.645c-4.653 0-130.411 0-136.06 0zm297.408-20.904c2.805 0 5.175 2.37 5.175 5.175v14.814c0 2.805-2.37 5.175-5.175 5.175h-10.8v-25.164zm-45.79-55.855h14.815c2.805 0 5.175 2.37 5.175 5.174v126.526c0 2.805-2.37 5.175-5.175 5.175h-14.815c-2.805 0-5.174-2.37-5.174-5.175v-126.526c0-2.805 2.369-5.174 5.174-5.174zm-45.338 5.174c0-2.805 2.37-5.174 5.175-5.174h14.814c2.805 0 5.175 2.37 5.175 5.174v126.526c0 2.805-2.37 5.175-5.175 5.175h-14.814c-2.854 0-5.175-2.321-5.175-5.175 0-2.904 0-122.602 0-126.526zm-15 71.585c-13.463 0-25.186 0-40.221 0v-16.645h40.221zm-60.303-112.307c0-2.805 2.37-5.174 5.175-5.174h14.814c2.854 0 5.175 2.321 5.175 5.174v80.663c-9.106 0-16.058 0-25.164 0 0-9.373 0-70.885 0-80.663zm-15 65.534v15.128h-95.896v-15.128zm-136.058-65.534c0-2.805 2.369-5.174 5.174-5.174h14.815c2.805 0 5.174 2.37 5.174 5.174v80.663c-9.104 0-16.039 0-25.163 0zm5.081 95.663v16.645c-15.273 0-26.46 0-40.22 0v-16.645zm-75.209-60.115h14.814c2.805 0 5.175 2.37 5.175 5.174v126.526c0 2.854-2.321 5.175-5.175 5.175h-14.814c-2.805 0-5.175-2.37-5.175-5.175v-126.526c0-2.805 2.37-5.174 5.175-5.174zm-45.339 5.174c0-2.805 2.37-5.174 5.175-5.174h14.814c2.805 0 5.175 2.37 5.175 5.174v126.526c0 2.854-2.321 5.175-5.175 5.175h-14.814c-2.854 0-5.175-2.321-5.175-5.175 0-5.679 0-120.827 0-126.526zm-30.975 55.856c0-2.854 2.321-5.175 5.175-5.175h10.8v25.164h-10.8c-2.854 0-5.175-2.321-5.175-5.175z"/>
    </g>
</svg>