<svg version="1.1" xmlns="http://www.w3.org/2000/svg" viewBox="0 0 480.005 480.005">
    <g fill="currentColor">
        <path d="M104.005,108.003c-13.255,0-24,10.745-24,24c0,4.418,3.582,8,8,8s8-3.582,8-8s3.582-8,8-8s8-3.582,8-8
			S108.423,108.003,104.005,108.003z"/>
        <path d="M385.357,76.115l-280-48c-0.447-0.073-0.899-0.111-1.352-0.112C46.612,27.956,0.047,74.444,0,131.837
			c-0.026,31.059,13.843,60.501,37.805,80.261l58.44,233.848c0.892,3.559,4.091,6.056,7.76,6.056h64
			c4.418,0.008,8.007-3.566,8.015-7.985c0-0.171-0.005-0.341-0.015-0.511l-13.6-217.4l222.92-38.216
			c3.854-0.645,6.679-3.98,6.68-7.888v-96C392.007,80.105,389.199,76.773,385.357,76.115z M110.253,436.003L57.605,225.171
			c0.504,0.248,1.04,0.416,1.544,0.664c2.576,1.232,5.189,2.352,7.84,3.36c0.744,0.28,1.464,0.6,2.208,0.864
			c3.319,1.174,6.697,2.175,10.12,3c0.8,0.192,1.6,0.328,2.4,0.504c2.768,0.592,5.565,1.077,8.392,1.456
			c1.008,0.128,2.016,0.264,3.024,0.368c3.611,0.39,7.24,0.596,10.872,0.616c0.453-0.001,0.905-0.039,1.352-0.112l41.216-7.088
			l12.92,207.2H110.253z M344.005,178.739l-238.088,40.8l-2.576,0.464c-48.367-0.304-87.399-39.632-87.336-88
			c0.055-48.32,39.018-87.579,87.336-88l240.664,41.264V178.739z M376.005,173.259l-16,2.744v-88l16,2.744V173.259z"/>
        <path d="M104.005,76.003c-30.928,0-56,25.072-56,56c0.035,30.913,25.087,55.965,56,56c30.928,0,56-25.072,56-56
			C160.005,101.075,134.933,76.003,104.005,76.003z M104.005,172.003c-22.091,0-40-17.909-40-40c0.026-22.08,17.92-39.974,40-40
			c22.091,0,40,17.909,40,40S126.097,172.003,104.005,172.003z"/>
        <path d="M141.933,411.523l-9.664-155.024c-0.276-4.418-4.082-7.776-8.5-7.5c-4.418,0.276-7.776,4.082-7.5,8.5l9.664,155
			c0.263,4.227,3.773,7.516,8.008,7.504c0.168,0,0.336,0,0.504,0C138.854,419.728,142.207,415.932,141.933,411.523z"/>
        <path d="M472.005,124.003h-48c-4.418,0-8,3.582-8,8s3.582,8,8,8h48c4.418,0,8-3.582,8-8S476.423,124.003,472.005,124.003z"/>
        <path d="M472.005,156.003h-48c-4.418,0-8,3.582-8,8s3.582,8,8,8h48c4.418,0,8-3.582,8-8S476.423,156.003,472.005,156.003z"/>
        <path d="M472.005,92.003h-48c-4.418,0-8,3.582-8,8s3.582,8,8,8h48c4.418,0,8-3.582,8-8S476.423,92.003,472.005,92.003z"/>
    </g>
</svg>
