<svg version="1.1" xmlns="http://www.w3.org/2000/svg" viewBox="0 0 480 480">
    <g fill="currentColor">
        <path d="M472,280h-16V166.4c0-12-9.6-22.4-22.4-22.4h-4c-12,0-22.4,9.6-22.4,22.4V280h-24v-16c0-13.6-10.4-24-24-24H120
			c-13.6,0-24,10.4-24,24v16H72V166.4c0-12-9.6-22.4-22.4-22.4h-3.2c-12.8,0-22.4,9.6-22.4,22.4V280H8c-4.8,0-8,3.2-8,8s3.2,8,8,8h8
			v144c0,4.8,3.2,8,8,8h8v8c0,4.8,3.2,8,8,8s8-3.2,8-8v-8h384v8c0,4.8,3.2,8,8,8s8-3.2,8-8v-8h8c4.8,0,8-3.2,8-8V296h8
			c4.8,0,8-3.2,8-8S476.8,280,472,280z M430.4,160h4c3.2,0,6.4,2.4,6.4,6.4V280h-16V166.4H424C424,163.2,426.4,160,430.4,160z
			 M112,264c0-4.8,3.2-8,8-8h240c4.8,0,8,3.2,8,8v16H112V264z M40,166.4c0-4,2.4-6.4,6.4-6.4h4c3.2,0,5.6,2.4,5.6,6.4V280H40V166.4z
			 M232,432H32v-64h200V432z M448,432H248v-64h200V432z M448,352H32v-56h416V352z"/>
        <path d="M208,384c-4.8,0-8,3.2-8,8v16c0,4.8,3.2,8,8,8s8-3.2,8-8v-16C216,387.2,212.8,384,208,384z"/>
        <path d="M272,384c-4.8,0-8,3.2-8,8v16c0,4.8,3.2,8,8,8s8-3.2,8-8v-16C280,387.2,276.8,384,272,384z"/>
        <path d="M384,16H96c-4.8,0-8,3.2-8,8v160c0,4.8,3.2,8,8,8h288c4.8,0,8-3.2,8-8V24C392,19.2,388.8,16,384,16z M376,176H104V32h272
			V176z"/>
        <path d="M352,144h-8c-4.8,0-8,3.2-8,8s3.2,8,8,8h8c4.8,0,8-3.2,8-8S356.8,144,352,144z"/>
        <path d="M157.6,50.4c-3.2-3.2-8-3.2-11.2,0l-24,24c-3.2,3.2-3.2,8,0,11.2c3.2,3.2,8,3.2,11.2,0l24-24
			C160.8,58.4,160.8,53.6,157.6,50.4z"/>
        <path d="M197.6,50.4c-3.2-3.2-8-3.2-11.2,0l-56,56c-3.2,3.2-3.2,8,0,11.2c3.2,3.2,8,3.2,11.2,0l56-56
			C200.8,58.4,200.8,53.6,197.6,50.4z"/>
    </g>
</svg>
