<svg xmlns="http://www.w3.org/2000/svg" width="512" height="512" viewBox="0 0 128 128">
    <g fill="currentColor">
        <path d="M48.457,77.227a8.063,8.063,0,0,0-10.4,12.325v6.927a5.273,5.273,0,0,0,10.545,0V89.553a8.063,8.063,0,0,0-.146-12.326ZM45.874,87.24a1.75,1.75,0,0,0-.771,1.451v7.787a1.773,1.773,0,0,1-3.545,0V88.691a1.747,1.747,0,0,0-.773-1.451A4.566,4.566,0,0,1,42.4,78.978a4.876,4.876,0,0,1,.94-.092,4.5,4.5,0,0,1,2.893,1.041,4.562,4.562,0,0,1-.356,7.313Z"/>
        <path d="M105.228,44.663,65.58,43.36V19.514a5.37,5.37,0,0,0-5.363-5.364H26.443a5.37,5.37,0,0,0-5.363,5.364v88.972a5.37,5.37,0,0,0,5.363,5.364H60.217a5.37,5.37,0,0,0,5.363-5.364V59.8l39.648-1.3a1.75,1.75,0,0,0,1.692-1.749V46.412A1.75,1.75,0,0,0,105.228,44.663ZM62.08,108.486a1.866,1.866,0,0,1-1.863,1.864H26.443a1.866,1.866,0,0,1-1.863-1.864V19.514a1.866,1.866,0,0,1,1.863-1.864H60.217a1.866,1.866,0,0,1,1.863,1.864V43.245l-6.267-.206a15.127,15.127,0,1,0,0,17.086l6.264-.206ZM44.39,60.5h0L51,60.284a11.612,11.612,0,1,1,.04-17.4l-6.649-.219h-.058A8.92,8.92,0,1,0,44.39,60.5Zm59.03-5.442-39.587,1.3h-.008L44.334,57a5.42,5.42,0,0,1-.027-10.84l59.113,1.943Z"/>
    </g>
</svg>
