<svg height="512" viewBox="0 0 512 512" width="512" xmlns="http://www.w3.org/2000/svg">
    <g fill="currentColor">
        <path d="m93.525 359.771h107.885v4.129a53.072 53.072 0 1 0 106.144 0v-4.124h110.921a6 6 0 0 0 6-6c0-82.015-58.913-150.518-136.64-165.444v-20.319a31.883 31.883 0 0 0 -25.835-31.26v-120.753a6 6 0 0 0 -12 0v120.753a31.883 31.883 0 0 0 -25.835 31.26v20.314c-77.727 14.926-136.64 83.429-136.64 165.444a6 6 0 0 0 6 6zm202.029 4.129a41.072 41.072 0 1 1 -82.144 0v-4.124h82.144zm-39.554-215.722a19.851 19.851 0 0 1 19.18 14.868h-38.36a19.851 19.851 0 0 1 19.18-14.868zm-19.835 26.868h39.67v11.424a168.288 168.288 0 0 0 -39.67 0zm19.835 22.254c84.274 0 153.2 66.96 156.361 150.474h-312.722c3.161-83.517 72.087-150.474 156.361-150.474z"/>
        <path d="m250 455.508v40.492a6 6 0 0 0 12 0v-40.492a6 6 0 0 0 -12 0z"/>
        <path d="m303.422 431.488a6 6 0 0 0 -.075 8.485l28.344 28.851a6 6 0 0 0 8.561-8.41l-28.344-28.851a6 6 0 0 0 -8.486-.075z"/>
        <path d="m200.092 431.563-28.344 28.851a6 6 0 0 0 8.561 8.41l28.344-28.851a6 6 0 0 0 -8.561-8.41z"/>
        <path d="m186.75 236.81a168.731 168.731 0 0 0 -45.927 48.143 6 6 0 1 0 10.141 6.417 156.781 156.781 0 0 1 42.677-44.736 6 6 0 0 0 -6.891-9.824z"/>
    </g>
</svg>