<svg version="1.1" xmlns="http://www.w3.org/2000/svg" viewBox="0 0 511.998 511.998">
    <g fill="currentColor">
        <path d="M501.34,117.336c-5.906,0-10.688,4.773-10.688,10.664v85.335H469.34v-21.336c0-23.523-19.156-42.663-42.688-42.663
		c-12.718,0-24.155,5.609-31.999,14.491c-7.812-8.882-19.25-14.491-32-14.491c-12.718,0-24.155,5.609-31.999,14.491
		c-7.812-8.882-19.25-14.491-32-14.491c-12.719,0-24.156,5.609-31.992,14.491c-7.82-8.882-19.258-14.491-32-14.491
		c-12.726,0-24.171,5.609-32,14.491c-7.82-8.882-19.258-14.491-32-14.491c-12.726,0-24.171,5.609-32,14.491
		c-7.82-8.882-19.258-14.491-32-14.491c-19.835,0-36.57,13.616-41.32,31.999H32c-5.891,0-10.664,4.773-10.664,10.664v21.336H10.664
		C4.773,213.335,0,218.108,0,223.999s4.773,10.664,10.664,10.664h10.672v21.336c0,5.891,4.773,10.664,10.664,10.664h32v202.678
		c0,23.516,19.141,42.656,42.664,42.656c12.742,0,24.18-5.625,32-14.5c7.828,8.875,19.273,14.5,32,14.5
		c12.742,0,24.18-5.625,32-14.5c7.828,8.875,19.273,14.5,32,14.5c12.742,0,24.18-5.625,32-14.5
		c7.836,8.875,19.273,14.5,31.992,14.5c12.75,0,24.188-5.625,32-14.5c7.844,8.875,19.281,14.5,31.999,14.5
		c12.75,0,24.188-5.625,32-14.5c7.844,8.875,19.281,14.5,31.999,14.5c23.531,0,42.688-19.141,42.688-42.656V234.663h32
		c5.875,0,10.656-4.773,10.656-10.664V128C511.996,122.109,507.215,117.336,501.34,117.336z M64,245.335H42.664v-42.672H64V245.335
		z M127.999,469.341c0,11.75-9.563,21.312-21.336,21.312c-11.757,0-21.328-9.562-21.328-21.312V255.999v-64
		c0-11.758,9.57-21.336,21.328-21.336c11.773,0,21.336,9.578,21.336,21.336V469.341z M191.999,469.341
		c-0.001,11.75-9.563,21.312-21.336,21.312c-11.757,0-21.328-9.562-21.328-21.312V191.999c0-11.758,9.57-21.336,21.328-21.336
		c11.773,0,21.336,9.578,21.336,21.336V469.341z M255.998,469.341c0,11.75-9.562,21.312-21.336,21.312
		c-11.757,0-21.328-9.562-21.328-21.312V191.999c0-11.758,9.57-21.336,21.328-21.336c11.773,0,21.336,9.578,21.336,21.336V469.341z
		 M319.998,469.341c0,11.75-9.562,21.312-21.344,21.312c-11.75,0-21.312-9.562-21.312-21.312V191.999
		c0-11.758,9.562-21.336,21.312-21.336c11.781,0,21.344,9.578,21.344,21.336V469.341z M383.997,469.341
		c0,11.75-9.562,21.312-21.344,21.312c-11.749,0-21.312-9.562-21.312-21.312V191.999c0-11.758,9.562-21.336,21.312-21.336
		c11.781,0,21.344,9.578,21.344,21.336V469.341z M447.996,469.341c0,11.75-9.562,21.312-21.344,21.312
		c-11.749,0-21.312-9.562-21.312-21.312V191.999c0-11.758,9.562-21.336,21.312-21.336c11.781,0,21.344,9.578,21.344,21.336V469.341
		z"/>
        <path d="M356.871,103.672c-1.312-4.539-0.5-7.844,2.688-11.055c8.656-8.695,11.531-19.984,8.062-31.812
			c-2.312-7.938-6.812-13.547-7.375-14.25c-0.031,0-0.031-0.008-0.031-0.008v-0.015c-1.969-2.359-4.906-3.867-8.219-3.867
			c-5.89,0-10.655,4.781-10.655,10.672c0,2.586,0.906,4.961,2.438,6.805c0.031,0.023,2.281,2.938,3.375,6.656
			c1.266,4.367,0.469,7.586-2.719,10.766c-8.625,8.678-11.515,20.045-8.078,31.998c2.328,8.102,6.828,13.836,7.328,14.469v-0.008
			c1.969,2.422,4.953,3.977,8.312,3.977c5.891,0,10.656-4.773,10.656-10.664c0-2.539-0.875-4.867-2.344-6.695
			C360.278,110.61,357.965,107.555,356.871,103.672z"/>
        <path d="M268.656,96.61c-2.461-9.836-0.492-18.195,6-25.547c11.406-12.891,15.031-28.695,10.5-45.726
			c-3.188-11.938-9.312-20.227-10-21.133V4.22c-1.969-2.555-5.023-4.219-8.492-4.219c-5.893,0-10.666,4.773-10.666,10.664
			c0,2.414,0.805,4.633,2.156,6.414h-0.016c0.047,0.062,4.492,6.109,6.547,14.32c2.453,9.827,0.484,18.187-6.016,25.538
			c-11.39,12.891-15.015,28.696-10.483,45.727c3.172,11.938,9.305,20.227,9.984,21.133l0.016-0.016
			c1.945,2.57,5.016,4.219,8.477,4.219c5.898,0,10.68-4.773,10.68-10.664c0-2.414-0.812-4.633-2.156-6.414
			C275.14,110.86,270.695,104.813,268.656,96.61z"/>
        <path d="M189.64,110.641c-0.023-0.031-2.328-3.086-3.445-6.969c-1.305-4.539-0.5-7.844,2.695-11.055
			c8.664-8.695,11.523-19.984,8.062-31.812c-2.32-7.938-6.789-13.531-7.391-14.25c0,0,0-0.008-0.008-0.008l-0.008-0.023v0.008
			c-1.961-2.359-4.906-3.867-8.211-3.867c-5.891,0-10.672,4.781-10.672,10.672c0,2.586,0.922,4.961,2.453,6.805
			c0.023,0.023,2.273,2.938,3.359,6.656c1.281,4.367,0.469,7.586-2.703,10.766c-8.64,8.678-11.515,20.045-8.077,31.998
			c2.328,8.102,6.828,13.836,7.336,14.469v-0.008c1.961,2.422,4.945,3.977,8.305,3.977c5.891,0,10.664-4.773,10.664-10.664
			c0-2.539-0.891-4.867-2.367-6.695H189.64z"/>
    </g>
</svg>
