<svg height="511pt" viewBox="1 -44 511.99899 511" width="511pt" xmlns="http://www.w3.org/2000/svg">
    <g fill="currentColor">
    <path d="m282.519531 333.988281c-4.171875 0-7.546875 3.378907-7.546875 7.546875 0 4.167969 3.375 7.546875 7.546875 7.546875h114.339844c7.082031 0 12.84375-5.761719 12.84375-12.847656v-191.929687c0-7.082032-5.761719-12.847657-12.84375-12.847657h-281.71875c-7.082031 0-12.84375 5.765625-12.84375 12.847657v191.929687c0 7.085937 5.761719 12.847656 12.84375 12.847656h137.191406c4.167969 0 7.546875-3.378906 7.546875-7.546875 0-4.167968-3.378906-7.546875-7.546875-7.546875h-134.945312v-187.4375h277.226562v187.4375zm0 0"/>
    <path d="m49.261719 82.742188c15.582031 0 28.261719-12.679688 28.261719-28.253907 0-15.585937-12.679688-28.261719-28.261719-28.261719-15.578125 0-28.253907 12.675782-28.253907 28.261719 0 15.574219 12.675782 28.253907 28.253907 28.253907zm0-41.425782c7.261719 0 13.167969 5.90625 13.167969 13.171875 0 7.253907-5.90625 13.160157-13.167969 13.160157-7.253907 0-13.160157-5.90625-13.160157-13.160157 0-7.265625 5.90625-13.171875 13.160157-13.171875zm0 0"/>
    <path d="m462.738281.5c-27.164062 0-49.269531 22.105469-49.269531 49.269531v56.304688c-5.652344-1.367188-6.042969-.535157-54.332031-.777344-4.164063 0-7.542969 3.382813-7.542969 7.546875s3.378906 7.546875 7.542969 7.546875h47.722656c7.730469 0 13.914063 6.304687 13.914063 13.914063v211.933593c0 7.664063-6.246094 13.914063-13.914063 13.914063-59.417969 0-231.554687 0-301.71875 0-7.667969 0-13.914063-6.25-13.914063-13.914063 0-10.746093 0-204.589843 0-211.933593 0-5.273438 2.957032-9.878907 7.304688-12.246094 5.84375-3.175782-4.242188-1.046875 230.421875-1.667969 4.175781 0 7.546875-3.382813 7.546875-7.546875s-3.371094-7.546875-7.546875-7.546875c-236.351563.273437-224.550781-.644531-230.421875.777344v-56.304688c0-27.164062-22.105469-49.269531-49.269531-49.269531-22.769531 0-42.449219 15.433594-47.863281 37.527344-.984376 4.054687 1.5 8.140625 5.542968 9.125 4.046875.988281 8.128906-1.488282 9.125-5.53125 3.746094-15.324219 17.398438-26.03125 33.195313-26.03125 18.84375 0 34.175781 15.335937 34.175781 34.179687v65.316407c-3.113281 3.511718-5.390625 7.773437-6.511719 12.480468-2.671875-12.824218-14.058593-22.488281-27.664062-22.488281-15.578125 0-28.253907 12.679687-28.253907 28.257813 0 15.578124 12.675782 28.257812 28.253907 28.257812 12.535156 0 23.1875-8.210938 26.871093-19.53125v61.398438c-3.683593-11.320313-14.335937-19.527344-26.871093-19.527344-15.578125 0-28.253907 12.675781-28.253907 28.253906 0 15.582031 12.675782 28.257812 28.253907 28.257812 12.535156 0 23.1875-8.207031 26.871093-19.53125v61.402344c-3.683593-11.324218-14.335937-19.53125-26.871093-19.53125-15.578125 0-28.253907 12.675782-28.253907 28.253906 0 15.582032 12.675782 28.257813 28.253907 28.257813 12.535156 0 23.1875-8.207031 26.871093-19.53125v17.089844c-20.105468 25.53125-61.039062 11.125-61.039062-21.097657v-225.84375c0-4.175781-3.382812-7.546874-7.546875-7.546874-4.175781 0-7.546875 3.371093-7.546875 7.546874v225.84375c0 24.601563 18.121094 45.050782 41.71875 48.695313v62.527344h-18.964844c-4.167968 0-7.546875 3.378906-7.546875 7.546875 0 4.167968 3.378907 7.546875 7.546875 7.546875h53.019532c4.167968 0 7.546874-3.378907 7.546874-7.546875 0-4.167969-3.378906-7.546875-7.546874-7.546875h-18.964844v-62.53125c7.042968-1.085938 13.597656-3.667969 19.324218-7.410157v9.199219c0 15.984375 13.019532 29.003907 29.007813 29.003907h45.820313v35.898437c0 6.289063 5.109374 11.410156 11.398437 11.410156h21.128906c6.289063 0 11.398438-5.121093 11.398438-11.410156v-35.898437h122.226562v35.898437c0 6.289063 5.109375 11.410156 11.398438 11.410156h21.128906c6.289063 0 11.398437-5.121093 11.398437-11.410156v-35.898437h45.820313c15.988281 0 29.007813-13.019532 29.007813-29.003907v-9.199219c5.726562 3.742188 12.28125 6.324219 19.324218 7.410157v62.53125h-18.964844c-4.167968 0-7.546874 3.378906-7.546874 7.546875 0 4.167968 3.378906 7.546875 7.546874 7.546875h53.019532c4.167968 0 7.546875-3.378907 7.546875-7.546875 0-4.167969-3.378907-7.546875-7.546875-7.546875h-18.964844v-62.527344c23.597656-3.644531 41.71875-24.09375 41.71875-48.695313v-245.988281c0-27.164062-22.09375-49.269531-49.261719-49.269531zm-413.476562 146c-7.257813 0-13.164063-5.90625-13.164063-13.164062 0-7.257813 5.90625-13.164063 13.164063-13.164063 7.257812 0 13.164062 5.90625 13.164062 13.164063 0 7.257812-5.90625 13.164062-13.164062 13.164062zm0 78.855469c-7.257813 0-13.164063-5.90625-13.164063-13.167969 0-7.257812 5.90625-13.164062 13.164063-13.164062 7.257812 0 13.164062 5.90625 13.164062 13.164062 0 7.261719-5.90625 13.167969-13.164062 13.167969zm0 78.851562c-7.257813 0-13.164063-5.90625-13.164063-13.167969 0-7.257812 5.90625-13.164062 13.164063-13.164062 7.257812 0 13.164062 5.90625 13.164062 13.164062 0 7.261719-5.90625 13.167969-13.164062 13.167969zm130.535156 103.253907h-13.746094v-32.21875h13.746094zm166.152344 0h-13.746094v-32.21875h13.746094zm150.957031-111.703126c0 32.238282-40.941406 46.621094-61.039062 21.097657v-17.085938c3.683593 11.320313 14.335937 19.527344 26.871093 19.527344 15.578125 0 28.253907-12.675781 28.253907-28.257813 0-15.578124-12.675782-28.253906-28.253907-28.253906-12.535156 0-23.183593 8.207032-26.871093 19.527344v-61.394531c3.683593 11.320312 14.335937 19.527343 26.871093 19.527343 15.578125 0 28.253907-12.675781 28.253907-28.257812 0-15.578125-12.675782-28.253906-28.253907-28.253906-12.535156 0-23.183593 8.207031-26.871093 19.527344v-61.398438c3.683593 11.324219 14.335937 19.53125 26.871093 19.53125 15.578125 0 28.253907-12.675781 28.253907-28.257812 0-15.578126-12.675782-28.253907-28.253907-28.253907-13.605469 0-24.992187 9.660157-27.664062 22.484375-1.121094-4.707031-3.398438-8.96875-6.511719-12.476562v-65.320313c0-18.84375 15.332031-34.179687 34.179688-34.179687 18.84375 0 34.167968 15.335937 34.167968 34.179687v245.988281zm-47.332031-4.71875c0-7.257812 5.90625-13.164062 13.164062-13.164062 7.257813 0 13.164063 5.90625 13.164063 13.164062 0 7.261719-5.90625 13.167969-13.164063 13.167969-7.257812 0-13.164062-5.90625-13.164062-13.167969zm0-78.851562c0-7.257812 5.90625-13.164062 13.164062-13.164062 7.257813 0 13.164063 5.90625 13.164063 13.164062 0 7.261719-5.90625 13.167969-13.164063 13.167969-7.257812 0-13.164062-5.90625-13.164062-13.167969zm0-78.851562c0-7.257813 5.90625-13.164063 13.164062-13.164063 7.257813 0 13.164063 5.90625 13.164063 13.164063 0 7.257812-5.90625 13.164062-13.164063 13.164062-7.257812 0-13.164062-5.90625-13.164062-13.164062zm0 0"/>
    <path d="m462.738281 26.226562c-15.582031 0-28.257812 12.675782-28.257812 28.257813 0 15.578125 12.675781 28.253906 28.257812 28.253906 15.578125 0 28.253907-12.675781 28.253907-28.253906 0-15.582031-12.675782-28.257813-28.253907-28.257813zm0 41.421876c-7.261719 0-13.167969-5.90625-13.167969-13.164063 0-7.261719 5.90625-13.164063 13.167969-13.164063 7.257813 0 13.164063 5.902344 13.164063 13.164063 0 7.257813-5.90625 13.164063-13.164063 13.164063zm0 0"/>
    </g>
</svg>