<svg height="496pt" viewBox="0 -1 496 495" width="496pt" xmlns="http://www.w3.org/2000/svg">
    <g fill="currentColor">
        <path d="m488 320.5h-40v-32c0-2.128906-.839844-4.160156-2.34375-5.65625l-120-120c-1.496094-1.503906-3.527344-2.34375-5.65625-2.34375h-16v-152c0-4.425781-3.574219-8-8-8h-96c-4.425781 0-8 3.574219-8 8v152h-24c-2.128906 0-4.160156.839844-5.65625 2.34375l-120 120c-1.503906 1.496094-2.34375 3.527344-2.34375 5.65625v32h-32c-4.425781 0-8 3.574219-8 8v48c0 4.425781 3.574219 8 8 8h480c4.425781 0 8-3.574219 8-8v-48c0-4.425781-3.574219-8-8-8zm-280-304h80v192h-80zm-152 275.3125 115.3125-115.3125h20.6875v40c0 4.425781 3.574219 8 8 8h96c4.425781 0 8-3.574219 8-8v-40h12.6875l115.3125 115.3125v28.6875h-376zm424 76.6875h-464v-32h464zm0 0"/>
        <path d="m179.3125 440.5c-2.136719-2.144531-3.3125-4.976562-3.3125-8s1.175781-5.855469 3.3125-8l10.34375-10.34375-11.3125-11.3125-10.34375 10.34375c-5.160156 5.160156-8 12.015625-8 19.3125s2.839844 14.160156 8 19.3125l4.6875 4.6875c2.136719 2.144531 3.3125 4.976562 3.3125 8s-1.175781 5.855469-3.3125 8l-10.34375 10.34375 11.3125 11.3125 10.34375-10.34375c5.160156-5.160156 8-12.015625 8-19.3125s-2.839844-14.160156-8-19.3125zm0 0"/>
        <path d="m227.3125 440.5c-2.136719-2.144531-3.3125-4.976562-3.3125-8s1.175781-5.855469 3.3125-8l10.34375-10.34375-11.3125-11.3125-10.34375 10.34375c-5.160156 5.160156-8 12.015625-8 19.3125s2.839844 14.160156 8 19.3125l4.6875 4.6875c2.136719 2.144531 3.3125 4.976562 3.3125 8s-1.175781 5.855469-3.3125 8l-10.34375 10.34375 11.3125 11.3125 10.34375-10.34375c5.160156-5.160156 8-12.015625 8-19.3125s-2.839844-14.160156-8-19.3125zm0 0"/>
        <path d="m275.3125 440.5c-2.136719-2.144531-3.3125-4.976562-3.3125-8s1.175781-5.855469 3.3125-8l10.34375-10.34375-11.3125-11.3125-10.34375 10.34375c-5.160156 5.160156-8 12.015625-8 19.3125s2.839844 14.160156 8 19.3125l4.6875 4.6875c2.136719 2.144531 3.3125 4.976562 3.3125 8s-1.175781 5.855469-3.3125 8l-10.34375 10.34375 11.3125 11.3125 10.34375-10.34375c5.160156-5.160156 8-12.015625 8-19.3125s-2.839844-14.160156-8-19.3125zm0 0"/>
        <path d="m323.3125 440.5c-2.136719-2.144531-3.3125-4.976562-3.3125-8s1.175781-5.855469 3.3125-8l10.34375-10.34375-11.3125-11.3125-10.34375 10.34375c-5.160156 5.160156-8 12.015625-8 19.3125s2.839844 14.160156 8 19.3125l4.6875 4.6875c2.136719 2.144531 3.3125 4.976562 3.3125 8s-1.175781 5.855469-3.3125 8l-10.34375 10.34375 11.3125 11.3125 10.34375-10.34375c5.160156-5.160156 8-12.015625 8-19.3125s-2.839844-14.160156-8-19.3125zm0 0"/>
        <path d="m384 288.5h16v16h-16zm0 0"/>
        <path d="m352 288.5h16v16h-16zm0 0"/>
        <path d="m320 288.5h16v16h-16zm0 0"/>
    </g>
</svg>