<svg height="512" viewBox="0 0 510 510" width="512" xmlns="http://www.w3.org/2000/svg">
    <g fill="currentColor">
        <path d="m495 241.902c-18.223 0-33.358-5.937-45.092-17.62v-149.354c0-41.315-33.613-74.928-74.929-74.928s-74.928 33.613-74.928 74.928v149.395c-24.254 24.107-69.476 24.415-93.663-3.803-5.981-6.978-16.793-6.982-22.777 0-24.586 28.685-72.538 28.798-97.223 0-6.322-7.378-17.867-6.867-23.537.963-.148.204-15.688 20.418-47.852 20.418-8.284 0-15 6.716-15 15s6.716 15 15 15c28.632 0 48.489-11.28 60.027-20.624 33.447 27.615 86.512 27.625 119.973-.022 30.191 24.944 74.362 26.179 105.052 9.957v40.471c-27.984 23.131-43.811 57.878-42.658 94.453 1.974 62.728 53.743 113.864 117.586 113.864 64.871 0 117.647-52.776 117.647-117.646 0-35.07-15.837-68.406-42.719-90.666v-40.497c13.325 7.052 28.517 10.71 45.092 10.71 8.284 0 15-6.716 15-15s-6.715-14.999-14.999-14.999zm-120.02-211.902c24.773 0 44.928 20.155 44.928 44.928v149.537c-8.314 8.211-18.327 13.551-29.929 15.953v-143.957c0-8.284-6.716-15-15-15s-15 6.716-15 15v143.947c-11.603-2.409-21.615-7.759-29.928-15.983v-149.497c.001-24.773 20.156-44.928 44.929-44.928zm-.001 343.504c10.532 0 19.101 8.568 19.101 19.1s-8.568 19.1-19.101 19.1c-10.531 0-19.1-8.568-19.1-19.1s8.569-19.1 19.1-19.1zm87.648 18.85c0 48.329-39.318 87.646-87.647 87.646-46.831 0-86.129-38.044-87.602-84.808-.92-29.218 12.704-56.875 36.443-73.981 3.912-2.819 6.23-7.347 6.23-12.169v-47.774c9.148 4.82 19.177 8.033 29.928 9.568v75.02c-19.758 6.355-34.1 24.905-34.1 46.748 0 27.074 22.026 49.1 49.1 49.1s49.101-22.026 49.101-49.1c0-21.843-14.342-40.393-34.101-46.748v-75.014c10.75-1.531 20.78-4.738 29.929-9.552v47.753c0 4.822 2.318 9.351 6.23 12.169 22.848 16.463 36.489 43.059 36.489 71.142z"/>
        <path d="m178.19 308.332c-24.813 0-45 20.187-45 45s20.187 45 45 45 45-20.187 45-45-20.186-45-45-45zm0 60c-8.271 0-15-6.729-15-15s6.729-15 15-15 15 6.729 15 15-6.728 15-15 15z"/>
        <path d="m73.857 379.117c-24.813 0-45 20.187-45 45s20.187 45 45 45 45-20.187 45-45-20.186-45-45-45zm0 60c-8.271 0-15-6.729-15-15s6.729-15 15-15 15 6.729 15 15-6.728 15-15 15z"/>
        <path d="m64.863 154.143c-5.858 5.858-5.858 15.355 0 21.213 5.857 5.857 15.355 5.858 21.213 0 21.046-21.046 21.046-55.291 0-76.338-9.371-9.37-9.373-24.539 0-33.911 5.858-5.858 5.858-15.355 0-21.213-5.857-5.858-15.355-5.857-21.213 0-21.096 21.096-21.098 55.241 0 76.338 9.349 9.349 9.349 24.561 0 33.911z"/>
        <path d="m142.251 154.143c-5.858 5.858-5.858 15.355 0 21.213 5.857 5.858 15.354 5.858 21.213 0 21.097-21.097 21.098-55.24 0-76.339-9.371-9.37-9.373-24.539 0-33.911 5.858-5.858 5.858-15.355 0-21.213-5.856-5.858-15.354-5.857-21.213 0-21.096 21.096-21.098 55.241 0 76.338 9.371 9.371 9.373 24.539 0 33.912z"/>
        <path d="m219.639 154.143c-5.858 5.858-5.858 15.355 0 21.213 5.857 5.858 15.354 5.858 21.213 0 21.097-21.097 21.098-55.24 0-76.339-9.371-9.37-9.373-24.539 0-33.911 5.858-5.858 5.858-15.355 0-21.213-5.856-5.858-15.354-5.857-21.213 0-21.096 21.096-21.098 55.241 0 76.338 9.37 9.371 9.373 24.539 0 33.912z"/>
    </g>
</svg>