<svg version="1.1" xmlns="http://www.w3.org/2000/svg" viewBox="0 0 512.005 512.005">
    <g fill="currentColor">
        <path d="M327.159,2.766c-4.063-3.688-10.25-3.688-14.313,0c-4.642,4.186-110.889,101.292-160.228,213.839
				c-5.318-1.867-11.44-3.266-19.355-3.266c-18.677,0-28.698,6.969-36.75,12.573c-7.031,4.896-12.583,8.76-24.573,8.76
				c-11.969,0-17.521-3.865-24.542-8.75c-8.042-5.604-18.063-12.583-36.729-12.583c-5.896,0-10.667,4.771-10.667,10.667
				c0,5.896,4.771,10.667,10.667,10.667c11.969,0,17.521,3.865,24.542,8.75c8.042,5.604,18.063,12.583,36.729,12.583
				c18.677,0,28.708-6.979,36.76-12.583c7.031-4.885,12.583-8.75,24.563-8.75c12,0,17.563,3.865,24.604,8.76
				c8.052,5.604,18.083,12.573,36.771,12.573c18.677,0,28.708-6.969,36.771-12.573c7.031-4.896,12.594-8.76,24.594-8.76
				c5.896,0,10.667-4.771,10.667-10.667c0-5.896-4.771-10.667-10.667-10.667c-18.687,0-28.719,6.969-36.781,12.573
				c-7.031,4.896-12.594,8.76-24.583,8.76c-11.208,0-16.823-3.419-23.242-7.854c40.121-92.661,123.661-177.466,148.607-201.49
				c33.219,32.01,170.667,171.865,170.667,294.677c0,94.104-76.563,170.667-170.667,170.667c-42.477,0-82.669-15.822-113.78-43.758
				c11.542-2.138,18.994-7.177,25.186-11.482c7.031-4.896,12.594-8.76,24.594-8.76c5.896,0,10.667-4.771,10.667-10.667
				s-4.771-10.667-10.667-10.667c-18.687,0-28.719,6.969-36.781,12.573c-7.031,4.896-12.594,8.76-24.583,8.76
				c-12,0-17.563-3.865-24.594-8.76c-8.063-5.604-18.094-12.573-36.781-12.573c-18.677,0-28.698,6.969-36.75,12.573
				c-7.031,4.896-12.583,8.76-24.573,8.76c-11.969,0-17.521-3.865-24.542-8.75c-8.042-5.604-18.063-12.583-36.729-12.583
				c-5.896,0-10.667,4.771-10.667,10.667s4.771,10.667,10.667,10.667c11.969,0,17.521,3.865,24.542,8.75
				c8.042,5.604,18.063,12.583,36.729,12.583c18.677,0,28.708-6.979,36.76-12.583c7.031-4.885,12.583-8.75,24.563-8.75
				c12,0,17.563,3.865,24.604,8.76c4.345,3.023,9.414,6.355,15.961,8.865c36.6,42.996,89.655,67.708,146.174,67.708
				c105.865,0,192-86.135,192-192C512.003,171.641,334.701,9.589,327.159,2.766z"/>
        <path d="M10.669,362.672c11.969,0,17.521,3.865,24.542,8.75c8.042,5.604,18.063,12.583,36.729,12.583
				c5.896,0,10.667-4.771,10.667-10.667c0-5.896-4.771-10.667-10.667-10.667c-11.969,0-17.521-3.865-24.542-8.75
				c-8.042-5.604-18.063-12.583-36.729-12.583c-5.896,0-10.667,4.771-10.667,10.667S4.773,362.672,10.669,362.672z"/>
        <path d="M133.263,341.339c-5.896,0-10.667,4.771-10.667,10.667s4.771,10.667,10.667,10.667c12,0,17.563,3.865,24.594,8.76
				c8.063,5.604,18.094,12.573,36.781,12.573c18.677,0,28.708-6.969,36.771-12.573c7.031-4.896,12.594-8.76,24.594-8.76
				c12.198,0,18.406,3.969,26.25,8.99c9.052,5.781,19.313,12.344,37.75,12.344c5.896,0,10.667-4.771,10.667-10.667
				c0-5.896-4.771-10.667-10.667-10.667c-12.198,0-18.406-3.969-26.25-8.99c-9.052-5.781-19.313-12.344-37.75-12.344
				c-18.687,0-28.719,6.969-36.781,12.573c-7.031,4.896-12.594,8.76-24.583,8.76c-12,0-17.563-3.865-24.604-8.76
				C161.982,348.307,151.951,341.339,133.263,341.339z"/>
        <path d="M133.263,277.339c-18.677,0-28.698,6.969-36.75,12.573c-7.031,4.896-12.583,8.76-24.573,8.76
				c-11.969,0-17.521-3.865-24.542-8.75c-8.042-5.604-18.063-12.583-36.729-12.583c-5.896,0-10.667,4.771-10.667,10.667
				c0,5.896,4.771,10.667,10.667,10.667c11.969,0,17.521,3.865,24.542,8.75c8.042,5.604,18.063,12.583,36.729,12.583
				c18.677,0,28.708-6.979,36.76-12.583c7.031-4.885,12.583-8.75,24.563-8.75c5.896,0,10.667-4.771,10.667-10.667
				C143.93,282.109,139.159,277.339,133.263,277.339z"/>
        <path d="M231.409,307.432c7.031-4.896,12.594-8.76,24.594-8.76c11.969,0,17.521,3.865,24.542,8.75
				c8.042,5.604,18.063,12.583,36.729,12.583c18.677,0,28.708-6.979,36.76-12.583c7.031-4.885,12.583-8.75,24.563-8.75
				c5.896,0,10.667-4.771,10.667-10.667c0-5.896-4.771-10.667-10.667-10.667c-18.677,0-28.698,6.969-36.75,12.573
				c-7.031,4.896-12.583,8.76-24.573,8.76c-11.969,0-17.521-3.865-24.542-8.75c-8.042-5.604-18.063-12.583-36.729-12.583
				c-18.687,0-28.719,6.969-36.781,12.573c-7.031,4.896-12.594,8.76-24.583,8.76c-5.896,0-10.667,4.771-10.667,10.667
				s4.771,10.667,10.667,10.667C213.315,320.005,223.346,313.036,231.409,307.432z"/>
    </g>
</svg>
