<svg height="512" viewBox="0 0 512 512" width="512" xmlns="http://www.w3.org/2000/svg">
    <g fill="currentColor">
        <path d="m512 163.87c0-13.9-5.412-26.961-15.233-36.77-9.815-9.828-22.876-15.24-36.776-15.24h-80.97c-26.705 0-48.43-21.726-48.43-48.43 0-12.938 5.037-25.101 14.184-34.247 9.144-9.146 21.307-14.183 34.245-14.183h125.48c4.142 0 7.5-3.358 7.5-7.5s-3.358-7.5-7.5-7.5h-125.48c-16.945 0-32.874 6.597-44.853 18.577-11.979 11.979-18.577 27.908-18.577 44.853 0 34.975 28.455 63.43 63.43 63.43h80.97c9.89 0 19.182 3.85 26.169 10.847 6.991 6.982 10.841 16.273 10.841 26.163 0 8.637-3.038 17.044-8.557 23.674l-22.305 26.822c-7.884-2.725-16.989-.972-23.282 5.311l-9.058 9.058c-20.32-.42-43.098 3.94-62.821 7.427-4.079.721-6.801 4.613-6.079 8.691.721 4.079 4.613 6.799 8.691 6.079 18.942-3.35 38.392-5.768 57.809-7.185 7.681-.566 14.833 4.393 16.985 11.78 1.827 6.27 47.027 160.167 48.533 166.575.498 2.119-.738 3.66-2.912 3.66-22.786 0-41.042 15.66-48.464 36.488h-320.371c-4.142 0-7.5 3.357-7.5 7.5s3.358 7.5 7.5 7.5h327.787c5.445 0 9.875 4.43 9.875 9.875s-4.431 9.875-9.876 9.875h-436.906c3.265-11.391 13.775-19.75 26.2-19.75h52.919c4.142 0 7.5-3.357 7.5-7.5s-3.358-7.5-7.5-7.5h-44.944c62.462-111.598 171.903-177.027 294.778-205.486 4.035-.935 6.549-4.963 5.614-8.999-.934-4.035-4.964-6.549-8.999-5.614-71.632 16.599-143.593 47.051-201.473 92.606l-10.071-10.07c-8.635-8.752-23.159-8.678-31.826-.01-8.631 8.632-8.728 23.166 0 31.807l8.051 8.051c-29.467 28.959-54.102 62.32-74.042 98.92-18.487 4.502-32.256 21.191-32.256 41.045 0 4.143 3.358 7.5 7.5 7.5h445.455c13.716 0 24.875-11.159 24.875-24.875 0-10.75-6.855-19.927-16.424-23.395 5.263-13.573 17.903-22.969 32.598-22.969 11.483 0 20.302-11.401 17.411-22.51-.018-.071-.038-.142-.058-.211l-45.857-157.391 9.163-9.156c7.359-7.303 8.644-19.093 3.197-27.762l22.115-26.593c7.754-9.318 12.025-21.132 12.025-33.268zm-403.146 171.413c1.42-1.421 3.305-2.203 5.307-2.203 1.999 0 3.877.779 5.296 2.204l9.014 9.014c-3.825 3.243-7.582 6.551-11.274 9.922l-8.344-8.344c-2.92-2.92-2.92-7.672.001-10.593zm355.205-94.398-3.986 3.983c-2.496-4.461-6.037-8.203-10.233-10.961l3.619-3.619c2.926-2.92 7.68-2.922 10.598-.004 1.421 1.421 2.203 3.302 2.203 5.297 0 2-.782 3.885-2.201 5.304zm-215.765 94.764c-13.824 7.653-22.412 22.235-22.412 38.056 0 11.987 5.019 23.563 13.771 31.758 8.066 7.553 18.788 11.756 29.786 11.755.94 0 151.08-9.838 151.08-9.838 6.911-.454 13.225-3.916 17.322-9.498 4.096-5.579 5.507-12.637 3.872-19.362l-19.538-80.323c-3.017-12.404-15.183-20.013-27.693-17.329-30.094 6.466-59.787 15.594-88.256 27.13-19.768 8.01-39.259 17.313-57.932 27.651zm107.266 60.969-67.43 4.433v-17.681c0-.238.202-.44.44-.44h66.55c.243 0 .44.197.44.44zm42.071-101.085c.613-.132 1.223-.195 1.823-.195 3.814 0 7.21 2.559 8.145 6.403l19.538 80.323c.595 2.446.102 4.911-1.388 6.94-1.492 2.032-3.699 3.242-6.215 3.408l-48.974 3.219v-12.261c0-8.514-6.926-15.44-15.44-15.44h-66.55c-8.514 0-15.44 6.927-15.44 15.44v18.667l-1.85.122c-7.957.518-15.552-2.192-21.375-7.645-5.819-5.449-9.024-12.839-9.024-20.809 0-10.367 5.624-19.921 14.677-24.933 18.148-10.047 37.09-19.088 56.301-26.873 27.666-11.211 56.525-20.083 85.772-26.366z"/>
    </g>
</svg>