<svg viewBox="0 0 512 512" xmlns="http://www.w3.org/2000/svg">
    <g fill="currentColor">
        <path id="Shape_32_"
              d="m435.2 324.267h-10.906c-3.024-5.263-8.624-8.515-14.694-8.533v-17.067c0-9.426-7.641-17.067-17.067-17.067h-17.067c-9.426 0-17.067 7.641-17.067 17.067v17.067c-6.07.018-11.67 3.27-14.694 8.533h-232.772c-14.138 0-25.6-11.462-25.6-25.6s11.462-25.6 25.6-25.6h36.506c3.024 5.263 8.624 8.515 14.694 8.533h51.2c6.07-.018 11.67-3.27 14.694-8.533h62.106c14.138 0 25.6-11.462 25.6-25.6s-11.462-25.6-25.6-25.6h-62.106c-3.024-5.263-8.624-8.515-14.694-8.533v-17.067c0-9.426-7.641-17.067-17.067-17.067h-17.066c-9.426 0-17.067 7.641-17.067 17.067v17.067c-6.07.018-11.67 3.27-14.694 8.533h-36.506c-42.415 0-76.8 34.385-76.8 76.8s34.385 76.8 76.8 76.8h232.772c3.024 5.263 8.624 8.515 14.694 8.533h51.2c6.07-.018 11.67-3.27 14.694-8.533h10.907c14.138 0 25.6 11.462 25.6 25.6s-11.462 25.6-25.6 25.6h-309.572c-3.024-5.263-8.624-8.515-14.694-8.533v-17.067c0-9.426-7.641-17.067-17.067-17.067h-17.067c-9.426 0-17.067 7.641-17.067 17.067v17.067c-6.07.018-11.67 3.27-14.694 8.533h-19.439c-14.138 0-25.6 11.462-25.6 25.6s11.462 25.6 25.6 25.6h19.439c3.024 5.263 8.624 8.515 14.694 8.533h51.2c6.07-.018 11.67-3.27 14.694-8.533h309.573c42.415 0 76.8-34.385 76.8-76.8s-34.385-76.8-76.8-76.8zm-59.733-25.6h17.067v17.067h-17.067zm-76.8-51.2c0 4.713-3.821 8.533-8.533 8.533h-59.734v-17.067h59.733c4.713 0 8.534 3.821 8.534 8.534zm-119.467-51.2h17.067v17.067h-17.067zm-8.533 34.133h42.667v34.133h-51.2v-34.133zm-119.467 68.267c.038-32.974 26.759-59.696 59.733-59.733h34.133v17.066h-34.133c-23.564 0-42.667 19.103-42.667 42.667s19.103 42.667 42.667 42.667h230.4v17.066h-230.4c-32.974-.038-59.695-26.759-59.733-59.733zm307.2 68.266v-34.133h51.2v34.133zm-281.6 34.134h17.067v17.067h-17.067zm-59.733 51.2c0-4.713 3.821-8.533 8.533-8.533h17.067v17.066h-17.067c-4.713 0-8.533-3.82-8.533-8.533zm42.666 17.066v-34.133h51.2v34.133zm375.467-8.533h-307.2v-17.067h307.2c23.564 0 42.667-19.103 42.667-42.667s-19.103-42.667-42.667-42.667h-8.533v-17.067h8.533c32.99 0 59.733 26.744 59.733 59.733s-26.743 59.735-59.733 59.735z"/>
        <path id="Shape_31_"
              d="m187.733 162.133c4.713 0 8.533-3.821 8.533-8.533v-17.067c0-4.713-3.821-8.533-8.533-8.533-4.713 0-8.533 3.821-8.533 8.533v17.067c0 4.713 3.821 8.533 8.533 8.533z"/>
        <path id="Shape_30_"
              d="m187.733 110.933c4.713 0 8.533-3.821 8.533-8.533v-17.067c0-4.713-3.821-8.533-8.533-8.533-4.713 0-8.533 3.821-8.533 8.533v17.067c0 4.713 3.821 8.533 8.533 8.533z"/>
        <path id="Shape_29_"
              d="m187.733 59.733c4.713 0 8.533-3.821 8.533-8.533v-17.067c0-4.713-3.821-8.533-8.533-8.533-4.713 0-8.533 3.821-8.533 8.533v17.067c0 4.713 3.821 8.533 8.533 8.533z"/>
        <path id="Shape_28_"
              d="m154.743 157.867c1.513 2.662 4.337 4.309 7.399 4.316s5.893-1.628 7.418-4.283 1.511-5.924-.038-8.566l-8.533-14.78c-1.513-2.662-4.337-4.309-7.399-4.316s-5.893 1.628-7.418 4.283-1.511 5.924.038 8.566z"/>
        <path id="Shape_27_"
              d="m129.143 113.493c1.513 2.662 4.337 4.309 7.399 4.316s5.893-1.628 7.418-4.283 1.511-5.924-.038-8.566l-8.533-14.78c-1.513-2.662-4.337-4.309-7.399-4.316s-5.893 1.628-7.418 4.283-1.511 5.924.038 8.566z"/>
        <path id="Shape_26_"
              d="m103.543 69.188c2.372 4.047 7.566 5.42 11.628 3.074 4.062-2.345 5.47-7.53 3.151-11.608l-8.533-14.788c-1.513-2.662-4.337-4.309-7.399-4.316s-5.893 1.628-7.418 4.283-1.511 5.924.038 8.566z"/>
        <path id="Shape_25_"
              d="m209.067 160.99c4.081 2.356 9.3.958 11.657-3.123l8.533-14.78c1.549-2.642 1.563-5.911.038-8.566s-4.356-4.29-7.418-4.283-5.886 1.654-7.399 4.316l-8.533 14.78c-2.358 4.081-.96 9.299 3.122 11.656z"/>
        <path id="Shape_24_"
              d="m234.667 116.651c4.081 2.356 9.3.958 11.657-3.123l8.533-14.78c1.549-2.642 1.563-5.911.038-8.566s-4.356-4.29-7.418-4.283-5.886 1.654-7.399 4.316l-8.533 14.78c-2.358 4.08-.96 9.299 3.122 11.656z"/>
        <path id="Shape_23_"
              d="m260.267 72.311c4.081 2.356 9.3.958 11.657-3.123l8.533-14.788c1.549-2.642 1.563-5.911.038-8.566s-4.356-4.29-7.418-4.283-5.886 1.654-7.399 4.316l-8.533 14.788c-2.358 4.081-.96 9.3 3.122 11.656z"/>
        <path id="Shape_22_"
              d="m384 273.067c4.713 0 8.533-3.82 8.533-8.533v-17.067c0-4.713-3.82-8.533-8.533-8.533s-8.533 3.821-8.533 8.533v17.067c0 4.712 3.82 8.533 8.533 8.533z"/>
        <path id="Shape_21_"
              d="m384 221.867c4.713 0 8.533-3.821 8.533-8.533v-17.067c0-4.713-3.82-8.533-8.533-8.533s-8.533 3.821-8.533 8.533v17.067c0 4.712 3.82 8.533 8.533 8.533z"/>
        <path id="Shape_20_"
              d="m384 170.667c4.713 0 8.533-3.821 8.533-8.533v-17.067c0-4.713-3.82-8.533-8.533-8.533s-8.533 3.821-8.533 8.533v17.067c0 4.712 3.82 8.533 8.533 8.533z"/>
        <path id="Shape_19_"
              d="m351.01 268.8c2.372 4.047 7.566 5.42 11.628 3.074 4.062-2.345 5.47-7.53 3.151-11.608l-8.533-14.78c-1.514-2.662-4.337-4.309-7.399-4.316s-5.893 1.628-7.418 4.283-1.511 5.924.038 8.566z"/>
        <path id="Shape_14_"
              d="m325.41 224.427c1.514 2.662 4.337 4.309 7.399 4.316s5.893-1.628 7.418-4.283 1.511-5.924-.038-8.566l-8.533-14.78c-1.514-2.662-4.337-4.309-7.399-4.316s-5.893 1.628-7.418 4.283-1.511 5.924.038 8.566z"/>
        <path id="Shape_15_"
              d="m299.81 180.122c2.372 4.047 7.566 5.42 11.628 3.074 4.062-2.345 5.47-7.53 3.151-11.608l-8.533-14.788c-1.513-2.662-4.337-4.309-7.399-4.316s-5.893 1.628-7.418 4.283-1.511 5.924.038 8.566z"/>
        <path id="Shape_16_"
              d="m405.333 271.923c4.081 2.356 9.3.958 11.657-3.123l8.533-14.78c2.318-4.078.911-9.262-3.151-11.608-4.062-2.345-9.256-.972-11.628 3.074l-8.533 14.78c-2.357 4.082-.959 9.301 3.122 11.657z"/>
        <path id="Shape_17_"
              d="m430.933 227.584c4.081 2.356 9.3.958 11.657-3.123l8.533-14.78c2.318-4.078.911-9.262-3.151-11.608s-9.256-.972-11.628 3.074l-8.533 14.78c-2.357 4.082-.959 9.301 3.122 11.657z"/>
        <path id="Shape_18_"
              d="m456.533 183.245c4.081 2.356 9.3.958 11.657-3.123l8.533-14.788c2.318-4.078.911-9.262-3.151-11.608-4.062-2.345-9.256-.972-11.628 3.074l-8.533 14.788c-2.357 4.082-.959 9.3 3.122 11.657z"/>
    </g>
</svg>