<svg height="480pt" viewBox="0 0 480 480" width="480pt" xmlns="http://www.w3.org/2000/svg">
    <g fill="currentColor">
        <path d="m472 96h-144c-4.417969 0-8 3.582031-8 8v184h-176v-24c0-4.417969-3.582031-8-8-8h-24v16h16v16h-32v-32h-16v32h-32v-16h16v-16h-24c-4.417969 0-8 3.582031-8 8v24h-24c-4.417969 0-8 3.582031-8 8v176c0 4.417969 3.582031 8 8 8h464c4.417969 0 8-3.582031 8-8v-368c0-4.417969-3.582031-8-8-8zm-136 16h128v96h-128zm-16 224h-144v-32h144zm-304-32h144v32h-144zm0 48h144v112h-144zm160 0h64v112h-64zm80 0h64v112h-64zm80 112v-240h128v240zm0 0"/>
        <path d="m352 144h16v32h-16zm0 0"/>
        <path d="m352 256h16v32h-16zm0 0"/>
        <path d="m48 320c0 4.417969-3.582031 8-8 8s-8-3.582031-8-8 3.582031-8 8-8 8 3.582031 8 8zm0 0"/>
        <path d="m80 320c0 4.417969-3.582031 8-8 8s-8-3.582031-8-8 3.582031-8 8-8 8 3.582031 8 8zm0 0"/>
        <path d="m112 320c0 4.417969-3.582031 8-8 8s-8-3.582031-8-8 3.582031-8 8-8 8 3.582031 8 8zm0 0"/>
        <path d="m144 320c0 4.417969-3.582031 8-8 8s-8-3.582031-8-8 3.582031-8 8-8 8 3.582031 8 8zm0 0"/>
        <path d="m8 152h160c4.417969 0 8-3.582031 8-8v-24c0-2.121094-.84375-4.15625-2.34375-5.65625l-32-32c-1.5-1.5-3.535156-2.34375-5.65625-2.34375h-8v-72c0-4.417969-3.582031-8-8-8h-64c-4.417969 0-8 3.582031-8 8v72h-8c-2.121094 0-4.15625.84375-5.65625 2.34375l-32 32c-1.5 1.5-2.34375 3.535156-2.34375 5.65625v24c0 4.417969 3.582031 8 8 8zm56-136h48v64h-48zm-48 107.3125 27.3125-27.3125h89.375l27.3125 27.3125v12.6875h-144zm0 0"/>
        <path d="m136 368h-96c-4.417969 0-8 3.582031-8 8v64c0 4.417969 3.582031 8 8 8h96c4.417969 0 8-3.582031 8-8v-64c0-4.417969-3.582031-8-8-8zm-8 64h-80v-48h80zm0 0"/>
        <path d="m232 312h32v16h-32zm0 0"/>
        <path d="m208 392h16v32h-16zm0 0"/>
        <path d="m272 392h16v32h-16zm0 0"/>
        <path d="m192 200h48c4.417969 0 8-3.582031 8-8v-8c-.054688-14.546875-9.914062-27.226562-24-30.863281v-153.136719h-16v153.136719c-14.085938 3.636719-23.945312 16.316406-24 30.863281v8c0 4.417969 3.582031 8 8 8zm24-32c8.835938 0 16 7.164062 16 16h-32c0-8.835938 7.164062-16 16-16zm0 0"/>
        <path d="m248 136h48c4.417969 0 8-3.582031 8-8v-8c-.054688-14.546875-9.914062-27.226562-24-30.863281v-89.136719h-16v89.136719c-14.085938 3.636719-23.945312 16.316406-24 30.863281v8c0 4.417969 3.582031 8 8 8zm24-32c8.835938 0 16 7.164062 16 16h-32c0-8.835938 7.164062-16 16-16zm0 0"/>
    </g>
</svg>