<svg height="512" viewBox="0 0 64 64" width="512" xmlns="http://www.w3.org/2000/svg">
    <g fill="currentColor">
        <path d="m61 2h-58c-.552 0-1 .448-1 1v58c0 .552.448 1 1 1h58c.552 0 1-.448 1-1v-58c0-.552-.448-1-1-1zm-1 6h-4v-2c0-.552-.448-1-1-1h-6c-.552 0-1 .448-1 1v2h-3c-.552 0-1 .448-1 1v9h-2v-14h18zm-12.142 31-1.692-11h9.669l-1.692 11zm1.142-13c0-1.103.897-2 2-2s2 .897 2 2zm8.759.349c-.19-.222-.467-.349-.759-.349h-2c0-2.206-1.794-4-4-4s-4 1.794-4 4h-2c-.292 0-.569.127-.759.349s-.274.515-.229.803l1.823 11.848h-3.835v-19h18v19h-3.835l1.823-11.848c.045-.288-.039-.582-.229-.803zm-7.759-17.349v-2h4v11h-4zm-2 9h-2v-8h2zm8 0v-8h4v8zm-16-14v14h-2v-10c0-.552-.448-1-1-1h-6c-.552 0-1 .448-1 1v10h-2v-7c0-.265-.105-.52-.293-.707l-1.707-1.707v-2.586c0-.552-.448-1-1-1h-4c-.552 0-1 .448-1 1v2.586l-1.707 1.707c-.188.187-.293.442-.293.707v7h-2v-10c0-.552-.448-1-1-1h-8c-.552 0-1 .448-1 1v10h-2v-14zm-4 14h-4v-9h4zm-11.707-8.293 1.707 1.707v6.586h-6v-6.586l1.707-1.707c.188-.187.293-.442.293-.707v-2h2v2c0 .265.105.52.293.707zm-10.293 8.293h-6v-9h6zm-10 2h36v40h-36zm45 28h-2v-1h2zm-3 2h4.649l4.351 3.48v6.52h-9zm11 10v-7c0-.304-.138-.591-.375-.781l-5-4c-.178-.142-.398-.219-.625-.219v-2c0-.552-.448-1-1-1h-4c-.552 0-1 .448-1 1v2c-.552 0-1 .448-1 1v11h-2v-19h18v19z"/>
        <path d="m37 22h-30c-.552 0-1 .448-1 1v34c0 .552.448 1 1 1h30c.552 0 1-.448 1-1v-34c0-.552-.448-1-1-1zm-1 2v5h-28v-5zm-28 32v-25h28v25z"/>
        <path d="m22 33c-6.065 0-11 4.935-11 11s4.935 11 11 11 11-4.935 11-11-4.935-11-11-11zm0 20c-4.962 0-9-4.038-9-9s4.038-9 9-9 9 4.038 9 9-4.038 9-9 9z"/>
        <path d="m26.199 48.286 1.399 1.429c.677-.663 1.226-1.432 1.631-2.286l-1.807-.857c-.303.639-.714 1.216-1.223 1.714z"/>
        <path d="m22 36v2c3.309 0 6 2.691 6 6h2c0-4.411-3.589-8-8-8z"/>
        <path d="m10 25h2v2h-2z"/>
        <path d="m14 25h2v2h-2z"/>
        <path d="m32 25h2v2h-2z"/>
    </g>
</svg>