<svg height="512" viewBox="0 0 64 64" width="512" xmlns="http://www.w3.org/2000/svg">
    <g fill="currentColor">
        <path d="m16 18a3 3 0 1 0 -3-3 3 3 0 0 0 3 3zm0-4a1 1 0 1 1 -1 1 1 1 0 0 1 1-1z"/>
        <path d="m16 26a3 3 0 1 0 -3-3 3 3 0 0 0 3 3zm0-4a1 1 0 1 1 -1 1 1 1 0 0 1 1-1z"/>
        <path d="m16 42a3 3 0 1 0 -3-3 3 3 0 0 0 3 3zm0-4a1 1 0 1 1 -1 1 1 1 0 0 1 1-1z"/>
        <path d="m16 50a3 3 0 1 0 -3-3 3 3 0 0 0 3 3zm0-4a1 1 0 1 1 -1 1 1 1 0 0 1 1-1z"/>
        <path d="m16 58a3 3 0 1 0 -3-3 3 3 0 0 0 3 3zm0-4a1 1 0 1 1 -1 1 1 1 0 0 1 1-1z"/>
        <path d="m16 34a3 3 0 1 0 -3-3 3 3 0 0 0 3 3zm0-4a1 1 0 1 1 -1 1 1 1 0 0 1 1-1z"/>
        <path d="m12 62h8a1 1 0 0 0 1-1v-49h6v41a1 1 0 0 0 .293.707l8 8a1 1 0 0 0 .707.293h8a1 1 0 0 0 .707-.293l8-8a1 1 0 0 0 .293-.707v-50a1 1 0 0 0 -1-1h-8a1 1 0 0 0 -1 1v49h-6v-49a1 1 0 0 0 -1-1h-16a1 1 0 0 0 -.707.293l-8 8a1 1 0 0 0 -.293.707v50a1 1 0 0 0 1 1zm33-13v-45h6v48.586l-6 6zm-8 5h6v6h-6zm-8-5v-45h6v54.586l-6-6zm-8-45h6v6h-6zm-8 51v-43.586l6-6v54.586h-6z"/>
        <path d="m48 52a3 3 0 1 0 -3-3 3 3 0 0 0 3 3zm0-4a1 1 0 1 1 -1 1 1 1 0 0 1 1-1z"/>
        <path d="m48 44a3 3 0 1 0 -3-3 3 3 0 0 0 3 3zm0-4a1 1 0 1 1 -1 1 1 1 0 0 1 1-1z"/>
        <path d="m48 28a3 3 0 1 0 -3-3 3 3 0 0 0 3 3zm0-4a1 1 0 1 1 -1 1 1 1 0 0 1 1-1z"/>
        <path d="m48 20a3 3 0 1 0 -3-3 3 3 0 0 0 3 3zm0-4a1 1 0 1 1 -1 1 1 1 0 0 1 1-1z"/>
        <path d="m48 12a3 3 0 1 0 -3-3 3 3 0 0 0 3 3zm0-4a1 1 0 1 1 -1 1 1 1 0 0 1 1-1z"/>
        <path d="m48 36a3 3 0 1 0 -3-3 3 3 0 0 0 3 3zm0-4a1 1 0 1 1 -1 1 1 1 0 0 1 1-1z"/>
        <path d="m32 52a3 3 0 1 0 -3-3 3 3 0 0 0 3 3zm0-4a1 1 0 1 1 -1 1 1 1 0 0 1 1-1z"/>
        <path d="m32 44a3 3 0 1 0 -3-3 3 3 0 0 0 3 3zm0-4a1 1 0 1 1 -1 1 1 1 0 0 1 1-1z"/>
        <path d="m32 28a3 3 0 1 0 -3-3 3 3 0 0 0 3 3zm0-4a1 1 0 1 1 -1 1 1 1 0 0 1 1-1z"/>
        <path d="m32 20a3 3 0 1 0 -3-3 3 3 0 0 0 3 3zm0-4a1 1 0 1 1 -1 1 1 1 0 0 1 1-1z"/>
        <path d="m32 12a3 3 0 1 0 -3-3 3 3 0 0 0 3 3zm0-4a1 1 0 1 1 -1 1 1 1 0 0 1 1-1z"/>
        <path d="m32 36a3 3 0 1 0 -3-3 3 3 0 0 0 3 3zm0-4a1 1 0 1 1 -1 1 1 1 0 0 1 1-1z"/>
        <path d="m23 6h2v2h-2z"/>
        <path d="m39 56h2v2h-2z"/>
        <path d="m4 31h5v2h-5z"/>
        <path d="m6 25h2v5h-2z" transform="matrix(.6 -.8 .8 .6 -19.2 16.6)"/>
        <path d="m4.5 35.5h5v2h-5z" transform="matrix(.8 -.6 .6 .8 -20.505 11.505)"/>
        <path d="m55 31h5v2h-5z"/>
        <path d="m54.5 26.5h5v2h-5z" transform="matrix(.8 -.6 .6 .8 -5.098 39.712)"/>
        <path d="m56 34h2v5h-2z" transform="matrix(.6 -.8 .8 .6 -6.4 60.2)"/>
    </g>
</svg>