<svg version="1.1" xmlns="http://www.w3.org/2000/svg" viewBox="0 0 480.005 480.005">
    <g fill="currentColor">
        <path d="M240.003,48c4.418,0,8-3.582,8-8V8c0-4.418-3.582-8-8-8s-8,3.582-8,8v32C232.003,44.418,235.584,48,240.003,48z"/>
        <path d="M141.075,36.656l16,27.704c2.184,3.841,7.068,5.184,10.909,3s5.184-7.068,3-10.909c-0.017-0.031-0.035-0.061-0.053-0.092
				l-16-27.704c-2.184-3.841-7.068-5.184-10.909-3c-3.841,2.184-5.184,7.068-3,10.909C141.039,36.595,141.057,36.626,141.075,36.656
				z"/>
        <path d="M76.567,106.875c0.03,0.018,0.061,0.035,0.092,0.053l27.704,16c3.812,2.234,8.713,0.956,10.947-2.856
				c2.234-3.812,0.956-8.713-2.856-10.947c-0.03-0.018-0.061-0.035-0.092-0.053l-27.704-16c-3.812-2.234-8.713-0.956-10.947,2.856
				C71.477,99.739,72.755,104.641,76.567,106.875z"/>
        <path d="M96.003,192c0-4.418-3.582-8-8-8h-32c-4.418,0-8,3.582-8,8s3.582,8,8,8h32C92.421,200,96.003,196.418,96.003,192z"/>
        <path d="M104.456,261.018c-0.031,0.018-0.062,0.036-0.093,0.054l-27.704,16c-3.841,2.183-5.185,7.067-3.002,10.908
				c2.183,3.841,7.067,5.185,10.908,3.002c0.031-0.018,0.062-0.036,0.093-0.054l27.704-16c3.841-2.183,5.185-7.067,3.002-10.908
				C113.181,260.179,108.297,258.835,104.456,261.018z"/>
        <path d="M403.44,277.126c-0.031-0.018-0.062-0.036-0.093-0.054l-27.704-16c-3.811-2.235-8.713-0.957-10.948,2.854
				c-2.235,3.811-0.957,8.713,2.854,10.948c0.031,0.018,0.062,0.036,0.093,0.054l27.704,16c3.811,2.235,8.713,0.957,10.948-2.854
				C408.529,284.262,407.251,279.361,403.44,277.126z"/>
        <path d="M424.003,184h-32c-4.418,0-8,3.582-8,8s3.582,8,8,8h32c4.418,0,8-3.582,8-8S428.421,184,424.003,184z"/>
        <path d="M371.651,124c1.404,0,2.784-0.37,4-1.072l27.704-16c3.841-2.184,5.184-7.068,3-10.909s-7.068-5.184-10.909-3
				c-0.031,0.017-0.061,0.035-0.092,0.053l-27.704,16c-3.826,2.209-5.137,7.102-2.928,10.928
				C366.152,122.475,368.793,124,371.651,124z"/>
        <path d="M311.993,67.291c0.003,0.002,0.006,0.004,0.009,0.005c3.827,2.207,8.72,0.894,10.927-2.934
				c0-0.001,0.001-0.002,0.001-0.002l16-27.704c2.235-3.811,0.957-8.713-2.854-10.948c-3.811-2.235-8.713-0.957-10.948,2.854
				c-0.018,0.031-0.036,0.062-0.054,0.093l-16,27.704C306.862,60.184,308.169,65.078,311.993,67.291z"/>
        <path d="M256.003,320c4.418,0,8-3.582,8-8v-88h16c17.673,0,32-14.327,32-32s-14.327-32-32-32c-17.673,0-32,14.327-32,32v16h-16
				v-16c0-17.673-14.327-32-32-32s-32,14.327-32,32s14.327,32,32,32h16v88c0,4.418,3.582,8,8,8s8-3.582,8-8v-88h16v88
				C248.003,316.418,251.584,320,256.003,320z M264.003,192c0-8.837,7.163-16,16-16s16,7.163,16,16s-7.163,16-16,16h-16V192z
				 M216.003,208h-16c-8.837,0-16-7.163-16-16s7.163-16,16-16s16,7.163,16,16V208z"/>
        <path d="M246.219,64.152c-70.611-3.392-130.603,51.099-133.995,121.71c-1.943,40.432,15.354,79.4,46.643,105.082
				c5.639,4.417,8.994,11.135,9.136,18.296V328c0.042,10.134,6.445,19.15,16,22.528V360c0.021,5.923,2.245,11.627,6.24,16
				c-8.32,9.044-8.32,22.956,0,32c-8.894,9.75-8.2,24.864,1.55,33.758c4.429,4.04,10.215,6.268,16.21,6.242
				c4.306,0.113,7.889-3.287,8.001-7.593c0.044-1.68-0.456-3.33-1.425-4.703c-0.253-0.489-0.553-0.953-0.896-1.384
				c-0.658-0.602-1.409-1.094-2.224-1.456c-0.232-0.12-0.464-0.216-0.704-0.312c-0.81-0.295-1.659-0.465-2.52-0.504
				c-0.08,0-0.152-0.048-0.232-0.048c-4.418,0-8-3.582-8-8s3.582-8,8-8h32c4.418,0,8-3.582,8-8s-3.582-8-8-8h-32
				c-4.418,0-8-3.582-8-8s3.582-8,8-8h32c4.418,0,8-3.582,8-8s-3.582-8-8-8h-32c-4.418,0-8-3.582-8-8v-8h40c4.418,0,8-3.582,8-8
				s-3.582-8-8-8h-48c-4.418,0-8-3.582-8-8v-18.76c-0.131-11.962-5.64-23.23-15-30.68c-47.788-39.274-54.689-109.852-15.415-157.64
				c22.466-27.336,56.528-42.448,91.871-40.76c59.107,3.516,105.536,51.957,106.544,111.16c0.287,34.052-15.024,66.363-41.56,87.704
				c-9.29,7.652-14.602,19.109-14.44,31.144V328c0,4.418-3.582,8-8,8h-24c-4.418,0-8,3.582-8,8s3.582,8,8,8h16v8
				c0,4.418-3.582,8-8,8h-8c-4.418,0-8,3.582-8,8s3.582,8,8,8h8c4.418,0,8,3.582,8,8s-3.582,8-8,8h-8c-4.418,0-8,3.582-8,8
				s3.582,8,8,8h8c4.418,0,8,3.582,8,8s-3.582,8-8,8h-40c-4.418,0-8,3.582-8,8s3.582,8,8,8h30.632
				c-4.417,12.497-18.129,19.047-30.626,14.63c-3.826-1.352-7.246-3.653-9.942-6.686c-2.938-3.3-7.996-3.594-11.296-0.656
				c-3.3,2.938-3.594,7.996-0.656,11.296c14.631,16.487,39.857,17.992,56.344,3.362c6.81-6.043,11.349-14.232,12.864-23.21
				c12.529-3.916,19.511-17.247,15.596-29.776c-1.04-3.329-2.801-6.388-5.156-8.96c8.32-9.044,8.32-22.956,0-32
				c3.995-4.373,6.219-10.077,6.24-16v-9.472c9.555-3.378,15.958-12.394,16-22.528v-17.832c-0.107-7.187,3.007-14.046,8.488-18.696
				c30.344-24.395,47.85-61.339,47.512-100.272C366.847,123.532,313.777,68.169,246.219,64.152z"/>
    </g>
</svg>
