<svg height="512" viewBox="0 0 512.002 512.002" width="512" xmlns="http://www.w3.org/2000/svg">
    <g fill="currentColor">
        <path d="m398.589 246.342c-64.666-17.328-115.601-68.264-132.929-132.929-1.171-4.372-5.133-7.412-9.659-7.412s-8.488 3.04-9.659 7.412c-17.328 64.666-68.263 115.601-132.929 132.929-4.372 1.171-7.412 5.133-7.412 9.659s3.04 8.488 7.412 9.659c64.666 17.329 115.601 68.264 132.929 132.929 1.171 4.372 5.133 7.412 9.659 7.412s8.488-3.04 9.659-7.412c17.328-64.665 68.264-115.601 132.929-132.929 4.372-1.171 7.412-5.133 7.412-9.659s-3.04-8.488-7.412-9.659zm-142.588 119.176c-21.039-49.096-60.42-88.478-109.516-109.517 49.096-21.039 88.478-60.42 109.516-109.517 21.039 49.097 60.42 88.478 109.517 109.517-49.097 21.039-88.478 60.42-109.517 109.517z"/>
        <path d="m264.036 200.458c-1.886-2.545-4.867-4.047-8.035-4.047s-6.149 1.501-8.035 4.047c-13.416 18.107-29.4 34.091-47.508 47.508-2.545 1.886-4.047 4.867-4.047 8.035s1.501 6.149 4.047 8.035c18.108 13.416 34.092 29.4 47.508 47.508 1.886 2.545 4.867 4.047 8.035 4.047s6.149-1.501 8.035-4.047c13.416-18.108 29.4-34.092 47.508-47.508 2.545-1.886 4.047-4.867 4.047-8.035s-1.501-6.149-4.047-8.035c-18.108-13.417-34.092-29.401-47.508-47.508zm-8.035 88.909c-10.04-12.162-21.204-23.326-33.366-33.366 12.163-10.04 23.326-21.204 33.366-33.366 10.04 12.163 21.204 23.326 33.366 33.366-12.162 10.04-23.326 21.204-33.366 33.366z"/>
        <path d="m256.001 75.999c5.523 0 10-4.477 10-10v-55.999c0-5.523-4.477-10-10-10s-10 4.477-10 10v55.999c0 5.523 4.477 10 10 10z"/>
        <path d="m114.579 128.721c1.953 1.953 4.512 2.929 7.071 2.929s5.119-.976 7.071-2.929c3.905-3.905 3.905-10.237 0-14.143l-39.597-39.598c-3.905-3.905-10.237-3.905-14.143 0s-3.905 10.237 0 14.143z"/>
        <path d="m76 256.001c0-5.523-4.477-10-10-10h-56c-5.523 0-10 4.477-10 10s4.477 10 10 10h56c5.522 0 10-4.477 10-10z"/>
        <path d="m114.579 383.281-39.598 39.598c-3.905 3.905-3.905 10.237 0 14.143 1.953 1.953 4.512 2.929 7.071 2.929s5.119-.976 7.071-2.929l39.598-39.598c3.905-3.905 3.905-10.237 0-14.143s-10.237-3.906-14.142 0z"/>
        <path d="m256.001 436.003c-5.523 0-10 4.477-10 10v55.999c0 5.523 4.477 10 10 10s10-4.477 10-10v-55.999c0-5.523-4.477-10-10-10z"/>
        <path d="m397.424 383.281c-3.905-3.904-10.236-3.904-14.143 0-3.905 3.905-3.905 10.237 0 14.143l39.597 39.598c1.953 1.953 4.512 2.929 7.071 2.929s5.119-.977 7.071-2.929c3.905-3.905 3.905-10.237 0-14.143z"/>
        <path d="m502.002 246.001h-55.999c-5.523 0-10 4.477-10 10s4.477 10 10 10h55.999c5.523 0 10-4.477 10-10s-4.477-10-10-10z"/>
        <path d="m390.353 131.649c2.559 0 5.119-.976 7.071-2.929l39.597-39.598c3.905-3.905 3.905-10.237 0-14.143s-10.237-3.905-14.143 0l-39.597 39.598c-3.905 3.905-3.905 10.237 0 14.143 1.953 1.953 4.512 2.929 7.072 2.929z"/>
        <path d="m161.868 38.735c1.314 0 2.65-.261 3.934-.811 5.077-2.175 7.428-8.054 5.252-13.13l-.003-.007c-2.175-5.076-8.051-7.423-13.129-5.249-5.076 2.175-7.426 8.058-5.25 13.134 1.625 3.792 5.316 6.063 9.196 6.063z"/>
        <path d="m169.844 74.131 13.054 31.514c1.595 3.851 5.318 6.175 9.243 6.175 1.275 0 2.572-.245 3.823-.764 5.102-2.114 7.525-7.963 5.412-13.066l-13.054-31.514c-2.114-5.103-7.963-7.527-13.066-5.412s-7.526 7.964-5.412 13.067z"/>
        <path d="m24.542 170.943c1.357.626 2.782.923 4.184.923 3.78 0 7.398-2.154 9.086-5.812 2.314-5.014.125-10.956-4.889-13.27l-.006-.003c-5.013-2.315-10.952-.125-13.267 4.891-2.316 5.014-.123 10.956 4.892 13.271z"/>
        <path d="m66.477 188.321 31.515 13.054c1.251.519 2.547.764 3.823.764 3.924 0 7.647-2.325 9.243-6.176 2.114-5.103-.31-10.952-5.412-13.065l-31.516-13.054c-5.101-2.113-10.952.31-13.065 5.412-2.114 5.102.31 10.952 5.412 13.065z"/>
        <path d="m105.645 329.104c5.103-2.113 7.526-7.963 5.412-13.065-2.113-5.103-7.964-7.527-13.065-5.412l-31.514 13.054c-5.103 2.113-7.526 7.963-5.412 13.065 1.595 3.852 5.318 6.176 9.243 6.176 1.275 0 2.572-.245 3.823-.764z"/>
        <path d="m24.793 340.947-.007.003c-5.076 2.175-7.424 8.053-5.249 13.129 1.625 3.792 5.317 6.062 9.198 6.062 1.315 0 2.652-.261 3.936-.812 5.077-2.175 7.428-8.054 5.252-13.131-2.174-5.075-8.053-7.426-13.13-5.251z"/>
        <path d="m166.054 474.19c-5.015-2.315-10.956-.125-13.27 4.889l-.003.006c-2.314 5.014-.124 10.953 4.891 13.267 1.356.626 2.78.922 4.182.922 3.781 0 7.401-2.156 9.089-5.814 2.314-5.014.125-10.955-4.889-13.27z"/>
        <path d="m195.963 400.945c-5.101-2.114-10.952.31-13.065 5.412l-13.054 31.515c-2.114 5.103.31 10.952 5.412 13.065 1.251.519 2.547.764 3.823.764 3.924 0 7.647-2.325 9.243-6.176l13.054-31.515c2.113-5.102-.311-10.952-5.413-13.065z"/>
        <path d="m346.199 474.078c-5.076 2.175-7.428 8.054-5.252 13.13l.003.007c1.625 3.791 5.314 6.06 9.192 6.06 1.315 0 2.651-.261 3.937-.812 5.076-2.175 7.426-8.058 5.25-13.134-2.174-5.076-8.051-7.426-13.13-5.251z"/>
        <path d="m342.158 437.871-13.054-31.514c-2.114-5.103-7.965-7.527-13.065-5.412-5.103 2.113-7.526 7.963-5.412 13.065l13.054 31.514c1.595 3.852 5.318 6.176 9.243 6.176 1.275 0 2.572-.245 3.823-.764 5.102-2.112 7.525-7.962 5.411-13.065z"/>
        <path d="m487.208 340.947c-5.076-2.177-10.955.177-13.13 5.252-2.176 5.077.176 10.956 5.252 13.131l.006.003c1.285.55 2.619.811 3.933.811 3.879 0 7.569-2.272 9.194-6.064 2.177-5.077-.178-10.957-5.255-13.133z"/>
        <path d="m445.525 323.681-31.514-13.054c-5.102-2.113-10.951.31-13.065 5.412s.31 10.952 5.412 13.065l31.514 13.054c1.252.519 2.548.764 3.823.764 3.924 0 7.647-2.325 9.243-6.176 2.113-5.102-.311-10.952-5.413-13.065z"/>
        <path d="m483.274 171.866c1.314 0 2.65-.261 3.934-.811l.007-.003c5.076-2.175 7.424-8.053 5.249-13.129s-8.06-7.427-13.134-5.25c-5.077 2.175-7.428 8.054-5.252 13.131 1.625 3.791 5.316 6.062 9.196 6.062z"/>
        <path d="m406.357 182.897c-5.103 2.113-7.526 7.963-5.412 13.065 1.595 3.852 5.318 6.176 9.243 6.176 1.275 0 2.572-.245 3.823-.764l31.514-13.054c5.103-2.113 7.526-7.963 5.412-13.065-2.114-5.103-7.963-7.527-13.066-5.412z"/>
        <path d="m346.199 37.923c1.285.551 2.621.811 3.935.811 3.88 0 7.571-2.271 9.196-6.063l.003-.007c2.176-5.076-.177-10.952-5.253-13.127-5.074-2.176-10.957.179-13.132 5.256-2.177 5.076.175 10.955 5.251 13.13z"/>
        <path d="m316.039 111.057c1.251.519 2.547.764 3.823.764 3.924 0 7.647-2.325 9.243-6.176l13.054-31.514c2.114-5.103-.31-10.953-5.412-13.066-5.101-2.114-10.951.31-13.065 5.412l-13.054 31.514c-2.115 5.102.309 10.952 5.411 13.066z"/>
    </g>
</svg>