<svg xmlns="http://www.w3.org/2000/svg" viewBox="0 0 512 512" width="512" height="512">
    <g fill="currentColor">
        <path d="M473,331.916V273.648A39.71,39.71,0,0,0,433.328,234H376V170h44.009a6.289,6.289,0,0,0,5.747-8.02L404.831,92.248A5.976,5.976,0,0,0,399.084,88H340.916a5.932,5.932,0,0,0-5.747,4.2L314.244,161.92a6.372,6.372,0,0,0,.934,5.483,6.176,6.176,0,0,0,4.813,2.6H364v64H88.675A39.713,39.713,0,0,0,49,273.648v58.268a39.417,39.417,0,0,0-37,39.556V463.1a5.915,5.915,0,0,0,6,5.9H35v30a6.246,6.246,0,0,0,6.28,6h67.867A5.877,5.877,0,0,0,115,499V469H407v30a5.879,5.879,0,0,0,5.855,6h67.869A6.243,6.243,0,0,0,487,499V469h17a5.913,5.913,0,0,0,6-5.9V371.472A39.417,39.417,0,0,0,473,331.916ZM345.381,100h49.238l17.326,58h-83.89ZM88.675,246H433.328A27.7,27.7,0,0,1,461,273.648v59.3a39.854,39.854,0,0,0-30,38.526V390H91V371.472a39.854,39.854,0,0,0-30-38.526v-59.3A27.7,27.7,0,0,1,88.675,246ZM103,493H47V469h56Zm372,0H419V469h56Zm23-36H24V371.472a27.5,27.5,0,1,1,55,0V395.8a6.448,6.448,0,0,0,6.31,6.2H436.693A6.445,6.445,0,0,0,443,395.8V371.472a27.5,27.5,0,1,1,55,0Z"/>
        <path d="M214,203.238V56.626A5.64,5.64,0,0,0,208.062,51h-53.92L112.272,8.944a5.737,5.737,0,0,0-8.484.047L61.919,51H8a5.693,5.693,0,0,0-6,5.626V203.238A5.8,5.8,0,0,0,8,209H208.062A5.749,5.749,0,0,0,214,203.238ZM174,131.8l-42.23,19.686L80.365,116.443a6.245,6.245,0,0,0-7.131.163L41,140.686V87H174ZM41,155.689l36.062-26.911,50.885,34.542a6.17,6.17,0,0,0,3.427,1.039,5.169,5.169,0,0,0,2.332-.557L174,145.025V173H41ZM178.155,75H37.689L23.243,63H192.5ZM29,84.091V176.2L14,189.928V70.473ZM37.7,185H178.14l13.767,12H23.835ZM186,176.21V84.078l16-13.9V190.226ZM108.03,21.859,137.172,51H78.889Z"/>
        <path d="M128.374,133.2a20.214,20.214,0,1,0-20.214-20.214A20.236,20.236,0,0,0,128.374,133.2Zm0-28.427a8.214,8.214,0,1,1-8.214,8.213A8.223,8.223,0,0,1,128.374,104.768Z"/>
        <path d="M348.787,308.44a22.087,22.087,0,0,0,0,21.662l-8.479,8.479a6,6,0,1,0,8.484,8.485l8.479-8.48a22.09,22.09,0,0,0,21.662,0l8.478,8.479a6,6,0,0,0,8.486-8.485l-8.487-8.488a22.211,22.211,0,0,0,0-21.644l8.487-8.488a6,6,0,0,0-8.486-8.485l-8.478,8.479a22.092,22.092,0,0,0-21.661,0l-8.48-8.479a6,6,0,1,0-8.484,8.485Zm19.316.678a10.156,10.156,0,1,1-7.179,2.974A10.083,10.083,0,0,1,368.1,309.118Z"/>
        <path d="M238.787,308.44a22.087,22.087,0,0,0,0,21.662l-8.479,8.479a6,6,0,1,0,8.484,8.485l8.479-8.48a22.09,22.09,0,0,0,21.662,0l8.478,8.479a6,6,0,0,0,8.486-8.485l-8.487-8.488a22.211,22.211,0,0,0,0-21.644l8.487-8.488a6,6,0,0,0-8.486-8.485l-8.478,8.479a22.092,22.092,0,0,0-21.661,0l-8.48-8.479a6,6,0,1,0-8.484,8.485Zm19.316.678a10.156,10.156,0,1,1-7.179,2.974A10.083,10.083,0,0,1,258.1,309.118Z"/>
        <path d="M128.787,308.44a22.087,22.087,0,0,0,0,21.662l-8.479,8.479a6,6,0,1,0,8.484,8.485l8.479-8.48a22.09,22.09,0,0,0,21.662,0l8.478,8.479a6,6,0,0,0,8.486-8.485l-8.487-8.488a22.211,22.211,0,0,0,0-21.644l8.487-8.488a6,6,0,0,0-8.486-8.485l-8.478,8.479a22.092,22.092,0,0,0-21.661,0l-8.48-8.479a6,6,0,1,0-8.484,8.485Zm19.316.678a10.156,10.156,0,1,1-7.179,2.974A10.083,10.083,0,0,1,148.1,309.118Z"/>
    </g>
</svg>
