<svg height="512" viewBox="0 0 512 512" width="512" xmlns="http://www.w3.org/2000/svg">
    <g fill="currentColor">
        <path d="m494.5 277.667h-5.5v-36.5c0-15.164-12.336-27.5-27.5-27.5h-110c-7.875 0-14.982 3.332-20 8.655-5.018-5.322-12.125-8.655-20-8.655h-110c-7.875 0-14.982 3.332-20 8.655-5.018-5.322-12.125-8.655-20-8.655h-40.5c-4.142 0-7.5 3.358-7.5 7.5s3.358 7.5 7.5 7.5h40.5c6.893 0 12.5 5.607 12.5 12.5v77.018c-3.753-1.924-8-3.018-12.5-3.018h-101.5v-20c0-9.649-7.851-17.5-17.5-17.5h-3.5v-36.5c0-6.893 5.607-12.5 12.5-12.5h34.5c4.142 0 7.5-3.358 7.5-7.5s-3.358-7.5-7.5-7.5h-34.5c-15.164 0-27.5 12.336-27.5 27.5v36.5h-6.5c-9.649 0-17.5 7.851-17.5 17.5v42.5c0 4.142 3.358 7.5 7.5 7.5s7.5-3.358 7.5-7.5v-42.5c0-1.378 1.122-2.5 2.5-2.5h25c1.378 0 2.5 1.122 2.5 2.5v140.5h-27.5c-1.378 0-2.5-1.122-2.5-2.5v-60.5c0-4.142-3.358-7.5-7.5-7.5s-7.5 3.358-7.5 7.5v60.5c0 9.649 7.851 17.5 17.5 17.5h27.5v14.667c0 6.893 5.607 12.5 12.5 12.5h25c6.893 0 12.5-5.607 12.5-12.5v-14.667h322v14.667c0 6.893 5.607 12.5 12.5 12.5h25c6.893 0 12.5-5.607 12.5-12.5v-14.667h27.5c9.649 0 17.5-7.851 17.5-17.5v-138c0-9.65-7.851-17.5-17.5-17.5zm-143-49h110c6.893 0 12.5 5.607 12.5 12.5v36.5h-4.5c-9.649 0-17.5 7.851-17.5 17.5v20h-100.5c-4.5 0-8.747 1.093-12.5 3.018v-77.018c0-6.893 5.607-12.5 12.5-12.5zm-291.5 207v-15h326c4.142 0 7.5-3.358 7.5-7.5s-3.358-7.5-7.5-7.5h-326v-15.5h101.5c7.875 0 14.982-3.332 20-8.655 5.018 5.322 12.125 8.655 20 8.655h110c7.875 0 14.982-3.332 20-8.655 5.018 5.322 12.125 8.655 20 8.655h100.5v15.5h-31c-4.142 0-7.5 3.358-7.5 7.5s3.358 7.5 7.5 7.5h31v15zm392-60.5h-100.5c-6.893 0-12.5-5.607-12.5-12.5v-20c0-6.893 5.607-12.5 12.5-12.5h100.5zm-128-12.5c0 6.893-5.607 12.5-12.5 12.5h-110c-6.893 0-12.5-5.607-12.5-12.5v-20c0-6.893 5.607-12.5 12.5-12.5h110c6.893 0 12.5 5.607 12.5 12.5zm-122.5-134h110c6.893 0 12.5 5.607 12.5 12.5v77.018c-3.753-1.924-8-3.018-12.5-3.018h-110c-4.5 0-8.747 1.093-12.5 3.018v-77.018c0-6.893 5.607-12.5 12.5-12.5zm-40 101.5c6.893 0 12.5 5.607 12.5 12.5v20c0 6.893-5.607 12.5-12.5 12.5h-101.5v-45zm-81.5 132.666h-20v-12.167h20zm352 0v-12.167h20v12.167zm65-29.666c0 1.378-1.122 2.5-2.5 2.5h-27.5v-140.5c0-1.378 1.122-2.5 2.5-2.5h25c1.378 0 2.5 1.122 2.5 2.5z"/>
        <path d="m62 173.667h89c6.893 0 12.5-5.607 12.5-12.5v-56c0-6.893-5.607-12.5-12.5-12.5h-89c-6.893 0-12.5 5.607-12.5 12.5v56c0 6.892 5.607 12.5 12.5 12.5zm2.5-66h84v51h-84z"/>
        <path d="m362 173.667h89c6.893 0 12.5-5.607 12.5-12.5v-56c0-6.893-5.607-12.5-12.5-12.5h-89c-6.893 0-12.5 5.607-12.5 12.5v56c0 6.892 5.607 12.5 12.5 12.5zm2.5-66h84v51h-84z"/>
        <path d="m200.49 130.167h112.02c6.887 0 12.49-5.603 12.49-12.49v-16.549c0-4.142-3.358-7.5-7.5-7.5s-7.5 3.358-7.5 7.5v14.039h-107v-66h107v16.961c0 4.142 3.358 7.5 7.5 7.5s7.5-3.358 7.5-7.5v-19.472c0-6.887-5.603-12.49-12.49-12.49h-112.02c-6.887 0-12.49 5.603-12.49 12.49v71.021c0 6.886 5.603 12.49 12.49 12.49z"/>
        <path d="m231.881 278.102c7.349 4.828 13.522 11.002 18.351 18.351 1.387 2.11 3.743 3.381 6.268 3.381s4.881-1.271 6.268-3.381c4.828-7.349 11.002-13.522 18.351-18.351 2.11-1.387 3.381-3.743 3.381-6.268s-1.271-4.881-3.381-6.268c-7.349-4.828-13.522-11.002-18.351-18.351-1.387-2.11-3.743-3.381-6.268-3.381s-4.881 1.271-6.268 3.381c-4.828 7.349-11.002 13.522-18.351 18.351-2.11 1.387-3.381 3.743-3.381 6.268s1.271 4.881 3.381 6.268zm24.619-14.345c2.494 2.887 5.189 5.583 8.076 8.076-2.887 2.494-5.583 5.189-8.076 8.076-2.494-2.887-5.189-5.583-8.076-8.076 2.887-2.493 5.582-5.188 8.076-8.076z"/>
        <path d="m381.881 278.102c7.349 4.828 13.522 11.002 18.351 18.351 1.387 2.11 3.743 3.381 6.268 3.381s4.881-1.271 6.268-3.381c4.828-7.349 11.002-13.522 18.351-18.351 2.11-1.387 3.381-3.743 3.381-6.268s-1.271-4.881-3.381-6.268c-7.349-4.828-13.522-11.002-18.351-18.351-1.387-2.11-3.743-3.381-6.268-3.381s-4.881 1.271-6.268 3.381c-4.828 7.349-11.002 13.522-18.351 18.351-2.11 1.387-3.381 3.743-3.381 6.268s1.271 4.881 3.381 6.268zm24.619-14.345c2.494 2.887 5.189 5.583 8.076 8.076-2.887 2.494-5.583 5.189-8.076 8.076-2.494-2.887-5.189-5.583-8.076-8.076 2.887-2.493 5.582-5.188 8.076-8.076z"/>
        <path d="m100.232 247.215c-4.828 7.349-11.002 13.522-18.351 18.351-2.11 1.387-3.381 3.743-3.381 6.268s1.271 4.881 3.381 6.268c7.349 4.828 13.522 11.002 18.351 18.351 1.387 2.11 3.743 3.381 6.268 3.381s4.881-1.271 6.268-3.381c4.828-7.349 11.002-13.522 18.351-18.351 2.11-1.387 3.381-3.743 3.381-6.268s-1.271-4.881-3.381-6.268c-7.349-4.828-13.522-11.002-18.351-18.351-1.387-2.11-3.743-3.381-6.268-3.381s-4.881 1.27-6.268 3.381zm14.344 24.618c-2.887 2.494-5.583 5.189-8.076 8.076-2.494-2.887-5.189-5.583-8.076-8.076 2.887-2.494 5.583-5.189 8.076-8.076 2.494 2.888 5.189 5.583 8.076 8.076z"/>
    </g>
</svg>