<svg height="512" viewBox="0 0 60 60" width="512" xmlns="http://www.w3.org/2000/svg">
    <g fill="currentColor">
        <path d="m23 4h-15c-2.209139 0-4 1.790861-4 4v34c0 2.209139 1.790861 4 4 4h6c.5522847 0 1-.4477153 1-1s-.4477153-1-1-1h-6c-1.1045695 0-2-.8954305-2-2v-34c0-1.1045695.8954305-2 2-2h15c1.1045695 0 2 .8954305 2 2v12.05c0 .5522847.4477153 1 1 1s1-.4477153 1-1v-12.05c0-2.209139-1.790861-4-4-4z"/>
        <path d="m11 12h9c.5522847 0 1-.4477153 1-1s-.4477153-1-1-1h-9c-.5522847 0-1 .4477153-1 1s.4477153 1 1 1z"/>
        <path d="m11 16h9c.5522847 0 1-.4477153 1-1s-.4477153-1-1-1h-9c-.5522847 0-1 .4477153-1 1s.4477153 1 1 1z"/>
        <path d="m21 19c0-.5522847-.4477153-1-1-1h-9c-.5522847 0-1 .4477153-1 1s.4477153 1 1 1h9c.5522847 0 1-.4477153 1-1z"/>
        <path d="m9 35c-.55228475 0-1 .4477153-1 1v5c0 .5522847.44771525 1 1 1h3c.5522847 0 1-.4477153 1-1s-.4477153-1-1-1h-2v-4c0-.5522847-.44771525-1-1-1z"/>
        <path d="m52 0h-15c-2.9122142.00180691-5.5934008 1.58600518-7 4.136-1.4065992-2.54999482-4.0877858-4.13419309-7-4.136h-15c-4.41622192.00495988-7.99504012 3.58377808-8 8v34c.00495988 4.4162219 3.58377808 7.9950401 8 8h6c.5522847 0 1-.4477153 1-1s-.4477153-1-1-1h-6c-3.31233757-.0033074-5.99669262-2.6876624-6-6v-34c.00330738-3.31233757 2.68766243-5.99669262 6-6h15c3.3123376.00330738 5.9966926 2.68766243 6 6v12c0 .5522847.4477153 1 1 1s1-.4477153 1-1v-12c.0033074-3.31233757 2.6876624-5.99669262 6-6h15c3.3123376.00330738 5.9966926 2.68766243 6 6v34c-.0033074 3.3123376-2.6876624 5.9966926-6 6h-6c-.5522847 0-1 .4477153-1 1s.4477153 1 1 1h6c4.4162219-.0049599 7.9950401-3.5837781 8-8v-34c-.0049599-4.41622192-3.5837781-7.99504012-8-8z"/>
        <path d="m46 46h6c2.209139 0 4-1.790861 4-4v-34c0-2.209139-1.790861-4-4-4h-15c-2.209139 0-4 1.790861-4 4v12.05c0 .5522847.4477153 1 1 1s1-.4477153 1-1v-12.05c0-1.1045695.8954305-2 2-2h15c1.1045695 0 2 .8954305 2 2v34c0 1.1045695-.8954305 2-2 2h-6c-.5522847 0-1 .4477153-1 1s.4477153 1 1 1z"/>
        <path d="m40 12h9c.5522847 0 1-.4477153 1-1s-.4477153-1-1-1h-9c-.5522847 0-1 .4477153-1 1s.4477153 1 1 1z"/>
        <path d="m40 16h9c.5522847 0 1-.4477153 1-1s-.4477153-1-1-1h-9c-.5522847 0-1 .4477153-1 1s.4477153 1 1 1z"/>
        <path d="m40 20h9c.5522847 0 1-.4477153 1-1s-.4477153-1-1-1h-9c-.5522847 0-1 .4477153-1 1s.4477153 1 1 1z"/>
        <path d="m49 27v3c0 .5522847.4477153 1 1 1s1-.4477153 1-1v-3c0-.5522847-.4477153-1-1-1s-1 .4477153-1 1z"/>
        <path d="m27 23c-3.8641657.0044086-6.9955914 3.1358343-7 7v6c-1.6568542 0-3 1.3431458-3 3v18c0 1.6568542 1.3431458 3 3 3h20c1.6568542 0 3-1.3431458 3-3v-18c0-1.6568542-1.3431458-3-3-3v-6c-.0044086-3.8641657-3.1358343-6.9955914-7-7zm14 16v18c0 .5522847-.4477153 1-1 1h-20c-.5522847 0-1-.4477153-1-1v-18c0-.5522847.4477153-1 1-1h20c.5522847 0 1 .4477153 1 1zm-7-3h-8v-6c0-.5522847.4477153-1 1-1h6c.5522847 0 1 .4477153 1 1zm4-6v6h-2v-6c0-1.6568542-1.3431458-3-3-3h-6c-1.6568542 0-3 1.3431458-3 3v6h-2v-6c.0033061-2.7600532 2.2399468-4.9966939 5-5h6c2.7600532.0033061 4.9966939 2.2399468 5 5z"/>
        <path d="m31.213 41.144c-1.504172-.3693727-3.0946426-.0256068-4.312.932-1.2178834.9618134-1.9201275 2.4346089-1.9007403 3.9863657.0193871 1.5517568.7582076 3.0065481 1.9997403 3.9376343v3c0 1.6568542 1.3431458 3 3 3s3-1.3431458 3-3v-3c1.5445107-1.1569544 2.2853492-3.0994557 1.9035191-4.9910852-.3818301-1.8916296-1.8181587-3.3946643-3.6905191-3.8619148zm.587 7.256c-.4971479.3576066-.7942401.9306232-.8 1.543v3.057c0 .5522847-.4477153 1-1 1s-1-.4477153-1-1v-3.081c-.0057082-.6020522-.2994259-1.1649492-.79-1.514-1.0350553-.7717872-1.4602164-2.1192507-1.0555364-3.3453131s1.548421-2.0556867 2.8395364-2.0596869c.2550309.0005085.5091144.0310522.757.091 1.055868.2632461 1.882907 1.0833772 2.155 2.137.3133746 1.1839695-.1244165 2.4395512-1.106 3.172z"/>
    </g>
</svg>