<svg height="512pt" viewBox="0 0 512 512" width="512pt" xmlns="http://www.w3.org/2000/svg">
    <g fill="currentColor">
        <path d="m494.933594 0h-477.867188c-9.421875.0078125-17.0585935 7.644531-17.066406 17.066406v59.734375c.0078125 9.421875 7.644531 17.054688 17.066406 17.066407h10.894532l-26.835938 46.964843c-1.507812 2.640625-1.5 5.886719.027344 8.519531 1.527344 2.628907 4.339844 4.25 7.382812 4.25h19.425782l-26.835938 46.964844c-1.507812 2.640625-1.5 5.886719.027344 8.515625 1.527344 2.632813 4.339844 4.25 7.382812 4.25h19.425782l-26.835938 46.96875c-1.507812 2.640625-1.5 5.882813.027344 8.515625 1.527344 2.628906 4.339844 4.25 7.382812 4.25h19.425782l-26.835938 46.96875c-1.507812 2.640625-1.5 5.882813.027344 8.515625 1.527344 2.628907 4.339844 4.25 7.382812 4.25h19.425782l-26.835938 46.964844c-1.507812 2.640625-1.5 5.886719.027344 8.515625 1.527344 2.632812 4.339844 4.25 7.382812 4.253906h19.425782l-26.835938 46.964844c-1.507812 2.640625-1.5 5.886719.027344 8.515625 1.527344 2.632813 4.339844 4.25 7.382812 4.25h19.425782l-26.835938 46.96875c-1.507812 2.640625-1.5 5.882813.027344 8.515625 1.527344 2.628906 4.339844 4.25 7.382812 4.25h494.929688c3.042968 0 5.855468-1.621094 7.382812-4.25 1.527344-2.632812 1.535156-5.875.027344-8.515625l-26.835938-46.96875h19.425782c3.042968 0 5.855468-1.617187 7.382812-4.25 1.527344-2.628906 1.535156-5.875.027344-8.515625l-26.835938-46.964844h19.425782c3.042968-.003906 5.855468-1.621094 7.382812-4.253906 1.527344-2.628906 1.535156-5.875.027344-8.515625l-26.835938-46.964844h19.425782c3.042968 0 5.855468-1.621093 7.382812-4.25 1.527344-2.632812 1.535156-5.875.027344-8.515625l-26.835938-46.96875h19.425782c3.042968 0 5.855468-1.621094 7.382812-4.25 1.527344-2.632812 1.535156-5.875.027344-8.515625l-26.835938-46.96875h19.425782c3.042968 0 5.855468-1.617187 7.382812-4.25 1.527344-2.628906 1.535156-5.875.027344-8.515625l-26.835938-46.964844h19.425782c3.042968 0 5.855468-1.621093 7.382812-4.25 1.527344-2.632812 1.535156-5.878906.027344-8.519531l-26.835938-46.964843h10.894532c9.421875-.011719 17.054687-7.644532 17.066406-17.066407v-59.734375c-.011719-9.421875-7.644531-17.0546872-17.066406-17.066406zm-447.316406 93.867188h46.25v42.667968h-70.628907zm319.316406 0v42.667968h-221.867188v-42.667968zm68.265625 0v42.667968h-17.066407v-42.667968zm-290.132813 341.332031v-42.664063h221.867188v42.664063zm221.867188 17.066406v42.667969h-221.867188v-42.667969zm0-256h-221.867188v-42.664063h221.867188zm17.066406-42.664063h17.066406v42.664063h-17.066406zm-238.933594 162.132813v-42.667969h221.867188v42.667969zm221.867188 17.066406v42.664063h-221.867188v-42.664063zm-221.867188-76.800781v-42.667969h221.867188v42.667969zm-17.066406-59.734375h-17.066406v-42.664063h17.066406zm0 17.066406v42.667969h-17.066406v-42.667969zm0 59.734375v42.667969h-17.066406v-42.667969zm0 59.734375v42.664063h-17.066406v-42.664063zm0 59.734375v42.664063h-17.066406v-42.664063zm256 0h17.066406v42.664063h-17.066406zm0-17.070312v-42.664063h17.066406v42.664063zm0-59.730469v-42.667969h17.066406v42.667969zm0-59.734375v-42.667969h17.066406v42.667969zm34.132812-42.667969h17.066407v42.667969h-17.066407zm0-17.066406v-42.664063h17.066407v42.664063zm-17.066406-59.730469h-17.066406v-42.667968h17.066406zm-273.066406 0h-17.066406v-42.667968h17.066406zm-80.382812 17.066406h46.25v42.664063h-70.628907zm0 59.730469h46.25v42.667969h-70.628907zm0 59.734375h46.25v42.667969h-70.628907zm0 59.734375h46.25v42.664063h-70.628907zm0 59.734375h46.25v42.664063h-70.628907zm0 59.730469h46.25v42.667969h-70.628907zm63.316406 42.667969v-42.667969h17.066406v42.667969zm273.066406 0v-42.667969h17.066406v42.667969zm104.757812 0h-70.625v-42.667969h46.25zm0-59.734375h-70.625v-42.664063h46.25zm0-59.734375h-70.625v-42.664063h46.25zm0-59.730469h-70.625v-42.667969h17.066407v17.066406c0 4.714844 3.820312 8.535157 8.535156 8.535157 4.710937 0 8.53125-3.820313 8.53125-8.535157v-17.066406h12.117187zm0-59.734375h-36.492187v-42.667969h12.117187zm0-59.734375h-36.492187v-42.664063h12.117187zm0-59.730469h-36.492187v-42.667968h12.117187zm-19.425781-59.734375h-452.265625v-59.734375h477.867188l.007812 59.734375zm0 0"/>
        <path d="m59.734375 42.667969h-17.066406c-4.714844 0-8.535157 3.820312-8.535157 8.53125 0 4.714843 3.820313 8.535156 8.535157 8.535156h17.066406c4.710937 0 8.53125-3.820313 8.53125-8.535156 0-4.710938-3.820313-8.53125-8.53125-8.53125zm0 0"/>
        <path d="m145.066406 42.667969h-51.199218c-4.714844 0-8.535157 3.820312-8.535157 8.53125 0 4.714843 3.820313 8.535156 8.535157 8.535156h51.199218c4.714844 0 8.535156-3.820313 8.535156-8.535156 0-4.710938-3.820312-8.53125-8.535156-8.53125zm0 0"/>
    </g>
</svg>