<svg viewBox="0 0 64 64" xmlns="http://www.w3.org/2000/svg">
    <g fill="currentColor">
        <path d="m47 54c5.514 0 10-4.486 10-10s-4.486-10-10-10-10 4.486-10 10 4.486 10 10 10zm-7.931-11c.183-1.458.759-2.792 1.619-3.898l1.362 1.363 1.414-1.414-1.362-1.362c1.106-.86 2.44-1.436 3.898-1.619v1.93h2v-1.931c1.458.183 2.792.759 3.898 1.619l-1.362 1.362 1.414 1.414 1.362-1.363c.86 1.106 1.436 2.44 1.619 3.898h-1.931v2h1.931c-.183 1.458-.759 2.792-1.619 3.898l-1.362-1.363-1.414 1.414 1.362 1.362c-1.106.86-2.44 1.436-3.898 1.619v-1.929h-2v1.931c-1.458-.183-2.792-.759-3.898-1.619l1.362-1.362-1.414-1.414-1.362 1.363c-.86-1.106-1.436-2.44-1.619-3.898h1.931v-2h-1.931z"/>
        <path d="m57 21h-24.98c-1.511 0-2.984.426-4.262 1.229l-22.021 13.866c-2.34 1.473-3.737 4.005-3.737 6.769v6.136c0 .553.448 1 1 1h33.088c.341 0 .658-.174.842-.46.184-.287.209-.647.067-.957-.75-1.635-1.08-3.387-.979-5.208.309-5.591 4.936-10.145 10.535-10.366 3.028-.116 5.892.967 8.069 3.06 2.178 2.093 3.378 4.91 3.378 7.931 0 .553.448 1 1 1h3c.552 0 1-.447 1-1v-17c0-3.309-2.691-6-6-6zm-28.177 2.923c.959-.604 2.064-.923 3.197-.923h10.37l-8.391 5.035v-.035h-11.651zm-22.02 13.864 12.368-7.787h11.552l-18.233 10.94c-1.157.694-2.48 1.06-3.827 1.06h-4.596c.248-1.728 1.229-3.263 2.736-4.213zm54.197 5.213h-1.038c-.239-3.188-1.623-6.132-3.955-8.374-2.573-2.473-5.963-3.75-9.534-3.615-6.19.245-11.374 4.97-12.317 10.989h-17.156v2h17.013c.002 1.361.202 2.715.615 4h-30.628v-4h4.663c1.709 0 3.389-.465 4.856-1.345l32.758-19.655h10.723c2.206 0 4 1.794 4 4z"/>
        <path d="m47 48c2.206 0 4-1.794 4-4s-1.794-4-4-4-4 1.794-4 4 1.794 4 4 4zm0-6c1.103 0 2 .897 2 2s-.897 2-2 2-2-.897-2-2 .897-2 2-2z"/>
        <path d="m6.651 15.635c-1.757 2.125-1.458 5.282.667 7.04l4.624 3.823c.187.154.412.229.637.229.288 0 .573-.124.771-.362 1.757-2.125 1.458-5.282-.667-7.04l-4.624-3.823c-.426-.352-1.056-.292-1.408.133zm5.662 8.576-3.721-3.077c-1.004-.831-1.329-2.185-.905-3.345l3.721 3.077c1.005.831 1.329 2.185.905 3.345z"/>
        <path d="m21.445 9.229-4.624 3.823c-2.125 1.758-2.424 4.916-.667 7.04.198.239.483.362.771.362.225 0 .45-.075.637-.229l4.624-3.823c2.125-1.757 2.424-4.915.667-7.04-.352-.424-.983-.484-1.408-.133zm-.533 5.632-3.722 3.078c-.152-.415-.211-.863-.168-1.316.076-.798.458-1.519 1.075-2.029l3.721-3.077c.423 1.16.099 2.513-.906 3.344z"/>
    </g>
</svg>