<svg height="512" viewBox="0 0 512 512" width="512" xmlns="http://www.w3.org/2000/svg">
    <g fill="currentColor">
        <path d="m510.417 233.225-58.644-117.279c-15.939-31.877-47.978-51.68-83.62-51.68-8.586 0-16.984 1.188-25.032 3.437.105-1.489.178-2.988.178-4.503 0-34.849-28.351-63.2-63.2-63.2s-63.2 28.352-63.2 63.2c0 30.993 22.432 56.828 51.909 62.169l-61.366 61.47c-6.875 6.886-21.871 27.82-10.333 54.46-1.705-.191-3.421-.299-5.144-.299-23.087 0-42.336 16.69-46.351 38.635-7.74-4.144-16.573-6.501-25.949-6.501-30.419 0-55.167 24.748-55.167 55.167 0 9.063 2.211 17.615 6.1 25.167h-40.598v-338.468c0-8.284-6.716-15-15-15s-15 6.716-15 15v482c0 8.284 6.716 15 15 15s15-6.716 15-15v-49.267h306.563c8.284 0 15-6.716 15-15v-64.267c0-8.284-6.716-15-15-15h-36.412c3.274-8.395 3.214-15.263 3.214-18.2 28.469 0 48.2-22.098 48.2-47.133 0-25.989-21.144-47.133-47.133-47.133h-12.304l55.904-56.086 53.736 106.777-.103 205.301c-.002 3.979 1.578 7.796 4.391 10.611 2.813 2.814 6.63 4.396 10.609 4.396h80.335c8.284 0 15-6.716 15-15v-257.066c0-2.329-.542-4.625-1.583-6.708zm-263.517-170.025c0-18.307 14.894-33.2 33.2-33.2s33.2 14.894 33.2 33.2-14.894 33.2-33.2 33.2c-18.307 0-33.2-14.893-33.2-33.2zm-127.233 239.933c13.877 0 25.167 11.29 25.167 25.167s-11.29 25.167-25.167 25.167-25.167-11.29-25.167-25.167 11.29-25.167 25.167-25.167zm201.896 80.334v34.267h-291.563v-34.267zm-17.13-112.467c9.447 0 17.133 7.686 17.133 17.133 0 9.583-7.814 17.133-17.133 17.133h-16.067c-8.284 0-15 6.716-15 15v16.067c0 9.583-7.814 17.133-17.133 17.133h-64.267c-9.447 0-17.133-7.686-17.133-17.133v-48.2c0-9.447 7.686-17.133 17.133-17.133 9.297 0 17.133 7.526 17.133 17.133v16.067c0 8.284 6.716 15 15 15s15-6.716 15-15v-16.067c0-9.429 7.616-17.133 17.133-17.133zm177.567 211h-50.326l.097-193.859c.001-2.344-.547-4.656-1.601-6.75l-64.685-128.533c-2.167-4.305-6.269-7.306-11.027-8.068-4.761-.762-9.594.81-12.995 4.222l-86.458 86.739c-7.263 7.291-19.115 6.807-26.308-.386-7.381-7.381-7.728-19.611-.022-27.329l95.27-95.431c11.799-11.825 27.5-18.337 44.217-18.337 24.199 0 45.955 13.448 56.779 35.097l57.059 114.109z"/>
    </g>
</svg>