<svg xmlns="http://www.w3.org/2000/svg" viewBox="0 0 64 64" width="512" height="512">
    <g fill="currentColor">
        <path d="M55,35.935c4.493-.555,8-4.8,8-9.935,0-4.885-3.535-19-9-19s-9,14.115-9,19c0,5.138,3.507,9.38,8,9.935V42H49.949a9.978,9.978,0,0,0-14.441-7.922l-1.6-2.513L32.388,27H36.5a1.5,1.5,0,0,1,0,3H36v2h.5a3.5,3.5,0,0,0,0-7H31a1,1,0,0,0-.948,1.316L31.613,31H20V29h3a1,1,0,0,0,1-1,5,5,0,0,0-10,0,1,1,0,0,0,1,1h3v2.675l-1.964,2.7a9.991,9.991,0,1,0,4.51,11.606,3.985,3.985,0,1,0,6.425-4.634l5.521-8.283,1.329,2.089A9.995,9.995,0,1,0,49.949,44H63V42H55ZM47,26c0-5.067,3.661-17,7-17s7,11.933,7,17c0,4.022-2.614,7.351-6,7.909V18.535l2.555-1.7-1.11-1.664-3,2A1,1,0,0,0,53,18v7l-2.4-1.8-1.2,1.6L53,27.5v6.409C49.614,33.351,47,30.022,47,26ZM19,25a3.006,3.006,0,0,1,2.829,2H16.171A3.006,3.006,0,0,1,19,25Zm5,15a3.836,3.836,0,0,0-.56.057L20.5,33h9.632l-4.825,7.237A3.968,3.968,0,0,0,24,40ZM11,51a8,8,0,1,1,3.857-15l-3.011,4.14A2.96,2.96,0,0,0,11,40a3,3,0,1,0,2.738,4.214l5.1.392A8.014,8.014,0,0,1,11,51Zm7.98-8.389-5.1-.392a3.005,3.005,0,0,0-.414-.916l3-4.125A7.969,7.969,0,0,1,18.98,42.611ZM12,43a1,1,0,1,1-1-1A1,1,0,0,1,12,43Zm8.879-1.472a9.968,9.968,0,0,0-3.228-5.974l1.111-1.527,2.832,6.8A4.032,4.032,0,0,0,20.879,41.528ZM24,46a2,2,0,1,1,2-2A2,2,0,0,1,24,46Zm16,5a8,8,0,0,1-5.1-14.156l2.748,4.319A2.966,2.966,0,0,0,37,43a3,3,0,1,0,3-3,2.963,2.963,0,0,0-.671.082l-2.741-4.307A8,8,0,1,1,40,51Zm0-9a1,1,0,1,1-1,1A1,1,0,0,1,40,42Z"/>
        <path d="M7,18a4,4,0,0,0,2.788-1.139,5.633,5.633,0,0,0,3.961-.545A3.954,3.954,0,0,0,17,18a4,4,0,1,0-.083-8,6,6,0,0,0-11.9.538A3.992,3.992,0,0,0,7,18Zm-.653-5.877a1,1,0,0,0,.67-.977A.6.6,0,0,0,7,11a4,4,0,0,1,8-.041c0,.033-.018.152-.02.185a1,1,0,0,0,1.339.986A1.97,1.97,0,0,1,17,12a2,2,0,1,1-1.9,2.573,1,1,0,0,0-1.589-.487,3.8,3.8,0,0,1-3.751.693,1,1,0,0,0-1.129.372,1.994,1.994,0,1,1-2.282-3.028Z"/>
        <rect x="1" y="55" width="62" height="2"/>
    </g>
</svg>
