<svg height="512" viewBox="0 0 512 512" width="512" xmlns="http://www.w3.org/2000/svg">
    <g fill="currentColor">
        <path d="m457 0h-402c-30.327 0-55 24.673-55 55v457h432v-408.035c7.507 3.848 16 6.035 25 6.035 30.327 0 55-24.673 55-55s-24.673-55-55-55zm-402 30h353.035c-3.848 7.507-6.035 16-6.035 25v7h-372v-7c0-13.785 11.215-25 25-25zm-25 272v-30h372v30zm372 30v30h-372v-30zm-372-90v-30h372v30zm0-60v-30h372v30zm0-60v-30h372v30zm0 360v-90h372v90zm427-402c-13.785 0-25-11.215-25-25s11.215-25 25-25 25 11.215 25 25-11.215 25-25 25z"/>
        <path d="m60 422h30v30h-30z"/>
        <path d="m342 422h30v30h-30z"/>
    </g>
</svg>