<svg height="512" viewBox="0 0 512 512" width="512" xmlns="http://www.w3.org/2000/svg">
    <g fill="currentColor">
        <path d="m168.992 277.591c0-26.551-21.601-48.151-48.151-48.151s-48.151 21.601-48.151 48.151 21.601 48.15 48.151 48.15 48.151-21.6 48.151-48.15zm-81.303 0c0-18.279 14.872-33.151 33.151-33.151s33.151 14.872 33.151 33.151-14.872 33.15-33.151 33.15-33.151-14.871-33.151-33.15z"/>
        <path d="m479.272 462h-34.062l-39.158-36.667c-3.023-2.831-7.77-2.675-10.601.349s-2.675 7.77.349 10.601l41.321 38.692c1.39 1.302 3.222 2.025 5.126 2.025h37.024c9.775 0 17.728 7.953 17.728 17.729v2.271h-60.844c-2.148 0-4.261-.703-5.981-1.986l-188.492-178.914v-24.132l132.207 123.796c3.023 2.831 7.77 2.675 10.601-.349s2.675-7.77-.349-10.601l-142.459-133.396v-2.458c0-8.284-6.74-15.024-15.025-15.024h-12.548v-42.786h11.438c6.536 0 12.38-3.901 14.886-9.938 2.507-6.037 1.145-12.93-3.471-17.56l-104.706-105.036c-1.168-1.172-2.487-2.138-3.91-2.889v-10.869h50.148c8.959 0 16.248-7.289 16.248-16.248v-25.213c0-8.959-7.289-16.248-16.248-16.248h-50.166c-.184-3.978-3.458-7.149-7.482-7.149-4.143 0-7.5 3.357-7.5 7.5v68.223c-1.427.751-2.749 1.719-3.92 2.894l-40.015 40.14c-2.925 2.934-2.917 7.682.017 10.606 2.933 2.923 7.681 2.917 10.606-.017l40.016-40.141c.271-.271.579-.328.791-.328.211 0 .521.057.792.329l104.705 105.035c.157.158.527.529.24 1.219-.286.689-.809.689-1.032.689h-209.41c-.224 0-.747 0-1.033-.689s.084-1.061.241-1.219l43.521-43.658c2.925-2.934 2.917-7.683-.017-10.606-2.934-2.925-7.683-2.918-10.606.017l-43.521 43.657c-4.615 4.63-5.978 11.522-3.472 17.561 2.507 6.037 8.35 9.938 14.887 9.938h11.438v69.444c0 4.143 3.357 7.5 7.5 7.5s7.5-3.357 7.5-7.5v-69.444h156.535v132.882h-156.536v-33.452c0-4.143-3.357-7.5-7.5-7.5s-7.5 3.357-7.5 7.5v186.42h-20.073c-4.143 0-7.5 3.357-7.5 7.5s3.357 7.5 7.5 7.5h497c4.143 0 7.5-3.357 7.5-7.5v-9.771c0-18.047-14.682-32.729-32.728-32.729zm-299.53-438.603v25.213c0 .688-.56 1.248-1.248 1.248h-50.148v-27.709h50.148c.689 0 1.248.56 1.248 1.248zm167.196 413.291 63.541 60.312h-63.541zm-15 60.312h-60.811v-132.27l60.811 57.72zm-75.81-146.508v146.508h-42.02v-156.942h12.548c4.939 0 9.316-2.406 12.056-6.096zm-29.446-81.532-.012 56.097s-.004.001-.014.001h-12.548v-56.113zm-27.574 228.04h-37.15v-137.969h37.15zm-104.384-61.484h52.234v21.436h-52.234zm52.234-15h-52.234v-21.436h52.234zm-52.234 51.435h52.234v25.049h-52.234zm52.234-112.92v25.049h-52.234v-25.049zm-104.385 0h37.15v137.969h-37.15z"/>
    </g>
</svg>