<svg height="512" viewBox="0 0 512 512" width="512" xmlns="http://www.w3.org/2000/svg">
    <g fill="currentColor">
        <path d="m367.043 170.414c-10.516-.365-20.016-5.047-26.749-13.181-4.914-5.937-13.938-5.925-18.842 0-14.597 17.637-41.462 17.606-56.031 0-4.973-6.007-14.005-5.842-18.843 0-14.592 17.633-41.455 17.613-56.031-.001-4.922-5.945-13.945-5.915-18.841 0-6.733 8.135-16.233 12.816-26.749 13.182-4.14.144-7.379 3.616-7.234 7.756.144 4.14 3.594 7.371 7.756 7.235 13.566-.472 26.386-6.328 35.646-16.187 20.276 21.629 54.569 21.657 74.875.001 20.278 21.629 54.571 21.654 74.874-.001 9.262 9.859 22.08 15.715 35.647 16.187 4.121.149 7.613-3.095 7.756-7.235.145-4.14-3.094-7.612-7.234-7.756z"/>
        <path d="m340.294 218.757c-4.914-5.937-13.938-5.925-18.842 0-14.596 17.636-41.461 17.607-56.031 0-4.973-6.007-14.005-5.842-18.843 0-14.596 17.639-41.461 17.606-56.031-.001-4.904-5.922-13.927-5.938-18.841.001-7.994 9.658-20.182 14.484-32.612 12.914-4.1-.519-7.861 2.389-8.382 6.499-.521 4.109 2.39 7.862 6.499 8.382 16.481 2.089 32.658-3.795 43.916-15.808 20.277 21.628 54.568 21.654 74.873 0 20.276 21.627 54.57 21.656 74.873 0 11.258 12.013 27.436 17.896 43.915 15.808 4.109-.52 7.02-4.272 6.499-8.382s-4.289-7.019-8.382-6.499c-12.435 1.569-24.618-3.255-32.611-12.914z"/>
        <path d="m360.782 107.7c-8.082-1.703-15.167-6-20.487-12.427-4.914-5.937-13.938-5.925-18.842 0-14.597 17.637-41.462 17.606-56.031 0-4.973-6.007-14.005-5.842-18.843 0-14.592 17.633-41.455 17.613-56.031-.001-4.922-5.945-13.945-5.915-18.841 0-5.32 6.427-12.404 10.725-20.486 12.428-4.054.854-6.647 4.832-5.793 8.885s4.84 6.647 8.885 5.792c10.383-2.188 19.592-7.39 26.816-15.117 20.282 21.631 54.572 21.648 74.872-.001 20.276 21.626 54.567 21.656 74.871.002 7.226 7.727 16.436 12.93 26.818 15.116 4.048.855 8.03-1.74 8.885-5.793.853-4.053-1.741-8.031-5.793-8.884z"/>
        <path d="m54.985 429.273h169.732v69.579c0 7.25 5.898 13.148 13.149 13.148h25.192c7.25 0 13.148-5.898 13.148-13.148v-1.464h74.199v1.464c0 7.25 5.898 13.148 13.149 13.148h25.192c7.25 0 13.148-5.898 13.148-13.148v-69.579h55.119c24.121 0 43.081-20.886 40.657-44.956-.004-.04-.008-.08-.013-.12l-13.035-111.567c-.481-4.114-4.215-7.062-8.319-6.579-4.114.481-7.06 4.206-6.579 8.32l13.03 111.503c1.46 14.833-10.094 28.398-25.738 28.398h-55.119v-19.058h44.937c9.47 0 16.88-8.191 15.935-17.616-.005-.043-.01-.086-.015-.129l-38.756-329.074c-.861-8.179-7.695-14.337-15.927-14.337h-134.571c-4.143 0-7.5 3.358-7.5 7.5s3.357 7.5 7.5 7.5h134.571c.523 0 .957.393 1.01.914.004.042.009.083.014.125l38.75 329.034c.019.275-.074.547-.26.751-.191.212-.466.333-.752.333h-44.937v-22.892c0-39.477-32.256-70.344-70.345-70.344-26.778 0-50.947 15.189-62.839 38.744-12.008-23.772-36.725-39.25-64.206-38.731-37.7.709-68.988 31.593-68.988 70.332v22.892h-70.352c-.286 0-.56-.122-.753-.335-.185-.204-.277-.476-.259-.751l38.752-329.032c.005-.042.01-.084.014-.127.053-.52.486-.912 1.01-.912h134.57c4.143 0 7.5-3.358 7.5-7.5s-3.357-7.5-7.5-7.5h-134.57c-8.233 0-15.067 6.16-15.927 14.339l-38.757 329.073c-.005.043-.01.086-.015.129-.946 9.422 6.464 17.616 15.935 17.616h159.551v19.058h-169.732c-14.852 0-27.279-12.782-25.739-28.399l40.609-347.483c.005-.04.009-.08.013-.119 1.336-13.268 12.399-23.273 25.734-23.273h320.798c13.335 0 24.397 10.005 25.733 23.272.004.04.008.08.013.12l23.487 200.979c.481 4.115 4.217 7.063 8.319 6.579 4.114-.48 7.06-4.206 6.579-8.32l-23.48-200.922c-2.138-20.932-19.603-36.708-40.651-36.708h-320.798c-21.049 0-38.516 15.777-40.652 36.71l-40.61 347.488c-.005.04-.009.08-.013.12-2.415 23.999 16.466 44.955 40.658 44.955zm257.713-71.302c0-10.325 8.122-19.289 18.5-19.483 10.682-.204 19.209 8.491 19.209 18.836v22.892h-37.709zm-36.491 71.302h74.199v19.058h-74.199zm78.215-34.058c5.569 0 10.014 4.818 9.484 10.43-.473 4.884-4.59 8.627-9.484 8.627h-78.215v-19.058c26.112.001 52.167.001 78.215.001zm-78.215 68.116h78.215c5.537 0 10.016 4.796 9.484 10.43-.472 4.874-4.587 8.627-9.484 8.627h-78.215zm110.69 33.669h-21.49v-2.213c18.014-9.127 18.054-34.708 0-43.855v-24.26c18.098-9.17 17.968-34.752 0-43.855v-25.493c0-20.486-18.202-36.517-38.794-33.49-16.353 2.4-28.915 16.526-28.915 33.49v22.892h-21.49v-21.837c0-30.552 24.46-56.094 54.822-56.386 31.218-.262 55.867 25.058 55.867 55.331zm-236.377-116.785v-21.838c0-32.224 26.696-57.583 57.589-56.342 29.483 1.204 53.099 25.503 53.099 55.287v139.677h-21.49c0-14.418 0-121.063 0-139.677 0-17.95-14.065-32.804-31.915-33.795-19.276-1.096-35.793 14.261-35.793 33.795v22.892h-21.49zm36.49 0v-22.245c0-9.425 6.762-17.724 15.877-19.243 11.639-1.852 21.83 7.237 21.83 18.596v22.892z"/>
    </g>
</svg>