<svg height="512" viewBox="0 0 24 24" width="512" xmlns="http://www.w3.org/2000/svg">
    <g fill="currentColor">
        <path d="m12 3c-.276 0-.5-.224-.5-.5v-2c0-.276.224-.5.5-.5s.5.224.5.5v2c0 .276-.224.5-.5.5z"/>
        <path d="m18.718 5.782c-.128 0-.256-.049-.354-.146-.195-.195-.195-.512 0-.707l1.414-1.414c.195-.195.512-.195.707 0s.195.512 0 .707l-1.414 1.414c-.097.097-.225.146-.353.146z"/>
        <path d="m23.5 12.5h-2c-.276 0-.5-.224-.5-.5s.224-.5.5-.5h2c.276 0 .5.224.5.5s-.224.5-.5.5z"/>
        <path d="m20.132 20.632c-.128 0-.256-.049-.354-.146l-1.414-1.414c-.195-.195-.195-.512 0-.707s.512-.195.707 0l1.414 1.414c.195.195.195.512 0 .707-.097.097-.225.146-.353.146z"/>
        <path d="m12 24c-.276 0-.5-.224-.5-.5v-2c0-.276.224-.5.5-.5s.5.224.5.5v2c0 .276-.224.5-.5.5z"/>
        <path d="m3.868 20.632c-.128 0-.256-.049-.354-.146-.195-.195-.195-.512 0-.707l1.414-1.414c.195-.195.512-.195.707 0s.195.512 0 .707l-1.414 1.414c-.097.097-.225.146-.353.146z"/>
        <path d="m2.5 12.5h-2c-.276 0-.5-.224-.5-.5s.224-.5.5-.5h2c.276 0 .5.224.5.5s-.224.5-.5.5z"/>
        <path d="m5.282 5.782c-.128 0-.256-.049-.354-.146l-1.413-1.414c-.195-.195-.195-.512 0-.707s.512-.195.707 0l1.414 1.414c.195.195.195.512 0 .707-.098.097-.226.146-.354.146z"/>
        <path d="m10.573 20c-.059 0-.117-.01-.175-.031-.219-.082-.352-.304-.321-.534l.853-6.435h-3.43c-.189 0-.362-.107-.447-.276s-.067-.372.047-.524l6-8c.139-.186.386-.252.597-.16.212.091.335.314.297.542l-.904 5.418h3.41c.184 0 .353.101.44.263s.078.358-.022.513l-5.927 9c-.095.143-.254.224-.418.224zm-2.073-8h3c.145 0 .281.063.376.171.095.107.139.252.12.395l-.641 4.838 4.217-6.404h-3.072c-.147 0-.286-.064-.382-.177-.095-.112-.136-.261-.111-.405l.663-3.978z"/>
    </g>
</svg>