<svg version="1.1" xmlns="http://www.w3.org/2000/svg" viewBox="0 0 512 512">
    <g fill="currentColor">
        <path d="M503.467,8.533H384c-4.71,0-8.533,3.814-8.533,8.533v119.467V256v51.2h-69.735c0.948-2.671,1.468-5.542,1.468-8.533
				c0-14.114-11.486-25.6-25.6-25.6h-17.067V256h85.333c4.71,0,8.533-3.814,8.533-8.533V110.933c0-4.719-3.823-8.533-8.533-8.533
				H162.133c-4.71,0-8.533,3.814-8.533,8.533v136.533c0,4.719,3.823,8.533,8.533,8.533h85.333v17.067H230.4
				c-14.114,0-25.6,11.486-25.6,25.6c0,2.991,0.521,5.862,1.468,8.533h-69.735V256V136.533V17.067c0-4.719-3.823-8.533-8.533-8.533
				H8.533C3.823,8.533,0,12.348,0,17.067v119.467V256v119.467v119.467c0,4.719,3.823,8.533,8.533,8.533H128h256h119.467
				c4.71,0,8.533-3.814,8.533-8.533V375.467V256V136.533V17.067C512,12.348,508.177,8.533,503.467,8.533z M170.667,153.6h170.667
				v51.2H170.667V153.6z M341.333,119.467v17.067H170.667v-17.067H341.333z M170.667,221.867h170.667v17.067H170.667V221.867z
				 M375.467,486.4H264.533v-93.867h51.2h59.733V486.4z M307.2,375.467H204.8V358.4h102.4V375.467z M494.933,247.467h-17.067V179.2
				c0-4.719-3.823-8.533-8.533-8.533h-25.6h-25.6c-4.71,0-8.533,3.814-8.533,8.533v68.267h-17.067v-102.4h102.4V247.467z
				 M426.667,247.467v-59.733h8.533v59.733H426.667z M452.267,187.733h8.533v59.733h-8.533V187.733z M392.533,315.733v-51.2h25.6
				h25.6h25.6h25.6v102.4h-102.4V315.733z M392.533,25.6h102.4V128h-102.4V25.6z M221.867,298.667c0-4.71,3.831-8.533,8.533-8.533
				h51.2c4.702,0,8.533,3.823,8.533,8.533s-3.831,8.533-8.533,8.533h-51.2C225.698,307.2,221.867,303.377,221.867,298.667z
				 M230.4,324.267h51.2h93.867v51.2h-51.2V358.4c0-9.412-7.654-17.067-17.067-17.067H204.8c-9.412,0-17.067,7.654-17.067,17.067
				v17.067h-51.2v-51.2H230.4z M51.2,332.8h34.133v8.533H51.2V332.8z M85.333,315.733H51.2V307.2h34.133V315.733z M51.2,358.4
				h34.133v8.533H51.2V358.4z M102.4,349.867v-25.6v-25.6c0-4.719-3.823-8.533-8.533-8.533h-51.2c-4.71,0-8.533,3.814-8.533,8.533
				v25.6v25.6v17.067H17.067v-102.4h102.4v51.2v51.2H102.4V349.867z M59.733,110.933H76.8V128H59.733V110.933z M51.2,145.067h34.133
				h34.133v102.4h-102.4v-102.4H51.2z M17.067,25.6h102.4V128h-25.6v-17.067c4.71,0,8.533-3.814,8.533-8.533
				c0-4.719-3.823-8.533-8.533-8.533h-8.533H51.2h-8.533c-4.71,0-8.533,3.814-8.533,8.533c0,4.719,3.823,8.533,8.533,8.533V128
				h-25.6V25.6z M17.067,384h25.6h51.2h25.6v102.4h-102.4V384z M136.533,392.533h59.733h51.2V486.4H136.533V392.533z M494.933,486.4
				h-17.067v-68.267c0-4.719-3.823-8.533-8.533-8.533s-8.533,3.814-8.533,8.533V486.4h-8.533v-68.267
				c0-4.719-3.823-8.533-8.533-8.533s-8.533,3.814-8.533,8.533V486.4h-8.533v-68.267c0-4.719-3.823-8.533-8.533-8.533
				s-8.533,3.814-8.533,8.533V486.4h-17.067V384h102.4V486.4z"/>
        <path d="M221.867,409.6H204.8c-4.71,0-8.533,3.814-8.533,8.533s3.823,8.533,8.533,8.533h8.533v8.533
				c0,4.719,3.823,8.533,8.533,8.533c4.71,0,8.533-3.814,8.533-8.533v-17.067C230.4,413.414,226.577,409.6,221.867,409.6z"/>
        <path d="M307.2,409.6h-17.067c-4.71,0-8.533,3.814-8.533,8.533V435.2c0,4.719,3.823,8.533,8.533,8.533s8.533-3.814,8.533-8.533
				v-8.533h8.533c4.71,0,8.533-3.814,8.533-8.533S311.91,409.6,307.2,409.6z"/>
    </g>
</svg>
