<svg viewBox="0 0 128 128" xmlns="http://www.w3.org/2000/svg">
    <g fill="currentColor">
        <path d="m94.727 73.708a6.75 6.75 0 1 0 6.75 6.75 6.756 6.756 0 0 0 -6.75-6.75zm0 10a3.25 3.25 0 1 1 3.25-3.25 3.254 3.254 0 0 1 -3.25 3.25z"/>
        <path d="m73.081 73.708a6.75 6.75 0 1 0 6.75 6.75 6.757 6.757 0 0 0 -6.75-6.75zm0 10a3.25 3.25 0 1 1 3.25-3.25 3.254 3.254 0 0 1 -3.25 3.25z"/>
        <circle cx="64.966" cy="48.021" r="3"/>
        <circle cx="77.591" cy="48.021" r="3"/>
        <circle cx="90.216" cy="48.021" r="3"/>
        <circle cx="102.841" cy="48.021" r="3"/>
        <path d="m121.5 33.5h-115a1.751 1.751 0 0 0 -1.75 1.75v57.5a1.751 1.751 0 0 0 1.75 1.75h15.942v8.25a1.751 1.751 0 0 0 1.75 1.75h10a1.75 1.75 0 0 0 1.75-1.75v-8.25h56.116v8.25a1.75 1.75 0 0 0 1.75 1.75h10a1.751 1.751 0 0 0 1.75-1.75v-8.25h15.942a1.751 1.751 0 0 0 1.75-1.75v-57.5a1.751 1.751 0 0 0 -1.75-1.75zm-89.058 67.5h-6.5v-6.5h6.5zm69.616 0h-6.5v-6.5h6.5zm17.692-10h-111.5v-54h111.5z"/>
        <path d="m32.692 74.25a10.25 10.25 0 1 0 -10.25-10.25 10.261 10.261 0 0 0 10.25 10.25zm-1.75-16.762v4.012a1.75 1.75 0 0 0 3.5 0v-4.012a6.75 6.75 0 1 1 -3.5 0z"/>
        <path d="m32.692 49.958a1.749 1.749 0 0 0 1.75-1.75v-3a1.75 1.75 0 0 0 -3.5 0v3a1.75 1.75 0 0 0 1.75 1.75z"/>
        <path d="m38.792 51.353a1.75 1.75 0 0 0 2.337-.816l1.3-2.7a1.75 1.75 0 0 0 -3.152-1.52l-1.3 2.7a1.75 1.75 0 0 0 .815 2.336z"/>
        <path d="m45.052 55.919a1.748 1.748 0 0 0 1.088-.38l2.348-1.868a1.75 1.75 0 0 0 -2.179-2.739l-2.348 1.868a1.75 1.75 0 0 0 1.091 3.12z"/>
        <path d="m24.256 50.537a1.75 1.75 0 1 0 3.152-1.521l-1.3-2.7a1.75 1.75 0 0 0 -3.152 1.52z"/>
        <path d="m16.9 53.671 2.349 1.868a1.75 1.75 0 0 0 2.178-2.74l-2.348-1.867a1.75 1.75 0 1 0 -2.179 2.739z"/>
        <path d="m58.808 70.292h50.192a1.751 1.751 0 0 0 1.75-1.75v-10a1.75 1.75 0 0 0 -1.75-1.75h-50.192a1.749 1.749 0 0 0 -1.75 1.75v10a1.75 1.75 0 0 0 1.75 1.75zm1.75-10h46.692v6.5h-46.692z"/>
        <path d="m16.135 87.208h33.115a1.75 1.75 0 0 0 0-3.5h-33.115a1.75 1.75 0 0 0 0 3.5z"/>
    </g>
</svg>