<svg height="600pt" viewBox="-45 -19 600 600.001" width="600pt" xmlns="http://www.w3.org/2000/svg">
    <g fill="currentColor">
        <path d="m498.214844 0h-50.976563c-18.195312.0273438-32.933593 14.769531-32.964843 32.964844v24.871094h-144.824219c-61.4375.09375-112.253907 47.871093-116.132813 109.1875h-39.066406c-5.515625 0-9.988281 4.46875-9.988281 9.988281v30.511719h-10.285157c-3.707031 0-7.105468 2.046874-8.835937 5.328124l-85.769531 162.554688c-1.636719 3.097656-1.53125 6.824219.277344 9.824219 1.808593 3 5.050781 4.828125 8.554687 4.828125h108.121094c.175781 3.957031.675781 7.886718 1.496093 11.761718 7.570313 35.054688 38.558594 60.09375 74.425782 60.125 35.871094.035157 66.902344-24.949218 74.535156-59.996093.84375-3.910157 1.367188-7.890625 1.550781-11.894531h108.136719c3.5 0 6.75-1.832032 8.554688-4.832032 1.808593-3 1.917968-6.726562.277343-9.820312l-85.769531-162.546875c-1.730469-3.289063-5.144531-5.339844-8.859375-5.332031h-10.261719v-30.511719c0-5.519531-4.472656-9.988281-9.988281-9.988281h-44.535156c2.140625-22.472657 20.988281-39.644532 43.5625-39.699219h144.804687v28.160156c.035156 18.191406 14.777344 32.933594 32.96875 32.960937h50.980469c5.515625 0 9.988281-4.464843 9.988281-9.988281v-168.46875c0-5.511719-4.464844-9.9804685-9.976562-9.988281zm-250.917969 397.632812c-5.566406 25.933594-28.507813 44.453126-55.03125 44.421876-26.53125-.027344-49.425781-18.597657-54.933594-44.546876-.554687-2.453124-.925781-4.949218-1.121093-7.453124h112.234374c-.199218 2.550781-.585937 5.082031-1.148437 7.578124zm112.605469-27.574218h-101.394532c-.066406 0-.136718 0-.203124 0h-131.960938c-.070312 0-.136719 0-.207031 0h-101.394531l75.253906-142.554688h184.683594zm-99.472656-162.535156h-136.191407v-20.519532h136.191407zm8.996093-100.183594c-33.535156.273437-61.246093 26.238281-63.695312 59.683594h-32.433594c3.847656-50.273438 45.730469-89.125 96.152344-89.1875h144.804687v29.503906zm218.769531 61.140625h-40.984374c-7.167969-.019531-12.972657-5.824219-12.992188-12.988281v-122.507813c.019531-7.160156 5.824219-12.964844 12.992188-12.984375h40.984374zm0 0"/>
        <path d="m90.515625 415.992188c0-5.515626-4.472656-9.988282-9.988281-9.988282h-61.398438c-5.515625 0-9.988281 4.472656-9.988281 9.988282 0 5.519531 4.472656 9.992187 9.988281 9.992187h61.398438c5.515625 0 9.988281-4.472656 9.988281-9.992187zm0 0"/>
        <path d="m117.539062 472.671875-40.070312 37.746094c-2.640625 2.433593-3.773438 6.101562-2.957031 9.597656.8125 3.503906 3.441406 6.296875 6.886719 7.316406 3.445312 1.023438 7.175781.117188 9.765624-2.375l40.070313-37.738281c2.640625-2.433594 3.769531-6.101562 2.957031-9.605469-.816406-3.496093-3.445312-6.292969-6.886718-7.316406-3.449219-1.019531-7.175782-.113281-9.765626 2.375zm0 0"/>
        <path d="m365.546875 406.003906h-61.390625c-5.519531 0-9.992188 4.472656-9.992188 9.988282 0 5.519531 4.472657 9.992187 9.992188 9.992187h61.390625c5.519531 0 9.988281-4.472656 9.988281-9.992187 0-5.515626-4.46875-9.988282-9.988281-9.988282zm0 0"/>
        <path d="m267.046875 472.671875c-2.589844-2.488281-6.316406-3.394531-9.765625-2.375-3.445312 1.023437-6.074219 3.820313-6.886719 7.316406-.816406 3.503907.316407 7.171875 2.953125 9.605469l40.0625 37.722656c2.589844 2.492188 6.316406 3.402344 9.765625 2.375 3.441407-1.019531 6.070313-3.8125 6.886719-7.316406.8125-3.496094-.316406-7.164062-2.957031-9.601562zm0 0"/>
        <path d="m192.273438 490.933594c-5.515626 0-9.988282 4.472656-9.988282 9.992187v50.847657c0 .246093-.023437.503906-.023437.738281 0 5.515625 4.472656 9.988281 9.988281 9.988281.425781-.003906.855469-.027344 1.277344-.085938 4.992187-.628906 8.738281-4.878906 8.738281-9.90625v-51.582031c0-5.519531-4.472656-9.992187-9.992187-9.992187zm0 0"/>
    </g>
</svg>