<svg version="1.1" xmlns="http://www.w3.org/2000/svg" viewBox="0 0 512.001 512.001">
    <g fill="currentColor">
        <path d="M478.511,88.622C403.694,69.223,328.437,39.017,260.878,1.269c-3.03-1.692-6.723-1.693-9.755,0
			C181.621,40.099,110.432,68.672,33.489,88.623c-4.41,1.144-7.49,5.124-7.49,9.68v110.394c0,113.535,55.292,188.639,101.678,231.65
			c49.757,46.138,107.46,71.655,128.324,71.655c20.864,0,78.567-25.517,128.324-71.655
			c46.384-43.011,101.678-118.114,101.678-231.65V98.302C486.002,93.746,482.922,89.766,478.511,88.622z M370.726,425.678
			c-27.557,25.553-54.336,41.685-71.95,50.718c-22.319,11.447-37.81,15.603-42.776,15.603c-4.966,0-20.456-4.155-42.776-15.603
			c-17.612-9.033-44.392-25.165-71.95-50.718c-43.464-40.303-95.276-110.663-95.276-216.983V106.008
			c73.964-19.8,142.801-47.523,210.003-84.574c65.498,36.059,137.827,65.185,210,84.571v102.69h0.001
			C466.001,315.015,414.19,385.375,370.726,425.678z"/>
        <path d="M443.793,115.368c-63.336-18.413-124.936-43.424-183.087-74.337c-2.938-1.563-6.461-1.56-9.397,0.006
			C193.069,72.079,131.47,97.094,68.22,115.387c-4.277,1.237-7.222,5.153-7.222,9.606v83.702c0,39.077,7.405,76.161,22.008,110.222
			c14.53,33.891,36.201,64.82,64.409,91.933c20.175,19.39,43.469,36.477,67.367,49.413c4.282,2.318,26.305,14.003,39.402,16.421
			c0.6,0.11,1.207,0.166,1.815,0.166c0.608,0,1.215-0.056,1.815-0.166c13.097-2.418,35.12-14.103,39.402-16.421
			c23.895-12.936,47.19-30.023,67.367-49.413c28.208-27.111,49.878-58.041,64.409-91.933c14.603-34.06,22.008-71.144,22.008-110.222
			v-83.724C451.001,120.524,448.063,116.611,443.793,115.368z M431.001,208.695c0,73.376-27.008,136.538-80.276,187.734
			c-18.898,18.162-40.693,34.153-63.029,46.245c-10.167,5.503-23.892,11.919-31.697,13.934c-7.805-2.015-21.53-8.431-31.696-13.934
			c-22.337-12.093-44.132-28.084-63.029-46.245c-53.267-51.195-80.276-114.359-80.276-187.734V132.48
			c60.354-17.969,119.172-41.931,175.019-71.306c55.757,29.251,114.569,53.204,174.983,71.274V208.695z"/>
        <path d="M173.027,358.305l-0.2-0.215c-3.701-4.055-9.987-4.367-14.073-0.689c-4.105,3.694-4.438,10.017-0.744,14.122l0.2,0.215
			c1.971,2.158,4.673,3.256,7.387,3.256c2.383,0,4.775-0.848,6.686-2.567C176.388,368.733,176.721,362.409,173.027,358.305z"/>
        <path d="M226.963,403.695c-12.046-7.602-23.645-16.364-34.473-26.044c-4.117-3.682-10.439-3.327-14.12,0.79
			c-3.68,4.118-3.326,10.439,0.792,14.12c11.653,10.418,24.145,19.854,37.129,28.048c1.657,1.045,3.502,1.544,5.327,1.544
			c3.318,0,6.564-1.65,8.466-4.664C233.032,412.818,231.635,406.642,226.963,403.695z"/>
        <path d="M308.898,209.077v-32.921c0-29.168-23.73-52.898-52.9-52.898c-29.168,0-52.898,23.73-52.898,52.898v32.921
			c-11.898,0.429-21.447,10.235-21.447,22.236v76.769c-0.001,12.273,9.984,22.257,22.257,22.257H308.09
			c12.273,0,22.258-9.984,22.258-22.257v-76.769C330.348,219.311,320.798,209.504,308.898,209.077z M223.099,176.156
			c0-18.14,14.759-32.898,32.9-32.898c18.14,0,32.898,14.758,32.898,32.898v32.9h-65.799V176.156z M310.347,308.083
			c0,1.224-1.034,2.257-2.258,2.257H203.908c-1.224,0-2.258-1.033-2.258-2.257v-76.769h0.001c0-1.224,1.034-2.257,2.258-2.257h9.189
			h85.799h9.192c1.224,0,2.258,1.033,2.258,2.257V308.083z"/>
        <path d="M256,249.64c-7.701,0-13.982,6.281-13.982,13.982c0,3.786,1.523,7.225,3.982,9.746v9.787c0,5.522,4.477,10,10,10
			c5.523,0,10-4.478,10-10v-9.787c2.459-2.522,3.982-5.96,3.982-9.746C269.982,255.921,263.701,249.64,256,249.64z"/>
    </g>
</svg>
