<svg height="512pt" viewBox="0 0 512 512" width="512pt" xmlns="http://www.w3.org/2000/svg">
    <g fill="currentColor">
        <path d="m496.882812 0h-481.765624c-8.347657 0-15.117188 6.769531-15.117188 15.117188v481.765624c0 8.347657 6.769531 15.117188 15.117188 15.117188h481.765624c8.347657 0 15.117188-6.769531 15.117188-15.117188v-481.765624c0-8.347657-6.769531-15.117188-15.117188-15.117188zm-406.175781 421.292969v-88.695313h119.074219v88.695313zm-60.472656-391.058594h68.453125v30.238281h-68.453125zm0 60.472656h68.453125v30.238281h-68.453125zm352.839844-58.453125v28.21875h-254.148438v-28.21875zm-254.148438 239.871094h254.152344v30.238281h-254.152344zm0-30.234375v-30.238281h254.152344v30.238281zm0-60.472656v-30.238281h254.152344v30.238281zm0-60.472657v-30.238281h254.152344v30.238281zm-98.691406 30.234376h68.453125v30.238281h-68.453125zm0 60.472656h68.453125v30.238281h-68.453125zm0 60.472656h68.453125v30.238281h-68.453125zm383.078125 0h68.453125v30.238281h-68.453125zm68.453125-30.234375h-68.453125v-30.238281h68.453125zm0-60.472656h-68.453125v-30.238281h68.453125zm0-60.472657h-68.453125v-30.238281h68.453125zm0-60.472656h-68.453125v-30.238281h68.453125zm-241.75 272.125h30.238281v88.695313h-30.238281zm60.476563 0h120.800781v88.695313h-120.800781zm-270.257813 149.167969v-149.167969h30.238281v103.8125c0 8.347656 6.769532 15.117188 15.117188 15.117188h360.820312c8.347656 0 15.117188-6.769532 15.117188-15.117188v-103.8125h30.238281v149.167969zm0 0"/>
    </g>
</svg>