<svg version="1.1" xmlns="http://www.w3.org/2000/svg" viewBox="0 0 512 512">
    <g fill="currentColor">
        <path d="M216,252H116c-5.51,0-10,4.49-10,10s4.49,10,10,10h100c5.51,0,10-4.49,10-10S221.51,252,216,252z"/>
        <path d="M256,252c-5.51,0-10,4.49-10,10s4.49,10,10,10s10-4.49,10-10S261.51,252,256,252z"/>
        <path d="M396,252H296c-5.51,0-10,4.49-10,10s4.49,10,10,10h100c5.51,0,10-4.49,10-10S401.51,252,396,252z"/>
        <path d="M286,107h-60c-5.523,0-10,4.477-10,10v60c0,5.523,4.477,10,10,10h60c5.523,0,10-4.477,10-10v-60
			C296,111.477,291.523,107,286,107z M276,167h-40v-40h40V167z"/>
        <path d="M502,492h-13V233c0-62.237-24.236-120.748-68.244-164.756C376.748,24.236,318.237,0,256,0S135.252,24.236,91.244,68.244
			S23,170.763,23,233v259H10c-5.523,0-10,4.477-10,10s4.477,10,10,10h492c5.523,0,10-4.477,10-10S507.523,492,502,492z M386,492H126
			v-20h260V492z M386,452H126v-20h260V452z M386,412H126v-20h260V412z M386,372H126v-20h260V372z M386,332H126v-20h260V332z
			 M429,492h-23V302c0-5.523-4.477-10-10-10H116c-5.523,0-10,4.477-10,10v190H83V233c0-95.668,77.383-173.5,172.5-173.5
			C351.168,59.5,429,137.332,429,233V492z M469,492h-20V233c0-106.696-86.804-193.5-193.5-193.5
			c-51.639,0-100.063,20.137-136.352,56.702C82.94,132.684,63,181.267,63,233v259H43V233c0-117.449,95.551-213,213-213
			s213,95.551,213,213V492z"/>
    </g>
</svg>
