<svg height="512pt" viewBox="0 -2 512 512" width="512pt" xmlns="http://www.w3.org/2000/svg">
    <g fill="currentColor">
        <path d="m348.246094 376.785156c-3.25-2.605468-7.992188-2.082031-10.597656 1.164063l-28.949219 36.09375c-3.984375 4.96875-.367188 12.257812 5.875 12.257812 2.210937 0 4.398437-.96875 5.886719-2.824219l28.949218-36.09375c2.605469-3.25 2.085938-7.992187-1.164062-10.597656zm0 0"/>
        <path d="m390.359375 358.738281c-3.25-2.605469-7.992187-2.082031-10.597656 1.164063l-28.949219 36.09375c-3.984375 4.96875-.367188 12.257812 5.875 12.257812 2.210938 0 4.398438-.96875 5.886719-2.824218l28.949219-36.09375c2.605468-3.246094 2.085937-7.992188-1.164063-10.597657zm0 0"/>
        <path d="m111.75 422.050781c2.109375 0 4.207031-.878906 5.699219-2.597656l39.613281-45.644531c2.730469-3.144532 2.394531-7.90625-.75-10.632813-3.144531-2.730469-7.910156-2.394531-10.636719.75l-39.617187 45.644531c-4.253906 4.902344-.695313 12.480469 5.691406 12.480469zm0 0"/>
        <path d="m196.621094 376.785156c-3.25-2.605468-7.996094-2.082031-10.601563 1.164063l-14.472656 18.046875c-2.605469 3.25-2.082031 7.996094 1.164063 10.597656 3.269531 2.625 8.011718 2.0625 10.597656-1.164062l14.476562-18.046876c2.605469-3.25 2.082032-7.992187-1.164062-10.597656zm0 0"/>
        <path d="m437.992188 394.832031c-3.25-2.605469-7.992188-2.082031-10.597657 1.164063l-14.476562 18.046875c-2.605469 3.25-2.082031 7.992187 1.164062 10.597656 3.269531 2.621094 8.011719 2.0625 10.601563-1.164063l14.472656-18.046874c2.605469-3.246094 2.082031-7.992188-1.164062-10.597657zm0 0"/>
        <path d="m116.472656 362.984375c-3.25-2.605469-7.992187-2.082031-10.597656 1.164063l-14.476562 18.050781c-2.605469 3.246093-2.082032 7.992187 1.164062 10.597656 3.269531 2.621094 8.011719 2.0625 10.597656-1.164063l14.472656-18.046874c2.609376-3.25 2.085938-7.996094-1.160156-10.601563zm0 0"/>
        <path d="m504.460938 0c-17.253907 0-466.59375 0-496.921876 0-4.160156 0-7.539062 3.367188-7.539062 7.539062v493.867188c0 4.171875 3.378906 7.539062 7.539062 7.539062h422.210938c4.160156 0 7.539062-3.367187 7.539062-7.539062 0-4.164062-3.378906-7.542969-7.539062-7.542969h-414.671875v-143.882812h14.367187v90.957031c0 4.164062 3.375 7.539062 7.539063 7.539062h126.402344c4.160156 0 7.539062-3.375 7.539062-7.539062 0-4.160156-3.378906-7.539062-7.539062-7.539062h-118.863281v-83.417969h14.539062v26.121093c0 4.164063 3.375 7.539063 7.539062 7.539063 4.164063 0 7.539063-3.375 7.539063-7.539063v-26.121093h153.710937v83.417969h-34.308593c-4.160157 0-7.539063 3.378906-7.539063 7.539062 0 4.164062 3.378906 7.539062 7.539063 7.539062h281.472656c4.164063 0 7.539063-3.375 7.539063-7.539062v-90.957031h14.367187v143.882812h-37.015625c-4.160156 0-7.539062 3.378907-7.539062 7.542969 0 4.171875 3.378906 7.539062 7.539062 7.539062h44.554688c4.160156 0 7.539062-3.367187 7.539062-7.539062 0-53.863281 0-437.496094 0-493.867188 0-4.171874-3.378906-7.539062-7.539062-7.539062zm-445.398438 334.902344c-13.714844 0-30.058594 0-43.984375 0 0-9.550782 0-16.257813 0-26.78125h43.984375zm0-41.859375h-43.984375v-26.789063h43.984375zm0-41.867188h-43.984375v-26.78125h43.984375zm0-41.859375h-43.984375v-26.789062h43.984375zm0-41.871094h-43.984375v-26.777343h43.984375zm0-41.859374c-9.703125 0-33.917969 0-43.984375 0v-26.789063h43.984375zm0-41.867188h-43.984375v-26.78125h43.984375zm0-41.859375h-43.984375v-26.78125h43.984375zm15.078125-26.78125h363.71875v26.78125h-363.71875zm0 83.71875h289.300781c4.164063 0 7.539063-3.367187 7.539063-7.539063 0-4.160156-3.375-7.539062-7.539063-7.539062-1.234375 0-282.941406 0-289.300781 0v-26.78125h363.71875v26.78125h-44.257813c-4.164062 0-7.539062 3.378906-7.539062 7.539062 0 4.171876 3.375 7.539063 7.539062 7.539063h44.257813v26.789063c-11.625 0-354.492187 0-363.71875 0zm0 41.871094h363.71875v26.777343h-363.71875zm0 41.859375h363.71875v26.789062h-363.71875zm0 41.867187h363.71875v26.78125h-363.71875zm0 41.859375h363.71875v26.789063h-363.71875zm0 68.648438v-26.78125h363.71875v26.78125c-35.617187 0-326.953125 0-363.71875 0zm393.335937 98.496094h-183.328124v-40.667969c0-4.164063-3.375-7.539063-7.539063-7.539063s-7.539063 3.375-7.539063 7.539063v40.667969h-26.140624v-83.414063h26.140624v12.585937c0 4.167969 3.375 7.539063 7.539063 7.539063s7.539063-3.371094 7.539063-7.539063v-12.589843h153.710937v26.121093c0 4.164063 3.375 7.539063 7.539063 7.539063 4.164062 0 7.539062-3.375 7.539062-7.539063v-26.121093h14.539062zm29.445313-98.496094c-13.789063 0-29.867187 0-43.984375 0v-26.78125h43.984375zm0-41.859375h-43.984375v-26.789063h43.984375zm0-41.867188h-43.984375v-26.78125h43.984375zm0-41.859375h-43.984375v-26.789062h43.984375zm0-41.871094h-43.984375v-26.777343h43.984375zm0-41.859374h-43.984375v-26.789063h43.984375zm0-41.867188h-43.984375v-26.78125h43.984375zm0-41.859375h-43.984375v-26.78125h43.984375zm0 0"/>
    </g>
</svg>