<svg version="1.1" xmlns="http://www.w3.org/2000/svg" viewBox="0 0 480 480">
    <g fill="currentColor">
        <path d="M456,224c-14.133,0-24,6.301-24,15.32v27.505C419.333,241.793,399.85,224,376,224H152c-4.417-0.001-7.999,3.579-8,7.996
			c0,0.001,0,0.003,0,0.004v48.067c0.045-13.052-5.201-26.075-15.586-35.583c-19.552-17.902-49.915-16.564-67.816,2.989
			c-16.764,18.309-16.801,46.38-0.086,64.734c-4.612,0.508-8.968,2.38-12.512,5.375V115.199C48,104.434,37.461,96,24,96
			s-24,8.434-24,19.199v345.602C0,471.566,10.539,480,24,480s24-8.434,24-19.199V408h384v56.68c0,9.019,9.867,15.32,24,15.32
			s24-6.301,24-15.32V239.32C480,230.301,470.133,224,456,224z M32,460.801c-0.086,0.656-2.773,3.199-8,3.199
			c-5.25,0-7.922-2.543-8-3.199V115.199c0.078-0.656,2.75-3.199,8-3.199c5.227,0,7.914,2.543,8,3.199V460.801z M160,240h216
			c30.172,0,53.172,44.926,55.758,88H160V240z M144,280.083v38.56c-3.452-3.353-7.848-5.566-12.597-6.342
			C139.793,303.137,143.956,291.6,144,280.083z M96,248c17.673,0,32,14.327,32,32c0,17.673-14.327,32-32,32s-32-14.327-32-32
			C64.019,262.335,78.335,248.019,96,248z M432,392H48v-48.023c4.163-0.328,7.374-3.801,7.375-7.977
			c-0.077-4.331,3.364-7.909,7.695-8h64.61c4.331,0.091,7.772,3.669,7.695,8c-0.001,4.417,3.579,7.999,7.996,8
			c0.001,0,0.003,0,0.004,0H432V392z M464,462.594c-5.169,1.875-10.831,1.875-16,0V241.406c5.169-1.875,10.831-1.875,16,0V462.594z"
        />
        <path d="M137.078,176l29.07-34.879c1.986-2.386,2.413-5.705,1.094-8.516c-1.316-2.81-4.139-4.605-7.242-4.605h-48v16h30.922
			l-29.07,34.879c-2.827,3.398-2.364,8.444,1.034,11.27c1.437,1.195,3.246,1.85,5.114,1.851h48v-16H137.078z"/>
        <path d="M224.359,136l45.953-59.09c1.877-2.411,2.217-5.681,0.875-8.426c-1.344-2.743-4.132-4.483-7.188-4.484h-64v16h47.641
			l-45.953,59.09c-2.714,3.484-2.089,8.509,1.396,11.223c1.405,1.094,3.136,1.688,4.917,1.688h64v-16H224.359z"/>
        <path d="M328,96l62.398-83.199c2.652-3.533,1.939-8.546-1.594-11.199C387.419,0.562,385.733,0,384,0h-72v16h56l-62.398,83.199
			c-1.818,2.424-2.112,5.668-0.758,8.379C306.2,110.288,308.97,112,312,112h80V96H328z"/>
    </g>
</svg>
