<svg viewBox="0 0 64 64" xmlns="http://www.w3.org/2000/svg">
    <g fill="currentColor">
        <path d="m56.838 1h-49.676c-3.398 0-6.162 2.764-6.162 6.162 0 .665.106 1.32.316 1.949l.558 1.676c.841 2.52 3.19 4.213 5.847 4.213h4.384l1.506 13.552c.282 2.536 2.418 4.448 4.969 4.448h26.84c2.551 0 4.688-1.912 4.969-4.448l1.506-13.552h4.384c2.657 0 5.006-1.693 5.846-4.214l.558-1.674c.211-.63.317-1.285.317-1.95 0-3.398-2.764-6.162-6.162-6.162zm-32.838 30h-4v-8c0-1.103.897-2 2-2s2 .897 2 2zm10 0h-4v-8c0-1.103.897-2 2-2s2 .897 2 2zm10 0h-4v-8c0-1.103.897-2 2-2s2 .897 2 2zm4.402-2.668c-.147 1.324-1.138 2.363-2.402 2.611v-7.943c0-2.206-1.794-4-4-4s-4 1.794-4 4v8h-2v-8c0-2.206-1.794-4-4-4s-4 1.794-4 4v8h-2v-8c0-2.206-1.794-4-4-4s-4 1.794-4 4v7.942c-1.264-.248-2.254-1.287-2.402-2.611l-1.481-13.331h35.766zm12.384-19.853-.558 1.675c-.567 1.702-2.154 2.846-3.949 2.846h-48.558c-1.794 0-3.381-1.144-3.949-2.846l-.558-1.676c-.142-.424-.214-.867-.214-1.316 0-2.295 1.867-4.162 4.162-4.162h49.676c2.295 0 4.162 1.867 4.162 4.162 0 .449-.072.892-.214 1.317z"/>
        <path d="m15 5h-6c-1.103 0-2 .897-2 2v2c0 1.103.897 2 2 2h6c1.103 0 2-.897 2-2v-2c0-1.103-.897-2-2-2zm-6 4v-2h6l.001 2z"/>
        <path d="m51 5h2v2h-2z"/>
        <path d="m47 5h2v2h-2z"/>
        <path d="m55 5h2v2h-2z"/>
        <path d="m47 9h2v2h-2z"/>
        <path d="m51 9h2v2h-2z"/>
        <path d="m55 9h2v2h-2z"/>
        <path d="m44 40v-1h-1c-.119 0-1.799.042-3.179 2.035-.046-.063-.092-.131-.138-.193-.903-1.23-1.683-2.293-1.683-4.842v-1h-1c-.139 0-2.893.057-4.624 3.278-2.053-3.223-5.328-3.278-5.376-3.278h-1v1c0 2.559-.784 3.633-1.692 4.877-.04.055-.08.114-.12.169-1.383-2.004-3.069-2.046-3.188-2.046h-1v1c0 2.543-.995 3.833-2.147 5.327-1.337 1.733-2.853 3.697-2.853 7.673 0 6.075 3.925 10 10 10h14c6.075 0 10-3.925 10-10 0-3.976-1.516-5.94-2.853-7.673-1.152-1.494-2.147-2.784-2.147-5.327zm-19 17c0-2.396 1.358-3.719 2.672-5 .851-.83 1.724-1.68 2.115-2.773.56.31 1.213 1.043 1.213 2.773v3h2v-1c0-1.986 1.239-2.66 2.147-2.887.355 1.304 1.295 2.244 2.146 3.094.916.916 1.707 1.707 1.707 2.793 0 1.383-1.463 4-7 4s-7-2.617-7-4zm14 4h-.102c1.562-1.28 2.102-2.899 2.102-4 0-1.914-1.218-3.132-2.293-4.207-.916-.916-1.707-1.707-1.707-2.793v-1h-1c-.892 0-2.193.278-3.245 1.089-.682-2.395-2.628-3.089-3.755-3.089h-1v1c0 .845-.655 1.526-1.724 2.568-1.46 1.423-3.276 3.193-3.276 6.432 0 1.101.54 2.72 2.102 4h-.102c-3.868 0-8-2.102-8-8 0-3.294 1.183-4.828 2.436-6.452 1.055-1.367 2.139-2.772 2.465-5.084.891.739 2.099 2.642 2.099 7.536h2c0-2.56-.323-4.461-.803-5.878.228-.366.469-.713.726-1.066.846-1.159 1.791-2.453 2.023-4.879 1.456.453 4.054 2.069 4.054 7.823h2c0-1.63-.191-2.99-.506-4.132.637-2.273 1.761-3.218 2.567-3.601.238 2.346 1.137 3.57 2.01 4.759.262.357.507.708.738 1.08-.483 1.418-.809 3.324-.809 5.894h2c0-4.906 1.214-6.807 2.098-7.542.325 2.315 1.411 3.722 2.466 5.09 1.253 1.624 2.436 3.158 2.436 6.452 0 5.898-4.132 8-8 8z"/>
    </g>
</svg>