<svg xmlns="http://www.w3.org/2000/svg" viewBox="0 0 512 512">
    <g fill="currentColor">
        <path d="M467,0H45C20.187,0,0,20.187,0,45v422c0,24.813,20.187,45,45,45h422c24.813,0,45-20.187,45-45V45
			C512,20.187,491.813,0,467,0z M482,467c0,8.271-6.729,15-15,15H45c-8.271,0-15-6.729-15-15V45c0-8.271,6.729-15,15-15h422
			c8.271,0,15,6.729,15,15V467z"/>
        <path d="M256,81c-96.495,0-175,78.505-175,175s78.505,175,175,175s175-78.505,175-175S352.495,81,256,81z M256,401
			c-79.953,0-145-65.047-145-145s65.047-145,145-145s145,65.047,145,145S335.953,401,256,401z"/>
        <path d="M187,216c-22.056,0-40,17.944-40,40c0,22.056,17.944,40,40,40c22.056,0,40-17.944,40-40C227,233.944,209.056,216,187,216z
			 M187,266c-5.514,0-10-4.486-10-10c0-5.514,4.486-10,10-10c5.514,0,10,4.486,10,10C197,261.514,192.514,266,187,266z"/>
        <path d="M325,216c-22.056,0-40,17.944-40,40c0,22.056,17.944,40,40,40c22.056,0,40-17.944,40-40C365,233.944,347.056,216,325,216z
			 M325,266c-5.514,0-10-4.486-10-10c0-5.514,4.486-10,10-10c5.514,0,10,4.486,10,10C335,261.514,330.514,266,325,266z"/>
    </g>
</svg>
