<svg version="1.1" xmlns="http://www.w3.org/2000/svg" viewBox="0 0 480 480">
    <g fill="currentColor">
        <path d="M360,0H120C97.92,0.026,80.026,17.92,80,40v368c0.024,19.001,13.389,35.373,32,39.2V480h48v-32h160v32h48v-32.8
			c18.611-3.827,31.976-20.199,32-39.2V40C399.974,17.92,382.08,0.026,360,0z M144,464h-16v-16h16V464z M352,464h-16v-16h16V464z
			 M384,408c0,13.255-10.745,24-24,24H120c-13.255,0-24-10.745-24-24V40c0-13.255,10.745-24,24-24h240c13.255,0,24,10.745,24,24V408
			z"/>
        <path d="M240,160c-70.692,0-128,57.308-128,128c0.084,70.658,57.342,127.916,128,128c70.692,0,128-57.308,128-128
			S310.692,160,240,160z M240,400c-61.856,0-112-50.144-112-112c0.066-61.828,50.172-111.934,112-112c61.856,0,112,50.144,112,112
			S301.856,400,240,400z"/>
        <path d="M240,192c-53.019,0-96,42.981-96,96c0.057,52.996,43.004,95.943,96,96c53.019,0,96-42.981,96-96S293.019,192,240,192z
			 M240,368c-44.183,0-80-35.817-80-80c0.049-44.163,35.837-79.952,80-80c44.183,0,80,35.817,80,80C320,332.183,284.183,368,240,368
			z"/>
        <path d="M240,32c-30.928,0-56,25.072-56,56c0.035,30.913,25.087,55.965,56,56c30.928,0,56-25.072,56-56
			C296,57.072,270.928,32,240,32z M240,128c-22.091,0-40-17.909-40-40c0.026-22.08,17.92-39.974,40-40c22.091,0,40,17.909,40,40
			S262.091,128,240,128z"/>
        <path d="M240,64c-13.255,0-24,10.745-24,24s10.745,24,24,24s24-10.745,24-24S253.255,64,240,64z M240,96c-4.418,0-8-3.582-8-8
			s3.582-8,8-8s8,3.582,8,8S244.418,96,240,96z"/>
        <rect x="112" y="32" width="16" height="16"/>
        <rect x="352" y="32" width="16" height="16"/>
        <rect x="112" y="400" width="16" height="16"/>
        <rect x="352" y="400" width="16" height="16"/>
        <path d="M240,248c-22.091,0-40,17.909-40,40c0.026,22.08,17.92,39.974,40,40c22.091,0,40-17.909,40-40
			C280,265.909,262.091,248,240,248z M240,312c-13.255,0-24-10.745-24-24s10.745-24,24-24s24,10.745,24,24S253.255,312,240,312z"/>
        <path d="M48,280H16c-4.418,0-8,3.582-8,8s3.582,8,8,8h32c4.418,0,8-3.582,8-8S52.418,280,48,280z"/>
        <path d="M53.656,226.344l-24-24c-3.178-3.069-8.243-2.981-11.312,0.197c-2.994,3.1-2.994,8.015,0,11.115l24,24
			c3.178,3.069,8.243,2.981,11.312-0.197C56.65,234.359,56.65,229.444,53.656,226.344z"/>
        <path d="M53.46,338.344c-3.1-2.995-8.016-2.995-11.116,0l-24,24c-3.178,3.07-3.266,8.134-0.196,11.312s8.134,3.266,11.312,0.196
			c0.067-0.064,0.132-0.13,0.196-0.196l24-24C56.726,346.478,56.638,341.414,53.46,338.344z"/>
        <path d="M464,280h-32c-4.418,0-8,3.582-8,8s3.582,8,8,8h32c4.418,0,8-3.582,8-8S468.418,280,464,280z"/>
        <path d="M461.46,202.344c-3.1-2.994-8.015-2.994-11.116,0l-24,24c-3.124,3.125-3.123,8.19,0.002,11.314
			c1.5,1.499,3.534,2.342,5.654,2.342c2.122,0,4.156-0.844,5.656-2.344l24-24C464.726,210.478,464.638,205.414,461.46,202.344z"/>
        <path d="M461.656,362.344l-24-24c-3.178-3.07-8.242-2.982-11.312,0.196c-2.995,3.1-2.995,8.016,0,11.116l24,24
			c3.178,3.07,8.242,2.982,11.312-0.196C464.651,370.36,464.651,365.444,461.656,362.344z"/>
    </g>
</svg>
