<svg height="512" viewBox="0 0 512 512" width="512" xmlns="http://www.w3.org/2000/svg">
    <g fill="currentColor">
        <path d="m508.541 218.384-162.507-203.134c-7.753-9.692-19.318-15.25-31.729-15.25h-83.155c-8.703 0-15.783 7.08-15.783 15.783v16.567c0 8.703 7.08 15.783 15.783 15.783h33.917v117.533h-30.632l-120.334-150.416c-7.753-9.691-19.318-15.25-31.729-15.25h-66.589c-8.703 0-15.783 7.08-15.783 15.783v16.567c0 8.703 7.08 15.783 15.783 15.783h17.35v117.533h-17.35c-8.703.001-15.783 7.081-15.783 15.784v306.483c0 13.271 10.796 24.067 24.067 24.067h472.15c8.703 0 15.783-7.08 15.783-15.783v-74.55-143.289-50.134c0-3.571-1.228-7.073-3.459-9.86zm-62.024 195.783c-.432 0-.783-.352-.783-.783v-74.55-121.908l18.134 22.667v174.574zm-231.934 0c-.432 0-.784-.352-.784-.783v-67.05h18.133v67.833zm-66.266-82.834c-.432 0-.784-.352-.784-.784v-67.049h18.133v67.833zm-66.267-82.833c-.432 0-.783-.352-.783-.783v-67.05h18.133v67.833zm83.616-91.741v8.908h-18.133v-31.574zm66.267 82.833v8.908h-18.133v-31.574zm81.267 8.125v-196.428c.072.084.152.16.222.247l17.911 22.389v174.575h-17.35c-.431 0-.783-.352-.783-.783zm117.533 50.483h-18.133v-122.691l18.134 22.667v100.024zm-18.133 15h18.134v18.133h-18.134zm-15 18.133h-17.35c-.432 0-.783-.352-.783-.784v-74.549-121.908l18.133 22.666zm-33.133-115.966h-18.134v-122.691l18.134 22.667zm-18.134 15h18.134v18.133h-18.134zm18.134 33.133v67.05c0 .264.027.522.04.784h-84.44v-52.955-14.879zm-99.401 17.509v100.024h-18.133v-122.691l5.086 6.357zm-150.666-188.333 18.133 22.667v100.024h-18.133zm33.133 87.991h18.133v67.833h-18.133zm33.133-5.158 18.133 22.667v100.024h-18.133zm33.134 87.991h18.133v67.833h-18.133zm-114.4-97.833h-18.133v-114.378c.073.084.152.16.222.247l17.911 22.39zm15 64.7h18.133v18.133h-18.133zm66.266 82.833h18.134v18.133h-18.133v-18.133zm66.267 82.833h18.133v18.133h-18.133zm33.133-49.7h150.667v67.05c0 .264.027.522.04.783h-150.707zm207.316-77.346 9.618 12.022v100.024h-18.133v-122.69zm-8.515 127.046h18.133v18.133h-18.133zm-248.5-363.683v-16.567c0-.432.352-.783.783-.783h83.155c7.83 0 15.125 3.506 20.017 9.62l162.507 203.134c0 .001.001.001.002.002.109.137.17.311.17.488v28.753l-171.866-214.831c-4.593-5.74-11.442-9.032-18.793-9.032h-.642-74.55c-.432-.001-.783-.352-.783-.784zm67.833 15.783v84.4h-18.134v-84.4zm-18.134 99.4h18.134v18.133h-18.134zm18.134 33.134v67.05c0 .264.027.522.04.783h-18.174v-20.256c0-3.57-1.228-7.072-3.458-9.859 0-.001 0-.001 0-.001l-30.174-37.718h51.766zm-283.2-148.317v-16.567c0-.431.352-.783.783-.783h66.588c7.83 0 15.125 3.506 20.016 9.62l162.508 203.134c.11.138.171.313.171.49v28.754l-171.865-214.832c-4.592-5.74-11.442-9.033-18.793-9.033h-.642-57.983c-.431 0-.783-.351-.783-.783zm51.267 15.783v84.4h-18.134v-84.4zm-18.134 99.4h18.133v18.133h-18.133zm-24.066 349.467c-5 0-9.067-4.067-9.067-9.067v-306.483c0-.432.352-.784.783-.784h50.483v67.05c0 8.703 7.08 15.783 15.783 15.783h50.483v67.05c0 8.703 7.081 15.784 15.784 15.784h50.484v67.05c0 8.703 7.081 15.783 15.784 15.783h50.483v67.05c0 .432-.352.783-.783.783h-240.217zm472.933-.783c0 .432-.352.783-.783.783h-216.19c.013-.261.04-.519.04-.783v-67.05h216.933z"/>
    </g>
</svg>