<svg version="1.1" xmlns="http://www.w3.org/2000/svg" viewBox="0 0 511.998 511.998">
    <g fill="currentColor">
        <path d="M501.998,30.598h-152c-5.523,0-10,4.477-10,10v40.003c0,5.523,4.477,10,10,10h20.001v74.794h-190
				c-5.522,0-10,4.477-10,10v40.002c0,5.523,4.478,10,10,10H200v74.796H10c-5.523,0-10,4.477-10,10v40.001c0,5.523,4.477,10,10,10
				h13.996V471.4c0,5.523,4.477,10,10,10h181.76c2.256,0,4.445-0.763,6.213-2.165l286.243-226.972
				c2.392-1.896,3.786-4.782,3.786-7.835V80.601V40.598C511.998,35.075,507.522,30.598,501.998,30.598z M189.999,205.397v-20.002
				h180v20.002H189.999z M20,340.194v-20.001h180v20.001H20z M491.998,109.879h-41.035c-5.523,0-10,4.477-10,10
				c0,5.523,4.477,10,10,10h41.035v109.715L212.271,461.4H43.996v-62.253h41.036c5.522,0,10-4.477,10-10s-4.478-10-10-10H43.996
				v-18.953H210c5.523,0,10-4.477,10-10v-40.001v-84.796h159.999c5.523,0,10-4.477,10-10v-40.002V90.601h101.999V109.879z
				 M491.998,70.601h-132V50.598h132V70.601z"/>
        <path d="M114,379.144h-0.236c-5.524,0-10,4.477-10,10s4.476,10,10,10H114c5.522,0,10-4.477,10-10S119.522,379.144,114,379.144z"/>
        <path d="M421.998,129.88h0.235c5.522,0,10-4.477,10-10s-4.478-10-10-10h-0.235c-5.523,0-10,4.477-10,10
				S416.475,129.88,421.998,129.88z"/>
    </g>
</svg>
