<svg height="512" viewBox="0 0 64 64" width="512" xmlns="http://www.w3.org/2000/svg">
    <g fill="currentColor">
        <path d="m5.518 64h2.986c.553 0 1-.447 1-1v-2.021h44.992v2.021c0 .553.447 1 1 1h3c.553 0 1-.447 1-1v-60.5c0-1.378-1.121-2.5-2.5-2.5s-2.5 1.122-2.5 2.5v15.504h-2.998v-13.996c0-.552-.447-1-1-1h-15.996c-.553 0-1 .448-1 1v13.995h-3.002v-13.995c0-.552-.447-1-1-1h-15.996c-.553 0-1 .448-1 1v13.995h-3v-15.503c0-1.378-1.121-2.5-2.5-2.5s-2.5 1.122-2.5 2.5l.014 60.5c0 .553.447 1 1 1zm50.978-61.5c0-.276.225-.5.5-.5s.5.224.5.5v59.5h-1zm-14.998 2.508h2.002v1.008h-2.002zm-5.996 0h3.996v2.008c0 .552.447 1 1 1h4.002c.553 0 1-.448 1-1v-2.008h3.998v12.995h-13.996zm-15.002 0h2v1.008h-2zm-5.996 0h3.996v2.008c0 .552.447 1 1 1h4c.553 0 1-.448 1-1v-2.008h4v12.995h-13.996zm-5 14.995h4 15.996 5.002 15.996 3.998v1h-44.992zm0 3h44.992v13.971h-2.996v-10.99c0-.552-.447-1-1-1h-37c-.553 0-1 .448-1 1v10.991h-2.996zm19.996 6.981h5c.553 0 1-.448 1-1v-2h14v9.991h-35v-9.991h14v2c0 .552.447 1 1 1zm1-2v-1h3v1zm-20.996 10.991h3.996 37 3.996v1.002h-44.992zm0 3.002h44.992v14h-2.994v-11.99c0-.553-.447-1-1-1h-14.002c-.553 0-1 .447-1 1v11.99h-2.994v-8.988c0-.553-.447-1-1-1h-6.994c-.004 0-.006-.002-.01-.002s-.006.002-.01.002h-3.982c-.004 0-.006-.002-.01-.002s-.006.002-.01.002h-6.986c-.553 0-1 .447-1 1v8.988h-3zm31.996 6.017h4.002c.553 0 1-.447 1-1v-2.008h3v10.99h-12.002v-10.99h3v2.008c0 .553.447 1 1 1zm1-2v-1.008h2.002v1.008zm-22 5h4.002c.553 0 1-.447 1-1v-2.006h5.004v7.988h-16.002v-7.988h4.996v2.006c0 .553.447 1 1 1zm1-2v-1.006h2.002v1.006zm-11.996 8.983h4 18.002 4.994 14.002 3.994v1.002h-44.992zm-2.5-55.977c.275 0 .5.224.5.5v59.5h-.986l-.014-59.5c0-.276.225-.5.5-.5z"/>
    </g>
</svg>