<svg height="512pt" viewBox="0 0 512 512" width="512pt" xmlns="http://www.w3.org/2000/svg">
    <g fill="currentColor">
        <path d="m512 56.164062c0-12.796874-10.40625-23.203124-23.203125-23.203124h-49.96875v-15.046876c0-9.878906-8.035156-17.914062-17.914063-17.914062h-103.089843c-9.878907 0-17.914063 8.039062-17.914063 17.914062v15.046876h-87.816406v-15.046876c0-9.878906-8.039062-17.914062-17.917969-17.914062h-103.089843c-9.878907 0-17.914063 8.039062-17.914063 17.914062v15.046876h-49.96875c-12.796875 0-23.203125 10.40625-23.203125 23.203124v49.5c0 6.050782 2.328125 11.5625 6.136719 15.699219-3.808594 4.132813-6.136719 9.648438-6.136719 15.699219v305.808594c0 12.792968 10.40625 23.203125 23.203125 23.203125h2.378906v22.453125c0 12.78125 10.398438 23.175781 23.179688 23.175781h232.617187c4.144532 0 7.503906-3.359375 7.503906-7.5 0-4.144531-3.359374-7.503906-7.503906-7.503906h-232.617187c-4.507813 0-8.171875-3.667969-8.171875-8.171875v-22.453125h430.820312v22.453125c0 4.507812-3.664062 8.171875-8.171875 8.171875h-147.125c-4.148437 0-7.503906 3.359375-7.503906 7.503906 0 4.140625 3.355469 7.5 7.503906 7.5h147.125c12.78125 0 23.179688-10.394531 23.179688-23.175781v-22.453125h2.378906c12.792969 0 23.203125-10.410157 23.203125-23.203125v-305.808594c0-6.050781-2.332031-11.566406-6.136719-15.699219 3.804688-4.136719 6.136719-9.648437 6.136719-15.699219zm-197.085938-38.25c0-1.605468 1.304688-2.90625 2.910157-2.90625h103.089843c1.605469 0 2.910157 1.304688 2.910157 2.90625v15.046876h-108.910157zm-226.738281 0c0-1.605468 1.304688-2.90625 2.910157-2.90625h103.089843c1.605469 0 2.910157 1.304688 2.910157 2.90625v15.046876h-108.910157zm408.816407 424.957032c0 4.519531-3.675782 8.199218-8.195313 8.199218h-465.59375c-4.519531 0-8.195313-3.679687-8.195313-8.199218v-305.808594c0-4.519531 3.675782-8.199219 8.195313-8.199219h465.59375c4.523437 0 8.195313 3.679688 8.195313 8.199219zm0-337.207032c0 4.519532-3.675782 8.195313-8.195313 8.195313h-465.59375c-4.519531 0-8.195313-3.675781-8.195313-8.195313v-49.5c0-4.523437 3.675782-8.199218 8.195313-8.199218h465.59375c4.519531 0 8.195313 3.675781 8.195313 8.199218zm0 0"/>
        <path d="m106.097656 55.152344c-14.207031 0-25.761718 11.554687-25.761718 25.757812 0 14.207032 11.554687 25.761719 25.761718 25.761719 14.203125 0 25.761719-11.554687 25.761719-25.761719 0-14.203125-11.558594-25.757812-25.761719-25.757812zm0 36.515625c-5.929687 0-10.753906-4.824219-10.753906-10.753907 0-5.929687 4.824219-10.757812 10.753906-10.757812 5.929688 0 10.753906 4.828125 10.753906 10.757812 0 5.929688-4.824218 10.753907-10.753906 10.753907zm0 0"/>
        <path d="m179.167969 55.152344c-14.207031 0-25.761719 11.554687-25.761719 25.757812 0 14.207032 11.554688 25.761719 25.761719 25.761719 14.203125 0 25.757812-11.554687 25.757812-25.761719 0-14.203125-11.554687-25.757812-25.757812-25.757812zm0 36.515625c-5.933594 0-10.757813-4.824219-10.757813-10.753907 0-5.929687 4.824219-10.757812 10.757813-10.757812 5.929687 0 10.753906 4.828125 10.753906 10.757812 0 5.929688-4.824219 10.753907-10.753906 10.753907zm0 0"/>
        <path d="m332.832031 55.152344c-14.203125 0-25.757812 11.554687-25.757812 25.757812 0 14.207032 11.554687 25.761719 25.757812 25.761719 14.207031 0 25.761719-11.554687 25.761719-25.761719 0-14.203125-11.554688-25.757812-25.761719-25.757812zm0 36.515625c-5.929687 0-10.753906-4.824219-10.753906-10.753907 0-5.929687 4.824219-10.757812 10.753906-10.757812 5.933594 0 10.757813 4.828125 10.757813 10.757812 0 5.929688-4.824219 10.753907-10.757813 10.753907zm0 0"/>
        <path d="m405.902344 55.152344c-14.203125 0-25.761719 11.554687-25.761719 25.757812 0 14.207032 11.558594 25.761719 25.761719 25.761719 14.207031 0 25.761718-11.554687 25.761718-25.761719 0-14.203125-11.554687-25.757812-25.761718-25.757812zm0 36.515625c-5.929688 0-10.753906-4.824219-10.753906-10.753907 0-5.929687 4.824218-10.757812 10.753906-10.757812 5.929687 0 10.753906 4.828125 10.753906 10.757812 0 5.929688-4.824219 10.753907-10.753906 10.753907zm0 0"/>
        <path d="m434.742188 171.9375h-218.148438c-4.144531 0-7.503906 3.359375-7.503906 7.5 0 4.144531 3.359375 7.503906 7.503906 7.503906h218.148438c1.4375 0 2.605468 1.171875 2.605468 2.609375v19.851563c0 1.4375-1.167968 2.609375-2.605468 2.609375h-357.484376c-1.4375 0-2.605468-1.171875-2.605468-2.609375v-19.851563c0-1.4375 1.167968-2.609375 2.605468-2.609375h104.269532c4.144531 0 7.503906-3.359375 7.503906-7.503906 0-4.140625-3.359375-7.5-7.503906-7.5h-104.269532c-9.710937 0-17.609374 7.898438-17.609374 17.613281v19.851563c0 9.710937 7.898437 17.613281 17.609374 17.613281h10.035157v166.464844c0 14.277343 11.617187 25.894531 25.894531 25.894531h285.625c14.277344 0 25.894531-11.617188 25.894531-25.894531v-166.464844h10.035157c9.710937 0 17.613281-7.898437 17.613281-17.613281v-19.851563c0-9.710937-7.902344-17.613281-17.613281-17.613281zm-25.042969 221.542969c0 6.003906-4.882813 10.886719-10.886719 10.886719h-285.625c-6.003906 0-10.890625-4.882813-10.890625-10.886719v-166.464844h307.402344zm0 0"/>
        <path d="m152.542969 294.859375c2.023437 0 4.042969-.816406 5.523437-2.421875l23.011719-25.015625c2.808594-3.050781 2.609375-7.796875-.441406-10.601563-3.050781-2.804687-7.792969-2.609374-10.601563.441407l-23.011718 25.015625c-2.804688 3.046875-2.609376 7.792968.441406 10.601562 1.441406 1.324219 3.261718 1.980469 5.078125 1.980469zm0 0"/>
        <path d="m154.1875 324.136719c1.441406 1.328125 3.261719 1.980469 5.078125 1.980469 2.023437 0 4.042969-.816407 5.523437-2.421876l47.316407-51.429687c2.804687-3.050781 2.609375-7.796875-.441407-10.605469-3.050781-2.804687-7.796874-2.605468-10.601562.441406l-47.316406 51.433594c-2.804688 3.046875-2.605469 7.796875.441406 10.601563zm0 0"/>
    </g>
</svg>