<svg version="1.1" xmlns="http://www.w3.org/2000/svg" viewBox="0 0 511.999 511.999">
    <g fill="currentColor">
        <path d="M173.832,225.263h-43.039c-4.142,0-7.5,3.358-7.5,7.5v60.134c0,4.142,3.357,7.5,7.5,7.5h43.039c4.142,0,7.5-3.358,7.5-7.5
			v-60.134C181.332,228.622,177.974,225.263,173.832,225.263z M166.331,285.397h-28.038v-45.133h28.038V285.397z"/>
        <path d="M459.127,201.193c3.314,2.278,8.091,1.471,10.43-1.932c0,0,23.009-33.469,23.029-33.498
			c2.315-3.368,1.428-8.121-1.932-10.431L271.763,4.861c-9.429-6.48-22.097-6.481-31.526,0c0,0-139.762,96.077-140.273,96.428
			c-7.911,5.438,0.429,17.91,8.497,12.363l140.274-96.429c4.347-2.987,10.187-2.987,14.531-0.001l212.709,146.224l-14.531,21.137
			c0,0-201.143-138.272-201.195-138.308c-2.495-1.715-5.999-1.718-8.498-0.001L50.557,184.583l-14.53-21.137
			c0,0,47.117-32.39,47.289-32.509c7.807-5.366-0.416-17.917-8.498-12.362c0,0-53.301,36.64-53.471,36.757
			c-3.374,2.32-4.241,7.071-1.933,10.431l21.709,31.579v307.156c0,4.142,3.358,7.5,7.5,7.5H256c4.142,0,7.5-3.358,7.5-7.5V395.971
			H402.64v108.528c0,4.142,3.358,7.5,7.501,7.5h30.488c4.142,0,7.5-3.358,7.5-7.5V395.971h23.769c4.142,0,7.5-3.358,7.5-7.5v-30.487
			c0-4.143-3.358-7.5-7.5-7.5h-23.769v-57.259h23.769c4.142,0,7.5-3.358,7.5-7.5v-30.488c0-4.142-3.358-7.5-7.5-7.5h-23.769v-54.103
			L459.127,201.193z M417.641,186.876h15.487v60.858h-15.487V186.876z M256,61.556l39.075,26.861h-78.149L256,61.556z
			 M56.125,270.332h38.399v53.055c0,4.141,3.358,7.5,7.5,7.5H202.6c4.142,0,7.501-3.358,7.501-7.5v-53.055h38.398v68.456H56.125
			V270.332z M109.525,315.886V209.777h85.575v106.109H109.525z M94.524,496.998H56.125v-59.754h38.399V496.998z M166.331,496.997
			h-28.038v-85.783h28.038V496.997z M195.099,496.997h-13.767v-93.283c0-4.142-3.358-7.5-7.5-7.5h-43.039
			c-4.142,0-7.501,3.358-7.501,7.5v93.283h-13.768V380.727h85.575V496.997z M248.499,496.998H210.1v-59.754h38.398V496.998z
			 M248.5,422.244h-38.399v-49.018c-0.001-4.142-3.359-7.5-7.502-7.5H102.024c-4.142,0-7.5,3.358-7.5,7.501v49.018H56.125v-68.456
			H248.5V422.244z M248.5,255.225c0,0.003,0,0.006,0,0.01v0.096h-38.399v-53.055c0-4.142-3.358-7.5-7.5-7.5H102.024
			c-4.142,0-7.5,3.358-7.5,7.5v53.055H56.125v-56.373l17.663-12.143c0.297,0.036,0.597,0.06,0.904,0.06H248.5V255.225z
			 M95.523,171.875l99.581-68.456h121.793l99.581,68.456h-6.336H95.523z M402.64,186.876v60.858H263.501v-60.858H402.64z
			 M263.501,293.223h15.486v57.259h-15.486V293.223z M433.128,496.998h-15.487V395.971h15.487V496.998z M464.397,365.484v15.486
			H263.501v-15.486H464.397z M293.988,350.482v-57.259h15.487v57.259H293.988z M324.476,350.482v-57.259h16.337v57.259H324.476z
			 M355.814,350.482v-57.259h15.487v57.259H355.814z M386.302,350.482v-57.259h16.337v57.259H386.302z M417.641,350.482v-57.259
			h15.487v57.259H417.641z M464.397,262.735v15.487H263.501v-15.487H464.397z"/>
    </g>
</svg>
