<svg version="1.1" xmlns="http://www.w3.org/2000/svg" viewBox="0 0 187.733 187.733">
    <g fill="currentColor">
        <path d="M187.599,151.458L153.465,33.186c-0.422-1.461-1.758-2.466-3.279-2.466H37.547c-1.521,0-2.857,1.005-3.279,2.466
			L0.135,151.458C0.044,151.765,0,152.085,0,152.405v25.088c0,1.884,1.529,3.413,3.413,3.413H184.32
			c1.884,0,3.413-1.529,3.413-3.413v-25.088C187.733,152.085,187.687,151.765,187.599,151.458z M180.907,174.08H6.827v-21.192
			L40.115,37.547H147.62l33.287,115.342V174.08z"/>
        <path d="M78.507,6.827c-1.884,0-3.413,1.529-3.413,3.413v51.2c0,1.884,1.529,3.413,3.413,3.413s3.413-1.529,3.413-3.413v-51.2
			C81.92,8.356,80.391,6.827,78.507,6.827z"/>
        <path d="M109.227,6.827c-1.884,0-3.413,1.529-3.413,3.413v51.2c0,1.884,1.529,3.413,3.413,3.413c1.884,0,3.413-1.529,3.413-3.413
			v-51.2C112.64,8.356,111.111,6.827,109.227,6.827z"/>
        <path d="M109.227,17.067h-30.72c-1.884,0-3.413,1.529-3.413,3.413s1.529,3.413,3.413,3.413h30.72c1.884,0,3.413-1.529,3.413-3.413
			S111.111,17.067,109.227,17.067z"/>
        <path d="M109.227,30.72h-30.72c-1.884,0-3.413,1.529-3.413,3.413s1.529,3.413,3.413,3.413h30.72c1.884,0,3.413-1.529,3.413-3.413
			S111.111,30.72,109.227,30.72z"/>
        <path d="M109.227,44.373h-30.72c-1.884,0-3.413,1.529-3.413,3.413s1.529,3.413,3.413,3.413h30.72c1.884,0,3.413-1.529,3.413-3.413
			S111.111,44.373,109.227,44.373z"/>
        <path d="M163.789,146.179l-17.516-98.987c-0.288-1.63-1.705-2.818-3.36-2.818H48.328c-1.613,0-3.005,1.126-3.34,2.703
			l-21.019,98.987c-0.213,1.007,0.038,2.057,0.686,2.857c0.649,0.8,1.621,1.265,2.652,1.265h133.12c1.009,0,1.966-0.447,2.616-1.219
			C163.691,148.195,163.965,147.174,163.789,146.179z M31.52,143.36L51.089,51.2h88.958l16.309,92.16H31.52z"/>
    </g>
</svg>
