<svg height="512" viewBox="0 0 512 512" width="512" xmlns="http://www.w3.org/2000/svg">
    <g fill="currentColor">
        <path d="m97.5 220.361-15.914 15.914a6 6 0 1 0 8.484 8.486l15.915-15.915a6 6 0 1 0 -8.484-8.485z"/>
        <path d="m95.51 117a6 6 0 0 0 4.243-10.242l-15.914-15.915a6 6 0 0 0 -8.486 8.486l15.914 15.914a5.978 5.978 0 0 0 4.243 1.757z"/>
        <path d="m235.5 242.508-15.91-15.914a6 6 0 0 0 -8.486 8.485l15.914 15.915a6 6 0 0 0 8.486-8.486z"/>
        <path d="m86.826 171a6 6 0 0 0 -6-6h-24.837a6 6 0 0 0 0 12h24.837a6 6 0 0 0 6-6z"/>
        <path d="m155 239.521a6 6 0 0 0 -6 6v24.836a6 6 0 0 0 12 0v-24.836a6 6 0 0 0 -6-6z"/>
        <path d="m438.852 451.969a41.837 41.837 0 0 0 -41.166-35.969h-28.686v-326.684a69.309 69.309 0 0 0 -121.7-45.382 56.022 56.022 0 0 0 -48.709 6.349l-81.519 54.068a6 6 0 0 0 -.925 9.242l23.422 23.423-1.442 1.442a35.188 35.188 0 0 0 49.763 49.763l1.442-1.442 23.422 23.421a6 6 0 0 0 4.246 1.759c.2 0 .4-.01.6-.03a6 6 0 0 0 4.4-2.654l54.067-81.519a56.088 56.088 0 0 0 3.488-55.656 26.386 26.386 0 0 1 46.445 17.216v326.684h-29.182a42 42 0 0 0 -41.343 36.076 26.4 26.4 0 0 0 -22.475 25.956v7.968a6.282 6.282 0 0 0 6.319 6h216.692a5.992 5.992 0 0 0 5.989-6v-7.968a26.247 26.247 0 0 0 -23.148-26.063zm-259.452-272.234a23.188 23.188 0 0 1 -32.793-32.792l1.443-1.443 32.793 32.793zm36.648 16.794-86.23-86.229 18.093-12 80.14 80.14zm50.012-75.4-31.246 47.11-76.7-76.705 47.11-31.246a43.894 43.894 0 0 1 60.84 60.841zm33.528-70.272a38.252 38.252 0 0 0 -26.688 10.823 54.62 54.62 0 0 0 -14.186-12.435 57.31 57.31 0 0 1 98.286 40.071v326.684h-19v-326.684a38.461 38.461 0 0 0 -38.409-38.464zm-2.77 377.143h100.868c14.259 0 26.195 11 28.976 24h-158.819c2.781-13 14.716-24 28.975-24zm153.182 52h-205v-1.968a14.32 14.32 0 0 1 14.319-14.032h176.692a14.034 14.034 0 0 1 13.989 14.032z"/>
        <path d="m305 381.031a6 6 0 0 0 12 0v-75.806a6 6 0 0 0 -12 0z"/>
        <path d="m311 290.844a6 6 0 0 0 6-6v-4.834a6 6 0 0 0 -12 0v4.834a6 6 0 0 0 6 6z"/>
    </g>
</svg>