<svg xmlns="http://www.w3.org/2000/svg" viewBox="0 0 512 512">
    <g fill="currentColor">
        <path d="M352,385.406V53.333C352,23.927,328.073,0,298.667,0s-53.333,23.927-53.333,53.333v332.073
				C231.719,399.365,224,418.031,224,437.333C224,478.5,257.5,512,298.667,512c41.167,0,74.667-33.5,74.667-74.667
				C373.333,418.031,365.615,399.365,352,385.406z M298.667,490.667c-29.406,0-53.333-23.927-53.333-53.333
				c0-15.104,6.323-29.125,17.813-39.469c2.24-2.031,3.521-4.906,3.521-7.927V53.333c0-17.646,14.354-32,32-32
				c17.646,0,32,14.354,32,32v336.604c0,3.021,1.281,5.896,3.521,7.927C345.677,408.208,352,422.229,352,437.333
				C352,466.74,328.073,490.667,298.667,490.667z"/>
        <path d="M309.333,407.298V224c0-5.896-4.771-10.667-10.667-10.667c-5.896,0-10.667,4.771-10.667,10.667v183.298
				c-12.389,4.418-21.333,16.147-21.333,30.035c0,17.646,14.354,32,32,32c17.646,0,32-14.354,32-32
				C330.667,423.445,321.723,411.716,309.333,407.298z M298.667,448c-5.885,0-10.667-4.781-10.667-10.667
				c0-5.885,4.781-10.667,10.667-10.667c5.885,0,10.667,4.781,10.667,10.667C309.333,443.219,304.552,448,298.667,448z"/>
        <path d="M213.333,341.333h-64c-5.896,0-10.667,4.771-10.667,10.667c0,5.896,4.771,10.667,10.667,10.667h64
				c5.896,0,10.667-4.771,10.667-10.667C224,346.104,219.229,341.333,213.333,341.333z"/>
        <path d="M213.333,298.667H192c-5.896,0-10.667,4.771-10.667,10.667c0,5.896,4.771,10.667,10.667,10.667h21.333
				c5.896,0,10.667-4.771,10.667-10.667C224,303.438,219.229,298.667,213.333,298.667z"/>
        <path d="M213.333,256H192c-5.896,0-10.667,4.771-10.667,10.667c0,5.896,4.771,10.667,10.667,10.667h21.333
				c5.896,0,10.667-4.771,10.667-10.667C224,260.771,219.229,256,213.333,256z"/>
        <path d="M149.333,234.667h64c5.896,0,10.667-4.771,10.667-10.667s-4.771-10.667-10.667-10.667h-64
				c-5.896,0-10.667,4.771-10.667,10.667S143.438,234.667,149.333,234.667z"/>
        <path d="M149.333,106.667h64c5.896,0,10.667-4.771,10.667-10.667s-4.771-10.667-10.667-10.667h-64
				c-5.896,0-10.667,4.771-10.667,10.667S143.438,106.667,149.333,106.667z"/>
        <path d="M213.333,170.667H192c-5.896,0-10.667,4.771-10.667,10.667c0,5.896,4.771,10.667,10.667,10.667h21.333
				c5.896,0,10.667-4.771,10.667-10.667C224,175.438,219.229,170.667,213.333,170.667z"/>
        <path d="M213.333,128H192c-5.896,0-10.667,4.771-10.667,10.667c0,5.896,4.771,10.667,10.667,10.667h21.333
				c5.896,0,10.667-4.771,10.667-10.667C224,132.771,219.229,128,213.333,128z"/>
    </g>
</svg>
