<svg xmlns="http://www.w3.org/2000/svg" viewBox="0 0 64 64" width="512" height="512">
    <g fill="currentColor">
        <path d="M51,57H48.414l-.879-.879a8.587,8.587,0,0,1-2.471-5.112C51.153,48.587,55.607,41.934,55.957,34H56a1,1,0,0,0,1-1V30a1,1,0,0,0-1-1H52.464a19.582,19.582,0,0,0,1.673-4H57a1,1,0,0,0,1-1V4a1,1,0,0,0-1-1H46.841A12.7,12.7,0,0,0,33.159,3H23a1,1,0,0,0-1,1V24a1,1,0,0,0,1,1h2.863a19.582,19.582,0,0,0,1.673,4H24a1,1,0,0,0-1,1v3a1,1,0,0,0,1,1h.043c.35,7.934,4.8,14.587,10.893,17.009a8.587,8.587,0,0,1-2.471,5.112L31.586,57H29a1,1,0,0,0-1,1v4a1,1,0,0,0,1,1H51a1,1,0,0,0,1-1V58A1,1,0,0,0,51,57ZM56,5V23H54.611A21.447,21.447,0,0,0,55,19,19.493,19.493,0,0,0,49.407,5ZM24,23V5h6.593A19.493,19.493,0,0,0,25,19a21.447,21.447,0,0,0,.389,4Zm3-4c0-8.822,5.832-16,13-16s13,7.178,13,16a18.407,18.407,0,0,1-2.872,10H47.682A16,16,0,0,0,51,19c0-7.72-4.935-14-11-14S29,11.28,29,19a16,16,0,0,0,3.318,10H29.872A18.407,18.407,0,0,1,27,19Zm8.061,10A13.308,13.308,0,0,1,31,19c0-6.617,4.037-12,9-12s9,5.383,9,12a13.308,13.308,0,0,1-4.061,10ZM25,31H55v1H25Zm1.042,3H53.958C53.528,42.908,47.442,50,40,50S26.472,42.908,26.042,34ZM36.864,51.629a13.44,13.44,0,0,0,6.272,0A10.539,10.539,0,0,0,45.636,57H34.364A10.539,10.539,0,0,0,36.864,51.629ZM50,61H30V59H50Z"/>
        <rect x="25" y="6" width="2" height="2"/>
        <path d="M23,57h-.08A7.01,7.01,0,0,0,19,51.685V48a1,1,0,0,0-1-1H17V26.816a3,3,0,1,0-2,0V47H14a1,1,0,0,0-1,1v3.685A7.01,7.01,0,0,0,9.08,57H9a3,3,0,0,0,0,6H23a3,3,0,0,0,0-6ZM16,23a1,1,0,1,1-1,1A1,1,0,0,1,16,23ZM15,49h2v2.08a6.29,6.29,0,0,0-2,0Zm1,4a5.006,5.006,0,0,1,5,5H11A5.006,5.006,0,0,1,16,53Zm7,8H9a1,1,0,0,1,0-2,1,1,0,0,0,1,1H22a1,1,0,0,0,1-1,1,1,0,0,1,0,2Z"/>
        <path d="M8,15a1,1,0,0,0,1-1,5.006,5.006,0,0,1,5-5,1,1,0,0,0,0-2A5.006,5.006,0,0,1,9,2,1,1,0,0,0,7,2,5.006,5.006,0,0,1,2,7,1,1,0,0,0,2,9a5.006,5.006,0,0,1,5,5A1,1,0,0,0,8,15ZM5.6,8A7.066,7.066,0,0,0,8,5.6,7.066,7.066,0,0,0,10.4,8,7.066,7.066,0,0,0,8,10.4,7.066,7.066,0,0,0,5.6,8Z"/>
        <path d="M14,11a3,3,0,0,1-3,3,1,1,0,0,0,0,2,3,3,0,0,1,3,3,1,1,0,0,0,2,0,3,3,0,0,1,3-3,1,1,0,0,0,0-2,3,3,0,0,1-3-3,1,1,0,0,0-2,0Zm2,4a5.017,5.017,0,0,0-1,1,5.017,5.017,0,0,0-1-1,5.017,5.017,0,0,0,1-1A5.017,5.017,0,0,0,16,15Z"/>
        <path d="M62,48a3,3,0,0,1-3-3,1,1,0,0,0-2,0,3,3,0,0,1-3,3,1,1,0,0,0,0,2,3,3,0,0,1,3,3,1,1,0,0,0,2,0,3,3,0,0,1,3-3,1,1,0,0,0,0-2Zm-4,2a5.017,5.017,0,0,0-1-1,5.017,5.017,0,0,0,1-1,5.017,5.017,0,0,0,1,1A5.017,5.017,0,0,0,58,50Z"/>
    </g>
</svg>
