<svg height="512" viewBox="0 0 128 128" width="512" xmlns="http://www.w3.org/2000/svg">
    <g fill="currentColor">
        <path d="m122.25 17.266h-116.5a5.756 5.756 0 0 0 -5.75 5.75v67.994a5.757 5.757 0 0 0 5.75 5.75h9.883l-3.068 4.44a6.079 6.079 0 0 0 10 6.912l7.847-11.352h67.176l7.844 11.351a6.079 6.079 0 0 0 10-6.912l-3.068-4.439h9.883a5.757 5.757 0 0 0 5.753-5.75v-67.994a5.756 5.756 0 0 0 -5.75-5.75zm-102.561 88.856a2.582 2.582 0 0 1 -2.122 1.112 2.58 2.58 0 0 1 -2.123-4.046l4.443-6.428h6.271zm92.867-2.934a2.58 2.58 0 0 1 -2.123 4.046 2.585 2.585 0 0 1 -2.123-1.112l-6.468-9.362h6.271zm11.944-12.178a2.253 2.253 0 0 1 -2.25 2.25h-116.5a2.253 2.253 0 0 1 -2.25-2.25v-67.994a2.253 2.253 0 0 1 2.25-2.25h116.5a2.253 2.253 0 0 1 2.25 2.25z"/>
        <path d="m118.25 25.266h-108.5a1.749 1.749 0 0 0 -1.75 1.75v59.994a1.75 1.75 0 0 0 1.75 1.75h108.5a1.75 1.75 0 0 0 1.75-1.75v-59.994a1.749 1.749 0 0 0 -1.75-1.75zm-1.75 59.994h-105v-56.494h105z"/>
        <path d="m41.375 47.922h7.3v19.932a1.75 1.75 0 0 0 3.5 0v-19.932h7.3a1.75 1.75 0 0 0 0-3.5h-18.1a1.75 1.75 0 0 0 0 3.5z"/>
        <path d="m75.963 68.527a1.749 1.749 0 0 0 3.23 0l9.047-21.681a1.75 1.75 0 1 0 -3.23-1.346l-7.432 17.809-7.432-17.809a1.75 1.75 0 1 0 -3.23 1.348z"/>
    </g>
</svg>