<svg viewBox="0 0 480 480" xmlns="http://www.w3.org/2000/svg">
    <g fill="currentColor">
        <path d="m440 96c-4.417969 0-8-3.582031-8-8-.027344-22.082031-17.917969-39.972656-40-40-4.417969 0-8-3.582031-8-8s3.582031-8 8-8c30.914062.035156 55.964844 25.085938 56 56 0 4.417969-3.582031 8-8 8zm0 0"/>
        <path d="m408 96c-4.417969 0-8-3.582031-8-8s-3.582031-8-8-8-8-3.582031-8-8 3.582031-8 8-8c13.253906 0 24 10.746094 24 24 0 4.417969-3.582031 8-8 8zm0 0"/>
        <path d="m472 96c-4.417969 0-8-3.582031-8-8-.046875-39.746094-32.253906-71.953125-72-72-4.417969 0-8-3.582031-8-8s3.582031-8 8-8c48.578125.0585938 87.941406 39.421875 88 88 0 4.417969-3.582031 8-8 8zm0 0"/>
        <path d="m40 96c-4.417969 0-8-3.582031-8-8 .035156-30.914062 25.085938-55.964844 56-56 4.417969 0 8 3.582031 8 8s-3.582031 8-8 8c-22.082031.027344-39.972656 17.917969-40 40 0 4.417969-3.582031 8-8 8zm0 0"/>
        <path d="m72 96c-4.417969 0-8-3.582031-8-8 0-13.253906 10.746094-24 24-24 4.417969 0 8 3.582031 8 8s-3.582031 8-8 8-8 3.582031-8 8-3.582031 8-8 8zm0 0"/>
        <path d="m8 96c-4.417969 0-8-3.582031-8-8 .0585938-48.578125 39.421875-87.9414062 88-88 4.417969 0 8 3.582031 8 8s-3.582031 8-8 8c-39.746094.046875-71.953125 32.253906-72 72 0 4.417969-3.582031 8-8 8zm0 0"/>
        <path d="m240 416c26.507812 0 48-21.492188 48-48s-21.492188-48-48-48-48 21.492188-48 48c.027344 26.5 21.5 47.972656 48 48zm0-80c17.671875 0 32 14.328125 32 32s-14.328125 32-32 32-32-14.328125-32-32 14.328125-32 32-32zm0 0"/>
        <path d="m240 184c13.253906 0 24-10.746094 24-24s-10.746094-24-24-24-24 10.746094-24 24 10.746094 24 24 24zm0-32c4.417969 0 8 3.582031 8 8s-3.582031 8-8 8-8-3.582031-8-8 3.582031-8 8-8zm0 0"/>
        <path d="m317.945312 152v.046875h.054688zm0 0"/>
        <path d="m152 152h48v16h-48zm0 0"/>
        <path d="m280 152h48v16h-48zm0 0"/>
        <path d="m240 48c-101.265625-.011719-188.945312 70.332031-210.890625 169.1875-21.945313 98.859375 27.734375 199.691406 119.492187 242.53125 57.925782 27.035156 124.851563 27.035156 182.78125 0 91.757813-42.835938 141.433594-143.664062 119.492188-242.523438-21.941406-98.855468-109.613281-169.199218-210.875-169.195312zm0 16c107.285156.132812 195.398438 84.804688 199.800781 192h-16c-4.582031-98.179688-85.515625-175.421875-183.800781-175.421875s-179.21875 77.242187-183.800781 175.421875h-16c4.402343-107.195312 92.515625-191.867188 199.800781-192zm29.113281 245.496094c30.683594 11.988281 50.882813 41.558594 50.886719 74.503906v27.640625c-49.878906 27.144531-110.121094 27.144531-160 0v-27.640625c.003906-26.429688 13.0625-51.152344 34.886719-66.054688 21.828125-14.90625 49.609375-18.066406 74.226562-8.449218zm66.886719 74.503906c0-53.019531-42.980469-96-96-96s-96 42.980469-96 96v17.734375c-38.863281-26.980469-64.507812-69.132813-70.601562-116.046875-6.097657-46.917969 7.925781-94.222656 38.601562-130.238281v36.550781c.027344 22.082031 17.917969 39.972656 40 40h176c22.082031-.027344 39.972656-17.917969 40-40v-36.550781c30.675781 36.015625 44.699219 83.320312 38.601562 130.238281-6.09375 46.914062-31.738281 89.066406-70.601562 116.046875zm-208-244.863281c63.589844-57.515625 160.410156-57.515625 224 0v52.863281c0 13.253906-10.746094 24-24 24h-176c-13.253906 0-24-10.746094-24-24zm-87.710938 132.863281h16c2.835938 61.039062 35.671876 116.722656 87.710938 148.753906v18.644532c-61.4375-33.851563-100.753906-97.3125-103.710938-167.398438zm119.710938 175.246094v-17.644532c50.503906 24.5625 109.496094 24.5625 160 0v17.671876c-50.996094 22.335937-109.003906 22.335937-160 0zm176-7.847656v-18.644532c52.042969-32.027344 84.886719-87.710937 87.726562-148.753906h16c-2.960937 70.089844-42.285156 133.550781-103.726562 167.398438zm0 0"/>
    </g>
</svg>