<svg xmlns="http://www.w3.org/2000/svg" viewBox="0 0 64 64" width="512" height="512">
    <g fill="currentColor">
        <path d="M59,2H5A3,3,0,0,0,2,5V59a3,3,0,0,0,3,3H59a3,3,0,0,0,3-3V5A3,3,0,0,0,59,2Zm1,57a1,1,0,0,1-1,1H5a1,1,0,0,1-1-1V5A1,1,0,0,1,5,4H59a1,1,0,0,1,1,1Z"/>
        <path d="M32,6A26,26,0,1,0,58,32,26.029,26.029,0,0,0,32,6Zm0,50A24,24,0,1,1,56,32,24.028,24.028,0,0,1,32,56Z"/>
        <path d="M32,10A22,22,0,1,0,54,32,22.025,22.025,0,0,0,32,10Zm10.175,4.813c2.469,9.55-3.613,12.9-6.428,13.911a5,5,0,0,0-1.65-1.247,11.374,11.374,0,0,0,3.311-6.794c.249-2.845-.79-5.706-3.05-8.531A19.824,19.824,0,0,1,42.175,14.813ZM35,32a3,3,0,1,1-3-3A3,3,0,0,1,35,32ZM31.586,12.021c2.767,2.873,4.066,5.722,3.831,8.47a10.1,10.1,0,0,1-3.784,6.53,19.652,19.652,0,0,0-9.585-12.344A19.838,19.838,0,0,1,31.586,12.021ZM20.12,15.948a17.657,17.657,0,0,1,9.592,11.633,4.951,4.951,0,0,0-.957.647,18.886,18.886,0,0,0-14.338-5.752A20.126,20.126,0,0,1,20.12,15.948ZM12,32a19.87,19.87,0,0,1,1.442-7.416A16.385,16.385,0,0,1,25.816,28.26a13.79,13.79,0,0,0-8.064,1.291A12.644,12.644,0,0,0,12.311,35.4,19.913,19.913,0,0,1,12,32Zm1.164,6.66c1.13-3.529,2.982-6,5.52-7.34a12.643,12.643,0,0,1,8.561-.787A4.919,4.919,0,0,0,27,32c0,.109.025.211.032.318-2.008.915-7.961,4.42-8.9,14.063A20.034,20.034,0,0,1,13.164,38.66Zm6.878,9.333c.364-9.279,5.563-12.743,7.531-13.719a5,5,0,0,0,1.065,1.4c-.958,2.609-2.853,9.791,2.108,16.261A19.856,19.856,0,0,1,20.042,47.993ZM33.381,51.93c-5.4-5.733-3.92-12.495-2.988-15.219A4.929,4.929,0,0,0,32,37c.081,0,.156-.02.235-.024.6,3.049,2.829,9.223,11.111,11.475A19.856,19.856,0,0,1,33.381,51.93Zm11.966-5.078c-8.441-1.617-10.623-7.292-11.174-10.37a5.006,5.006,0,0,0,1.084-.719c1.868,1.9,6.215,5.633,11.522,5.633a11.208,11.208,0,0,0,3.085-.455A20.069,20.069,0,0,1,45.347,46.852ZM52,32a19.9,19.9,0,0,1-1.074,6.414c-6.507,3.12-12.462-2.184-14.438-4.251a4.927,4.927,0,0,0,.369-1.025,16.6,16.6,0,0,0,1.789.094,18.328,18.328,0,0,0,12.926-5.339A20,20,0,0,1,52,32Zm-15.088-.868a4.745,4.745,0,0,0-.173-.65c2.926-1.155,9.234-4.766,7.817-14.028a20.057,20.057,0,0,1,6.394,9.2A16.344,16.344,0,0,1,36.912,31.132Z"/>
        <path d="M9,12A3,3,0,1,0,6,9,3,3,0,0,0,9,12ZM9,8A1,1,0,1,1,8,9,1,1,0,0,1,9,8Z"/>
        <path d="M55,6a3,3,0,1,0,3,3A3,3,0,0,0,55,6Zm0,4a1,1,0,1,1,1-1A1,1,0,0,1,55,10Z"/>
        <path d="M12,55a3,3,0,0,0-3-3,2.966,2.966,0,0,0-1,.184V45H6V55a3,3,0,0,0,3,3h6V56H11.816A2.966,2.966,0,0,0,12,55ZM9,56a1,1,0,1,1,1-1A1,1,0,0,1,9,56Z"/>
        <path d="M56,52.184A2.966,2.966,0,0,0,55,52a3,3,0,0,0-3,3,2.966,2.966,0,0,0,.184,1H45v2H55a3,3,0,0,0,3-3V49H56ZM55,56a1,1,0,1,1,1-1A1,1,0,0,1,55,56Z"/>
        <rect x="17" y="56" width="2" height="2"/>
    </g>
</svg>
