<svg version="1.1" xmlns="http://www.w3.org/2000/svg" viewBox="0 0 512 512">
    <g fill="currentColor">
        <path d="M238.933,34.133c-4.71,0-8.533,3.823-8.533,8.533V76.8c0,4.71,3.823,8.533,8.533,8.533s8.533-3.823,8.533-8.533V42.667
			C247.467,37.956,243.644,34.133,238.933,34.133z"/>
        <path d="M477.867,34.133c-4.71,0-8.533,3.823-8.533,8.533V76.8c0,4.71,3.823,8.533,8.533,8.533S486.4,81.51,486.4,76.8V42.667
			C486.4,37.956,482.577,34.133,477.867,34.133z"/>
        <path d="M179.2,0H8.533C3.823,0,0,3.823,0,8.533v494.933C0,508.177,3.823,512,8.533,512H179.2c4.71,0,8.533-3.823,8.533-8.533
			V8.533C187.733,3.823,183.91,0,179.2,0z M170.667,494.933h-153.6V17.067h153.6V494.933z"/>
        <path d="M503.467,358.4H179.2c-4.71,0-8.533,3.823-8.533,8.533v136.533c0,4.71,3.823,8.533,8.533,8.533h324.267
			c4.71,0,8.533-3.823,8.533-8.533V366.933C512,362.223,508.177,358.4,503.467,358.4z M494.933,494.933h-307.2V375.467h307.2
			V494.933z"/>
        <path d="M503.467,0H179.2c-4.71,0-8.533,3.823-8.533,8.533v34.133c0,4.71,3.823,8.533,8.533,8.533h324.267
			c4.71,0,8.533-3.823,8.533-8.533V8.533C512,3.823,508.177,0,503.467,0z M494.933,34.133h-307.2V17.067h307.2V34.133z"/>
        <path d="M136.533,247.467h-25.6c-4.71,0-8.533,3.823-8.533,8.533s3.823,8.533,8.533,8.533h25.6c4.71,0,8.533-3.823,8.533-8.533
			S141.244,247.467,136.533,247.467z"/>
        <path d="M110.933,247.467c-4.71,0-8.533,3.823-8.533,8.533v25.6c0,4.71,3.823,8.533,8.533,8.533s8.533-3.823,8.533-8.533V256
			C119.467,251.29,115.644,247.467,110.933,247.467z"/>
        <path d="M366.933,418.133h-51.2c-4.71,0-8.533,3.823-8.533,8.533s3.823,8.533,8.533,8.533h51.2c4.71,0,8.533-3.823,8.533-8.533
			S371.644,418.133,366.933,418.133z"/>
        <path d="M341.333,418.133c-4.71,0-8.533,3.823-8.533,8.533v17.067c0,4.71,3.823,8.533,8.533,8.533s8.533-3.823,8.533-8.533
			v-17.067C349.867,421.956,346.044,418.133,341.333,418.133z"/>
        <path d="M290.133,34.133c-4.71,0-8.533,3.823-8.533,8.533v51.2c0,4.71,3.823,8.533,8.533,8.533s8.533-3.823,8.533-8.533v-51.2
			C298.667,37.956,294.844,34.133,290.133,34.133z"/>
        <path d="M290.133,119.467c-45.935,0-76.8,17.143-76.8,42.667V179.2c0,4.71,3.823,8.533,8.533,8.533h17.067v76.8
			c0,4.71,3.823,8.533,8.533,8.533H332.8c4.71,0,8.533-3.823,8.533-8.533v-76.8H358.4c4.71,0,8.533-3.823,8.533-8.533v-17.067
			C366.933,136.61,336.068,119.467,290.133,119.467z M349.867,170.667H332.8c-4.71,0-8.533,3.823-8.533,8.533V256H256v-76.8
			c0-4.71-3.823-8.533-8.533-8.533H230.4v-8.533c0-12.407,20.932-25.6,59.733-25.6s59.733,13.193,59.733,25.6V170.667z"/>
        <path d="M349.867,119.467c-11.375,0-22.042,1.075-31.693,3.191c-3.917,0.862-6.707,4.326-6.707,8.337
			c0,4.011,2.79,7.475,6.707,8.337c19.251,4.215,31.693,13.167,31.693,22.801v8.533H332.8c-4.71,0-8.533,3.823-8.533,8.533v85.333
			c0,4.71,3.823,8.533,8.533,8.533h59.733c4.71,0,8.533-3.823,8.533-8.533v-76.8h17.067c4.71,0,8.533-3.823,8.533-8.533v-17.067
			C426.667,136.61,395.802,119.467,349.867,119.467z M409.6,170.667h-17.067c-4.71,0-8.533,3.823-8.533,8.533V256h-42.667v-68.267
			H358.4c4.71,0,8.533-3.823,8.533-8.533v-17.067c0-9.813-4.736-18.577-13.38-25.557c36.437,0.802,56.047,13.542,56.047,25.557
			V170.667z"/>
        <path d="M409.6,119.467c-11.375,0-22.042,1.075-31.693,3.191c-3.917,0.862-6.707,4.326-6.707,8.337
			c0,4.011,2.79,7.475,6.707,8.337c19.251,4.215,31.693,13.167,31.693,22.801v8.533h-17.067c-4.71,0-8.533,3.823-8.533,8.533v85.333
			c0,4.71,3.823,8.533,8.533,8.533h59.733c4.71,0,8.533-3.823,8.533-8.533v-76.8h17.067c4.71,0,8.533-3.823,8.533-8.533v-17.067
			C486.4,136.61,455.535,119.467,409.6,119.467z M469.333,170.667h-17.067c-4.71,0-8.533,3.823-8.533,8.533V256h-42.667v-68.267
			h17.067c4.71,0,8.533-3.823,8.533-8.533v-17.067c0-9.813-4.736-18.577-13.38-25.557c36.437,0.802,56.047,13.542,56.047,25.557
			V170.667z"/>
        <path d="M290.133,85.333c-4.71,0-8.533,3.823-8.533,8.533c0,4.71,3.823,8.533,8.533,8.533c4.702,0,8.533,3.831,8.533,8.533
			c0,4.702-3.831,8.533-8.533,8.533c-4.71,0-8.533,3.823-8.533,8.533s3.823,8.533,8.533,8.533c14.114,0,25.6-11.486,25.6-25.6
			S304.247,85.333,290.133,85.333z"/>
        <path d="M358.4,34.133c-4.71,0-8.533,3.823-8.533,8.533v51.2c0,4.71,3.823,8.533,8.533,8.533s8.533-3.823,8.533-8.533v-51.2
			C366.933,37.956,363.11,34.133,358.4,34.133z"/>
        <path d="M358.4,85.333c-4.71,0-8.533,3.823-8.533,8.533c0,4.71,3.823,8.533,8.533,8.533c4.702,0,8.533,3.831,8.533,8.533
			c0,4.702-3.831,8.533-8.533,8.533c-4.71,0-8.533,3.823-8.533,8.533s3.823,8.533,8.533,8.533c14.114,0,25.6-11.486,25.6-25.6
			S372.514,85.333,358.4,85.333z"/>
        <path d="M426.667,34.133c-4.71,0-8.533,3.823-8.533,8.533v51.2c0,4.71,3.823,8.533,8.533,8.533s8.533-3.823,8.533-8.533v-51.2
			C435.2,37.956,431.377,34.133,426.667,34.133z"/>
        <path d="M426.667,85.333c-4.71,0-8.533,3.823-8.533,8.533c0,4.71,3.823,8.533,8.533,8.533c4.702,0,8.533,3.831,8.533,8.533
			c0,4.702-3.831,8.533-8.533,8.533c-4.71,0-8.533,3.823-8.533,8.533s3.823,8.533,8.533,8.533c14.114,0,25.6-11.486,25.6-25.6
			S440.781,85.333,426.667,85.333z"/>
        <path d="M486.4,324.267H179.2c-4.71,0-8.533,3.823-8.533,8.533v34.133c0,4.71,3.823,8.533,8.533,8.533h307.2
			c4.71,0,8.533-3.823,8.533-8.533V332.8C494.933,328.09,491.11,324.267,486.4,324.267z M477.867,358.4H187.733v-17.067h290.133
			V358.4z"/>
        <path d="M469.333,392.533h-256c-4.71,0-8.533,3.823-8.533,8.533v68.267c0,4.71,3.823,8.533,8.533,8.533h256
			c4.71,0,8.533-3.823,8.533-8.533v-68.267C477.867,396.356,474.044,392.533,469.333,392.533z M460.8,460.8H221.867v-51.2H460.8
			V460.8z"/>
    </g>
</svg>
