<svg height="496pt" viewBox="0 0 496 496" width="496pt" xmlns="http://www.w3.org/2000/svg">
    <g fill="currentColor">
        <path d="m488 0h-400c-4.425781 0-8 3.585938-8 8v296.832031c-2.601562-.527343-5.273438-.832031-8-.832031-22.054688 0-40 17.945312-40 40v.167969c-7.824219 5.886719-13.152344 14.398437-15.121094 23.832031h-8.878906c-4.425781 0-8 3.585938-8 8v32c0 4.414062 3.574219 8 8 8h8v24c0 30.878906 25.128906 56 56 56h416c4.425781 0 8-3.585938 8-8v-480c0-4.414062-3.574219-8-8-8zm-8 16v80h-384v-80zm-435.65625 339.175781c2.839844-1.601562 4.433594-4.761719 4.015625-8l-.128906-.929687c-.101563-.734375-.230469-1.46875-.230469-2.246094 0-13.230469 10.769531-24 24-24 8.449219 0 16.121094 4.40625 20.527344 11.800781 1.199218 2.015625 3.234375 3.40625 5.550781 3.792969 2.328125.398438 4.699219-.265625 6.496094-1.792969 3.121093-2.648437 8.320312-5.800781 15.425781-5.800781 8.558594 0 16.535156 4.726562 20.816406 12.335938 1.664063 2.976562 5.054688 4.558593 8.382813 3.960937 8.351562-1.488281 16.90625 4.246094 18.496093 12.742187.570313 3.039063 2.839844 5.488282 5.839844 6.273438 3.015625.800781 6.167969-.234375 8.167969-2.609375 4.617187-5.527344 11.289063-8.703125 18.296875-8.703125 10.414062 0 19.214844 6.710938 22.527344 16h-188.925782c1.941407-5.296875 5.605469-9.9375 10.742188-12.824219zm107.65625-75.175781c0-74.992188 61.007812-136 136-136s136 61.007812 136 136-61.007812 136-136 136c-11.289062 0-22.328125-1.519531-33.078125-4.214844.628906-1.144531 1.078125-2.394531 1.078125-3.785156v-12.335938c10.367188 2.863282 21.078125 4.335938 32 4.335938 66.167969 0 120-53.832031 120-120s-53.832031-120-120-120-120 53.832031-120 120c0 21.089844 5.480469 41.433594 15.824219 59.503906-1.792969.808594-3.535157 1.726563-5.191407 2.800782-4.058593-6.113282-10.152343-10.632813-17.207031-12.824219-6.167969-15.761719-9.425781-32.359375-9.425781-49.480469zm48.464844 56.046875c-6.367188-9.910156-11-20.703125-13.679688-32.046875h5.214844c7.289062 0 14.152344-2.839844 19.3125-8l4.6875-4.679688c4.28125-4.28125 11.71875-4.28125 16 0l4.6875 4.679688c10.328125 10.3125 28.296875 10.320312 38.625 0l4.6875-4.679688c4.28125-4.28125 11.71875-4.28125 16 0l4.6875 4.679688c10.328125 10.3125 28.296875 10.320312 38.625 0l4.6875-4.679688c4.28125-4.28125 11.71875-4.28125 16 0l4.6875 4.679688c5.167969 5.160156 12.023438 8 19.3125 8h5.097656c-10.882812 45.792969-52.027344 80-101.097656 80-10.976562 0-21.695312-1.792969-32-5.128906v-2.871094c0-4.414062-3.574219-8-8-8h-8.808594c-3.6875-18.089844-19.625-31.726562-38.726562-31.953125zm-16.464844-56.046875c0-57.34375 46.65625-104 104-104s104 46.65625 104 104c0 2.703125-.199219 5.351562-.40625 8h-7.59375c-3.023438 0-5.855469-1.175781-8-3.3125l-4.6875-4.6875c-10.328125-10.3125-28.296875-10.320312-38.625 0l-4.6875 4.679688c-4.28125 4.28125-11.71875 4.28125-16 0l-4.6875-4.679688c-10.328125-10.3125-28.296875-10.320312-38.625 0l-4.6875 4.679688c-4.28125 4.28125-11.71875 4.28125-16 0l-4.6875-4.679688c-10.328125-10.3125-28.296875-10.320312-38.625 0l-4.6875 4.679688c-2.144531 2.144531-4.976562 3.320312-8 3.320312h-7.695312c-.199219-2.648438-.304688-5.320312-.304688-8zm-168 104h224v16h-224zm160 96h-104c-22.054688 0-40-17.945312-40-40v-24h192v24c0 22.054688-17.945312 40-40 40zm47.113281 0c10.40625-10.175781 16.886719-24.335938 16.886719-40v-15.871094c15.425781 5.144532 31.503906 7.871094 48 7.871094 83.816406 0 152-68.183594 152-152s-68.183594-152-152-152-152 68.183594-152 152c0 13.015625 1.800781 25.734375 5.007812 38.113281-6.222656-3.90625-13.464843-6.113281-21.007812-6.113281-6.535156 0-13 1.671875-18.785156 4.816406-1.589844-1.726562-3.375-3.214844-5.214844-4.625v-200.191406h384v368zm0 0"/>
        <path d="m136 80c13.230469 0 24-10.769531 24-24s-10.769531-24-24-24-24 10.769531-24 24 10.769531 24 24 24zm0-32c4.414062 0 8 3.59375 8 8s-3.585938 8-8 8-8-3.59375-8-8 3.585938-8 8-8zm0 0"/>
        <path d="m200 80c13.230469 0 24-10.769531 24-24s-10.769531-24-24-24-24 10.769531-24 24 10.769531 24 24 24zm0-32c4.414062 0 8 3.59375 8 8s-3.585938 8-8 8-8-3.59375-8-8 3.585938-8 8-8zm0 0"/>
        <path d="m264 80c13.230469 0 24-10.769531 24-24s-10.769531-24-24-24-24 10.769531-24 24 10.769531 24 24 24zm0-32c4.414062 0 8 3.59375 8 8s-3.585938 8-8 8-8-3.59375-8-8 3.585938-8 8-8zm0 0"/>
        <path d="m448 64h16v16h-16zm0 0"/>
        <path d="m448 32h16v16h-16zm0 0"/>
        <path d="m416 64h16v16h-16zm0 0"/>
        <path d="m416 32h16v16h-16zm0 0"/>
        <path d="m384 64h16v16h-16zm0 0"/>
        <path d="m384 32h16v16h-16zm0 0"/>
        <path d="m352 64h16v16h-16zm0 0"/>
        <path d="m352 32h16v16h-16zm0 0"/>
    </g>
</svg>