<svg height="512" viewBox="0 0 64 64" width="512" xmlns="http://www.w3.org/2000/svg">
    <g fill="currentColor">
        <path d="m55.758 61-1.569-5.57c4.053-2.204 6.811-6.501 6.811-11.43v-1c1.103 0 2-.897 2-2v-2c0-1.103-.897-2-2-2v-10c1.103 0 2-.897 2-2v-2c0-1.103-.897-2-2-2h-26c-1.103 0-2 .897-2 2v2c0 1.103.897 2 2 2v10c-1.103 0-2 .897-2 2v2c0 1.103.897 2 2 2v1c0 4.929 2.758 9.226 6.811 11.43l-1.569 5.57h-13.343c-.465-2.279-2.484-4-4.899-4h-1v-9.003c4.693-1.963 8-6.6 8-11.997v-7h-18v-4h4v2h2v-2c0-1.103-.897-2-2-2h-6-1-1c-1.103 0-2 .897-2 2v4h-2v7c0 5.397 3.307 10.034 8 11.997v9.003h-1c-2.414 0-4.434 1.721-4.899 4h-5.101v2h64v-2zm-20.759-38h26.001v2h-26zm2.001 8h4v-2h-4v-2h22v10h-22zm-2.001 8h26.001v2h-26zm2.001 5v-1h22v1c0 6.065-4.935 11-11 11s-11-4.935-11-11zm6.661 12.24c1.36.483 2.816.76 4.339.76s2.979-.277 4.339-.76l1.34 4.76h-11.358zm-36.661-31.24h1 1v4h-2zm20 6v2h-22v-2zm-22 5v-1h22v1c0 6.065-4.935 11-11 11s-11-4.935-11-11zm8 12.637c.965.229 1.966.363 3 .363s2.035-.134 3-.363v8.363h-6zm-3 10.363h12c1.302 0 2.402.839 2.816 2h-17.632c.414-1.161 1.514-2 2.816-2z"/>
        <path d="m4 21h24c1.654 0 3-1.346 3-3v-14c0-1.654-1.346-3-3-3h-24c-1.654 0-3 1.346-3 3v14c0 1.654 1.346 3 3 3zm-1-17c0-.551.448-1 1-1h24c.552 0 1 .449 1 1v14c0 .551-.448 1-1 1h-24c-.552 0-1-.449-1-1z"/>
        <path d="m10 2.515h2v16.971h-2z" transform="matrix(.707 -.707 .707 .707 -4.556 11)"/>
        <path d="m20 2.515h2v16.971h-2z" transform="matrix(.707 -.707 .707 .707 -1.627 18.071)"/>
        <path d="m35 9h2v2h-2z"/>
        <path d="m35 13h2v2h-2z"/>
        <path d="m37 11h2v2h-2z"/>
        <path d="m33 11h2v2h-2z"/>
        <path d="m45 3h2v2h-2z"/>
        <path d="m45 7h2v2h-2z"/>
        <path d="m47 5h2v2h-2z"/>
        <path d="m43 5h2v2h-2z"/>
        <path d="m55 13h2v2h-2z"/>
        <path d="m55 17h2v2h-2z"/>
        <path d="m57 15h2v2h-2z"/>
        <path d="m53 15h2v2h-2z"/>
    </g>
</svg>