<svg version="1.1" xmlns="http://www.w3.org/2000/svg" viewBox="0 0 428.607 428.607">
    <g fill="currentColor">
        <path d="M423.773,343.871L423.773,343.871c-6.617-4.599-12.44-10.246-17.241-16.718c-11.494-13.061-26.122-29.257-53.29-29.257
				c-27.167,0-41.273,15.673-53.29,29.78c-12.016,14.106-19.853,22.465-37.616,22.465s-26.645-9.927-37.616-22.465
				c-10.971-12.539-25.6-29.78-53.29-29.78c-27.69,0-41.273,15.673-53.29,29.78c-12.016,14.106-19.853,22.465-37.616,22.465
				s-26.645-9.927-37.616-22.465c-7.458-9.85-16.889-18.035-27.69-24.033c-5.194-2.597-11.509-0.492-14.106,4.702
				c-2.597,5.194-0.492,11.509,4.702,14.106c8.203,4.944,15.457,11.314,21.42,18.808c12.016,14.106,26.122,29.78,53.29,29.78
				s41.273-15.673,53.29-29.78c12.016-14.106,19.853-22.465,37.616-22.465s26.645,9.927,37.616,22.465
				c10.971,12.539,25.6,29.78,53.29,29.78c27.69,0,41.273-15.673,53.29-29.78c12.016-14.106,19.853-22.465,37.616-22.465
				c17.763,0,26.645,9.927,37.616,22.465c6.089,7.818,13.308,14.685,21.42,20.375c4.905,3.174,11.455,1.771,14.629-3.135
				C430.082,353.594,428.679,347.045,423.773,343.871z"/>
        <path d="M423.773,265.503L423.773,265.503c-6.617-4.599-12.44-10.246-17.241-16.718c-11.494-13.061-26.122-29.257-53.29-29.257
				c-27.167,0-41.273,15.673-53.29,29.78c-12.016,14.106-19.853,22.465-37.616,22.465s-26.645-9.927-37.616-22.465
				c-10.971-12.539-25.6-29.78-53.29-29.78c-27.69,0-41.273,15.673-53.29,29.78c-12.016,14.106-19.853,22.465-37.616,22.465
				s-26.645-9.927-37.616-22.465c-7.458-9.85-16.889-18.035-27.69-24.033c-5.194-2.597-11.509-0.492-14.106,4.702
				s-0.492,11.509,4.702,14.106c8.203,4.944,15.457,11.314,21.42,18.808c12.016,14.106,26.122,29.78,53.29,29.78
				s41.273-15.673,53.29-29.78c12.016-14.106,19.853-22.465,37.616-22.465s26.645,9.927,37.616,22.465
				c10.971,12.539,25.6,29.78,53.29,29.78c27.69,0,41.273-15.673,53.29-29.78c12.016-14.106,19.853-22.465,37.616-22.465
				c17.763,0,26.645,9.927,37.616,22.465c6.089,7.818,13.308,14.685,21.42,20.375c4.905,3.174,11.455,1.771,14.629-3.135
				C430.082,275.227,428.679,268.677,423.773,265.503z"/>
        <path d="M423.773,181.911L423.773,181.911c-6.617-4.599-12.44-10.246-17.241-16.718c-11.494-13.061-26.122-29.257-53.29-29.257
				c-27.167,0-41.273,15.673-53.29,29.78s-19.853,22.465-37.616,22.465s-26.645-9.927-37.616-22.465s-25.6-29.78-53.29-29.78
				c-27.69,0-41.273,15.673-53.29,29.78c-12.016,14.106-19.853,22.465-37.616,22.465s-26.645-9.927-37.616-22.465
				c-7.458-9.85-16.889-18.035-27.69-24.033c-5.194-2.597-11.509-0.492-14.106,4.702c-2.597,5.194-0.492,11.509,4.702,14.106
				c8.203,4.944,15.457,11.314,21.42,18.808c12.016,14.106,26.122,29.78,53.29,29.78s41.273-15.673,53.29-29.78
				c12.016-14.106,19.853-22.465,37.616-22.465s26.645,9.927,37.616,22.465s25.6,29.78,53.29,29.78
				c27.69,0,41.273-15.673,53.29-29.78s19.853-22.465,37.616-22.465c17.763,0,26.645,9.927,37.616,22.465
				c6.089,7.818,13.308,14.685,21.42,20.375c4.905,3.174,11.455,1.771,14.629-3.135
				C430.082,191.635,428.679,185.085,423.773,181.911z"/>
        <path d="M5.814,82.124c8.203,4.944,15.457,11.314,21.42,18.808c12.016,14.106,26.122,29.78,53.29,29.78
				s41.273-15.673,53.29-29.78c12.016-14.106,19.853-22.465,37.616-22.465s26.645,9.927,37.616,22.465
				c10.971,12.539,25.6,29.78,53.29,29.78c27.69,0,41.273-15.673,53.29-29.78c12.016-14.106,19.853-22.465,37.616-22.465
				c17.763,0,26.645,9.927,37.616,22.465c6.089,7.818,13.308,14.685,21.42,20.376c4.905,3.174,11.455,1.77,14.629-3.135
				c3.174-4.905,1.771-11.455-3.135-14.629h0c-6.617-4.599-12.44-10.246-17.241-16.718c-11.494-13.061-26.122-29.257-53.29-29.257
				c-27.167,0-41.273,15.673-53.29,29.78c-12.016,14.106-19.853,22.465-37.616,22.465s-26.645-9.927-37.616-22.465
				c-10.971-12.539-25.6-29.78-53.29-29.78c-27.69,0-41.273,15.673-53.29,29.78c-12.016,14.106-19.853,22.465-37.616,22.465
				S53.88,99.887,42.908,87.348c-7.458-9.85-16.889-18.035-27.69-24.033c-5.194-2.597-11.509-0.492-14.106,4.702
				S0.621,79.527,5.814,82.124z"/>
    </g>
</svg>
