<svg height="512" viewBox="0 0 512 512" width="512" xmlns="http://www.w3.org/2000/svg">
    <g fill="currentColor">
        <path d="m268.99 187.499c-5.751-9.959-20.196-10.016-25.979 0-21.81 40.611-32.011 48.061-32.011 67.501 0 24.813 20.187 45 45 45s45-20.187 45-45c0-19.458-10.486-27.421-32.01-67.501zm-12.99 82.501c-8.271 0-15-6.729-15-15 0-6.687 3.042-8.215 15-30.005 11.974 21.818 15 23.318 15 30.005 0 8.271-6.729 15-15 15z"/>
        <path d="m406 0h-300c-8.769 0-15.676 7.502-14.948 16.246l30 360c.648 7.774 7.147 13.754 14.948 13.754h75v32h-15c-13.318 0-20.048 16.165-10.606 25.606l60 60c5.857 5.858 15.355 5.859 21.213 0l60-60c9.417-9.417 2.745-25.606-10.607-25.606h-15v-32h75c7.801 0 14.3-5.98 14.948-13.754l30-360c.728-8.739-6.174-16.246-14.948-16.246zm-16.302 30-5.346 64.147c-21.768 8.343-35.871 25.853-53.352 25.853-22.717 0-40.423-30-75-30-34.727 0-52.176 30-75 30-17.485 0-31.556-17.499-53.352-25.853l-5.346-64.147zm-27.5 330h-76.198c-8.284 0-15 6.716-15 15v62c0 6.432 4.048 11.919 9.736 14.05l-24.736 24.737-24.736-24.736c5.688-2.131 9.736-7.618 9.736-14.05v-62c0-8.284-6.716-15-15-15h-76.198l-19.208-230.502c14.315 9.153 29.076 20.501 50.406 20.501 34.727 0 52.176-30 75-30 22.717 0 40.423 30 75 30 21.019 0 35.449-10.937 50.406-20.502z"/>
    </g>
</svg>