<svg xmlns="http://www.w3.org/2000/svg" viewBox="0 0 512 512">
    <g fill="currentColor">
        <path d="M67,185.325v281a35.541,35.541,0,0,0,35.469,35.631L319.06,502h.006A35.891,35.891,0,0,0,355,466.369V464h60.62c34.837,0,63.38-27.87,63.38-62.715V189.73c0-34.844-28.543-62.73-63.38-62.73H355v-9.689c0-.074-.16-.146-.162-.219s-.065-.114-.065-.187A62.044,62.044,0,0,0,292.763,55H219V44h17.828C245.65,44,253,37.2,253,28.374V26a16.167,16.167,0,0,0-16.172-16H189.706A15.77,15.77,0,0,0,174,26v2.374A15.454,15.454,0,0,0,189.706,44H207V55H133.771C101.5,55,74.924,80,72.1,111H39.2a6.056,6.056,0,0,0-5.2,8.929ZM355,161h60.62A28.581,28.581,0,0,1,444,189.73V401.285A28.568,28.568,0,0,1,415.62,430H355Zm0,281h60.62A40.581,40.581,0,0,0,456,401.285V189.73A40.594,40.594,0,0,0,415.62,149H355V139h60.62c28.221,0,51.38,22.5,51.38,50.73V401.285C467,429.513,443.841,452,415.62,452H355Zm-12,24.369A23.891,23.891,0,0,1,319.066,490h0l-216.591-.041A23.527,23.527,0,0,1,79,466.328V452.57l264,.049ZM190,32a4,4,0,0,1-4-4V26a4,4,0,0,1,4-4h47a4,4,0,0,1,4,4v2a4,4,0,0,1-4,4ZM133.771,67H292.763a49.829,49.829,0,0,1,49.576,44H84.2A49.83,49.83,0,0,1,133.771,67ZM343,123V440.619L79,440.57V183.9a6.853,6.853,0,0,0-.8-2.851L48.934,123Z"/>
        <path d="M203,388.443A35.017,35.017,0,0,0,238,353.6V236.844a35,35,0,0,0-70,0V353.6A35.017,35.017,0,0,0,203,388.443Zm-23-151.6a23,23,0,0,1,46,0V289H180ZM180,301h46v52.6a23,23,0,0,1-46,0Z"/>
        <path d="M99,314.913a6,6,0,0,0,6-6V233.106a6,6,0,0,0-12,0v75.807A6,6,0,0,0,99,314.913Z"/>
        <path d="M99,218.726a6,6,0,0,0,6-6v-4.834a6,6,0,0,0-12,0v4.834A6,6,0,0,0,99,218.726Z"/>
    </g>
</svg>
