<svg version="1.1" xmlns="http://www.w3.org/2000/svg" viewBox="0 0 508 508">
    <g fill="currentColor">
        <rect x="139.3" width="16.4" height="38.2"/>
        <polygon points="104.1,21.4 88.9,27.7 98,49.8 113.2,43.5 		"/>
        <polygon points="27.5,89.4 21.3,104.6 43.3,113.7 49.5,98.5 		"/>
        <polygon points="190.9,21.4 181.8,43.5 196.9,49.8 206,27.7 		"/>
        <polygon points="43.3,182.7 21.3,191.8 27.5,207 49.5,197.9 		"/>
        <polygon points="267.4,89.4 245.4,98.5 251.7,113.7 273.7,104.6 		"/>
        <polygon points="246,37.6 219.1,64.6 230.7,76.3 257.6,49.2 		"/>
        <polygon points="64.3,220.1 37.4,247.1 49,258.8 75.9,231.7 		"/>
        <polygon points="14.3,140 0,140 0,156.4 14.3,156.4 38.1,156.4 38.1,140 		"/>
        <polygon points="59.1,47.7 49,37.6 37.4,49.2 64.3,76.3 75.9,64.6 		"/>
        <path d="M319.5,172.9v16.5c49.7,0,90.1,40.6,90.1,90.6H426C426.1,220.9,378.3,172.9,319.5,172.9z"/>
        <path d="M466.1,295.5c0.6-5.6,0.9-10.6,0.9-15.6c0-81.7-66.2-148.2-147.5-148.2c-28.4,0-55.5,8.2-78.7,23c0.2-2.2,0.5-4.3,0.5-6.5
			c0-52-42.1-94.3-93.8-94.3s-93.8,42.3-93.8,94.3c0,30.6,14.9,59.1,39.5,76.7c-15.4,17.2-25.5,39.3-27.3,63.7
			c-37,4-65.8,35.5-65.8,73.7c0,40.9,33.1,74.1,73.7,74.1h360.5c40.7,0,73.7-33.2,73.7-74.1C508,333.7,491.4,307.7,466.1,295.5z
			 M70,148.2c0-42.9,34.7-77.8,77.4-77.8c42.7,0,77.4,34.9,77.4,77.8c0,6.9-0.9,13.9-2.7,20.6c-8.3,7.4-15.7,15.5-22.1,24.4
			c-33.1-9.1-68.7-1.3-94.9,20.1C83.3,199,70,174.5,70,148.2z M434.3,419.9H73.7c-31.6,0-57.4-25.9-57.4-57.6
			c0-31.8,25.7-57.6,57.4-57.6h8.2v-8.2c0-49.9,40.4-90.6,90.1-90.6c14.4,0,34.7,6.8,34.7,6.8s38.7-64.4,112.8-64.4
			c72.3,0,131.1,59.1,131.1,131.7c0,13.9-2.6,26.1-2.6,26.1l6.2,2.3c22.3,8.4,37.3,30.1,37.3,53.9
			C491.6,394,465.9,419.9,434.3,419.9z"/>
        <polygon points="88.4,455.2 47.5,496.4 59.1,508 100,466.8 		"/>
        <polygon points="178.6,455.2 137.6,496.4 149.2,508 190.1,466.8 		"/>
        <polygon points="268.7,455.2 227.7,496.4 239.3,508 280.3,466.8 		"/>
        <polygon points="358.8,455.2 317.9,496.4 329.4,508 370.4,466.8 		"/>
        <polygon points="448.9,455.2 408,496.4 419.6,508 460.5,466.8 		"/>
    </g>
</svg>
