<svg height="512" viewBox="0 0 64 64" width="512" xmlns="http://www.w3.org/2000/svg">
    <g fill="currentColor">
        <path d="m61 55h-5v-44a3.009 3.009 0 0 0 3-3v-5a1 1 0 0 0 -1-1h-52a1 1 0 0 0 -1 1v5a3.009 3.009 0 0 0 3 3v44h-5a1 1 0 0 0 -1 1v5a1 1 0 0 0 1 1h58a1 1 0 0 0 1-1v-5a1 1 0 0 0 -1-1zm-54-47v-4h50v4a1 1 0 0 1 -1 1h-48a1 1 0 0 1 -1-1zm47 3v44h-44v-44zm6 49h-56v-3h56z"/>
        <path d="m52 12h-40a1 1 0 0 0 -1 1v40a1 1 0 0 0 1 1h40a1 1 0 0 0 1-1v-40a1 1 0 0 0 -1-1zm-21 40h-18v-19h18zm0-21h-18v-17h18zm20 21h-18v-19h18zm0-21h-18v-17h18z"/>
        <path d="m15.172 18h5.657v2h-5.657z" transform="matrix(.707 -.707 .707 .707 -8.163 18.293)"/>
        <path d="m14.136 20.5h12.728v2h-12.728z" transform="matrix(.707 -.707 .707 .707 -9.198 20.793)"/>
    </g>
</svg>