<svg viewBox="0 0 300 300" xmlns="http://www.w3.org/2000/svg">
    <g fill="currentColor">
        <path d="m194.836 58h-119.328c-24.445 0-44.336 19.889-44.336 44.336v119.328c0 24.447 19.891 44.336 44.336 44.336h119.328c24.445 0 44.336-19.889 44.336-44.336v-119.328c0-24.447-19.891-44.336-44.336-44.336zm36.336 163.664c0 20.035-16.301 36.336-36.336 36.336h-119.328c-20.035 0-36.336-16.301-36.336-36.336v-119.328c0-20.035 16.301-36.336 36.336-36.336h119.328c20.035 0 36.336 16.301 36.336 36.336z"/>
        <path d="m135.172 74c-49.625 0-90 40.373-90 90s40.375 90 90 90 90-40.373 90-90-40.375-90-90-90zm0 172c-45.215 0-82-36.785-82-82s36.785-82 82-82 82 36.785 82 82-36.785 82-82 82z"/>
        <path d="m135.172 90c-40.805 0-74 33.195-74 74s33.195 74 74 74 74-33.195 74-74-33.195-74-74-74zm0 140c-36.391 0-66-29.607-66-66s29.609-66 66-66 66 29.607 66 66-29.61 66-66 66z"/>
        <path d="m79.172 138v32c0 2.209 1.789 4 4 4h104c2.211 0 4-1.791 4-4v-32c0-2.209-1.789-4-4-4h-104c-2.211 0-4 1.791-4 4zm8 4h96v24h-96z"/>
        <path d="m117.172 128.53c2.501 0 4.53-2.028 4.53-4.53s-2.028-4.53-4.53-4.53-4.53 2.028-4.53 4.53c0 2.501 2.028 4.53 4.53 4.53z"/>
        <path d="m129.172 128.53c2.501 0 4.53-2.028 4.53-4.53s-2.028-4.53-4.53-4.53-4.53 2.028-4.53 4.53c0 2.501 2.028 4.53 4.53 4.53z"/>
        <path d="m145.172 151.47c-2.502 0-4.53 2.028-4.53 4.53 0 2.501 2.028 4.53 4.53 4.53 2.501 0 4.53-2.028 4.53-4.53-.001-2.502-2.029-4.53-4.53-4.53z"/>
        <path d="m141.172 128.53c2.501 0 4.53-2.028 4.53-4.53s-2.028-4.53-4.53-4.53-4.53 2.028-4.53 4.53c0 2.501 2.028 4.53 4.53 4.53z"/>
        <path d="m153.172 128.53c2.501 0 4.53-2.028 4.53-4.53s-2.028-4.53-4.53-4.53-4.53 2.028-4.53 4.53c0 2.501 2.028 4.53 4.53 4.53z"/>
        <circle cx="199.172" cy="38" r="4"/>
        <path d="m239.172 46c-6.617 0-12 5.383-12 12s5.383 12 12 12 12-5.383 12-12-5.383-12-12-12zm0 16c-2.207 0-4-1.795-4-4s1.793-4 4-4 4 1.795 4 4-1.793 4-4 4z"/>
        <path d="m264.828 110 2.828-2.828c1.562-1.562 1.562-4.094 0-5.656s-4.094-1.562-5.656 0l-2.828 2.828-2.828-2.828c-1.562-1.562-4.094-1.562-5.656 0s-1.562 4.094 0 5.656l2.828 2.828-2.828 2.828c-1.562 1.562-1.562 4.094 0 5.656.781.781 1.805 1.172 2.828 1.172s2.047-.391 2.828-1.172l2.828-2.828 2.828 2.828c.781.781 1.805 1.172 2.828 1.172s2.047-.391 2.828-1.172c1.562-1.562 1.562-4.094 0-5.656z"/>
        <path d="m139.172 194h-4.934l5.859-9.768c1.137-1.895.523-4.352-1.371-5.488-1.898-1.137-4.352-.521-5.488 1.371l-9.496 15.826c-.742 1.236-.762 2.775-.051 4.029s2.039 2.029 3.48 2.029h5.527l-5.105 10.211c-.988 1.977-.188 4.379 1.789 5.367.574.287 1.184.422 1.785.422 1.469 0 2.879-.809 3.582-2.211l8-16c.621-1.24.555-2.713-.176-3.893-.729-1.176-2.014-1.895-3.401-1.895z"/>
        <path d="m95.172 146c-2.211 0-4 1.791-4 4v8c0 2.209 1.789 4 4 4s4-1.791 4-4v-8c0-2.209-1.789-4-4-4z"/>
        <path d="m107.172 146c-2.211 0-4 1.791-4 4v8c0 2.209 1.789 4 4 4s4-1.791 4-4v-8c0-2.209-1.789-4-4-4z"/>
        <path d="m119.172 146c-2.211 0-4 1.791-4 4v8c0 2.209 1.789 4 4 4s4-1.791 4-4v-8c0-2.209-1.789-4-4-4z"/>
        <path d="m131.172 146c-2.211 0-4 1.791-4 4v8c0 2.209 1.789 4 4 4s4-1.791 4-4v-8c0-2.209-1.789-4-4-4z"/>
        <path d="m163.172 146c-2.211 0-4 1.791-4 4v8c0 2.209 1.789 4 4 4s4-1.791 4-4v-8c0-2.209-1.789-4-4-4z"/>
        <path d="m175.172 146c-2.211 0-4 1.791-4 4v8c0 2.209 1.789 4 4 4s4-1.791 4-4v-8c0-2.209-1.789-4-4-4z"/>
    </g>
</svg>