<?xml version="1.0" encoding="utf-8"?>
<svg fill="none" viewBox="0 0 124 141.53199999999998" xmlns="http://www.w3.org/2000/svg" xmlns:bx="https://boxy-svg.com">
  <defs>
    <bx:grid x="0" y="0" width="120" height="150"/>
  </defs>
  <path d="M 10 118.2 L 0 0 L 120 0 L 109.993 118.199 L 60 131.203 L 10 118.2 L 10 118.2 Z" fill="#164477" style=""/>
  <path d="M 55 23.506 L 23.672 23.487 L 24.633 37.159 L 41.8 37.9 L 41.763 87.582 L 30.056 86.001 L 29.782 74.716 L 16.894 73.538 L 18.402 96.17 L 55 103.491 L 55 23.506 Z" style="fill: rgb(51, 153, 204);"/>
  <path d="M 65 23.487 L 102.361 23.506 L 101.2 37.9 L 78.206 39.131 L 78.231 52.771 L 99.479 51.135 L 96 96.2 L 65 103.486 L 65 88.393 L 83.127 85.102 L 84.2 66.6 L 65 68.499" style="fill: rgb(51, 153, 204);"/>
</svg>