<svg xmlns="http://www.w3.org/2000/svg" width="512" height="512">
    <radialGradient id="myGradient">
        <stop offset="10%" stop-color="#1C2D5F" />
        <stop offset="95%" stop-color="#0B1D53" />
    </radialGradient>
    <path fill="url('#myGradient')" d="M-.1-.1h512v512H-.1V-.1z"/>
    <path fill="#f8f8fa"
          d="M482.5 231.5v6h-25c-.972-8.17-5.639-12.17-14-12-9.531.029-13.365 4.695-11.5 14l4.5 4.5 33 8c19.388 9.634 23.388 23.801 12 42.5a35.06 35.06 0 0 0-8 6c-13.925 4.761-28.258 6.261-43 4.5-10.601-1.024-18.935-5.857-25-14.5-1.077-2.229-1.744-4.563-2-7v-8h25c1.495 4.279 3.828 8.113 7 11.5 7.478 2.258 14.811 1.925 22-1 2.894-2.909 3.727-6.409 2.5-10.5a36.8 36.8 0 0 0-12.5-5.5 539.79 539.79 0 0 1-28-8c-12.874-6.562-17.707-17.062-14.5-31.5 3.57-10.569 10.737-17.403 21.5-20.5 16.148-4.539 31.482-2.706 46 5.5 2 2.667 4.333 5 7 7 1.871 2.734 2.871 5.734 3 9z"/>
    <path fill="#a4abbf" d="M153.5 209.5c.06-.543.393-.876 1-1a1024.63 1024.63 0 0 1 1 64l-2-63z"/>
    <path fill="#fafbfc"
          d="M153.5 209.5l2 63c1.278 11.444 7.611 16.277 19 14.5 8.704-1.378 13.204-6.544 13.5-15.5.5-20.664.667-41.331.5-62 9.743-.219 19.409-.219 29 0 .401 23.362-.099 46.696-1.5 70-4.298 14.968-14.131 23.468-29.5 25.5a225.14 225.14 0 0 1-30 0c-15.822-2.155-25.655-10.988-29.5-26.5l-.5-69h27z"/>
    <path fill="#fefefe"
          d="M233.5 209.5h27c-.331 25.172.002 50.172 1 75 0 .667.333 1 1 1 13.156.996 26.49 1.329 40 1v17h-69v-94z"/>
    <path fill="#a5acbf" d="M233.5 209.5c9.152-.994 18.485-1.327 28-1v76c-.998-24.828-1.331-49.828-1-75h-27z"/>
    <path fill="#a7aec1" d="M316.5 209.5h73c.323 6.19-.01 12.19-1 18v-17c-24.172.331-48.172-.002-72-1z"/>
    <path fill="#a5acc0" d="M85.5 210.5h-59v93h27c-.328-11.179.005-22.179 1-33v34h-29v-95a900.98 900.98 0 0 1 60 1z"/>
    <path fill="#fcfcfc"
          d="M85.5 210.5c22.223 3.758 29.556 16.425 22 38-4.228 5.397-9.228 9.897-15 13.5-1.305.804-1.971 1.971-2 3.5l23 36c-4.451 1.327-9.284 1.994-14.5 2a128.19 128.19 0 0 1-15.5-1c-6.955-10.326-13.455-20.992-19.5-32-3.269-1.318-6.435-1.318-9.5 0-.995 10.821-1.328 21.821-1 33h-27v-93h59z"/>
    <path fill="#fefefe"
          d="M316.5 209.5c23.828.998 47.828 1.331 72 1v17c-14.67-.167-29.337 0-44 .5-1.326 6.599-1.326 13.099 0 19.5 14.49.996 29.157 1.329 44 1v16c-14.843-.329-29.51.004-44 1a50.51 50.51 0 0 0 0 20c14.49.996 29.157 1.329 44 1v17h-73c-.332-31.504.002-62.838 1-94z"/>
    <path fill="#18275b"
          d="M55.5 229.5c7.089-.384 14.089.116 21 1.5 3.401 1.32 4.735 3.82 4 7.5l-.5 5c-1.771.804-3.271 1.971-4.5 3.5-6.592 1.329-13.259 1.829-20 1.5v-19z"/>
    <path fill="#a5acc0" d="M482.5 231.5c.968 2.107 1.302 4.441 1 7-8.849.326-17.516-.007-26-1h25v-6z"/>
    <path fill="#a6adc0" d="M344.5 247.5h45v18h-45c14.49-.996 29.157-1.329 44-1v-16c-14.843.329-29.51-.004-44-1z"/>
    <path fill="#a2a9be" d="M428.5 275.5h-25v8c-.977-2.787-1.31-5.787-1-9 8.849-.326 17.516.007 26 1z"/>
    <path fill="#a5acbf"
          d="M113.5 301.5c.978.311 1.645.978 2 2l-16 1c-5.711-.005-11.044-.672-16-2a128.19 128.19 0 0 0 15.5 1c5.216-.006 10.049-.673 14.5-2z"/>
    <path fill="#a5acc0" d="M233.5 209.5v94h69v-17c-13.51.329-26.844-.004-40-1h41v19h-71a2256.41 2256.41 0 0 1 1-95z"/>
    <path fill="#a6acc0"
          d="M316.5 209.5c-.998 31.162-1.332 62.496-1 94h73v-17c-14.843.329-29.51-.004-44-1h45v19h-75a2304.95 2304.95 0 0 1 1-96c.607.124.94.457 1 1z"/>
</svg>